<svg width="24" height="24" viewBox="0 0 24 24" fill="none" xmlns="http://www.w3.org/2000/svg">
<path d="M19.9744 5.59004L19.9744 1.50269" stroke="#101010" stroke-width="1.5" stroke-miterlimit="10" stroke-linecap="round" stroke-linejoin="round"/>
<path d="M22.771 3.86905L19.9744 6.37883L17.1778 3.86905" stroke="#101010" stroke-width="1.5" stroke-miterlimit="10" stroke-linecap="round" stroke-linejoin="round"/>
<path fill-rule="evenodd" clip-rule="evenodd" d="M15.4302 3.94019C15.4483 4.39548 15.6419 4.84379 16.0083 5.17261L18.8052 7.68237L18.9175 7.77515C19.2196 8.00427 19.5786 8.11969 19.939 8.12671V16.1462C19.939 18.3552 18.1479 20.146 15.939 20.1462H7.8042C5.59506 20.1462 3.8042 18.3554 3.8042 16.1462V7.94019C3.80446 5.73127 5.59522 3.94019 7.8042 3.94019H15.4302Z" fill="white"/>
<path d="M19.9385 9.46226V16.4179C19.9385 18.4258 18.2892 20.1467 16.2097 20.1467H7.53301C5.52519 20.1467 3.8042 18.4975 3.8042 16.4179V7.66956C3.8042 5.66174 5.45348 3.94075 7.53301 3.94075H13.8433" stroke="#101010" stroke-width="1.5" stroke-miterlimit="10" stroke-linecap="round" stroke-linejoin="round"/>
<path d="M9.70227 9.04924C9.54594 9.04924 9.42869 9.00746 9.35052 8.92389C9.28017 8.84032 9.245 8.74535 9.245 8.63899C9.245 8.53263 9.28017 8.44146 9.35052 8.36548C9.42869 8.28191 9.54594 8.24013 9.70227 8.24013H14.0405C14.1968 8.24013 14.3102 8.28191 14.3805 8.36548C14.4587 8.44905 14.4978 8.54402 14.4978 8.65038C14.4978 8.75675 14.4587 8.85171 14.3805 8.93528C14.3102 9.01126 14.1968 9.04924 14.0405 9.04924H13.4074C13.1338 9.04924 12.9032 9.04545 12.7156 9.03785C12.528 9.03025 12.4146 9.02265 12.3756 9.01506V9.06064C12.5397 9.12902 12.7 9.24298 12.8563 9.40252C13.0126 9.56206 13.1299 9.76339 13.208 10.0065H14.0405C14.1968 10.0065 14.3102 10.0483 14.3805 10.1319C14.4587 10.2154 14.4978 10.3104 14.4978 10.4168C14.4978 10.5231 14.4587 10.6181 14.3805 10.7017C14.3102 10.7776 14.1968 10.8156 14.0405 10.8156H13.2667C13.2276 11.1651 13.1299 11.4652 12.9735 11.7159C12.8172 11.959 12.6257 12.1604 12.399 12.3199C12.1801 12.4794 11.9339 12.601 11.6603 12.6846C11.3946 12.7681 11.1327 12.8213 10.8748 12.8441L13.5246 15.3171C13.6497 15.4386 13.7122 15.5754 13.7122 15.7273C13.7122 15.8717 13.6653 15.9932 13.5715 16.092C13.4777 16.1907 13.3487 16.2401 13.1846 16.2401C13.0986 16.2401 13.0126 16.2287 12.9266 16.2059C12.8485 16.1755 12.7664 16.1186 12.6804 16.035L9.56157 13.072C9.47559 12.9961 9.41305 12.9201 9.37397 12.8441C9.33489 12.7605 9.31535 12.677 9.31535 12.5934C9.31535 12.4491 9.36224 12.3313 9.45604 12.2401C9.54984 12.1414 9.671 12.092 9.81952 12.092H9.97194C10.2143 12.092 10.4527 12.073 10.6872 12.035C10.9295 11.9894 11.1444 11.9172 11.332 11.8185C11.5275 11.7121 11.6916 11.5792 11.8245 11.4196C11.9574 11.2601 12.0434 11.0587 12.0824 10.8156H9.70227C9.54594 10.8156 9.42869 10.7738 9.35052 10.6903C9.28017 10.6067 9.245 10.5117 9.245 10.4054C9.245 10.299 9.28017 10.2078 9.35052 10.1319C9.42869 10.0483 9.54594 10.0065 9.70227 10.0065H12.0238C11.8206 9.36833 11.2226 9.04924 10.2299 9.04924H9.70227Z" fill="#101010"/>
</svg>
