<svg width="24" height="24" viewBox="0 0 24 24" fill="none" xmlns="http://www.w3.org/2000/svg">
<path d="M10.8195 9.62882C12.9262 9.62882 14.6339 7.92105 14.6339 5.81441C14.6339 3.70777 12.9262 2 10.8195 2C8.7129 2 7.00513 3.70777 7.00513 5.81441C7.00513 7.92105 8.7129 9.62882 10.8195 9.62882Z" fill="white" stroke="#101010" stroke-width="1.5" stroke-miterlimit="10" stroke-linecap="round" stroke-linejoin="round"/>
<path d="M17.018 20.5H4.62112C3.76288 20.5 3 19.7371 3 18.7835V17.8299C3 14.5877 5.57473 11.9176 8.72161 11.9176H13.0128C16.1597 11.9176 18.7344 14.5877 18.7344 17.8299V18.7835C18.6391 19.7371 17.9716 20.5 17.018 20.5Z" fill="white" stroke="#101010" stroke-width="1.5" stroke-miterlimit="10" stroke-linecap="round" stroke-linejoin="round"/>
<mask id="path-3-outside-1_482_315" maskUnits="userSpaceOnUse" x="13.7623" y="13.0729" width="8" height="10" fill="black">
<rect fill="white" x="13.7623" y="13.0729" width="8" height="10"/>
<path d="M17.7203 14.0729C18.92 14.0732 19.8932 15.046 19.8932 16.2457V16.8346C20.3415 16.9334 20.6773 17.3332 20.6774 17.8112V20.8658C20.6772 21.4178 20.2294 21.8656 19.6774 21.8658H15.7623C15.2102 21.8658 14.7625 21.4179 14.7623 20.8658V17.8112C14.7624 17.3327 15.0985 16.9329 15.5475 16.8346V16.2457C15.5475 15.0458 16.5204 14.0729 17.7203 14.0729ZM17.7203 15.0729C17.0727 15.0729 16.5475 15.5981 16.5475 16.2457V16.8112H18.8932V16.2457C18.8932 15.5983 18.3677 15.0732 17.7203 15.0729Z"/>
</mask>
<path d="M17.7203 14.0729C18.92 14.0732 19.8932 15.046 19.8932 16.2457V16.8346C20.3415 16.9334 20.6773 17.3332 20.6774 17.8112V20.8658C20.6772 21.4178 20.2294 21.8656 19.6774 21.8658H15.7623C15.2102 21.8658 14.7625 21.4179 14.7623 20.8658V17.8112C14.7624 17.3327 15.0985 16.9329 15.5475 16.8346V16.2457C15.5475 15.0458 16.5204 14.0729 17.7203 14.0729ZM17.7203 15.0729C17.0727 15.0729 16.5475 15.5981 16.5475 16.2457V16.8112H18.8932V16.2457C18.8932 15.5983 18.3677 15.0732 17.7203 15.0729Z" fill="#101010"/>
<path d="M17.7203 14.0729L17.7206 13.0729H17.7203V14.0729ZM19.8932 16.8346H18.8932V17.6383L19.678 17.8112L19.8932 16.8346ZM20.6774 17.8112H21.6774V17.8109L20.6774 17.8112ZM20.6774 20.8658L21.6774 20.8662V20.8658H20.6774ZM19.6774 21.8658V22.8658H19.6777L19.6774 21.8658ZM15.7623 21.8658L15.7623 22.8658H15.7623V21.8658ZM14.7623 20.8658H13.7623L13.7623 20.8662L14.7623 20.8658ZM14.7623 17.8112L13.7623 17.8109V17.8112H14.7623ZM15.5475 16.8346L15.7614 17.8115L16.5475 17.6393V16.8346H15.5475ZM17.7203 15.0729L17.7209 14.0729H17.7203V15.0729ZM16.5475 16.8112H15.5475V17.8112H16.5475V16.8112ZM18.8932 16.8112V17.8112H19.8932V16.8112H18.8932ZM17.7203 14.0729L17.72 15.0729C18.3679 15.0731 18.8932 15.5986 18.8932 16.2457H19.8932H20.8932C20.8932 14.4934 19.472 13.0734 17.7206 13.0729L17.7203 14.0729ZM19.8932 16.2457H18.8932V16.8346H19.8932H20.8932V16.2457H19.8932ZM19.8932 16.8346L19.678 17.8112L19.6774 17.8114L20.6774 17.8112L21.6774 17.8109C21.6771 16.8536 21.005 16.0556 20.1083 15.858L19.8932 16.8346ZM20.6774 17.8112H19.6774V20.8658H20.6774H21.6774V17.8112H20.6774ZM20.6774 20.8658L19.6774 20.8655L19.677 20.8658L19.6774 21.8658L19.6777 22.8658C20.7817 22.8655 21.6769 21.9702 21.6774 20.8662L20.6774 20.8658ZM19.6774 21.8658V20.8658H15.7623V21.8658V22.8658H19.6774V21.8658ZM15.7623 21.8658L15.7623 20.8658L15.7623 20.8655L14.7623 20.8658L13.7623 20.8662C13.7628 21.9699 14.6575 22.8658 15.7623 22.8658L15.7623 21.8658ZM14.7623 20.8658H15.7623V17.8112H14.7623H13.7623V20.8658H14.7623ZM14.7623 17.8112L15.7623 17.8114L15.7614 17.8115L15.5475 16.8346L15.3336 15.8577C14.4356 16.0544 13.7626 16.8528 13.7623 17.8109L14.7623 17.8112ZM15.5475 16.8346H16.5475V16.2457H15.5475H14.5475V16.8346H15.5475ZM15.5475 16.2457H16.5475C16.5475 15.5981 17.0727 15.0729 17.7203 15.0729V14.0729V13.0729C15.9681 13.0729 14.5475 14.4935 14.5475 16.2457H15.5475ZM17.7203 15.0729V14.0729C16.5204 14.0729 15.5475 15.0458 15.5475 16.2457H16.5475H17.5475C17.5475 16.1504 17.625 16.0729 17.7203 16.0729V15.0729ZM16.5475 16.2457H15.5475V16.8112H16.5475H17.5475V16.2457H16.5475ZM16.5475 16.8112V17.8112H18.8932V16.8112V15.8112H16.5475V16.8112ZM18.8932 16.8112H19.8932V16.2457H18.8932H17.8932V16.8112H18.8932ZM18.8932 16.2457H19.8932C19.8932 15.0455 18.9195 14.0735 17.7209 14.0729L17.7203 15.0729L17.7198 16.0729C17.8158 16.0729 17.8932 16.1511 17.8932 16.2457H18.8932Z" fill="white" mask="url(#path-3-outside-1_482_315)"/>
</svg>
