<svg width="24" height="24" viewBox="0 0 24 24" fill="none" xmlns="http://www.w3.org/2000/svg">
<rect width="13.3792" height="11.5168" transform="translate(4.56055 8.98315)" fill="white"/>
<path d="M11.2501 20.4999V8.98315" stroke="#101010" stroke-width="1.5"/>
<path d="M4.56055 20.4999V8.98315" stroke="#101010" stroke-width="1.5"/>
<path d="M17.9398 20.4999V8.98315" stroke="#101010" stroke-width="1.5"/>
<path d="M20.5 20.5L2 20.5" stroke="#101010" stroke-width="1.5" stroke-linecap="round"/>
<path d="M2 8.98323L20.5 8.98323L20.5 6.15524L11.3266 2L2 6.15524L2 8.98323Z" fill="white" stroke="#101010" stroke-width="1.5" stroke-linecap="round" stroke-linejoin="round"/>
<ellipse cx="11.2501" cy="5.9046" rx="1.25635" ry="1.24682" fill="#101010"/>
<circle cx="17.8998" cy="17.886" r="4" fill="#101010" stroke="white"/>
<path d="M16.7055 16.0881C16.6168 16.0881 16.5554 16.0672 16.5144 16.0185C16.4735 15.9698 16.453 15.9211 16.453 15.8586C16.453 15.796 16.4735 15.7473 16.5144 15.7055C16.5554 15.6569 16.6236 15.636 16.7055 15.636H19.1009C19.1896 15.636 19.251 15.6569 19.2852 15.7055C19.3261 15.7542 19.3466 15.8029 19.3466 15.8655C19.3466 15.9281 19.3261 15.9768 19.2852 16.0255C19.2442 16.0672 19.1828 16.0881 19.1009 16.0881H18.7529C18.6027 16.0881 18.4731 16.0881 18.3707 16.0881C18.2683 16.0881 18.2069 16.0811 18.1864 16.0742V16.102C18.2751 16.1437 18.3639 16.2063 18.4526 16.2967C18.5413 16.3871 18.6027 16.4984 18.6437 16.6375H19.1009C19.1896 16.6375 19.251 16.6584 19.2852 16.7071C19.3261 16.7558 19.3466 16.8045 19.3466 16.8671C19.3466 16.9296 19.3261 16.9783 19.2852 17.027C19.2442 17.0688 19.1828 17.0896 19.1009 17.0896H18.671C18.6505 17.2844 18.5959 17.4582 18.5072 17.5973C18.4185 17.7365 18.3161 17.8477 18.1932 17.9382C18.0704 18.0286 17.9339 18.0981 17.7838 18.1399C17.6405 18.1885 17.4903 18.2164 17.3538 18.2303L18.8143 19.6213C18.8825 19.6909 18.9166 19.7674 18.9166 19.8508C18.9166 19.9343 18.8893 19.9969 18.8416 20.0525C18.787 20.1082 18.7187 20.136 18.63 20.136C18.5822 20.136 18.5345 20.136 18.4867 20.1151C18.4458 20.1012 18.398 20.0664 18.3502 20.0177L16.6304 18.3555C16.5827 18.3137 16.5485 18.272 16.5281 18.2303C16.5076 18.1816 16.4939 18.1329 16.4939 18.0912C16.4939 18.0077 16.5212 17.9451 16.569 17.8895C16.6236 17.8338 16.685 17.806 16.7669 17.806H16.8488C16.9853 17.806 17.115 17.7921 17.2446 17.7712C17.3811 17.7434 17.4972 17.7017 17.5995 17.646C17.7087 17.5834 17.7974 17.5139 17.8725 17.4235C17.9476 17.333 17.9953 17.2218 18.0158 17.0827H16.7055C16.6168 17.0827 16.5554 17.0618 16.5144 17.0131C16.4735 16.9644 16.453 16.9157 16.453 16.8531C16.453 16.7905 16.4735 16.7419 16.5144 16.7001C16.5554 16.6514 16.6236 16.6306 16.7055 16.6306H17.9885C17.8793 16.2689 17.5449 16.095 16.999 16.095H16.7055V16.0881Z" fill="white"/>
</svg>
