<svg width="63" height="63" viewBox="0 0 63 63" fill="none" xmlns="http://www.w3.org/2000/svg">
<g filter="url(#filter0_d_14228_8230)">
<path fill-rule="evenodd" clip-rule="evenodd" d="M31.4375 54.875C44.3817 54.875 54.875 44.3817 54.875 31.4375C54.875 18.4933 44.3817 8 31.4375 8C18.4933 8 8 18.4933 8 31.4375C8 44.3817 18.4933 54.875 31.4375 54.875Z" fill="white"/>
</g>
<path d="M31.352 52.266C42.8104 52.266 52.1854 42.891 52.1854 31.4326C52.1854 19.9743 42.8104 10.5993 31.352 10.5993C19.8937 10.5993 10.5187 19.9743 10.5187 31.4326C10.5187 42.891 19.8937 52.266 31.352 52.266Z" fill="#21C179"/>
<path fill-rule="evenodd" clip-rule="evenodd" d="M41.216 25.1302C41.8202 25.7463 41.8106 26.7356 41.1945 27.3398L30.3612 37.9648C29.759 38.5555 28.7966 38.5615 28.1871 37.9784L23.3954 33.3951C22.7718 32.7986 22.7498 31.8095 23.3463 31.1859C23.9428 30.5623 24.9319 30.5403 25.5555 31.1368L29.2535 34.6741L39.0064 25.1088C39.6224 24.5045 40.6117 24.5141 41.216 25.1302Z" fill="white"/>
<defs>
<filter id="filter0_d_14228_8230" x="0" y="0" width="62.875" height="62.875" filterUnits="userSpaceOnUse" color-interpolation-filters="sRGB">
<feFlood flood-opacity="0" result="BackgroundImageFix"/>
<feColorMatrix in="SourceAlpha" type="matrix" values="0 0 0 0 0 0 0 0 0 0 0 0 0 0 0 0 0 0 127 0" result="hardAlpha"/>
<feOffset/>
<feGaussianBlur stdDeviation="4"/>
<feColorMatrix type="matrix" values="0 0 0 0 0 0 0 0 0 0.72549 0 0 0 0 0.960784 0 0 0 0.3 0"/>
<feBlend mode="normal" in2="BackgroundImageFix" result="effect1_dropShadow_14228_8230"/>
<feBlend mode="normal" in="SourceGraphic" in2="effect1_dropShadow_14228_8230" result="shape"/>
</filter>
</defs>
</svg>
