<svg width="24" height="24" viewBox="0 0 24 24" fill="none" xmlns="http://www.w3.org/2000/svg">
<path fill-rule="evenodd" clip-rule="evenodd" d="M12 3.55C7.33321 3.55 3.55002 7.3332 3.55002 12C3.55002 16.6668 7.33321 20.45 12 20.45C16.6668 20.45 20.45 16.6668 20.45 12C20.45 7.3332 16.6668 3.55 12 3.55ZM2.05002 12C2.05002 6.50477 6.50478 2.05 12 2.05C17.4953 2.05 21.95 6.50477 21.95 12C21.95 17.4952 17.4953 21.95 12 21.95C6.50478 21.95 2.05002 17.4952 2.05002 12Z" fill="#101010"/>
<path fill-rule="evenodd" clip-rule="evenodd" d="M7.75003 12C7.75003 11.5858 8.08582 11.25 8.50003 11.25H15.5C15.9142 11.25 16.25 11.5858 16.25 12C16.25 12.4142 15.9142 12.75 15.5 12.75H8.50003C8.08582 12.75 7.75003 12.4142 7.75003 12Z" fill="#101010"/>
<path fill-rule="evenodd" clip-rule="evenodd" d="M12 7.75002C12.4142 7.75002 12.75 8.0858 12.75 8.50002V15.5C12.75 15.9142 12.4142 16.25 12 16.25C11.5858 16.25 11.25 15.9142 11.25 15.5V8.50002C11.25 8.0858 11.5858 7.75002 12 7.75002Z" fill="#101010"/>
</svg>
