<svg width="24" height="24" viewBox="0 0 24 24" fill="none" xmlns="http://www.w3.org/2000/svg">
<path fill-rule="evenodd" clip-rule="evenodd" d="M3.74908 5.39799C3.61101 5.39799 3.49908 5.50992 3.49908 5.64799V18.5786C3.49908 18.7166 3.61101 18.8286 3.74908 18.8286H20.2509C20.389 18.8286 20.5009 18.7166 20.5009 18.5786V8.51523C20.5009 8.37715 20.389 8.26523 20.2509 8.26523H12.4683C11.8832 8.26523 11.3368 7.97278 11.0122 7.48591L9.69454 5.50932C9.64818 5.43976 9.57012 5.39799 9.48653 5.39799H3.74908ZM1.99908 5.64799C1.99908 4.68149 2.78259 3.89799 3.74908 3.89799H9.48653C10.0717 3.89799 10.6181 4.19043 10.9426 4.6773L12.2603 6.6539C12.3067 6.72345 12.3847 6.76523 12.4683 6.76523H20.2509C21.2174 6.76523 22.0009 7.54873 22.0009 8.51523V18.5786C22.0009 19.5451 21.2174 20.3286 20.2509 20.3286H3.74908C2.78259 20.3286 1.99908 19.5451 1.99908 18.5786V5.64799Z" fill="#101010"/>
<path fill-rule="evenodd" clip-rule="evenodd" d="M12.2545 12.7005L18.2545 12.7005V14.2209H12.2545V12.7005Z" fill="#101010"/>
<path fill-rule="evenodd" clip-rule="evenodd" d="M16.0148 10.4607L16.0148 16.4607L14.4943 16.4607V10.4607H16.0148Z" fill="#101010"/>
</svg>
