<svg width="24" height="24" viewBox="0 0 24 24" fill="none" xmlns="http://www.w3.org/2000/svg">
<path d="M13.5949 9.30736C12.9949 9.30736 12.4949 8.80737 12.4949 8.20737C12.4949 7.60737 12.9949 7.10736 13.5949 7.10736C14.1949 7.10736 14.6949 7.60737 14.6949 8.20737C14.6949 8.80737 14.1949 9.30736 13.5949 9.30736Z" fill="#101010"/>
<path fill-rule="evenodd" clip-rule="evenodd" d="M5.26904 4.29523C4.58326 4.29523 4.01904 4.85944 4.01904 5.54523V18.0452C4.01904 18.731 4.58326 19.2952 5.26904 19.2952H17.769C18.4548 19.2952 19.019 18.731 19.019 18.0452V5.54523C19.019 4.85944 18.4548 4.29523 17.769 4.29523H5.26904ZM2.51904 5.54523C2.51904 4.03101 3.75483 2.79523 5.26904 2.79523H17.769C19.2833 2.79523 20.519 4.03101 20.519 5.54523V18.0452C20.519 19.5594 19.2833 20.7952 17.769 20.7952H5.26904C3.75483 20.7952 2.51904 19.5594 2.51904 18.0452V5.54523Z" fill="#101010"/>
<path fill-rule="evenodd" clip-rule="evenodd" d="M7.27268 9.89521C7.47286 9.89618 7.66433 9.97713 7.8045 10.12L12.3742 14.7794L14.8387 12.3149C15.1316 12.022 15.6065 12.022 15.8994 12.3149L20.0994 16.5149C20.3923 16.8078 20.3923 17.2826 20.0994 17.5755C19.8065 17.8684 19.3316 17.8684 19.0387 17.5755L15.369 13.9059L12.8994 16.3755C12.7578 16.5171 12.5656 16.5962 12.3654 16.5952C12.1652 16.5942 11.9738 16.5133 11.8336 16.3704L7.26387 11.711L3.79937 15.1755C3.50648 15.4684 3.03161 15.4684 2.73871 15.1755C2.44582 14.8826 2.44582 14.4078 2.73871 14.1149L6.73871 10.1149C6.88026 9.97333 7.07251 9.89424 7.27268 9.89521Z" fill="#101010"/>
<path d="M17.0293 0.805481C15.6228 0.92693 14.519 2.10716 14.519 3.54518C14.519 4.9832 15.6228 6.16343 17.0293 6.28488C17.1508 7.69142 18.331 8.79518 19.769 8.79518C21.2071 8.79518 22.3873 7.69142 22.5087 6.28488V0.805481H17.0293Z" fill="white"/>
<path fill-rule="evenodd" clip-rule="evenodd" d="M16.519 3.54523C16.519 3.13101 16.8548 2.79523 17.269 2.79523H22.269C22.6833 2.79523 23.019 3.13101 23.019 3.54523C23.019 3.95944 22.6833 4.29523 22.269 4.29523H17.269C16.8548 4.29523 16.519 3.95944 16.519 3.54523Z" fill="#101010"/>
<path fill-rule="evenodd" clip-rule="evenodd" d="M19.769 0.295227C20.1833 0.295227 20.519 0.631013 20.519 1.04523V6.04523C20.519 6.45944 20.1833 6.79523 19.769 6.79523C19.3548 6.79523 19.019 6.45944 19.019 6.04523V1.04523C19.019 0.631013 19.3548 0.295227 19.769 0.295227Z" fill="#101010"/>
</svg>
