<svg width="24" height="24" viewBox="0 0 24 24" fill="none" xmlns="http://www.w3.org/2000/svg">
<g clip-path="url(#clip0_425_395)">
<circle cx="12.0406" cy="6.59002" r="3.46758" stroke="#101010" stroke-width="1.5"/>
<path d="M19.6894 22.0001L18.6626 15.8393C18.3724 14.0978 16.8656 12.8214 15.1001 12.8214H13.5703H12.0405H10.5107H8.98095C7.21541 12.8214 5.70865 14.0978 5.41839 15.8393L4.3916 22.0001" stroke="#101010" stroke-width="1.5"/>
<path d="M17.2549 21.3751C17.2657 21.3787 17.2752 21.3884 17.2783 21.4025V21.4044L17.3584 21.7589C17.4603 22.2143 17.8634 22.5393 18.3301 22.5411L18.8926 22.5431C19.3598 22.5449 19.7661 22.2229 19.8711 21.7677L19.9541 21.4064C19.9573 21.3927 19.9665 21.3816 19.9785 21.3771C20.048 21.354 20.1185 21.3278 20.1914 21.298L20.1924 21.299C20.2071 21.2931 20.218 21.2973 20.2227 21.3009L20.2246 21.3029L20.5215 21.5284C20.8961 21.8131 21.4187 21.798 21.7764 21.4923L22.21 21.1212C22.5607 20.8214 22.6608 20.3209 22.4521 19.9093L22.2803 19.5695C22.2728 19.5546 22.2731 19.5377 22.2822 19.5226L22.2861 19.5157C22.3194 19.4593 22.3562 19.3957 22.3916 19.3292C22.4003 19.313 22.413 19.3081 22.4189 19.3077H22.4209L22.7998 19.2843C23.2651 19.2555 23.6487 18.9093 23.7246 18.4493L23.8203 17.8732C23.8958 17.4157 23.6466 16.966 23.2188 16.7872L22.8789 16.6447L22.876 16.6437C22.874 16.6428 22.8702 16.64 22.8662 16.6349L22.8555 16.6105C22.8447 16.5357 22.8311 16.4605 22.8154 16.3859H22.8164C22.8129 16.3684 22.8186 16.3531 22.8281 16.3439L23.1035 16.0753C23.4342 15.7537 23.502 15.248 23.2676 14.8507L22.9746 14.3527C22.736 13.9483 22.2479 13.7642 21.8018 13.9103L21.4736 14.0177C21.4692 14.0189 21.4653 14.0196 21.4609 14.0187L21.4424 14.0089C21.3788 13.9521 21.3146 13.8993 21.2529 13.8507V13.8497L21.2402 13.8341C21.2373 13.8272 21.2354 13.8177 21.2363 13.8077L21.2744 13.4464C21.3217 12.9841 21.044 12.5496 20.6045 12.3986L20.0703 12.2159C19.6264 12.0635 19.136 12.2401 18.8916 12.6407L18.7158 12.9298C18.7108 12.938 18.7048 12.9433 18.6992 12.9464L18.6836 12.9503C18.6041 12.9503 18.516 12.951 18.4307 12.9542L18.4141 12.9513C18.4091 12.9487 18.4032 12.9437 18.3984 12.9366L18.2031 12.6486C17.9391 12.2592 17.4395 12.1062 17.0029 12.2814L16.4785 12.4923C16.0484 12.6649 15.7926 13.1102 15.8613 13.5685L15.9102 13.8927C15.9119 13.9087 15.9064 13.9229 15.8945 13.9337C15.8291 13.9889 15.7565 14.0521 15.6855 14.1222C15.677 14.1303 15.6658 14.1331 15.6572 14.131L15.3447 14.045C14.8919 13.9208 14.4139 14.1284 14.1953 14.5441L13.9248 15.0568C13.7101 15.465 13.8034 15.9675 14.1494 16.2726L14.3916 16.4865L14.3926 16.4874C14.403 16.4966 14.4092 16.5102 14.4062 16.5275L14.4053 16.5314C14.3901 16.6222 14.3776 16.714 14.3672 16.8068L14.3662 16.8126C14.3655 16.8194 14.3634 16.8264 14.3594 16.8322L14.3438 16.8448L14.0469 16.9865C13.6284 17.1858 13.4016 17.6466 13.499 18.0997L13.6221 18.6691C13.7203 19.1254 14.1212 19.4536 14.5879 19.4591L14.9141 19.463C14.9198 19.4631 14.9245 19.4645 14.9287 19.4669C14.933 19.4694 14.9377 19.4733 14.9414 19.4796C14.9878 19.56 15.0368 19.6365 15.084 19.7081L15.0869 19.713C15.09 19.7176 15.093 19.7247 15.0938 19.7335C15.0944 19.7423 15.0917 19.7506 15.0889 19.757L14.9473 20.0763C14.7585 20.4978 14.8826 20.994 15.248 21.2765L15.6992 21.6251C16.0715 21.9126 16.5941 21.9015 16.9541 21.5988L17.2168 21.3781L17.2188 21.3771C17.2229 21.3735 17.2261 21.3709 17.2295 21.3702L17.2451 21.3722L17.2549 21.3751ZM17.2549 21.3751L17.252 21.3741C17.2602 21.3767 17.2675 21.3777 17.2725 21.379C17.2679 21.3778 17.2616 21.3773 17.2549 21.3751Z" fill="white" stroke="white"/>
<path fill-rule="evenodd" clip-rule="evenodd" d="M22.686 17.1063L23.0262 17.2484C23.2401 17.3378 23.3645 17.5625 23.3268 17.7912L23.2316 18.3678C23.1936 18.5978 23.0018 18.7711 22.7691 18.7854L22.3898 18.8089C22.2054 18.8196 22.0399 18.9274 21.9514 19.0918C21.9208 19.1494 21.8881 19.206 21.8554 19.2615C21.7563 19.4238 21.7479 19.6244 21.8333 19.7942L22.0063 20.1351C22.1107 20.3409 22.0607 20.5915 21.8852 20.7415L21.4515 21.1121C21.2726 21.265 21.0113 21.2724 20.824 21.13L20.5273 20.9044C20.3787 20.7901 20.1816 20.7656 20.0087 20.8339C19.9465 20.8595 19.8843 20.8819 19.82 20.9033C19.6429 20.9631 19.5091 21.1104 19.4669 21.294L19.3837 21.6551C19.3313 21.8828 19.1281 22.0438 18.8945 22.0429L18.3321 22.0406C18.0987 22.0397 17.8971 21.8776 17.8461 21.6499L17.7667 21.295C17.7257 21.1089 17.5906 20.9599 17.4124 20.9008C17.4111 20.9003 17.4097 20.8997 17.4084 20.8991C17.4056 20.8978 17.4026 20.8974 17.3997 20.8965C17.2259 20.8398 17.0361 20.8755 16.895 20.9951L16.6322 21.216C16.4521 21.3674 16.1908 21.3728 16.0047 21.2289L15.5537 20.8804C15.3709 20.7391 15.3087 20.4911 15.4031 20.2803L15.5468 19.9596C15.6227 19.7888 15.6058 19.5882 15.5015 19.4334C15.4572 19.3661 15.414 19.2978 15.3739 19.2284C15.2791 19.0651 15.1072 18.9647 14.9196 18.9626L14.5933 18.9588C14.36 18.956 14.1596 18.7922 14.1104 18.5641L13.9878 17.9946C13.939 17.768 14.0523 17.5376 14.2616 17.4379L14.5612 17.2952C14.7288 17.2141 14.8448 17.0508 14.8637 16.8629C14.8732 16.7785 14.8848 16.6953 14.8985 16.6131C14.9312 16.4252 14.8648 16.2363 14.7225 16.1114L14.4797 15.8973C14.3067 15.7448 14.2605 15.4937 14.3678 15.2896L14.6376 14.7764C14.7469 14.5686 14.9861 14.4648 15.2125 14.5269L15.5247 14.6126C15.7038 14.6617 15.8967 14.6126 16.0317 14.4835C16.0907 14.4248 16.1539 14.3692 16.2172 14.3159C16.3616 14.1931 16.4322 14.0063 16.4048 13.8184L16.3561 13.4943C16.3216 13.2651 16.4492 13.0423 16.6643 12.9559L17.1893 12.7452C17.4076 12.6576 17.6574 12.7339 17.7894 12.9286L17.9859 13.2185C18.0892 13.3701 18.26 13.4587 18.4423 13.4544C18.5224 13.4512 18.6078 13.4502 18.6869 13.4502C18.8724 13.4491 19.0432 13.3509 19.1412 13.1918L19.3187 12.9008C19.441 12.7004 19.6861 12.6121 19.9081 12.6883L20.4417 12.8717C20.6616 12.9473 20.8004 13.1644 20.7766 13.3956L20.7392 13.7608C20.7212 13.9476 20.7982 14.1291 20.9437 14.2433C21.0006 14.2881 21.0575 14.3351 21.1123 14.3842C21.2546 14.5091 21.4496 14.5518 21.6299 14.4931L21.9571 14.3857C22.1803 14.3125 22.4243 14.4045 22.5436 14.6067L22.8373 15.1046C22.9545 15.3033 22.9206 15.5563 22.7553 15.7171L22.4794 15.9854C22.3466 16.1146 22.2887 16.3035 22.3266 16.4871C22.3403 16.5522 22.3519 16.6184 22.3614 16.6846C22.3898 16.8736 22.5121 17.0347 22.686 17.1063Z" fill="#101010"/>
<circle cx="18.648" cy="17.3011" r="1.90756" fill="white"/>
<circle cx="18.648" cy="17.301" r="1.90756" fill="white"/>
</g>
<defs>
<clipPath id="clip0_425_395">
<rect width="24" height="24" fill="white"/>
</clipPath>
</defs>
</svg>
