<svg width="24" height="24" viewBox="0 0 24 24" fill="none" xmlns="http://www.w3.org/2000/svg">
<path d="M19 3.00006L19.1123 3.00885C19.3688 3.04763 19.5905 3.2175 19.6923 3.46198L20.9423 6.46198C21.0385 6.69328 21.0129 6.9576 20.874 7.16608C20.7349 7.37461 20.5006 7.49995 20.25 7.50006H3.74507C3.49429 7.50006 3.26014 7.37472 3.12105 7.16608C2.98209 6.95732 2.95608 6.69239 3.05269 6.461L4.30855 3.461L4.35933 3.36041C4.49389 3.13902 4.73555 3.00009 4.99995 3.00006H19ZM4.87202 6.00006H19.125L18.5 4.50006H5.49995L4.87202 6.00006Z" fill="#101010"/>
<path d="M20.25 6.00006C20.6643 6.00006 21 6.33585 21 6.75006V20.2501C21 20.6643 20.6643 21.0001 20.25 21.0001H3.75005C3.33583 21.0001 3.00005 20.6643 3.00005 20.2501V6.75006L3.00395 6.67291C3.04257 6.29494 3.36188 6.00006 3.75005 6.00006H20.25ZM4.50005 19.5001H19.5V7.50006H4.50005V19.5001Z" fill="#101010"/>
<path d="M11.25 10.3879C11.25 9.97366 11.5858 9.63788 12 9.63788C12.4143 9.63788 12.75 9.97366 12.75 10.3879V14.8898L13.7198 13.9201C14.0127 13.6272 14.4874 13.6272 14.7803 13.9201C15.0731 14.213 15.0732 14.6878 14.7803 14.9807L12.5303 17.2307C12.3897 17.3712 12.1989 17.4504 12 17.4504C11.8012 17.4504 11.6104 17.3712 11.4698 17.2307L9.21977 14.9807C8.92692 14.6878 8.92701 14.213 9.21977 13.9201C9.51266 13.6272 9.98742 13.6272 10.2803 13.9201L11.25 14.8898V10.3879Z" fill="#101010"/>
</svg>
