<svg width="24" height="24" viewBox="0 0 24 24" fill="none" xmlns="http://www.w3.org/2000/svg">
<path fill-rule="evenodd" clip-rule="evenodd" d="M21.6 12.15C21.6 12.5642 21.2642 12.9 20.85 12.9L3.14998 12.9C2.73577 12.9 2.39998 12.5642 2.39998 12.15C2.39998 11.7358 2.73577 11.4 3.14998 11.4L20.85 11.4C21.2642 11.4 21.6 11.7358 21.6 12.15Z" fill="#101010"/>
<path fill-rule="evenodd" clip-rule="evenodd" d="M11.6803 3.61969C11.9732 3.91259 11.9732 4.38746 11.6803 4.68035L4.21062 12.15L11.6803 19.6197C11.9732 19.9126 11.9732 20.3875 11.6803 20.6804C11.3874 20.9732 10.9125 20.9732 10.6196 20.6804L2.61963 12.6804C2.32674 12.3875 2.32674 11.9126 2.61963 11.6197L10.6196 3.61969C10.9125 3.3268 11.3874 3.3268 11.6803 3.61969Z" fill="#101010"/>
</svg>
