<svg width="24" height="24" viewBox="0 0 24 24" fill="none" xmlns="http://www.w3.org/2000/svg">
<path fill-rule="evenodd" clip-rule="evenodd" d="M2 12.5C2 9.46243 4.46244 7 7.5 7H18C20.2091 7 21.9999 8.79086 21.9999 11C21.9999 13.2091 20.2091 15 18 15H9.49995C8.11924 15 6.99995 13.8807 6.99995 12.5C6.99995 11.1193 8.11924 9.99999 9.49995 9.99999H17.75C18.1642 9.99999 18.5 10.3358 18.5 10.75C18.5 11.1642 18.1642 11.5 17.75 11.5H9.49995C8.94766 11.5 8.49995 11.9477 8.49995 12.5C8.49995 13.0523 8.94766 13.5 9.49995 13.5H18C19.3807 13.5 20.4999 12.3807 20.4999 11C20.4999 9.61929 19.3807 8.5 18 8.5H7.5C5.29086 8.5 3.5 10.2909 3.5 12.5C3.5 14.7091 5.29086 16.5 7.5 16.5H15.75C16.1642 16.5 16.5 16.8358 16.5 17.25C16.5 17.6642 16.1642 18 15.75 18H7.5C4.46243 18 2 15.5376 2 12.5Z" fill="#101010"/>
</svg>
