<svg width="24" height="24" viewBox="0 0 24 24" fill="none" xmlns="http://www.w3.org/2000/svg">
<path d="M10.8195 9.62882C12.9262 9.62882 14.6339 7.92105 14.6339 5.81441C14.6339 3.70777 12.9262 2 10.8195 2C8.7129 2 7.00513 3.70777 7.00513 5.81441C7.00513 7.92105 8.7129 9.62882 10.8195 9.62882Z" fill="white" stroke="#101010" stroke-width="1.5" stroke-miterlimit="10" stroke-linecap="round" stroke-linejoin="round"/>
<path d="M17.018 20.5H4.62112C3.76288 20.5 3 19.7371 3 18.7835V17.8299C3 14.5877 5.57473 11.9176 8.72161 11.9176H13.0128C16.1597 11.9176 18.7344 14.5877 18.7344 17.8299V18.7835C18.6391 19.7371 17.9716 20.5 17.018 20.5Z" fill="white" stroke="#101010" stroke-width="1.5" stroke-miterlimit="10" stroke-linecap="round" stroke-linejoin="round"/>
<circle cx="17.5166" cy="17.886" r="4" fill="#101010" stroke="white"/>
<path d="M16.1622 17.9843L16.9996 18.8216L18.8709 16.9503" stroke="white" stroke-width="1.25" stroke-linecap="round" stroke-linejoin="round"/>
</svg>
