<svg width="24" height="24" viewBox="0 0 24 24" fill="none" xmlns="http://www.w3.org/2000/svg">
<path fill-rule="evenodd" clip-rule="evenodd" d="M12 2C6.47715 2 2 6.47715 2 12C2 17.5228 6.47715 22 12 22C17.5228 22 22 17.5228 22 12C22 6.47715 17.5228 2 12 2ZM3.5 12C3.5 7.30558 7.30558 3.5 12 3.5C14.0772 3.5 15.9803 4.24507 17.4567 5.48254L5.48254 17.4567C4.24507 15.9803 3.5 14.0772 3.5 12ZM6.54319 18.5174C8.01965 19.7549 9.92281 20.5 12 20.5C16.6944 20.5 20.5 16.6944 20.5 12C20.5 9.92281 19.7549 8.01965 18.5174 6.54319L6.54319 18.5174Z" fill="#101010"/>
</svg>
