<svg width="24" height="24" viewBox="0 0 24 24" fill="none" xmlns="http://www.w3.org/2000/svg">
<path d="M5.75 5.75C5.75 4.64543 6.64543 3.75 7.75 3.75H16.25C17.3546 3.75 18.25 4.64543 18.25 5.75V20.25L12 16.6555L5.75 20.25V5.75Z" fill="white"/>
<path fill-rule="evenodd" clip-rule="evenodd" d="M5 5.75C5 4.23122 6.23122 3 7.75 3H16.25C17.7688 3 19 4.23122 19 5.75V21.5465L12 17.5207L5 21.5465V5.75ZM7.75 4.5C7.05964 4.5 6.5 5.05964 6.5 5.75V18.9535L12 15.7903L17.5 18.9535V5.75C17.5 5.05964 16.9404 4.5 16.25 4.5H7.75Z" fill="#101010"/>
</svg>
