<svg width="24" height="24" viewBox="0 0 24 24" fill="none" xmlns="http://www.w3.org/2000/svg">
<g clip-path="url(#clip0_431_413)">
<path d="M18.3871 8.82908H19.9704C20.5227 8.82908 20.9704 9.2768 20.9704 9.82908V12.0317C20.9704 12.584 20.5227 13.0317 19.9704 13.0317H18.5871C18.4767 13.0317 18.3871 12.9422 18.3871 12.8317V8.82908Z" fill="black"/>
<path d="M5.63574 8.82909H4.05249C3.5002 8.82909 3.05249 9.2768 3.05249 9.82909V12.0317C3.05249 12.584 3.5002 13.0317 4.05249 13.0317H5.43574C5.5462 13.0317 5.63574 12.9422 5.63574 12.8317V8.82909Z" fill="black"/>
<path d="M19.2163 10.898C19.2163 6.97275 16.004 3.79067 12.0413 3.79067C8.07865 3.79067 4.86627 6.97275 4.86627 10.898C4.86627 11.2859 4.86627 11.9844 4.86627 12.8284C4.86627 16.7911 8.07865 20.0054 12.0413 20.0054" stroke="black" stroke-width="1.63098"/>
<circle cx="12.4393" cy="20.0054" r="1.5" fill="black"/>
<path fill-rule="evenodd" clip-rule="evenodd" d="M16.7806 14.1357C17.2474 13.3375 17.5147 12.4105 17.5147 11.4217C17.5147 8.4274 15.0642 6 12.0413 6C9.01844 6 6.56793 8.4274 6.56793 11.4217C6.56793 14.4161 9.01844 16.8435 12.0413 16.8435C13.0426 16.8435 13.981 16.5772 14.7885 16.1121C14.847 16.0784 14.9163 16.0682 14.9816 16.0854L17.0693 16.6355C17.2569 16.685 17.4269 16.511 17.3732 16.3245L16.7688 14.229C16.7597 14.1976 16.7641 14.1639 16.7806 14.1357Z" fill="#101010"/>
<ellipse cx="9.52642" cy="11.4218" rx="0.94689" ry="0.937959" fill="white"/>
<ellipse cx="12.0414" cy="11.4218" rx="0.94689" ry="0.937959" fill="white"/>
<ellipse cx="14.5562" cy="11.4218" rx="0.94689" ry="0.937959" fill="white"/>
</g>
<defs>
<clipPath id="clip0_431_413">
<rect width="24" height="24" fill="white"/>
</clipPath>
</defs>
</svg>
