<svg width="24" height="24" viewBox="0 0 24 24" fill="none" xmlns="http://www.w3.org/2000/svg">
<path fill-rule="evenodd" clip-rule="evenodd" d="M12 3.5C8.91423 3.5 6.45001 5.96421 6.45001 9.05C6.45001 10.4757 7.00978 11.812 7.96329 12.7601C7.98653 12.7784 8.00893 12.7983 8.03034 12.8197L8.13034 12.9197C8.17845 12.9678 8.21868 13.0208 8.25101 13.0772C9.00808 13.983 9.51179 14.6931 9.8212 15.3792C10.0567 15.9014 10.1701 16.3878 10.2186 16.9H13.9261C14.2141 15.3281 14.953 13.9416 16.0564 12.833C16.9422 11.8532 17.55 10.5327 17.55 9.05C17.55 5.96421 15.0858 3.5 12 3.5ZM15.3434 17.5497C15.3437 17.5475 15.3439 17.5452 15.3442 17.543C15.5233 16.1101 16.1472 14.8635 17.1303 13.8803C17.1388 13.8719 17.147 13.8633 17.155 13.8545C18.2631 12.6356 19.05 10.9609 19.05 9.05C19.05 5.13579 15.9142 2 12 2C8.0858 2 4.95001 5.13579 4.95001 9.05C4.95001 10.9009 5.69061 12.6559 6.98054 13.897C7.78897 14.8528 8.2171 15.4709 8.45382 15.9958C8.68199 16.5018 8.75001 16.9603 8.75001 17.65C8.75001 18.0642 9.0858 18.4 9.50001 18.4H14.6C15.0142 18.4 15.35 18.0642 15.35 17.65C15.35 17.616 15.3477 17.5825 15.3434 17.5497Z" fill="#101010"/>
<path fill-rule="evenodd" clip-rule="evenodd" d="M9.45001 20.35C9.45001 19.9358 9.7858 19.6 10.2 19.6H13.8C14.2142 19.6 14.55 19.9358 14.55 20.35C14.55 20.7642 14.2142 21.1 13.8 21.1H10.2C9.7858 21.1 9.45001 20.7642 9.45001 20.35Z" fill="#101010"/>
</svg>
