<svg width="24" height="24" viewBox="0 0 24 24" fill="none" xmlns="http://www.w3.org/2000/svg">
<g clip-path="url(#clip0_425_394)">
<path d="M3.83777 6.50879C3.83777 5.9565 4.28548 5.50879 4.83777 5.50879H10.3667H13.6312L15.4389 7.67069L16.8956 9.41275V13.3167V20.1246C16.8956 20.6769 16.4479 21.1246 15.8956 21.1246H4.83777C4.28548 21.1246 3.83777 20.6769 3.83777 20.1246V6.50879Z" fill="white"/>
<path d="M16.8956 9.41275L15.4389 7.67069L13.6312 5.50879M16.8956 9.41275V13.3167V20.1246C16.8956 20.6769 16.4479 21.1246 15.8956 21.1246H4.83777C4.28548 21.1246 3.83777 20.6769 3.83777 20.1246V6.50879C3.83777 5.9565 4.28548 5.50879 4.83777 5.50879H10.3667H13.6312M16.8956 9.41275L13.6312 5.50879" stroke="#101010" stroke-width="1.5"/>
<path d="M7.33179 3.87524C7.33179 3.32296 7.7795 2.87524 8.33179 2.87524H13.8607H17.1252V5.77921C17.1252 6.33149 17.5729 6.77921 18.1252 6.77921H20.3896V10.6832V17.4911C20.3896 18.0434 19.9419 18.4911 19.3896 18.4911H8.33179C7.7795 18.4911 7.33179 18.0434 7.33179 17.4911V3.87524Z" fill="white"/>
<path d="M20.3896 6.77921H18.1252C17.5729 6.77921 17.1252 6.33149 17.1252 5.77921V2.87524M20.3896 6.77921V10.6832V17.4911C20.3896 18.0434 19.9419 18.4911 19.3896 18.4911H8.33179C7.7795 18.4911 7.33179 18.0434 7.33179 17.4911V3.87524C7.33179 3.32296 7.7795 2.87524 8.33179 2.87524H13.8607H17.1252M20.3896 6.77921L18.7574 4.82723L17.1252 2.87524" stroke="#101010" stroke-width="1.5"/>
<path d="M18.2499 6.77921H18.1252C17.5729 6.77921 17.1252 6.33149 17.1252 5.77921V5.41973C17.1252 4.55661 18.2037 4.16509 18.7574 4.82723L19.0171 5.13773C19.5614 5.78875 19.0985 6.77921 18.2499 6.77921Z" fill="#101010"/>
<path d="M10.3667 11.6812V14.6921C10.3667 14.9682 10.5906 15.1921 10.8667 15.1921H16.8166C17.0928 15.1921 17.3166 14.9682 17.3166 14.6921V11.6812" stroke="#101010" stroke-width="1.25" stroke-linecap="round"/>
<path d="M13.8663 12.8003V8.3255" stroke="#101010" stroke-width="1.25" stroke-linecap="round"/>
<path d="M12.151 9.18315L13.5128 7.82138C13.7081 7.62612 14.0247 7.62612 14.2199 7.82138L15.5817 9.18315" stroke="#101010" stroke-width="1.25" stroke-linecap="round"/>
</g>
<defs>
<clipPath id="clip0_425_394">
<rect width="24" height="24" fill="white"/>
</clipPath>
</defs>
</svg>
