<svg width="24" height="24" viewBox="0 0 24 24" fill="none" xmlns="http://www.w3.org/2000/svg">
<path d="M15.8408 6.51075H17.3057L15.8408 4.92091V6.51075ZM19.7656 19.2578C19.7655 20.9053 18.4199 22.25 16.7725 22.25H7.24219C5.59483 22.2499 4.25013 20.9052 4.25 19.2578V5.2422C4.25013 3.59484 5.59483 2.25014 7.24219 2.25001H15.0908C15.3004 2.25001 15.5006 2.33802 15.6426 2.4922L19.5664 6.75294C19.6939 6.89141 19.7656 7.07251 19.7656 7.26075V19.2578ZM5.75 19.2578C5.75013 20.0768 6.42325 20.7499 7.24219 20.75H16.7725C17.5915 20.75 18.2655 20.0768 18.2656 19.2578V8.01075H15.0908C14.6767 8.01071 14.3409 7.67488 14.3408 7.26075V3.75001H7.24219C6.42325 3.75014 5.75013 4.42327 5.75 5.2422V19.2578Z" fill="#101010"/>
<path d="M15.091 10.25L15.1672 10.2539C15.5456 10.2921 15.841 10.6115 15.841 11C15.841 11.3884 15.5456 11.7078 15.1672 11.7461L15.091 11.75H8.2424C7.82819 11.75 7.4924 11.4142 7.4924 11C7.4924 10.5857 7.82819 10.25 8.2424 10.25H15.091Z" fill="#101010"/>
<path d="M11.091 14.25L11.1672 14.2539C11.5456 14.2921 11.841 14.6115 11.841 15C11.841 15.3884 11.5456 15.7078 11.1672 15.7461L11.091 15.75H8.2424C7.82819 15.75 7.4924 15.4142 7.4924 15C7.4924 14.5857 7.82819 14.25 8.2424 14.25H11.091Z" fill="#101010"/>
<path d="M18.4 23C21.4376 23 23.9 20.5376 23.9 17.5C23.9 14.4624 21.4376 12 18.4 12C15.3624 12 12.9 14.4624 12.9 17.5C12.9 20.5376 15.3624 23 18.4 23Z" fill="white"/>
<path d="M18.4 22C20.8853 22 22.9 19.9853 22.9 17.5C22.9 15.0147 20.8853 13 18.4 13C15.9147 13 13.9 15.0147 13.9 17.5C13.9 19.9853 15.9147 22 18.4 22Z" fill="#101010"/>
<path d="M16.0986 16.0496H19.5918L19.1308 15.5291C18.9479 15.3223 18.9672 15.007 19.1738 14.824C19.3806 14.641 19.6969 14.6601 19.8799 14.8669L21.0752 16.2185C21.2055 16.3658 21.238 16.5763 21.1572 16.7556C21.0764 16.9348 20.8978 17.0496 20.7012 17.0496H16.0986C15.8226 17.0495 15.5986 16.8256 15.5986 16.5496C15.5988 16.2736 15.8227 16.0497 16.0986 16.0496Z" fill="white"/>
<path d="M20.7014 18.9504H17.2082L17.6692 19.4709C17.8521 19.6777 17.8328 19.993 17.6262 20.176C17.4194 20.359 17.1031 20.3399 16.9202 20.1331L15.7248 18.7815C15.5945 18.6342 15.562 18.4237 15.6428 18.2444C15.7236 18.0652 15.9023 17.9504 16.0989 17.9504H20.7014C20.9775 17.9505 21.2014 18.1744 21.2014 18.4504C21.2012 18.7264 20.9774 18.9503 20.7014 18.9504Z" fill="white"/>
</svg>
