<svg width="24" height="24" viewBox="0 0 24 24" fill="none" xmlns="http://www.w3.org/2000/svg">
<path fill-rule="evenodd" clip-rule="evenodd" d="M4.70001 7.54999C4.01423 7.54999 3.45001 8.1142 3.45001 8.79999V18.3C3.45001 18.9858 4.01423 19.55 4.70001 19.55H19.2C19.8858 19.55 20.45 18.9858 20.45 18.3V8.79999C20.45 8.1142 19.8858 7.54999 19.2 7.54999H4.70001ZM1.95001 8.79999C1.95001 7.28577 3.1858 6.04999 4.70001 6.04999H19.2C20.7142 6.04999 21.95 7.28577 21.95 8.79999V18.3C21.95 19.8142 20.7142 21.05 19.2 21.05H4.70001C3.1858 21.05 1.95001 19.8142 1.95001 18.3V8.79999Z" fill="#101010"/>
<path fill-rule="evenodd" clip-rule="evenodd" d="M10.7 3.54999C9.9892 3.54999 9.45001 4.13879 9.45001 4.69999V6.59962L7.95001 6.59998V4.69999C7.95001 3.26119 9.21082 2.04999 10.7 2.04999H13.2C14.6892 2.04999 15.95 3.26118 15.95 4.69999V6.59962L14.45 6.59998V4.69999C14.45 4.13879 13.9108 3.54999 13.2 3.54999H10.7ZM8.70001 7.34999C8.2858 7.34999 7.95001 7.01419 7.95001 6.59998L9.45001 6.59962C9.45001 7.01383 9.11423 7.34999 8.70001 7.34999ZM15.2 7.34999C14.7858 7.34999 14.45 7.01419 14.45 6.59998L15.95 6.59962C15.95 7.01383 15.6142 7.34999 15.2 7.34999Z" fill="#101010"/>
<path fill-rule="evenodd" clip-rule="evenodd" d="M21.75 12C21.75 12.4142 21.4142 12.75 21 12.75L3 12.75C2.58579 12.75 2.25 12.4142 2.25 12C2.25 11.5858 2.58579 11.25 3 11.25L21 11.25C21.4142 11.25 21.75 11.5858 21.75 12Z" fill="#101010"/>
<path d="M10 10.5C10 10.2239 10.2239 10 10.5 10H13.5C13.7761 10 14 10.2239 14 10.5V13.5C14 13.7761 13.7761 14 13.5 14H10.5C10.2239 14 10 13.7761 10 13.5V10.5Z" fill="#101010"/>
</svg>
