<svg width="24" height="24" viewBox="0 0 24 24" fill="none" xmlns="http://www.w3.org/2000/svg">
<path fill-rule="evenodd" clip-rule="evenodd" d="M5.79999 5.5C5.1142 5.5 4.54999 6.06421 4.54999 6.75V17.25C4.54999 17.9358 5.1142 18.5 5.79999 18.5H18.3C19.0108 18.5 19.55 18.0112 19.55 17.25V6.75C19.55 6.06421 18.9858 5.5 18.3 5.5H5.79999ZM3.04999 6.75C3.04999 5.23579 4.28577 4 5.79999 4H18.3C19.8142 4 21.05 5.23579 21.05 6.75V17.25C21.05 18.8888 19.7892 20 18.3 20H5.79999C4.28577 20 3.04999 18.7642 3.04999 17.25V6.75Z" fill="#7E7E7E"/>
<path fill-rule="evenodd" clip-rule="evenodd" d="M7.69999 2C8.1142 2 8.44999 2.33579 8.44999 2.75V6.35C8.44999 6.76421 8.1142 7.1 7.69999 7.1C7.28578 7.1 6.94999 6.76421 6.94999 6.35V2.75C6.94999 2.33579 7.28578 2 7.69999 2Z" fill="#7E7E7E"/>
<path fill-rule="evenodd" clip-rule="evenodd" d="M16.3 2C16.7142 2 17.05 2.33579 17.05 2.75V6.35C17.05 6.76421 16.7142 7.1 16.3 7.1C15.8858 7.1 15.55 6.76421 15.55 6.35V2.75C15.55 2.33579 15.8858 2 16.3 2Z" fill="#7E7E7E"/>
<path fill-rule="evenodd" clip-rule="evenodd" d="M3.24999 9.25C3.24999 8.83579 3.58577 8.5 3.99999 8.5H20C20.4142 8.5 20.75 8.83579 20.75 9.25C20.75 9.66421 20.4142 10 20 10H3.99999C3.58577 10 3.24999 9.66421 3.24999 9.25Z" fill="#7E7E7E"/>
</svg>
