<svg width="24" height="24" viewBox="0 0 24 24" fill="none" xmlns="http://www.w3.org/2000/svg">
<g clip-path="url(#clip0_446_378)">
<circle cx="14.7892" cy="9.67142" r="3.08374" fill="#101010"/>
<path d="M7.76378 16.026L10.3691 20.4343" stroke="#101010" stroke-width="2" stroke-linecap="round"/>
<rect x="1.97943" y="13.5928" width="8.5187" height="6.7054" rx="3.3527" transform="rotate(-31.243 1.97943 13.5928)" fill="white" stroke="#101010" stroke-width="1.5"/>
<path d="M7.25243 12.0609C6.80574 11.3245 6.88057 10.385 7.43818 9.72861L11.1579 5.35029L17.0078 14.9932L11.4063 16.2696C10.5666 16.4609 9.69866 16.0932 9.25197 15.3569L7.25243 12.0609Z" fill="white" stroke="#101010" stroke-width="1.5"/>
<path d="M10.3677 4.04037L17.8729 16.4089" stroke="#101010" stroke-width="2" stroke-linecap="round"/>
<path fill-rule="evenodd" clip-rule="evenodd" d="M18.173 7.77265C17.9894 7.4061 18.1377 6.96012 18.5042 6.77652L20.0678 5.99339C20.4343 5.80979 20.8803 5.9581 21.0639 6.32466C21.2475 6.69121 21.0992 7.13719 20.7326 7.32079L19.1691 8.10392C18.8025 8.28752 18.3566 8.1392 18.173 7.77265Z" fill="#101010"/>
<path fill-rule="evenodd" clip-rule="evenodd" d="M18.3644 10.4157C18.4472 10.0141 18.8398 9.75573 19.2413 9.83849L21.098 10.2211C21.4995 10.3039 21.7579 10.6965 21.6751 11.098C21.5924 11.4995 21.1998 11.7579 20.7983 11.6752L18.9416 11.2925C18.5401 11.2098 18.2817 10.8172 18.3644 10.4157Z" fill="#101010"/>
<path fill-rule="evenodd" clip-rule="evenodd" d="M16.3908 5.78926C16.0497 5.56172 15.9577 5.10082 16.1853 4.75979L17.3189 3.06069C17.5465 2.71966 18.0074 2.62766 18.3484 2.8552C18.6894 3.08273 18.7814 3.54363 18.5539 3.88466L17.4202 5.58377C17.1927 5.92479 16.7318 6.01679 16.3908 5.78926Z" fill="#101010"/>
</g>
<defs>
<clipPath id="clip0_446_378">
<rect width="24" height="24" fill="white"/>
</clipPath>
</defs>
</svg>
