<svg width="24" height="24" viewBox="0 0 24 24" fill="none" xmlns="http://www.w3.org/2000/svg">
<path d="M8.80002 18.95C8.00002 18.95 7.30002 19.65 7.30002 20.45C7.30002 21.25 8.00002 21.95 8.80002 21.95C9.60002 21.95 10.3 21.25 10.3 20.45C10.3 19.65 9.60002 18.95 8.80002 18.95Z" fill="#101010"/>
<path d="M17.8 18.95C17 18.95 16.3 19.65 16.3 20.45C16.3 21.25 17 21.95 17.8 21.95C18.6 21.95 19.3 21.25 19.3 20.45C19.3 19.65 18.6 18.95 17.8 18.95Z" fill="#101010"/>
<path d="M4.90002 2C5.74415 2 6.37558 2.6082 6.59045 3.24121L6.62756 3.36816L6.63831 3.41895L7.09534 6H21.6998C21.9195 6 22.1286 6.09648 22.2711 6.26367C22.4135 6.43083 22.4749 6.65234 22.4401 6.86914L21.1403 14.9688L21.1276 15.0322L20.4049 14.8506L20.4 14.8496L21.1276 15.0322C21.0145 15.4844 20.7649 16.0723 20.276 16.4307C19.7944 16.8786 19.1969 17 18.6998 17H9.60022C8.97478 17 8.42097 16.6985 8.08362 16.4736C8.04269 16.4463 8.00416 16.4147 7.96936 16.3799C7.60201 16.0124 7.314 15.598 7.17249 15.0322L7.90002 14.8496L7.89319 14.8506L7.17249 15.0322L7.16174 14.9805L5.16956 3.72461C5.1576 3.68555 5.12378 3.6222 5.06213 3.56934C5.00111 3.51703 4.94406 3.5 4.90002 3.5H2.90002C2.48581 3.5 2.15002 3.16421 2.15002 2.75C2.15002 2.33579 2.48581 2 2.90002 2H4.90002ZM8.63049 14.6777C8.68487 14.8886 8.78529 15.0591 8.97913 15.2637C9.21847 15.4138 9.43939 15.5 9.60022 15.5H18.6998C18.9842 15.5 19.1604 15.4291 19.2701 15.3193L19.3844 15.2256C19.4538 15.1789 19.5841 15.0039 19.6666 14.6875L20.8199 7.5H7.36096L8.63049 14.6777Z" fill="#101010"/>
</svg>
