<svg width="24" height="24" viewBox="0 0 24 24" fill="none" xmlns="http://www.w3.org/2000/svg">
<path fill-rule="evenodd" clip-rule="evenodd" d="M6.75 6.75004C6.75 6.33583 7.08579 6.00004 7.5 6.00004H16.5C16.9142 6.00004 17.25 6.33583 17.25 6.75004V12.25C17.25 12.6643 16.9142 13 16.5 13H7.5C7.08579 13 6.75 12.6643 6.75 12.25V6.75004ZM8.25 7.50004V11.5H15.75V7.50004H8.25Z" fill="#101010"/>
<path fill-rule="evenodd" clip-rule="evenodd" d="M6.75 3.5361C6.05964 3.5361 5.5 4.09575 5.5 4.7861V19.286C5.5 19.9763 6.05964 20.536 6.75 20.536H17.25C17.9404 20.536 18.5 19.9763 18.5 19.286V4.7861C18.5 4.09575 17.9404 3.5361 17.25 3.5361H6.75ZM4 4.7861C4 3.26732 5.23122 2.0361 6.75 2.0361H17.25C18.7688 2.0361 20 3.26732 20 4.7861V19.286C20 20.8048 18.7688 22.036 17.25 22.036H6.75C5.23122 22.036 4 20.8048 4 19.286V4.7861Z" fill="#101010"/>
<path fill-rule="evenodd" clip-rule="evenodd" d="M2.09222 16.9177C2.09222 16.5035 2.42801 16.1677 2.84222 16.1677H5.11875V17.6677H2.84222C2.42801 17.6677 2.09222 17.3319 2.09222 16.9177Z" fill="#101010"/>
<path fill-rule="evenodd" clip-rule="evenodd" d="M2.09222 11.9566C2.09222 11.5424 2.42801 11.2066 2.84222 11.2066H5.11875V12.7066H2.84222C2.42801 12.7066 2.09222 12.3709 2.09222 11.9566Z" fill="#101010"/>
<path fill-rule="evenodd" clip-rule="evenodd" d="M2.09222 6.99559C2.09222 6.58138 2.42801 6.24559 2.84222 6.24559H5.11875V7.74559H2.84222C2.42801 7.74559 2.09222 7.4098 2.09222 6.99559Z" fill="#101010"/>
</svg>
