<svg width="24" height="24" viewBox="0 0 24 24" fill="none" xmlns="http://www.w3.org/2000/svg">
<path fill-rule="evenodd" clip-rule="evenodd" d="M7.04999 7.70001C7.04999 7.2858 7.38578 6.95001 7.79999 6.95001H15.3C15.7142 6.95001 16.05 7.2858 16.05 7.70001C16.05 8.11423 15.7142 8.45001 15.3 8.45001H7.79999C7.38578 8.45001 7.04999 8.11423 7.04999 7.70001Z" fill="#101010"/>
<path fill-rule="evenodd" clip-rule="evenodd" d="M7.04999 11.2C7.04999 10.7858 7.38578 10.45 7.79999 10.45H13.3C13.7142 10.45 14.05 10.7858 14.05 11.2C14.05 11.6142 13.7142 11.95 13.3 11.95H7.79999C7.38578 11.95 7.04999 11.6142 7.04999 11.2Z" fill="#101010"/>
<path fill-rule="evenodd" clip-rule="evenodd" d="M5.79999 4.45001C5.1142 4.45001 4.54999 5.01423 4.54999 5.70001V18.4688L6.48703 16.6529C6.62604 16.5225 6.80944 16.45 6.99999 16.45H18.3C19.0108 16.45 19.55 15.9612 19.55 15.2V5.70001C19.55 5.01423 18.9858 4.45001 18.3 4.45001H5.79999ZM3.04999 5.70001C3.04999 4.1858 4.28578 2.95001 5.79999 2.95001H18.3C19.8142 2.95001 21.05 4.1858 21.05 5.70001V15.2C21.05 16.8388 19.7892 17.95 18.3 17.95H7.29657L4.31294 20.7472C4.09485 20.9516 3.77615 21.007 3.50184 20.8882C3.22753 20.7694 3.04999 20.499 3.04999 20.2V5.70001Z" fill="#101010"/>
</svg>
