<svg width="24" height="24" viewBox="0 0 24 24" fill="none" xmlns="http://www.w3.org/2000/svg">
<path fill-rule="evenodd" clip-rule="evenodd" d="M2.94995 5.79999C2.94995 4.28577 4.18574 3.04999 5.69995 3.04999H18.2C19.7142 3.04999 20.95 4.28577 20.95 5.79999V18.3C20.95 19.8142 19.7142 21.05 18.2 21.05H5.69995C4.18574 21.05 2.94995 19.8142 2.94995 18.3V5.79999ZM16.8385 9.52197C17.1268 9.22453 17.1194 8.74972 16.822 8.46143C16.5245 8.17315 16.0497 8.18057 15.7614 8.47801L9.99165 14.431L8.03033 12.4697C7.73744 12.1768 7.26256 12.1768 6.96967 12.4697C6.67678 12.7625 6.67678 13.2374 6.96967 13.5303L9.46967 16.0303C9.61176 16.1724 9.80492 16.2515 10.0059 16.25C10.2068 16.2484 10.3987 16.1663 10.5386 16.022L16.8385 9.52197Z" fill="#101010"/>
</svg>
