<svg width="24" height="24" viewBox="0 0 24 24" fill="none" xmlns="http://www.w3.org/2000/svg">
<path fill-rule="evenodd" clip-rule="evenodd" d="M7.28219 10.9505C7.70459 10.5947 8.33545 10.6487 8.69125 11.0711L10.3896 13.0873L15.4293 8.84219C15.8517 8.48638 16.4826 8.54037 16.8384 8.96278C17.1942 9.38518 17.1402 10.016 16.7178 10.3718L10.9132 15.2612C10.4908 15.617 9.85998 15.563 9.50418 15.1406L7.1616 12.3595C6.8058 11.9371 6.85979 11.3063 7.28219 10.9505Z" fill="#101010"/>
<path fill-rule="evenodd" clip-rule="evenodd" d="M3 5.75C3 4.23122 4.23122 3 5.75 3H18.25C19.7688 3 21 4.23122 21 5.75V18.25C21 19.7688 19.7688 21 18.25 21H5.75C4.23122 21 3 19.7688 3 18.25V5.75ZM5.75 4.5C5.05964 4.5 4.5 5.05964 4.5 5.75V18.25C4.5 18.9404 5.05964 19.5 5.75 19.5H18.25C18.9404 19.5 19.5 18.9404 19.5 18.25V5.75C19.5 5.05964 18.9404 4.5 18.25 4.5H5.75Z" fill="#101010"/>
</svg>
