<svg width="24" height="24" viewBox="0 0 24 24" fill="none" xmlns="http://www.w3.org/2000/svg">
<path fill-rule="evenodd" clip-rule="evenodd" d="M1.99998 12C1.99998 6.49829 6.49827 2 12 2C17.5017 2 22 6.49829 22 12C22 17.5017 17.5017 22 12 22C6.49827 22 1.99998 17.5017 1.99998 12ZM12 3.5C7.3267 3.5 3.49998 7.32671 3.49998 12C3.49998 16.6733 7.3267 20.5 12 20.5C16.6733 20.5 20.5 16.6733 20.5 12C20.5 7.32671 16.6733 3.5 12 3.5Z" fill="#101010"/>
<path fill-rule="evenodd" clip-rule="evenodd" d="M16.7355 8.97484C17.0255 9.27057 17.0209 9.74542 16.7252 10.0355L11.5252 15.1355C11.2361 15.419 10.7742 15.4219 10.4816 15.142L8.18158 12.942C7.88225 12.6557 7.8717 12.1809 8.15802 11.8816C8.44433 11.5823 8.91909 11.5717 9.21841 11.858L10.9935 13.5559L15.6748 8.96455C15.9706 8.67451 16.4454 8.67912 16.7355 8.97484Z" fill="#101010"/>
</svg>
