<svg width="24" height="24" viewBox="0 0 24 24" fill="none" xmlns="http://www.w3.org/2000/svg">
<path fill-rule="evenodd" clip-rule="evenodd" d="M18.6896 5.31037C18.9825 5.60326 18.9825 6.07814 18.6896 6.37103L6.37107 18.6896C6.07817 18.9825 5.6033 18.9825 5.31041 18.6896C5.01751 18.3967 5.01751 17.9218 5.31041 17.6289L17.629 5.31037C17.9219 5.01747 18.3967 5.01747 18.6896 5.31037Z" fill="#101010"/>
<path fill-rule="evenodd" clip-rule="evenodd" d="M5.31037 5.31037C5.60326 5.01748 6.07814 5.01748 6.37103 5.31037L18.6896 17.6289C18.9825 17.9218 18.9825 18.3967 18.6896 18.6896C18.3967 18.9825 17.9218 18.9825 17.6289 18.6896L5.31037 6.37103C5.01747 6.07814 5.01747 5.60326 5.31037 5.31037Z" fill="#101010"/>
</svg>
