<svg width="24" height="24" viewBox="0 0 24 24" fill="none" xmlns="http://www.w3.org/2000/svg">
<path fill-rule="evenodd" clip-rule="evenodd" d="M12 3.5C7.30558 3.5 3.5 7.30558 3.5 12C3.5 16.6944 7.30558 20.5 12 20.5C16.6944 20.5 20.5 16.6944 20.5 12C20.5 7.30558 16.6944 3.5 12 3.5ZM2 12C2 6.47715 6.47715 2 12 2C17.5228 2 22 6.47715 22 12C22 17.5228 17.5228 22 12 22C6.47715 22 2 17.5228 2 12ZM15.0003 8.9997C15.2932 9.29259 15.2932 9.76747 15.0003 10.0604L13.0607 12L15.0003 13.9397C15.2932 14.2326 15.2932 14.7075 15.0003 15.0004C14.7074 15.2933 14.2326 15.2933 13.9397 15.0004L12 13.0607L10.0603 15.0004C9.76744 15.2933 9.29256 15.2933 8.99967 15.0004C8.70678 14.7075 8.70678 14.2326 8.99967 13.9397L10.9393 12L8.99967 10.0604C8.70678 9.76747 8.70678 9.29259 8.99967 8.9997C9.29256 8.70681 9.76744 8.70681 10.0603 8.9997L12 10.9394L13.9397 8.9997C14.2326 8.70681 14.7074 8.70681 15.0003 8.9997Z" fill="#101010"/>
</svg>
