<svg width="24" height="24" viewBox="0 0 24 24" fill="none" xmlns="http://www.w3.org/2000/svg">
<path d="M9.93744 19.8121V14.0621H4.18744C3.77323 14.0621 3.43744 13.7263 3.43744 13.3121C3.43744 12.8979 3.77323 12.5621 4.18744 12.5621H10.6874C11.1017 12.5621 11.4374 12.8979 11.4374 13.3121V19.8121C11.4374 20.2263 11.1017 20.5621 10.6874 20.5621C10.2732 20.5621 9.93744 20.2263 9.93744 19.8121Z" fill="#101010"/>
<path d="M12.5624 4.18707C12.5624 3.77286 12.8982 3.43707 13.3124 3.43707C13.7267 3.43707 14.0624 3.77286 14.0624 4.18707V9.93707H19.8124C20.2267 9.93707 20.5624 10.2729 20.5624 10.6871C20.5624 11.1013 20.2267 11.4371 19.8124 11.4371H13.3124C12.8982 11.4371 12.5624 11.1013 12.5624 10.6871V4.18707Z" fill="#101010"/>
<path d="M19.7197 3.2193C20.0126 2.92641 20.4873 2.92641 20.7802 3.2193C21.0731 3.51219 21.0731 3.98695 20.7802 4.27985L13.8427 11.2173C13.5498 11.5102 13.0751 11.5102 12.7822 11.2173C12.4893 10.9245 12.4893 10.4497 12.7822 10.1568L19.7197 3.2193Z" fill="#101010"/>
<path d="M10.1572 12.7818C10.4501 12.4889 10.9248 12.4889 11.2177 12.7818C11.5106 13.0747 11.5106 13.5495 11.2177 13.8423L4.28022 20.7798C3.98732 21.0727 3.51256 21.0727 3.21967 20.7798C2.92678 20.487 2.92678 20.0122 3.21967 19.7193L10.1572 12.7818Z" fill="#101010"/>
</svg>
