<svg width="24" height="24" viewBox="0 0 24 24" fill="none" xmlns="http://www.w3.org/2000/svg">
<path fill-rule="evenodd" clip-rule="evenodd" d="M24 12C24 18.6 18.6 24 12 24C5.4 24 0 18.6 0 12C0 5.4 5.4 0 12 0C18.6 0 24 5.4 24 12ZM17.6701 9.64255C18.025 9.29451 18.0305 8.72469 17.6825 8.36982C17.3344 8.01495 16.7646 8.00942 16.4098 8.35746L10.7921 13.8671L8.66204 11.8296C8.30285 11.4861 7.73314 11.4987 7.38957 11.8579C7.04599 12.2171 7.05865 12.7868 7.41784 13.1304L10.1778 15.7704C10.529 16.1062 11.0832 16.1028 11.4301 15.7626L17.6701 9.64255Z" fill="#21C179"/>
</svg>
