<svg width="24" height="24" viewBox="0 0 24 24" fill="none" xmlns="http://www.w3.org/2000/svg">
<path d="M11.5864 8.02889C11.4536 7.82908 11.3043 7.64512 11.1416 7.47719C10.9409 7.26997 10.8765 6.9658 10.9765 6.69519L11.3355 5.72117L10.7404 5.37799L10.0757 6.17786C9.89124 6.39965 9.59502 6.49555 9.31526 6.4252C8.70541 6.27194 8.06023 6.26654 7.4369 6.42375C7.15705 6.49424 6.86145 6.3977 6.67693 6.17579L6.01298 5.37736L5.41674 5.7216L5.77623 6.69581C5.87605 6.96653 5.81189 7.27088 5.61098 7.47795C5.16266 7.93978 4.84414 8.50141 4.67221 9.10586C4.59328 9.38346 4.36175 9.59111 4.0773 9.6399L3.05224 9.81562L3.05155 10.5039L4.07539 10.6796C4.35966 10.7283 4.59101 10.9361 4.67009 11.2135C4.75484 11.5108 4.87784 11.8038 5.04099 12.0864L5.16885 12.2922C5.30167 12.4928 5.44976 12.6767 5.61101 12.8432C5.8115 13.0503 5.87526 13.354 5.77558 13.6244L5.41581 14.5989L6.01269 14.9433L6.6774 14.1434L6.75106 14.0659C6.93506 13.8996 7.19234 13.8335 7.43735 13.8952C7.97052 14.0294 8.53113 14.0498 9.08118 13.9475L9.31654 13.8962L9.42221 13.878C9.66865 13.8523 9.91509 13.9501 10.0765 14.1441L10.7405 14.9426L11.3367 14.5983L10.9769 13.6255L10.9466 13.5223C10.8945 13.2797 10.9657 13.0238 11.1416 12.8425C11.5905 12.3804 11.9093 11.8187 12.0812 11.2141L12.1176 11.113C12.2186 10.8865 12.4272 10.7227 12.6761 10.68L13.7004 10.5048L13.701 9.81654L12.6772 9.64086C12.393 9.59208 12.1616 9.38423 12.0825 9.1069C11.997 8.80711 11.8755 8.51395 11.7138 8.23387L11.5864 8.02889ZM13.0128 7.48387C13.1543 7.72896 13.2705 7.98161 13.3687 8.23692L14.5777 8.44436C14.9377 8.50614 15.201 8.81871 15.201 9.18399L15.2009 11.1371C15.2009 11.5024 14.9377 11.8141 14.5776 11.8758L13.3685 12.0823C13.1701 12.5982 12.8917 13.0846 12.5379 13.5226L12.9629 14.6709C13.0898 15.0137 12.9513 15.3982 12.6347 15.581L10.9433 16.5575C10.627 16.7401 10.2251 16.6683 9.99154 16.3876L9.2074 15.4454C8.65122 15.5327 8.09072 15.5309 7.54478 15.4446L6.76225 16.388C6.52879 16.669 6.12721 16.7411 5.81082 16.5585L4.11938 15.5819C3.80317 15.3994 3.66469 15.0158 3.79096 14.6732L4.2145 13.5221C4.04239 13.3084 3.88292 13.0806 3.74196 12.8364C3.6009 12.5921 3.48314 12.3398 3.38394 12.0835L2.17621 11.8764C1.81617 11.8147 1.55297 11.5021 1.55298 11.1368L1.553 9.18371L1.56464 9.04957C1.61995 8.74428 1.8613 8.49899 2.17631 8.44495L3.38365 8.23729C3.58192 7.72152 3.86057 7.23495 4.21424 6.797L3.79086 5.64768C3.66453 5.30507 3.80332 4.92106 4.11955 4.73848L5.81101 3.76192L5.93273 3.70517C6.22483 3.60023 6.55835 3.68605 6.76275 3.93186L7.54471 4.87415C8.10056 4.78689 8.66049 4.78998 9.20564 4.87596L9.9912 3.9319C10.2247 3.65113 10.6268 3.57975 10.9431 3.76232L12.6346 4.73884C12.951 4.92152 13.0901 5.30568 12.9635 5.64839L12.5376 6.79749C12.7101 7.01073 12.8711 7.23833 13.0128 7.48387Z" fill="#101010"/>
<path d="M10.6135 8.86894C11.3267 10.1041 10.9035 11.6835 9.66832 12.3966C8.43318 13.1097 6.85381 12.6865 6.1407 11.4513C5.42759 10.2162 5.85078 8.63683 7.08592 7.92372C8.32106 7.21061 9.90044 7.6338 10.6135 8.86894Z" fill="#101010"/>
<path d="M15.4541 13.3279C15.8257 12.9668 16.2773 12.7123 16.762 12.5742L16.9532 11.4657L18.2663 11.4649L18.4549 12.5717C18.6948 12.6401 18.9305 12.7381 19.1564 12.8685C19.3819 12.9986 19.5843 13.1539 19.7632 13.3271L20.8178 12.938L21.4736 14.0755L20.6075 14.7945C20.7305 15.2831 20.7359 15.8008 20.6093 16.3031L21.4745 17.0214L20.8177 18.1589L19.7626 17.7696C19.3907 18.1305 18.9396 18.3856 18.4547 18.5233L18.2656 19.632L16.9531 19.6319L16.7623 18.5249C16.5228 18.4566 16.2876 18.358 16.0621 18.2278C15.8364 18.0975 15.633 17.9431 15.4539 17.7696L14.4015 18.1588L13.7457 17.0213L14.6097 16.3022C14.4869 15.8139 14.4823 15.296 14.6087 14.794L13.7449 14.0754L14.4016 12.9379L15.4541 13.3279Z" fill="#101010"/>
<path d="M18.8298 13.0904C18.6765 13.0143 18.5184 12.9541 18.3586 12.9085C18.2292 12.8715 18.1323 12.7633 18.1097 12.6306L17.9696 11.8146L17.2477 11.815L17.1067 12.6334C17.0839 12.766 16.9871 12.8735 16.8578 12.9103C16.4269 13.0331 16.0267 13.2598 15.698 13.5792C15.6013 13.6731 15.4589 13.7026 15.3325 13.6557L14.5569 13.3681L14.1951 13.9948L14.8327 14.5253C14.936 14.6114 14.9812 14.7491 14.9484 14.8796C14.8364 15.3241 14.8396 15.7835 14.9486 16.2171C14.9813 16.3476 14.9367 16.4851 14.8333 16.5711L14.195 17.1025L14.5564 17.7284L15.3323 17.4411C15.4585 17.3945 15.6007 17.4242 15.6974 17.5177C15.8559 17.6713 16.036 17.8091 16.2369 17.9251L16.3887 18.0059C16.542 18.0822 16.6994 18.1427 16.8586 18.1882C16.9878 18.2251 17.0838 18.3332 17.1067 18.4656L17.247 19.2829L17.9698 19.283L18.11 18.4641L18.1406 18.3701C18.1835 18.282 18.2622 18.214 18.3594 18.1864C18.7361 18.0793 19.0893 17.8927 19.3923 17.6336L19.5187 17.5183L19.5983 17.4605C19.6849 17.4145 19.7885 17.4064 19.8834 17.4413L20.6624 17.7287L21.0242 17.102L20.3862 16.5724L20.3193 16.4988C20.2645 16.4176 20.245 16.3155 20.2697 16.2176C20.3817 15.7731 20.3779 15.3139 20.2686 14.8796L20.2579 14.7809C20.2617 14.6832 20.3064 14.59 20.3839 14.5255L21.023 13.9947L20.6616 13.3688L19.8849 13.6555C19.7587 13.7021 19.6164 13.6724 19.5197 13.5789C19.3606 13.4248 19.1812 13.2865 18.9816 13.1712L18.8298 13.0904ZM19.3312 12.5657C19.5148 12.6717 19.6838 12.7932 19.8394 12.9257L20.6962 12.6096C20.8561 12.5506 21.0354 12.6157 21.1206 12.7632L21.7764 13.9008C21.8615 14.0484 21.8282 14.2356 21.6973 14.3445L20.9937 14.9283C21.0685 15.3343 21.0713 15.7545 20.9953 16.1697L21.6976 16.7522C21.8288 16.8611 21.8625 17.0485 21.7772 17.1962L21.1205 18.3337C21.0353 18.4812 20.8567 18.546 20.6969 18.4872L19.8396 18.1715C19.518 18.4449 19.1526 18.6533 18.7632 18.7916L18.6103 19.6912C18.5815 19.8591 18.4361 19.9815 18.2657 19.9816L16.9531 19.9815C16.7828 19.9815 16.6376 19.8592 16.6087 19.6913L16.453 18.793C16.26 18.724 16.0707 18.6365 15.8873 18.5306C15.7038 18.4246 15.5331 18.3043 15.3764 18.1714L14.5231 18.4872C14.3632 18.5464 14.184 18.4812 14.0988 18.3336L13.443 17.196L13.4162 17.1389C13.3675 17.0027 13.4076 16.8476 13.5221 16.7523L14.2222 16.1687C14.1476 15.7629 14.1455 15.3424 14.2214 14.9279L13.5209 14.3442L13.4763 14.3004C13.3833 14.1895 13.3676 14.0297 13.4421 13.9006L14.0989 12.7631C14.1842 12.6154 14.3633 12.5508 14.5233 12.6101L15.3758 12.9264C15.6973 12.6527 16.0632 12.4447 16.4521 12.3063L16.6085 11.4065L16.6244 11.3458C16.6739 11.2098 16.8042 11.1162 16.9532 11.1161L18.2663 11.1153C18.4368 11.1153 18.5828 11.2378 18.6115 11.406L18.7636 12.3046C18.9569 12.3733 19.1471 12.4594 19.3312 12.5657Z" fill="#101010"/>
<path d="M18.4776 14.0449C19.3079 14.5243 19.5924 15.5861 19.113 16.4164C18.6336 17.2467 17.5719 17.5312 16.7415 17.0518C15.9112 16.5724 15.6267 15.5107 16.1061 14.6803C16.5855 13.85 17.6472 13.5655 18.4776 14.0449Z" fill="white"/>
</svg>
