<svg width="24" height="24" viewBox="0 0 24 24" fill="none" xmlns="http://www.w3.org/2000/svg">
<path d="M12 16.25C14.3472 16.25 16.25 14.3472 16.25 12C16.25 9.65279 14.3472 7.75 12 7.75C9.65279 7.75 7.75 9.65279 7.75 12C7.75 14.3472 9.65279 16.25 12 16.25Z" fill="#101010"/>
<path d="M15.5 12C15.5 10.067 13.933 8.5 12 8.5C10.067 8.5 8.5 10.067 8.5 12C8.5 13.933 10.067 15.5 12 15.5C13.933 15.5 15.5 13.933 15.5 12ZM17 12C17 14.7614 14.7614 17 12 17C9.23858 17 7 14.7614 7 12C7 9.23858 9.23858 7 12 7C14.7614 7 17 9.23858 17 12Z" fill="#101010"/>
<path d="M11.25 21.25V2.75C11.25 2.33579 11.5858 2 12 2C12.4142 2 12.75 2.33579 12.75 2.75V21.25C12.75 21.6642 12.4142 22 12 22C11.5858 22 11.25 21.6642 11.25 21.25Z" fill="#101010"/>
<path d="M12 5.25C12.9665 5.25 13.75 4.4665 13.75 3.5C13.75 2.5335 12.9665 1.75 12 1.75C11.0335 1.75 10.25 2.5335 10.25 3.5C10.25 4.4665 11.0335 5.25 12 5.25Z" fill="#101010"/>
<path d="M12 22.25C12.9665 22.25 13.75 21.4665 13.75 20.5C13.75 19.5335 12.9665 18.75 12 18.75C11.0335 18.75 10.25 19.5335 10.25 20.5C10.25 21.4665 11.0335 22.25 12 22.25Z" fill="#101010"/>
<path d="M4.37184 6.72109L20.3933 15.9711C20.752 16.1782 20.8749 16.6369 20.6678 16.9956C20.4607 17.3543 20.002 17.4772 19.6433 17.2701L3.62184 8.02012C3.26312 7.81302 3.14021 7.35432 3.34732 6.9956C3.55443 6.63689 4.01312 6.51398 4.37184 6.72109Z" fill="#101010"/>
<path d="M19.4072 17.9863C20.3737 17.9863 21.1572 17.2028 21.1572 16.2363C21.1572 15.2698 20.3737 14.4863 19.4072 14.4863C18.4407 14.4863 17.6572 15.2698 17.6572 16.2363C17.6572 17.2028 18.4407 17.9863 19.4072 17.9863Z" fill="#101010"/>
<path d="M4.59277 9.56909C5.55927 9.56909 6.34277 8.78559 6.34277 7.81909C6.34277 6.85259 5.55927 6.06909 4.59277 6.06909C3.62628 6.06909 2.84277 6.85259 2.84277 7.81909C2.84277 8.78559 3.62628 9.56909 4.59277 9.56909Z" fill="#101010"/>
<path d="M20.3933 8.02867L4.37183 17.2787C4.01311 17.4858 3.55441 17.3629 3.34731 17.0042C3.1402 16.6454 3.26311 16.1867 3.62183 15.9796L19.6433 6.72963C20.002 6.52253 20.4607 6.64543 20.6678 7.00415C20.8749 7.36287 20.752 7.82156 20.3933 8.02867Z" fill="#101010"/>
<path d="M4.59277 17.9863C5.55927 17.9863 6.34277 17.2028 6.34277 16.2363C6.34277 15.2698 5.55927 14.4863 4.59277 14.4863C3.62628 14.4863 2.84277 15.2698 2.84277 16.2363C2.84277 17.2028 3.62628 17.9863 4.59277 17.9863Z" fill="#101010"/>
<path d="M19.4072 9.56909C20.3737 9.56909 21.1572 8.78559 21.1572 7.81909C21.1572 6.85259 20.3737 6.06909 19.4072 6.06909C18.4407 6.06909 17.6572 6.85259 17.6572 7.81909C17.6572 8.78559 18.4407 9.56909 19.4072 9.56909Z" fill="#101010"/>
<path d="M13.6911 11.2502C14.1053 11.2503 14.441 11.586 14.441 12.0002C14.441 12.4143 14.1052 12.75 13.6911 12.7501H10.3089C9.89478 12.75 9.55904 12.4143 9.55896 12.0002C9.55896 11.586 9.89473 11.2503 10.3089 11.2502H13.6911Z" fill="white"/>
<path d="M12 9.55913C12.4142 9.55913 12.7499 9.89483 12.7499 10.309V13.6913C12.7498 14.1054 12.4141 14.4412 12 14.4412C11.5859 14.4412 11.2502 14.1054 11.2501 13.6913V10.309C11.2501 9.89483 11.5858 9.55913 12 9.55913Z" fill="white"/>
</svg>
