<svg width="24" height="24" viewBox="0 0 24 24" fill="none" xmlns="http://www.w3.org/2000/svg">
<path d="M17.5 5.8317V19.2582C17.4979 19.4241 17.4631 19.588 17.3977 19.7403C17.3323 19.8927 17.2375 20.0305 17.1189 20.1459C17.0002 20.2613 16.8601 20.352 16.7065 20.4127C16.5528 20.4734 16.3887 20.503 16.2236 20.4998H5.27641C5.11133 20.503 4.94717 20.4734 4.79351 20.4127C4.63986 20.352 4.49976 20.2613 4.38113 20.1459C4.26249 20.0305 4.16767 19.8927 4.10227 19.7403C4.03687 19.588 4.00213 19.4241 4 19.2582V3.24177C4.00213 3.07587 4.03687 2.91201 4.10227 2.75967C4.16767 2.60732 4.26249 2.46948 4.38113 2.35409C4.49976 2.23869 4.63986 2.14801 4.79351 2.08729C4.94717 2.02656 5.11133 1.99698 5.27641 2.00024H13.5155L17.5 5.8317Z" fill="white" stroke="#101010" stroke-width="1.5" stroke-linecap="round" stroke-linejoin="round"/>
<path d="M17.2954 5.90571H13.6136V2.20581" fill="#101010"/>
<path d="M17.2954 5.90571H13.6136V2.20581" stroke="#101010" stroke-width="1.5" stroke-linecap="round" stroke-linejoin="round"/>
<path d="M7.27264 7.96118H10.9545" stroke="#101010" stroke-width="1.25" stroke-linecap="round" stroke-linejoin="round"/>
<path d="M7.27264 12.0721H14.2272" stroke="#101010" stroke-width="1.25" stroke-linecap="round" stroke-linejoin="round"/>
<path d="M20.0597 14.8016C19.9331 14.8122 19.8059 14.8122 19.6793 14.8016C19.2146 14.7751 18.7593 14.6604 18.3375 14.4635C18.0628 14.3262 17.4025 13.9669 17.4025 13.9669C17.4025 13.9669 16.7421 14.3262 16.4621 14.4635C16.0425 14.661 15.5887 14.7757 15.1256 14.8016C14.999 14.8122 14.8718 14.8122 14.7453 14.8016L14.5076 14.7699V17.7229C14.5076 19.8043 15.5641 19.8994 17.4025 21.2043C19.2303 19.8994 20.2921 19.8043 20.2921 17.7229V14.7594L20.0597 14.8016Z" fill="#101010" stroke="white" stroke-width="3.5" stroke-linecap="round" stroke-linejoin="round"/>
<path d="M20.0597 14.8016C19.9331 14.8122 19.8059 14.8122 19.6793 14.8016C19.2146 14.7751 18.7593 14.6604 18.3375 14.4635C18.0628 14.3262 17.4025 13.9669 17.4025 13.9669C17.4025 13.9669 16.7421 14.3262 16.4621 14.4635C16.0425 14.661 15.5887 14.7757 15.1256 14.8016C14.999 14.8122 14.8718 14.8122 14.7453 14.8016L14.5076 14.7699V17.7229C14.5076 19.8043 15.5641 19.8994 17.4025 21.2043C19.2303 19.8994 20.2921 19.8043 20.2921 17.7229V14.7594L20.0597 14.8016Z" fill="#101010" stroke="#101010" stroke-width="1.5" stroke-linecap="round" stroke-linejoin="round"/>
<path d="M16.0568 17.6535L16.9163 18.5052L18.7368 16.6846" fill="#101010"/>
<path d="M16.0568 17.6535L16.9163 18.5052L18.7368 16.6846" stroke="white" stroke-width="1.25" stroke-linecap="round" stroke-linejoin="round"/>
</svg>
