<svg width="24" height="24" viewBox="0 0 24 24" fill="none" xmlns="http://www.w3.org/2000/svg">
<path d="M15.2501 2C16.7643 2 18.0001 3.23579 18.0001 4.75V6.0498H19.7501C20.25 6.0498 20.75 6.44991 20.7501 7.0498C20.7501 7.5498 20.3501 8.0498 19.7501 8.0498H18.0001V9.4502H20.7501C21.25 9.4502 21.7499 9.74988 21.7501 10.3496C21.7501 10.9496 21.2501 11.3496 20.7501 11.3496H18.0001V12.75H18.8507C19.3505 12.7503 19.8507 13.1502 19.8507 13.75C19.8507 14.2499 19.4504 14.7497 18.8507 14.75H18.0001V16.0498H19.7501C20.35 16.0498 20.75 16.5499 20.7501 17.0498C20.7501 17.6498 20.2501 18.0502 19.7501 17.9502H18.0001V19.25C18.0001 20.7642 16.7643 22 15.2501 22H5.75001C4.23579 22 3 20.7642 3 19.25V4.75C3 3.23579 4.23579 2 5.75001 2H15.2501ZM5.75001 3.5C5.06422 3.5 4.50001 4.06421 4.50001 4.75V19.25C4.50001 19.9358 5.06422 20.5 5.75001 20.5H15.2501C15.9359 20.5 16.5001 19.9358 16.5001 19.25V4.75C16.5001 4.06421 15.9359 3.5 15.2501 3.5H5.75001ZM11.4502 12.0498C12.8501 12.0499 13.9502 13.15 13.9503 14.5498C13.9503 14.8497 13.7501 15.0497 13.4502 15.0498H7.45022C7.15022 15.0498 6.95022 14.8498 6.95022 14.5498C6.95031 13.1499 8.05028 12.0498 9.45023 12.0498H11.4502ZM10.4502 8.34961C11.25 8.34975 11.95 9.04984 11.9502 9.84961C11.9502 10.6495 11.2501 11.3495 10.4502 11.3496C9.65023 11.3496 8.95023 10.6496 8.95023 9.84961C8.95044 9.04976 9.65035 8.34961 10.4502 8.34961Z" fill="#101010"/>
</svg>
