<svg width="24" height="24" viewBox="0 0 24 24" fill="none" xmlns="http://www.w3.org/2000/svg">
<path d="M6.75 8.75C6.75 7.09315 8.09315 5.75 9.75 5.75H17.25C18.9069 5.75 20.25 7.09315 20.25 8.75V18.25C20.25 19.9069 18.9069 21.25 17.25 21.25H9.75C8.09315 21.25 6.75 19.9069 6.75 18.25V8.75Z" fill="white" stroke="#101010" stroke-width="1.5" stroke-miterlimit="10" stroke-linecap="round" stroke-linejoin="round"/>
<path d="M12.6976 11.5663L13.5922 10.6717C14.3478 9.91607 15.5729 9.91607 16.3285 10.6717C17.0841 11.4273 17.0841 12.6523 16.3285 13.4079L15.4339 14.3026M14.3025 15.4339L13.4079 16.3285C12.6523 17.0841 11.4272 17.0841 10.6716 16.3285C9.91601 15.5729 9.91601 14.3479 10.6716 13.5923L11.5662 12.6976" stroke="#101010" stroke-width="1.25" stroke-miterlimit="10" stroke-linecap="round" stroke-linejoin="round"/>
<path d="M14.3641 12.6358L12.6356 14.3643" stroke="#101010" stroke-width="1.25" stroke-miterlimit="10" stroke-linecap="round" stroke-linejoin="round"/>
<path d="M15.25 2.75H6.75C5.09315 2.75 3.75 4.09315 3.75 5.75V16.25" stroke="#101010" stroke-width="1.5" stroke-miterlimit="10" stroke-linecap="round" stroke-linejoin="round"/>
</svg>
