<svg width="24" height="24" viewBox="0 0 24 24" fill="none" xmlns="http://www.w3.org/2000/svg">
<path fill-rule="evenodd" clip-rule="evenodd" d="M4 3.75C4 2.7835 4.7835 2 5.75 2H17.25C17.6642 2 18 2.33579 18 2.75C18 3.16421 17.6642 3.5 17.25 3.5H5.75C5.61193 3.5 5.5 3.61193 5.5 3.75V17.25C5.5 17.6642 5.16421 18 4.75 18C4.33579 18 4 17.6642 4 17.25V3.75Z" fill="#101010"/>
<path fill-rule="evenodd" clip-rule="evenodd" d="M7 6.75C7 5.7835 7.7835 5 8.75 5H18.25C19.2165 5 20 5.7835 20 6.75V20.25C20 21.2165 19.2165 22 18.25 22H8.75C7.7835 22 7 21.2165 7 20.25V6.75ZM8.75 6.5C8.61193 6.5 8.5 6.61193 8.5 6.75V20.25C8.5 20.3881 8.61193 20.5 8.75 20.5H18.25C18.3881 20.5 18.5 20.3881 18.5 20.25V6.75C18.5 6.61193 18.3881 6.5 18.25 6.5H8.75Z" fill="#101010"/>
</svg>
