<svg width="24" height="24" viewBox="0 0 24 24" fill="none" xmlns="http://www.w3.org/2000/svg">
<path fill-rule="evenodd" clip-rule="evenodd" d="M4.7937 13.2591C5.13888 13.2591 5.4187 13.5389 5.4187 13.8841V14.6764C5.4187 17.0926 7.37746 19.0514 9.7937 19.0514H11.0177C11.3628 19.0514 11.6427 19.3312 11.6427 19.6764C11.6427 20.0216 11.3628 20.3014 11.0177 20.3014H9.7937C6.6871 20.3014 4.1687 17.783 4.1687 14.6764V13.8841C4.1687 13.5389 4.44852 13.2591 4.7937 13.2591Z" fill="#101010"/>
<path fill-rule="evenodd" clip-rule="evenodd" d="M12 3.82362C8.53355 3.82363 5.72345 6.63373 5.72345 10.1002V10.9616C5.72345 11.3758 5.38766 11.7116 4.97345 11.7116C4.55923 11.7116 4.22345 11.3758 4.22345 10.9616V10.1002C4.22345 5.8053 7.70513 2.32363 12 2.32362C16.2949 2.32362 19.7766 5.80531 19.7766 10.1002V10.9616C19.7766 11.3758 19.4408 11.7116 19.0266 11.7116C18.6123 11.7116 18.2766 11.3758 18.2766 10.9616V10.1002C18.2766 6.63373 15.4664 3.82362 12 3.82362Z" fill="#101010"/>
<path d="M2.63037 11.2677C2.63037 10.4393 3.30194 9.76768 4.13037 9.76768H5.63037V14.8796H4.13037C3.30194 14.8796 2.63037 14.208 2.63037 13.3796V11.2677Z" fill="white"/>
<path fill-rule="evenodd" clip-rule="evenodd" d="M1.88037 11.2677C1.88037 10.025 2.88773 9.01768 4.13037 9.01768H5.63037C6.04458 9.01768 6.38037 9.35347 6.38037 9.76768V14.8796C6.38037 15.2938 6.04458 15.6296 5.63037 15.6296H4.13037C2.88773 15.6296 1.88037 14.6222 1.88037 13.3796V11.2677ZM4.13037 10.5177C3.71616 10.5177 3.38037 10.8535 3.38037 11.2677V13.3796C3.38037 13.7938 3.71616 14.1296 4.13037 14.1296H4.88037V10.5177H4.13037Z" fill="#101010"/>
<path d="M18.3696 9.76768H19.8696C20.6981 9.76768 21.3696 10.4393 21.3696 11.2677V13.3796C21.3696 14.208 20.6981 14.8796 19.8696 14.8796H18.3696V9.76768Z" fill="white"/>
<path fill-rule="evenodd" clip-rule="evenodd" d="M17.6196 9.76768C17.6196 9.35347 17.9554 9.01768 18.3696 9.01768H19.8696C21.1123 9.01768 22.1196 10.025 22.1196 11.2677V13.3796C22.1196 14.6222 21.1123 15.6296 19.8696 15.6296H18.3696C17.9554 15.6296 17.6196 15.2938 17.6196 14.8796V9.76768ZM19.1196 10.5177V14.1296H19.8696C20.2838 14.1296 20.6196 13.7938 20.6196 13.3796V11.2677C20.6196 10.8535 20.2838 10.5177 19.8696 10.5177H19.1196Z" fill="#101010"/>
<path d="M9.72278 19.6764C9.72278 18.986 10.2824 18.4264 10.9728 18.4264H13.6101C14.3004 18.4264 14.8601 18.986 14.8601 19.6764C14.8601 20.3667 14.3004 20.9264 13.6101 20.9264H10.9728C10.2824 20.9264 9.72278 20.3667 9.72278 19.6764Z" fill="#101010"/>
</svg>
