<svg width="24" height="24" viewBox="0 0 24 24" fill="none" xmlns="http://www.w3.org/2000/svg">
<path d="M12.15 14.65C9.30515 14.65 6.86222 16.3708 5.80528 18.8283C6.50535 19.6242 8.75439 21.216 12.15 21.216C15.5456 21.216 17.7427 19.5079 18.4167 18.6538C17.321 16.2897 14.927 14.65 12.15 14.65Z" fill="#101010"/>
<path fill-rule="evenodd" clip-rule="evenodd" d="M12.25 15.4C9.99484 15.4 8.02765 16.4801 6.86897 18.1735C6.85843 18.189 6.84731 18.204 6.83565 18.2186L6.43565 18.7186C6.17689 19.042 5.70492 19.0944 5.38147 18.8357C5.05803 18.5769 5.00559 18.105 5.26434 17.7815L5.64728 17.3028C7.0906 15.2101 9.51545 13.9 12.25 13.9C14.9948 13.9 17.4276 15.22 18.869 17.3265L18.8741 17.334L19.274 17.934C19.5038 18.2787 19.4107 18.7443 19.066 18.9741C18.7214 19.2038 18.2557 19.1107 18.026 18.7661L17.6286 18.17C16.4696 16.4786 14.5036 15.4 12.25 15.4Z" fill="#101010"/>
<path fill-rule="evenodd" clip-rule="evenodd" d="M12 3.5C7.30558 3.5 3.5 7.30558 3.5 12C3.5 16.6944 7.30558 20.5 12 20.5C16.6944 20.5 20.5 16.6944 20.5 12C20.5 7.30558 16.6944 3.5 12 3.5ZM2 12C2 6.47715 6.47715 2 12 2C17.5228 2 22 6.47715 22 12C22 17.5228 17.5228 22 12 22C6.47715 22 2 17.5228 2 12Z" fill="#101010"/>
<path d="M12.15 12.15C13.6964 12.15 14.95 10.8964 14.95 9.35C14.95 7.8036 13.6964 6.54999 12.15 6.54999C10.6036 6.54999 9.34996 7.8036 9.34996 9.35C9.34996 10.8964 10.6036 12.15 12.15 12.15Z" fill="#101010"/>
<path fill-rule="evenodd" clip-rule="evenodd" d="M12.15 7.29999C11.0178 7.29999 10.1 8.21781 10.1 9.35C10.1 10.4822 11.0178 11.4 12.15 11.4C13.2821 11.4 14.2 10.4822 14.2 9.35C14.2 8.21781 13.2821 7.29999 12.15 7.29999ZM8.59996 9.35C8.59996 7.38939 10.1893 5.79999 12.15 5.79999C14.1106 5.79999 15.7 7.38939 15.7 9.35C15.7 11.3106 14.1106 12.9 12.15 12.9C10.1893 12.9 8.59996 11.3106 8.59996 9.35Z" fill="#101010"/>
</svg>
