<svg width="24" height="24" viewBox="0 0 24 24" fill="none" xmlns="http://www.w3.org/2000/svg">
<ellipse cx="11.7616" cy="11.7885" rx="8.38045" ry="8.45702" fill="white"/>
<path d="M9.88477 2.5C9.93271 2.51195 9.97307 2.51875 9.99805 2.52246C10.0327 2.52761 10.0329 2.52799 10.0537 2.53125L10.0674 2.5332C10.269 2.58467 10.4452 2.67404 10.7178 2.79297C10.9689 2.9025 11.283 3.02615 11.6533 3.04688C12.1193 3.07282 12.4989 2.91791 12.7881 2.78809C13.099 2.64849 13.2852 2.55323 13.5 2.52246H13.5557C13.5853 2.52196 13.6479 2.51934 13.7246 2.5H13.8359L14.1914 2.55469C14.5769 2.64158 14.7551 2.78118 14.9082 2.95312C14.9997 3.05595 15.0808 3.16927 15.1963 3.3252C15.3067 3.47422 15.4378 3.64806 15.6084 3.82812C16.109 4.35642 16.7005 4.46393 17.1973 4.51758L17.6553 4.56641C17.8488 4.59348 18.0846 4.70209 18.3105 4.88086C18.5349 5.05842 18.7105 5.27556 18.8037 5.46973H18.8047C18.9092 5.68751 18.9342 5.92167 18.9727 6.26855C19.0082 6.5895 19.0566 7.01041 19.2891 7.41504V7.41602C19.5199 7.8174 19.8558 8.06059 20.1094 8.24219C20.3837 8.43863 20.5637 8.56588 20.6934 8.75586C20.7857 8.89123 20.8672 9.0593 20.9199 9.22168L20.9619 9.38086C20.9659 9.40047 20.9669 9.41241 20.9756 9.48145C20.9796 9.51327 20.9877 9.56013 21 9.61426V9.88086C20.9884 9.93111 20.9813 9.97369 20.9775 10.001L20.9658 10.0781C20.9299 10.2228 20.8632 10.3703 20.7686 10.5771C20.6817 10.7668 20.5702 11.0094 20.5107 11.2764C20.3144 12.1578 20.7077 12.8011 20.9258 13.3154L21 13.6494V13.9053C20.9889 13.963 20.9786 14.0174 20.9717 14.0605C20.9611 14.1262 20.9526 14.1728 20.9424 14.2148C20.8512 14.5884 20.7198 14.7614 20.5615 14.9062C20.469 14.9909 20.3642 15.0689 20.2207 15.1748C20.0827 15.2767 19.9181 15.3983 19.7441 15.5527C19.132 16.0963 19.0422 16.7681 18.9668 17.2666C18.8888 17.7826 18.824 18.1522 18.4844 18.4941C18.2258 18.7545 18.0256 18.8413 17.8125 18.8906C17.691 18.9187 17.5604 18.9351 17.3877 18.9561C17.2207 18.9763 17.0213 19 16.7988 19.043C16.0441 19.1887 15.6435 19.6444 15.3428 20.0273C15.0304 20.4253 14.848 20.6931 14.498 20.8545C14.3647 20.9159 14.2186 20.9533 14.0264 21H13.5068C13.4621 20.9868 13.4226 20.9766 13.3936 20.9697C13.3332 20.9555 13.3104 20.9505 13.2891 20.9434C13.1821 20.9074 13.0808 20.8639 12.9717 20.8135C12.8701 20.7666 12.7417 20.704 12.6182 20.6523C12.3495 20.5401 12.0358 20.4475 11.6299 20.4727C11.2457 20.4966 10.9125 20.6337 10.6494 20.748C10.3816 20.8645 10.1909 20.9526 9.99219 21H9.4707C9.23571 20.9454 9.03883 20.8829 8.86914 20.7871C8.52974 20.5953 8.3955 20.3404 8.08301 19.9375C7.93704 19.7493 7.75498 19.5419 7.50098 19.3701C7.24262 19.1954 6.93234 19.0722 6.54395 19.0166C6.10823 18.9542 5.88366 18.9473 5.63965 18.8809C5.4439 18.8275 5.25848 18.7367 5.02637 18.5029C4.77121 18.2458 4.68337 18.0559 4.63379 17.8604C4.60574 17.7496 4.58751 17.6272 4.56836 17.4668C4.55002 17.3132 4.53012 17.1204 4.49707 16.9092C4.36158 16.0449 3.83304 15.6173 3.41699 15.2969C2.99389 14.9711 2.7216 14.769 2.59961 14.3545L2.5 13.9082V13.6387C2.51171 13.588 2.5197 13.5449 2.52344 13.5176L2.53418 13.4414C2.571 13.2934 2.62428 13.1573 2.68848 13.0117C2.7468 12.8795 2.83281 12.7002 2.89648 12.5342C3.04179 12.1554 3.1249 11.7231 2.96387 11.1514C2.89965 10.9236 2.78211 10.6898 2.70117 10.5205C2.60689 10.3233 2.55335 10.1975 2.53516 10.1055L2.52441 9.97559C2.52179 9.92759 2.51471 9.85344 2.5 9.76953C2.4999 9.76441 2.50006 9.75957 2.5 9.75684C2.51649 9.45778 2.5764 9.17451 2.69336 8.94141C2.85106 8.62723 3.09785 8.46515 3.47949 8.17285C3.84648 7.89175 4.28064 7.51606 4.4502 6.80469C4.50484 6.57538 4.53223 6.372 4.55273 6.19727C4.57421 6.01423 4.58661 5.88457 4.61133 5.75488C4.65331 5.5347 4.72783 5.33205 4.97852 5.06348C5.25614 4.76599 5.46637 4.67646 5.69043 4.62598C5.82194 4.59638 5.96036 4.57938 6.15039 4.55566C6.33315 4.53285 6.54876 4.50477 6.79199 4.44922C7.50165 4.28706 7.88101 3.84681 8.16406 3.47949C8.46031 3.09504 8.62779 2.84268 8.94434 2.68457C9.11162 2.60115 9.39941 2.51725 9.5752 2.5H9.88477ZM11.751 4.25098C7.6086 4.25098 4.25098 7.61241 4.25098 11.7578C4.25114 15.9031 7.60868 19.2637 11.751 19.2637C15.7252 19.2635 18.9742 16.1696 19.2314 12.2578H19.25V11.7578L19.2402 11.3711C19.0393 7.40547 15.7638 4.25102 11.751 4.25098Z" fill="#101010" stroke="#101010"/>
<path d="M8.78137 11.9674L10.6168 13.8196L14.7187 9.68024" stroke="#101010" stroke-width="1.5" stroke-linecap="round" stroke-linejoin="round"/>
</svg>
