<svg width="24" height="24" viewBox="0 0 24 24" fill="none" xmlns="http://www.w3.org/2000/svg">
<path d="M3.75 4.75C3.75 4.19772 4.19772 3.75 4.75 3.75H9.25C9.80228 3.75 10.25 4.19772 10.25 4.75V11.25C10.25 11.8023 9.80228 12.25 9.25 12.25H4.75C4.19772 12.25 3.75 11.8023 3.75 11.25V4.75Z" fill="white"/>
<path fill-rule="evenodd" clip-rule="evenodd" d="M3 4.75C3 3.7835 3.7835 3 4.75 3H9.25C10.2165 3 11 3.7835 11 4.75V11.25C11 12.2165 10.2165 13 9.25 13H4.75C3.7835 13 3 12.2165 3 11.25V4.75ZM4.75 4.5C4.61193 4.5 4.5 4.61193 4.5 4.75V11.25C4.5 11.3881 4.61193 11.5 4.75 11.5H9.25C9.38807 11.5 9.5 11.3881 9.5 11.25V4.75C9.5 4.61193 9.38807 4.5 9.25 4.5H4.75Z" fill="#101010"/>
<path d="M13.75 12.75C13.75 12.1977 14.1977 11.75 14.75 11.75H19.25C19.8023 11.75 20.25 12.1977 20.25 12.75V19.25C20.25 19.8023 19.8023 20.25 19.25 20.25H14.75C14.1977 20.25 13.75 19.8023 13.75 19.25V12.75Z" fill="white"/>
<path fill-rule="evenodd" clip-rule="evenodd" d="M13 12.75C13 11.7835 13.7835 11 14.75 11H19.25C20.2165 11 21 11.7835 21 12.75V19.25C21 20.2165 20.2165 21 19.25 21H14.75C13.7835 21 13 20.2165 13 19.25V12.75ZM14.75 12.5C14.6119 12.5 14.5 12.6119 14.5 12.75V19.25C14.5 19.3881 14.6119 19.5 14.75 19.5H19.25C19.3881 19.5 19.5 19.3881 19.5 19.25V12.75C19.5 12.6119 19.3881 12.5 19.25 12.5H14.75Z" fill="#101010"/>
<path d="M13.75 4.75C13.75 4.19772 14.1977 3.75 14.75 3.75H19.25C19.8023 3.75 20.25 4.19772 20.25 4.75V7.25C20.25 7.80228 19.8023 8.25 19.25 8.25H14.75C14.1977 8.25 13.75 7.80228 13.75 7.25V4.75Z" fill="white"/>
<path fill-rule="evenodd" clip-rule="evenodd" d="M13 4.75C13 3.7835 13.7835 3 14.75 3H19.25C20.2165 3 21 3.7835 21 4.75V7.25C21 8.2165 20.2165 9 19.25 9H14.75C13.7835 9 13 8.2165 13 7.25V4.75ZM14.75 4.5C14.6119 4.5 14.5 4.61193 14.5 4.75V7.25C14.5 7.38807 14.6119 7.5 14.75 7.5H19.25C19.3881 7.5 19.5 7.38807 19.5 7.25V4.75C19.5 4.61193 19.3881 4.5 19.25 4.5H14.75Z" fill="#101010"/>
<path d="M3.75 16.75C3.75 16.1977 4.19772 15.75 4.75 15.75H9.25C9.80228 15.75 10.25 16.1977 10.25 16.75V19.25C10.25 19.8023 9.80228 20.25 9.25 20.25H4.75C4.19772 20.25 3.75 19.8023 3.75 19.25V16.75Z" fill="white"/>
<path fill-rule="evenodd" clip-rule="evenodd" d="M3 16.75C3 15.7835 3.7835 15 4.75 15H9.25C10.2165 15 11 15.7835 11 16.75V19.25C11 20.2165 10.2165 21 9.25 21H4.75C3.7835 21 3 20.2165 3 19.25V16.75ZM4.75 16.5C4.61193 16.5 4.5 16.6119 4.5 16.75V19.25C4.5 19.3881 4.61193 19.5 4.75 19.5H9.25C9.38807 19.5 9.5 19.3881 9.5 19.25V16.75C9.5 16.6119 9.38807 16.5 9.25 16.5H4.75Z" fill="#101010"/>
</svg>
