<svg width="24" height="24" viewBox="0 0 24 24" fill="none" xmlns="http://www.w3.org/2000/svg">
<path fill-rule="evenodd" clip-rule="evenodd" d="M5.19328 4.95694C5.06346 4.96241 4.95947 5.0664 4.95401 5.19621L4.72981 10.5253C4.7151 10.8748 4.84749 11.2144 5.09482 11.4617L12.7286 19.0955C13.2167 19.5836 14.0082 19.5836 14.4964 19.0955L19.0926 14.4993C19.5807 14.0111 19.5807 13.2197 19.0926 12.7315L11.4588 5.09776C11.2115 4.85043 10.8718 4.71804 10.5224 4.73274L5.19328 4.95694ZM3.45533 5.13316C3.49356 4.22445 4.22152 3.4965 5.13023 3.45827L10.4593 3.23407C11.2281 3.20172 11.9753 3.49298 12.5194 4.0371L20.1532 11.6709C21.2272 12.7448 21.2272 14.486 20.1532 15.56L15.557 20.1561C14.4831 21.2301 12.7419 21.2301 11.6679 20.1561L4.03416 12.5224C3.49004 11.9783 3.19879 11.2311 3.23113 10.4622L3.45533 5.13316Z" fill="#101010"/>
<path d="M13.2933 10.4286C13.2179 10.3518 13.1931 10.2755 13.194 10.174C13.1944 10.1232 13.2204 10.0473 13.2716 9.99701C13.3228 9.9467 13.3991 9.92197 13.4755 9.89724C13.5518 9.87252 13.6273 9.94929 13.7028 10.0261L15.7909 12.15C15.8664 12.2268 15.8911 12.3031 15.8903 12.4046C15.8647 12.4298 15.8386 12.5057 15.7875 12.556C15.7363 12.6063 15.6599 12.6311 15.5836 12.6558C15.5073 12.6805 15.4318 12.6037 15.3563 12.527L15.0544 12.2199C14.9286 12.0919 14.8028 11.964 14.7274 11.8872C14.6267 11.7849 14.5764 11.7337 14.5764 11.7337L14.5508 11.7588C14.6007 11.8608 14.5994 12.013 14.5981 12.1653C14.5968 12.3175 14.5448 12.4693 14.4671 12.6463L14.8697 13.0557C14.9452 13.1325 14.9699 13.2088 14.969 13.3103C14.969 13.3103 14.943 13.3862 14.8918 13.4366C14.8406 13.4869 14.7643 13.5116 14.688 13.5363C14.6116 13.5611 14.5361 13.4843 14.4607 13.4075L14.0833 13.0237C13.879 13.1742 13.6751 13.274 13.4717 13.323C13.2683 13.372 13.0653 13.3703 12.8879 13.3434C12.7105 13.3165 12.5079 13.264 12.3566 13.1612C12.1796 13.0836 12.0282 12.9808 11.9024 12.8529L11.9316 15.3907C11.9307 15.4922 11.9043 15.6189 11.8275 15.6943C11.7507 15.7698 11.6744 15.7945 11.5729 15.7937C11.4714 15.7928 11.3955 15.7668 11.32 15.69C11.2697 15.6388 11.2445 15.6133 11.2198 15.5369C11.1951 15.4606 11.1955 15.4098 11.1708 15.3335L11.1711 12.3137C11.172 12.2122 11.1724 12.1615 11.1984 12.0856C11.2244 12.0097 11.25 11.9845 11.3012 11.9342C11.378 11.8587 11.4543 11.834 11.5558 11.8349C11.6573 11.8357 11.7332 11.8618 11.8087 11.9385L11.8842 12.0153C12.0099 12.1432 12.1106 12.2456 12.262 12.3484C12.4133 12.4512 12.5396 12.5284 12.6662 12.5548C12.818 12.6069 12.9703 12.6082 13.0974 12.5839C13.2496 12.5852 13.3771 12.5101 13.5302 12.4099L12.3981 11.2584C12.3226 11.1816 12.2979 11.1053 12.2988 11.0038C12.2988 11.0038 12.3248 10.9279 12.376 10.8776C12.4272 10.8272 12.5035 10.8025 12.5798 10.7778C12.6562 10.7531 12.7316 10.8298 12.8071 10.9066L13.9141 12.0326C14.1461 11.6031 14.0229 11.1707 13.5449 10.6845L13.2933 10.4286Z" fill="#7E7E7E"/>
<path fill-rule="evenodd" clip-rule="evenodd" d="M15.3563 12.527C15.4318 12.6037 15.5073 12.6805 15.5836 12.6558C15.6599 12.6311 15.7363 12.6063 15.7875 12.556C15.8174 12.5265 15.8388 12.4883 15.8565 12.4566C15.869 12.4342 15.8797 12.4151 15.8903 12.4046C15.8911 12.3031 15.8664 12.2268 15.7909 12.15L13.7028 10.0261C13.6273 9.94929 13.5518 9.87252 13.4755 9.89724C13.3991 9.92197 13.3228 9.9467 13.2716 9.99701C13.2204 10.0473 13.1944 10.1232 13.194 10.174C13.1931 10.2755 13.2179 10.3518 13.2933 10.4286L13.5449 10.6845C13.7949 10.9388 13.9479 11.1784 14.0037 11.4105C14.0168 11.465 14.0246 11.519 14.027 11.5727C14.0302 11.6446 14.0238 11.716 14.0079 11.787C13.9895 11.8692 13.9582 11.9509 13.9141 12.0326L12.8071 10.9066C12.7396 10.8379 12.6721 10.7692 12.6039 10.7732C12.5959 10.7737 12.5879 10.7752 12.5798 10.7778C12.5533 10.7864 12.5268 10.795 12.5013 10.8046C12.4535 10.8228 12.4094 10.8447 12.376 10.8776C12.3248 10.9279 12.2988 11.0038 12.2988 11.0038C12.2979 11.1053 12.3226 11.1816 12.3981 11.2584L13.5302 12.4099C13.3771 12.5101 13.2496 12.5852 13.0974 12.5839C13.0699 12.5891 13.0413 12.5932 13.0118 12.5958C12.9046 12.6053 12.7853 12.5957 12.6662 12.5548C12.5396 12.5284 12.4133 12.4512 12.262 12.3484C12.1106 12.2456 12.0099 12.1432 11.8842 12.0153L11.8087 11.9385C11.746 11.8748 11.6831 11.846 11.6055 11.8376C11.5896 11.8359 11.5731 11.835 11.5558 11.8349C11.4933 11.8343 11.4404 11.8435 11.3911 11.8682C11.3602 11.8837 11.3307 11.9052 11.3012 11.9342C11.25 11.9845 11.2244 12.0097 11.1984 12.0856C11.1724 12.1615 11.172 12.2122 11.1711 12.3137L11.1708 15.3335C11.1831 15.3717 11.1892 15.4034 11.1953 15.4352C11.2014 15.467 11.2074 15.4987 11.2198 15.5369C11.2445 15.6133 11.2697 15.6388 11.32 15.69C11.3955 15.7668 11.4714 15.7928 11.5729 15.7937C11.6744 15.7945 11.7507 15.7698 11.8275 15.6943C11.9043 15.6189 11.9307 15.4922 11.9316 15.3907L11.9024 12.8529C12.0282 12.9808 12.1796 13.0836 12.3566 13.1612C12.3726 13.1721 12.3892 13.1825 12.4063 13.1923C12.5506 13.2749 12.7293 13.3194 12.8879 13.3434C13.0653 13.3703 13.2683 13.372 13.4717 13.323C13.6751 13.274 13.879 13.1742 14.0833 13.0237L14.4607 13.4075C14.5361 13.4843 14.6116 13.5611 14.688 13.5363C14.7643 13.5116 14.8406 13.4869 14.8918 13.4366C14.943 13.3862 14.969 13.3103 14.969 13.3103C14.9699 13.2088 14.9452 13.1325 14.8697 13.0557L14.4671 12.6463C14.5016 12.5677 14.531 12.4941 14.5532 12.4233C14.581 12.3345 14.5974 12.2499 14.5981 12.1653C14.5985 12.1145 14.599 12.0638 14.5975 12.0149C14.5946 11.9171 14.5841 11.8268 14.5508 11.7588L14.5764 11.7337L15.3563 12.527Z" fill="#101010"/>
<path d="M8.26 8.34204C8.72361 7.87843 8.72957 7.13273 8.27332 6.67648C7.81707 6.22022 7.07137 6.22619 6.60776 6.6898C6.14415 7.15341 6.13818 7.89911 6.59443 8.35536C7.05069 8.81161 7.79638 8.80565 8.26 8.34204Z" fill="#7E7E7E"/>
<path fill-rule="evenodd" clip-rule="evenodd" d="M7.19935 7.28139C7.09324 7.38749 7.06721 7.59166 7.21267 7.73713C7.35813 7.88259 7.5623 7.85656 7.66841 7.75045C7.77451 7.64434 7.80055 7.44017 7.65508 7.29471C7.50962 7.14925 7.30545 7.17528 7.19935 7.28139ZM8.27332 6.67648C8.72957 7.13273 8.72361 7.87843 8.26 8.34204C7.79638 8.80565 7.05069 8.81161 6.59443 8.35536C6.13818 7.89911 6.14415 7.15341 6.60776 6.6898C7.07137 6.22619 7.81707 6.22022 8.27332 6.67648Z" fill="#101010"/>
</svg>
