<svg width="24" height="24" viewBox="0 0 24 24" fill="none" xmlns="http://www.w3.org/2000/svg">
<path d="M18.7001 19.25V7.75H5.20007V19.25C5.20007 20.3546 6.0955 21.25 7.20007 21.25H16.7001C17.8046 21.25 18.7001 20.3546 18.7001 19.25Z" fill="white"/>
<path d="M20.3 7.75H3.80005V4.75H6.50005L7.50005 2.75H16.6L17.6 4.75H20.3V7.75Z" fill="white"/>
<path d="M18.7 7.75V19.25C18.7 20.3546 17.8046 21.25 16.7 21.25H7.20004C6.09547 21.25 5.20004 20.3546 5.20004 19.25V7.75M20.3 7.75H3.80005V4.75H6.50005L7.50005 2.75H16.6L17.6 4.75H20.3V7.75Z" stroke="#101010" stroke-width="1.5" stroke-miterlimit="10" stroke-linecap="round" stroke-linejoin="round"/>
<path d="M9.69995 11.6499V16.2499M14.3 11.6499V16.2499" stroke="#101010" stroke-width="1.5" stroke-miterlimit="10" stroke-linecap="round" stroke-linejoin="round"/>
</svg>
