<svg width="24" height="24" viewBox="0 0 24 24" fill="none" xmlns="http://www.w3.org/2000/svg">
<path fill-rule="evenodd" clip-rule="evenodd" d="M7.82916 2.50709C7.95621 2.253 8.21591 2.0925 8.49998 2.0925H15.6C15.8841 2.0925 16.1438 2.253 16.2708 2.50709L17.0635 4.0925H19.3C19.7142 4.0925 20.05 4.42829 20.05 4.8425V7.8425C20.05 8.25671 19.7142 8.5925 19.3 8.5925H18.45V19.3425C18.45 20.8567 17.2142 22.0925 15.7 22.0925H8.19998C6.68577 22.0925 5.44998 20.8567 5.44998 19.3425V8.5925H4.79999C4.38577 8.5925 4.04999 8.25671 4.04999 7.8425V4.8425C4.04999 4.42829 4.38577 4.0925 4.79999 4.0925H7.03646L7.82916 2.50709ZM6.94998 8.5925V19.3425C6.94998 20.0283 7.5142 20.5925 8.19998 20.5925H15.7C16.3858 20.5925 16.95 20.0283 16.95 19.3425V8.5925H6.94998ZM18.55 7.0925V5.5925H16.6C16.3159 5.5925 16.0562 5.432 15.9292 5.17791L15.1365 3.5925H8.96351L8.1708 5.17791C8.04376 5.432 7.78406 5.5925 7.49998 5.5925H5.54999V7.0925H18.55ZM10.2 10.9925C10.6142 10.9925 10.95 11.3283 10.95 11.7425V16.3425C10.95 16.7567 10.6142 17.0925 10.2 17.0925C9.78577 17.0925 9.44998 16.7567 9.44998 16.3425V11.7425C9.44998 11.3283 9.78577 10.9925 10.2 10.9925ZM13.8 10.9925C14.2142 10.9925 14.55 11.3283 14.55 11.7425V16.3425C14.55 16.7567 14.2142 17.0925 13.8 17.0925C13.3858 17.0925 13.05 16.7567 13.05 16.3425V11.7425C13.05 11.3283 13.3858 10.9925 13.8 10.9925Z" fill="#101010"/>
</svg>
