<svg width="24" height="24" viewBox="0 0 24 24" fill="none" xmlns="http://www.w3.org/2000/svg">
<path fill-rule="evenodd" clip-rule="evenodd" d="M11.9559 2C12.3701 2 12.7059 2.33579 12.7059 2.75V21.25C12.7059 21.6642 12.3701 22 11.9559 22C11.5417 22 11.2059 21.6642 11.2059 21.25V2.75C11.2059 2.33579 11.5417 2 11.9559 2Z" fill="#101010"/>
<path fill-rule="evenodd" clip-rule="evenodd" d="M22 12C22 12.4142 21.6642 12.75 21.25 12.75L2.75 12.75C2.33579 12.75 2 12.4142 2 12C2 11.5858 2.33579 11.25 2.75 11.25L21.25 11.25C21.6642 11.25 22 11.5858 22 12Z" fill="#101010"/>
<path d="M19.25 12C19.25 16.0041 16.0041 19.25 12 19.25C7.99594 19.25 4.75 16.0041 4.75 12C4.75 7.99594 7.99594 4.75 12 4.75C16.0041 4.75 19.25 7.99594 19.25 12Z" fill="white"/>
<path fill-rule="evenodd" clip-rule="evenodd" d="M12 5.5C8.41015 5.5 5.5 8.41015 5.5 12C5.5 15.5899 8.41015 18.5 12 18.5C15.5899 18.5 18.5 15.5899 18.5 12C18.5 8.41015 15.5899 5.5 12 5.5ZM4 12C4 7.58172 7.58172 4 12 4C16.4183 4 20 7.58172 20 12C20 16.4183 16.4183 20 12 20C7.58172 20 4 16.4183 4 12Z" fill="#101010"/>
<path d="M15 12C15 13.6569 13.6569 15 12 15C10.3431 15 9 13.6569 9 12C9 10.3431 10.3431 9 12 9C13.6569 9 15 10.3431 15 12Z" fill="#101010"/>
</svg>
