<svg width="24" height="24" viewBox="0 0 24 24" fill="none" xmlns="http://www.w3.org/2000/svg">
<path fill-rule="evenodd" clip-rule="evenodd" d="M3.19182 12.5009C2.93606 12.216 2.93606 11.7841 3.19182 11.4991L7.90336 6.24907C8.18001 5.9408 8.65419 5.91517 8.96247 6.19182C9.27074 6.46848 9.29638 6.94266 9.01972 7.25094L4.75774 12L9.01972 16.7491C9.29638 17.0573 9.27075 17.5315 8.96247 17.8082C8.6542 18.0848 8.18001 18.0592 7.90336 17.7509L3.19182 12.5009Z" fill="#101010"/>
<path fill-rule="evenodd" clip-rule="evenodd" d="M20.8292 11.4991C21.0849 11.7841 21.0849 12.216 20.8292 12.5009L16.1176 17.7509C15.841 18.0592 15.3668 18.0848 15.0585 17.8082C14.7502 17.5315 14.7246 17.0573 15.0013 16.7491L19.2633 12L15.0013 7.25094C14.7246 6.94266 14.7502 6.46848 15.0585 6.19183C15.3668 5.91517 15.841 5.9408 16.1176 6.24907L20.8292 11.4991Z" fill="#101010"/>
</svg>
