<svg width="24" height="24" viewBox="0 0 24 24" fill="none" xmlns="http://www.w3.org/2000/svg">
<path fill-rule="evenodd" clip-rule="evenodd" d="M13.3268 21.25H5.7416C4.73179 21.25 3.96094 20.4193 3.96094 19.4301V7.51049C3.96094 6.52123 4.73179 5.69056 5.7416 5.69056H13.4039C14.4137 5.69056 15.1845 6.52123 15.1845 7.51049V19.4301C15.1845 20.4948 14.3366 21.25 13.3268 21.25Z" fill="white"/>
<path fill-rule="evenodd" clip-rule="evenodd" d="M5.24578 6.44057C4.67686 6.44057 4.21512 6.90827 4.21512 7.5105V19.4301C4.21512 20.0323 4.67686 20.5 5.24578 20.5H13.8309C14.4619 20.5 14.9387 20.0461 14.9387 19.4301V7.5105C14.9387 6.90827 14.477 6.44057 13.908 6.44057H5.24578ZM2.71512 7.5105C2.71512 6.13422 3.79508 4.94057 5.24578 4.94057H13.908C15.3587 4.94057 16.4387 6.13422 16.4387 7.5105V19.4301C16.4387 20.9436 15.2196 22 13.8309 22H5.24578C3.79508 22 2.71512 20.8064 2.71512 19.4301V7.5105Z" fill="#101010"/>
<path fill-rule="evenodd" clip-rule="evenodd" d="M6.24292 15.6406C6.24292 15.2955 6.52274 15.0156 6.86792 15.0156H8.36792C8.7131 15.0156 8.99292 15.2955 8.99292 15.6406C8.99292 15.9858 8.7131 16.2656 8.36792 16.2656H6.86792C6.52274 16.2656 6.24292 15.9858 6.24292 15.6406Z" fill="#101010"/>
<path fill-rule="evenodd" clip-rule="evenodd" d="M10.1526 15.6406C10.1526 15.2955 10.4324 15.0156 10.7776 15.0156H12.2776C12.6228 15.0156 12.9026 15.2955 12.9026 15.6406C12.9026 15.9858 12.6228 16.2656 12.2776 16.2656H10.7776C10.4324 16.2656 10.1526 15.9858 10.1526 15.6406Z" fill="#101010"/>
<path fill-rule="evenodd" clip-rule="evenodd" d="M6.24292 18.6006C6.24292 18.2554 6.52274 17.9756 6.86792 17.9756H8.36792C8.7131 17.9756 8.99292 18.2554 8.99292 18.6006C8.99292 18.9458 8.7131 19.2256 8.36792 19.2256H6.86792C6.52274 19.2256 6.24292 18.9458 6.24292 18.6006Z" fill="#101010"/>
<path fill-rule="evenodd" clip-rule="evenodd" d="M10.1526 18.6006C10.1526 18.2554 10.4324 17.9756 10.7776 17.9756H12.2776C12.6228 17.9756 12.9026 18.2554 12.9026 18.6006C12.9026 18.9458 12.6228 19.2256 12.2776 19.2256H10.7776C10.4324 19.2256 10.1526 18.9458 10.1526 18.6006Z" fill="#101010"/>
<path fill-rule="evenodd" clip-rule="evenodd" d="M12.4021 13.8957H6.75172C6.05795 13.8957 5.51065 13.2916 5.51065 12.6044V10.709C5.51065 10.0293 6.05025 9.41765 6.75172 9.41765H12.4021C13.0958 9.41765 13.6431 10.0218 13.6431 10.709V12.6044C13.6431 13.2916 13.0958 13.8957 12.4021 13.8957Z" fill="#101010"/>
<path fill-rule="evenodd" clip-rule="evenodd" d="M12.6337 2.74999L11.0843 3.58067L9.53491 2.74999L7.98551 3.58067L6.4361 2.74999V8.05875H12.6337V2.74999Z" fill="white"/>
<path fill-rule="evenodd" clip-rule="evenodd" d="M6.05092 2.10645C6.27722 1.97101 6.55803 1.96438 6.79047 2.08899L7.98551 2.72968L9.18054 2.08899C9.40189 1.97033 9.66794 1.97033 9.88929 2.08899L11.0843 2.72968L12.2794 2.08899C12.5118 1.96438 12.7926 1.97101 13.0189 2.10645C13.2452 2.2419 13.3837 2.48626 13.3837 2.74999V8.05875C13.3837 8.47296 13.0479 8.80875 12.6337 8.80875H6.4361C6.02188 8.80875 5.6861 8.47296 5.6861 8.05875V2.74999C5.6861 2.48626 5.82462 2.2419 6.05092 2.10645ZM11.8837 4.00307L11.4387 4.24166C11.2174 4.36033 10.9513 4.36033 10.7299 4.24166L9.53491 3.60098L8.33988 4.24166C8.11853 4.36033 7.85248 4.36033 7.63113 4.24166L7.1861 4.00307V7.30875H11.8837V4.00307Z" fill="#101010"/>
<path fill-rule="evenodd" clip-rule="evenodd" d="M5.077 8.05962C5.077 7.64541 5.41278 7.30962 5.827 7.30962H13.327C13.7412 7.30962 14.077 7.64541 14.077 8.05962C14.077 8.47384 13.7412 8.80962 13.327 8.80962H5.827C5.41278 8.80962 5.077 8.47384 5.077 8.05962Z" fill="#101010"/>
<path d="M19.7474 21.4067H13.0724C12.2249 21.4067 11.5349 20.7204 11.5349 19.8692V13.1942C11.5349 12.3467 12.2211 11.6567 13.0724 11.6567H19.7474C20.5949 11.6567 21.2849 12.3429 21.2849 13.1942V19.8692C21.2849 20.7204 20.5986 21.4067 19.7474 21.4067Z" stroke="white" stroke-width="3" stroke-miterlimit="10" stroke-linecap="round" stroke-linejoin="round"/>
<path d="M19.7474 21.4067H13.0724C12.2249 21.4067 11.5349 20.7204 11.5349 19.8692V13.1942C11.5349 12.3467 12.2211 11.6567 13.0724 11.6567H19.7474C20.5949 11.6567 21.2849 12.3429 21.2849 13.1942V19.8692C21.2849 20.7204 20.5986 21.4067 19.7474 21.4067Z" fill="white"/>
<path d="M19.7474 21.4067H13.0724C12.2249 21.4067 11.5349 20.7204 11.5349 19.8692V13.1942C11.5349 12.3467 12.2211 11.6567 13.0724 11.6567H19.7474C20.5949 11.6567 21.2849 12.3429 21.2849 13.1942V19.8692C21.2849 20.7204 20.5986 21.4067 19.7474 21.4067Z" stroke="#101010" stroke-miterlimit="10" stroke-linecap="round" stroke-linejoin="round"/>
<path d="M12.8018 13.6115C12.9137 13.6115 13.0043 13.5208 13.0043 13.409C13.0043 13.2972 12.9137 13.2065 12.8018 13.2065C12.69 13.2065 12.5993 13.2972 12.5993 13.409C12.5993 13.5208 12.69 13.6115 12.8018 13.6115Z" fill="#101010"/>
<path d="M13.6085 13.6115C13.7203 13.6115 13.811 13.5208 13.811 13.409C13.811 13.2972 13.7203 13.2065 13.6085 13.2065C13.4966 13.2065 13.406 13.2972 13.406 13.409C13.406 13.5208 13.4966 13.6115 13.6085 13.6115Z" fill="#101010"/>
<path d="M12.8018 14.2385C12.9137 14.2385 13.0043 14.1478 13.0043 14.036C13.0043 13.9241 12.9137 13.8335 12.8018 13.8335C12.69 13.8335 12.5993 13.9241 12.5993 14.036C12.5993 14.1478 12.69 14.2385 12.8018 14.2385Z" fill="#101010"/>
<path d="M13.6085 14.2385C13.7203 14.2385 13.811 14.1478 13.811 14.036C13.811 13.9241 13.7203 13.8335 13.6085 13.8335C13.4966 13.8335 13.406 13.9241 13.406 14.036C13.406 14.1478 13.4966 14.2385 13.6085 14.2385Z" fill="#101010"/>
<path d="M12.8018 14.8595C12.9137 14.8595 13.0043 14.7689 13.0043 14.657C13.0043 14.5452 12.9137 14.4545 12.8018 14.4545C12.69 14.4545 12.5993 14.5452 12.5993 14.657C12.5993 14.7689 12.69 14.8595 12.8018 14.8595Z" fill="#101010"/>
<path d="M13.6085 14.8595C13.7203 14.8595 13.811 14.7689 13.811 14.657C13.811 14.5452 13.7203 14.4545 13.6085 14.4545C13.4966 14.4545 13.406 14.5452 13.406 14.657C13.406 14.7689 13.4966 14.8595 13.6085 14.8595Z" fill="#101010"/>
<path d="M12.8018 15.4865C12.9137 15.4865 13.0043 15.3958 13.0043 15.284C13.0043 15.1722 12.9137 15.0815 12.8018 15.0815C12.69 15.0815 12.5993 15.1722 12.5993 15.284C12.5993 15.3958 12.69 15.4865 12.8018 15.4865Z" fill="#101010"/>
<path d="M13.6085 15.4865C13.7203 15.4865 13.811 15.3958 13.811 15.284C13.811 15.1722 13.7203 15.0815 13.6085 15.0815C13.4966 15.0815 13.406 15.1722 13.406 15.284C13.406 15.3958 13.4966 15.4865 13.6085 15.4865Z" fill="#101010"/>
<path d="M12.8018 16.1086C12.9137 16.1086 13.0043 16.0179 13.0043 15.9061C13.0043 15.7942 12.9137 15.7036 12.8018 15.7036C12.69 15.7036 12.5993 15.7942 12.5993 15.9061C12.5993 16.0179 12.69 16.1086 12.8018 16.1086Z" fill="#101010"/>
<path d="M13.6085 16.1086C13.7203 16.1086 13.811 16.0179 13.811 15.9061C13.811 15.7942 13.7203 15.7036 13.6085 15.7036C13.4966 15.7036 13.406 15.7942 13.406 15.9061C13.406 16.0179 13.4966 16.1086 13.6085 16.1086Z" fill="#101010"/>
<path d="M12.8018 16.7345C12.9137 16.7345 13.0043 16.6439 13.0043 16.532C13.0043 16.4202 12.9137 16.3295 12.8018 16.3295C12.69 16.3295 12.5993 16.4202 12.5993 16.532C12.5993 16.6439 12.69 16.7345 12.8018 16.7345Z" fill="#101010"/>
<path d="M13.6085 16.7345C13.7203 16.7345 13.811 16.6439 13.811 16.532C13.811 16.4202 13.7203 16.3295 13.6085 16.3295C13.4966 16.3295 13.406 16.4202 13.406 16.532C13.406 16.6439 13.4966 16.7345 13.6085 16.7345Z" fill="#101010"/>
<path d="M12.8018 17.3615C12.9137 17.3615 13.0043 17.2708 13.0043 17.159C13.0043 17.0472 12.9137 16.9565 12.8018 16.9565C12.69 16.9565 12.5993 17.0472 12.5993 17.159C12.5993 17.2708 12.69 17.3615 12.8018 17.3615Z" fill="#101010"/>
<path d="M13.6085 17.3615C13.7203 17.3615 13.811 17.2708 13.811 17.159C13.811 17.0472 13.7203 16.9565 13.6085 16.9565C13.4966 16.9565 13.406 17.0472 13.406 17.159C13.406 17.2708 13.4966 17.3615 13.6085 17.3615Z" fill="#101010"/>
<path d="M12.8018 17.9836C12.9137 17.9836 13.0043 17.8929 13.0043 17.7811C13.0043 17.6692 12.9137 17.5786 12.8018 17.5786C12.69 17.5786 12.5993 17.6692 12.5993 17.7811C12.5993 17.8929 12.69 17.9836 12.8018 17.9836Z" fill="#101010"/>
<path d="M13.6085 17.9836C13.7203 17.9836 13.811 17.8929 13.811 17.7811C13.811 17.6692 13.7203 17.5786 13.6085 17.5786C13.4966 17.5786 13.406 17.6692 13.406 17.7811C13.406 17.8929 13.4966 17.9836 13.6085 17.9836Z" fill="#101010"/>
<path d="M12.8018 18.6095C12.9137 18.6095 13.0043 18.5189 13.0043 18.407C13.0043 18.2952 12.9137 18.2045 12.8018 18.2045C12.69 18.2045 12.5993 18.2952 12.5993 18.407C12.5993 18.5189 12.69 18.6095 12.8018 18.6095Z" fill="#101010"/>
<path d="M13.6085 18.6095C13.7203 18.6095 13.811 18.5189 13.811 18.407C13.811 18.2952 13.7203 18.2045 13.6085 18.2045C13.4966 18.2045 13.406 18.2952 13.406 18.407C13.406 18.5189 13.4966 18.6095 13.6085 18.6095Z" fill="#101010"/>
<path d="M12.8018 19.2316C12.9137 19.2316 13.0043 19.141 13.0043 19.0291C13.0043 18.9173 12.9137 18.8266 12.8018 18.8266C12.69 18.8266 12.5993 18.9173 12.5993 19.0291C12.5993 19.141 12.69 19.2316 12.8018 19.2316Z" fill="#101010"/>
<path d="M13.6085 19.2316C13.7203 19.2316 13.811 19.141 13.811 19.0291C13.811 18.9173 13.7203 18.8266 13.6085 18.8266C13.4966 18.8266 13.406 18.9173 13.406 19.0291C13.406 19.141 13.4966 19.2316 13.6085 19.2316Z" fill="#101010"/>
<path d="M12.8018 19.8586C12.9137 19.8586 13.0043 19.7679 13.0043 19.6561C13.0043 19.5442 12.9137 19.4536 12.8018 19.4536C12.69 19.4536 12.5993 19.5442 12.5993 19.6561C12.5993 19.7679 12.69 19.8586 12.8018 19.8586Z" fill="#101010"/>
<path d="M13.6085 19.8586C13.7203 19.8586 13.811 19.7679 13.811 19.6561C13.811 19.5442 13.7203 19.4536 13.6085 19.4536C13.4966 19.4536 13.406 19.5442 13.406 19.6561C13.406 19.7679 13.4966 19.8586 13.6085 19.8586Z" fill="#101010"/>
<path d="M19.1397 13.6115C19.2516 13.6115 19.3422 13.5208 19.3422 13.409C19.3422 13.2972 19.2516 13.2065 19.1397 13.2065C19.0279 13.2065 18.9372 13.2972 18.9372 13.409C18.9372 13.5208 19.0279 13.6115 19.1397 13.6115Z" fill="#101010"/>
<path d="M19.9444 13.6115C20.0563 13.6115 20.1469 13.5208 20.1469 13.409C20.1469 13.2972 20.0563 13.2065 19.9444 13.2065C19.8326 13.2065 19.7419 13.2972 19.7419 13.409C19.7419 13.5208 19.8326 13.6115 19.9444 13.6115Z" fill="#101010"/>
<path d="M19.1397 14.2385C19.2516 14.2385 19.3422 14.1478 19.3422 14.036C19.3422 13.9241 19.2516 13.8335 19.1397 13.8335C19.0279 13.8335 18.9372 13.9241 18.9372 14.036C18.9372 14.1478 19.0279 14.2385 19.1397 14.2385Z" fill="#101010"/>
<path d="M19.9444 14.2385C20.0563 14.2385 20.1469 14.1478 20.1469 14.036C20.1469 13.9241 20.0563 13.8335 19.9444 13.8335C19.8326 13.8335 19.7419 13.9241 19.7419 14.036C19.7419 14.1478 19.8326 14.2385 19.9444 14.2385Z" fill="#101010"/>
<path d="M19.1397 14.8595C19.2516 14.8595 19.3422 14.7689 19.3422 14.657C19.3422 14.5452 19.2516 14.4545 19.1397 14.4545C19.0279 14.4545 18.9372 14.5452 18.9372 14.657C18.9372 14.7689 19.0279 14.8595 19.1397 14.8595Z" fill="#101010"/>
<path d="M19.9444 14.8595C20.0563 14.8595 20.1469 14.7689 20.1469 14.657C20.1469 14.5452 20.0563 14.4545 19.9444 14.4545C19.8326 14.4545 19.7419 14.5452 19.7419 14.657C19.7419 14.7689 19.8326 14.8595 19.9444 14.8595Z" fill="#101010"/>
<path d="M19.1397 15.4865C19.2516 15.4865 19.3422 15.3958 19.3422 15.284C19.3422 15.1722 19.2516 15.0815 19.1397 15.0815C19.0279 15.0815 18.9372 15.1722 18.9372 15.284C18.9372 15.3958 19.0279 15.4865 19.1397 15.4865Z" fill="#101010"/>
<path d="M19.9444 15.4865C20.0563 15.4865 20.1469 15.3958 20.1469 15.284C20.1469 15.1722 20.0563 15.0815 19.9444 15.0815C19.8326 15.0815 19.7419 15.1722 19.7419 15.284C19.7419 15.3958 19.8326 15.4865 19.9444 15.4865Z" fill="#101010"/>
<path d="M19.1397 16.1086C19.2516 16.1086 19.3422 16.0179 19.3422 15.9061C19.3422 15.7942 19.2516 15.7036 19.1397 15.7036C19.0279 15.7036 18.9372 15.7942 18.9372 15.9061C18.9372 16.0179 19.0279 16.1086 19.1397 16.1086Z" fill="#101010"/>
<path d="M19.9444 16.1086C20.0563 16.1086 20.1469 16.0179 20.1469 15.9061C20.1469 15.7942 20.0563 15.7036 19.9444 15.7036C19.8326 15.7036 19.7419 15.7942 19.7419 15.9061C19.7419 16.0179 19.8326 16.1086 19.9444 16.1086Z" fill="#101010"/>
<path d="M19.1397 16.7345C19.2516 16.7345 19.3422 16.6439 19.3422 16.532C19.3422 16.4202 19.2516 16.3295 19.1397 16.3295C19.0279 16.3295 18.9372 16.4202 18.9372 16.532C18.9372 16.6439 19.0279 16.7345 19.1397 16.7345Z" fill="#101010"/>
<path d="M19.9444 16.7345C20.0563 16.7345 20.1469 16.6439 20.1469 16.532C20.1469 16.4202 20.0563 16.3295 19.9444 16.3295C19.8326 16.3295 19.7419 16.4202 19.7419 16.532C19.7419 16.6439 19.8326 16.7345 19.9444 16.7345Z" fill="#101010"/>
<path d="M19.1397 17.3615C19.2516 17.3615 19.3422 17.2708 19.3422 17.159C19.3422 17.0472 19.2516 16.9565 19.1397 16.9565C19.0279 16.9565 18.9372 17.0472 18.9372 17.159C18.9372 17.2708 19.0279 17.3615 19.1397 17.3615Z" fill="#101010"/>
<path d="M19.9444 17.3615C20.0563 17.3615 20.1469 17.2708 20.1469 17.159C20.1469 17.0472 20.0563 16.9565 19.9444 16.9565C19.8326 16.9565 19.7419 17.0472 19.7419 17.159C19.7419 17.2708 19.8326 17.3615 19.9444 17.3615Z" fill="#101010"/>
<path d="M19.1397 17.9836C19.2516 17.9836 19.3422 17.8929 19.3422 17.7811C19.3422 17.6692 19.2516 17.5786 19.1397 17.5786C19.0279 17.5786 18.9372 17.6692 18.9372 17.7811C18.9372 17.8929 19.0279 17.9836 19.1397 17.9836Z" fill="#101010"/>
<path d="M19.9444 17.9836C20.0563 17.9836 20.1469 17.8929 20.1469 17.7811C20.1469 17.6692 20.0563 17.5786 19.9444 17.5786C19.8326 17.5786 19.7419 17.6692 19.7419 17.7811C19.7419 17.8929 19.8326 17.9836 19.9444 17.9836Z" fill="#101010"/>
<path d="M19.1394 18.6098C19.2373 18.6098 19.3198 18.5401 19.3386 18.4477L19.3425 18.4067C19.3423 18.295 19.2511 18.2045 19.1394 18.2045M19.1394 18.6098V18.2045M19.1394 18.6098L19.0993 18.6059C19.0068 18.5872 18.9372 18.5047 18.9372 18.4067C18.9374 18.2951 19.0278 18.2047 19.1394 18.2045M19.1394 18.6098V18.2045" fill="#101010" stroke="#101010"/>
<path d="M19.9441 18.6098C20.042 18.6098 20.1245 18.5401 20.1433 18.4477L20.1472 18.4067C20.147 18.295 20.0558 18.2045 19.9441 18.2045M19.9441 18.6098V18.2045M19.9441 18.6098L19.904 18.6059C19.8115 18.5872 19.7419 18.5047 19.7419 18.4067C19.7421 18.2951 19.8325 18.2047 19.9441 18.2045M19.9441 18.6098V18.2045" fill="#101010" stroke="#101010"/>
<path d="M19.1397 19.2316C19.2516 19.2316 19.3422 19.141 19.3422 19.0291C19.3422 18.9173 19.2516 18.8266 19.1397 18.8266C19.0279 18.8266 18.9372 18.9173 18.9372 19.0291C18.9372 19.141 19.0279 19.2316 19.1397 19.2316Z" fill="#101010"/>
<path d="M19.9444 19.2316C20.0563 19.2316 20.1469 19.141 20.1469 19.0291C20.1469 18.9173 20.0563 18.8266 19.9444 18.8266C19.8326 18.8266 19.7419 18.9173 19.7419 19.0291C19.7419 19.141 19.8326 19.2316 19.9444 19.2316Z" fill="#101010"/>
<path d="M19.1397 19.8586C19.2516 19.8586 19.3422 19.7679 19.3422 19.6561C19.3422 19.5442 19.2516 19.4536 19.1397 19.4536C19.0279 19.4536 18.9372 19.5442 18.9372 19.6561C18.9372 19.7679 19.0279 19.8586 19.1397 19.8586Z" fill="#101010"/>
<path d="M19.9444 19.8586C20.0563 19.8586 20.1469 19.7679 20.1469 19.6561C20.1469 19.5442 20.0563 19.4536 19.9444 19.4536C19.8326 19.4536 19.7419 19.5442 19.7419 19.6561C19.7419 19.7679 19.8326 19.8586 19.9444 19.8586Z" fill="#101010"/>
<path d="M18.4457 13.4343C18.4082 13.3293 18.3069 13.2543 18.1869 13.2543H18.1832C18.1044 13.2543 18.0369 13.2881 17.9844 13.3368C17.9357 13.2843 17.8644 13.2543 17.7857 13.2543H17.7819C17.7144 13.2543 17.6507 13.2806 17.6019 13.3181V13.2993C17.6019 13.2768 17.5832 13.2618 17.5607 13.2618H17.3769C17.3544 13.2618 17.3357 13.2806 17.3357 13.3031V14.2818C17.3357 14.3043 17.3544 14.3231 17.3769 14.3231H17.5607C17.5794 14.3231 17.5982 14.3081 17.6019 14.2893V13.5843C17.6019 13.5806 17.6019 13.5806 17.6019 13.5768C17.6057 13.5468 17.6282 13.5206 17.6657 13.5168H17.6732H17.6919H17.6994C17.7144 13.5168 17.7294 13.5243 17.7369 13.5318C17.7519 13.5431 17.7632 13.5618 17.7632 13.5843V14.2856C17.7632 14.3081 17.7819 14.3268 17.8044 14.3268H17.9882C18.0107 14.3268 18.0257 14.3081 18.0294 14.2893V13.5843C18.0294 13.5618 18.0407 13.5393 18.0594 13.5281C18.0669 13.5206 18.0782 13.5168 18.0932 13.5168H18.1007H18.1194H18.1269C18.1682 13.5206 18.1907 13.5506 18.1907 13.5843V14.2856C18.1907 14.3081 18.2094 14.3268 18.2319 14.3268H18.4157C18.4382 14.3268 18.4569 14.3081 18.4569 14.2856C18.4569 14.2856 18.4569 13.5881 18.4569 13.5318C18.4607 13.4793 18.4569 13.4568 18.4457 13.4343Z" fill="#101010"/>
<path d="M17.2089 13.2653H17.1039V13.0965C17.1039 13.0778 17.0889 13.059 17.0664 13.059C17.0627 13.059 17.0627 13.059 17.0589 13.059C16.9427 13.089 16.9652 13.2503 16.7552 13.2615H16.7514H16.7364C16.7327 13.2615 16.7289 13.2615 16.7289 13.2615C16.7102 13.2653 16.6989 13.2803 16.6989 13.299V13.479C16.6989 13.5015 16.7177 13.5203 16.7402 13.5203H16.8489V14.2853C16.8489 14.3078 16.8677 14.3265 16.8902 14.3265H17.0702C17.0927 14.3265 17.1114 14.3078 17.1114 14.2853V13.5203H17.2127C17.2352 13.5203 17.2539 13.5015 17.2539 13.479V13.299C17.2502 13.2803 17.2314 13.2653 17.2089 13.2653Z" fill="#101010"/>
<path d="M16.5528 13.2661H16.369C16.3465 13.2661 16.3278 13.2848 16.3278 13.3073V13.6823C16.3278 13.7048 16.309 13.7236 16.2865 13.7236H16.2115C16.189 13.7236 16.1703 13.7048 16.1703 13.6823V13.3111C16.1703 13.2886 16.1515 13.2698 16.129 13.2698H15.9453C15.9228 13.2698 15.904 13.2886 15.904 13.3111V13.7198C15.904 13.8736 16.0165 13.9861 16.174 13.9861C16.174 13.9861 16.294 13.9861 16.2978 13.9861C16.3203 13.9898 16.3353 14.0048 16.3353 14.0273C16.3353 14.0498 16.3203 14.0648 16.2978 14.0686H16.294H16.0278C16.0053 14.0686 15.9865 14.0873 15.9865 14.1098V14.2898C15.9865 14.3123 16.0053 14.3311 16.0278 14.3311H16.3278C16.4853 14.3311 16.5978 14.2186 16.5978 14.0648V13.3073C16.5903 13.2811 16.5753 13.2661 16.5528 13.2661Z" fill="#101010"/>
<path d="M14.7977 13.2661H14.3964C14.3739 13.2661 14.3552 13.2848 14.3552 13.3036V13.4798V13.4836V14.0498V14.2823C14.3552 14.3048 14.3702 14.3236 14.3927 14.3236H14.3964H14.5802C14.6027 14.3236 14.6214 14.3048 14.6214 14.2823V14.0086H14.7977C14.9439 14.0086 15.0452 13.9073 15.0452 13.7648V13.5098C15.0452 13.3636 14.9439 13.2661 14.7977 13.2661ZM14.7827 13.5961V13.6786V13.7048C14.7827 13.7273 14.7639 13.7461 14.7414 13.7461H14.6252V13.5211H14.7414C14.7639 13.5211 14.7827 13.5398 14.7827 13.5623V13.5961Z" fill="#101010"/>
<path d="M15.5102 13.2661H15.2552C15.2327 13.2661 15.2139 13.2811 15.2139 13.3036V13.3748V13.4723C15.2139 13.4948 15.2327 13.5136 15.2552 13.5136H15.4952C15.5139 13.5173 15.5289 13.5286 15.5327 13.5511V13.5736C15.5289 13.5923 15.5139 13.6073 15.4989 13.6111H15.3789C15.2214 13.6111 15.1052 13.7161 15.1052 13.8623V14.0686V14.0723C15.1052 14.2186 15.2027 14.3236 15.3602 14.3236H15.6902C15.7502 14.3236 15.7989 14.2786 15.7989 14.2261V13.5398C15.8064 13.3711 15.7164 13.2661 15.5102 13.2661ZM15.5402 14.0198V14.0498C15.5402 14.0536 15.5402 14.0536 15.5402 14.0573C15.5402 14.0611 15.5402 14.0611 15.5402 14.0648C15.5327 14.0798 15.5177 14.0911 15.4989 14.0911H15.4239C15.4014 14.0911 15.3827 14.0723 15.3827 14.0498V14.0161V13.9261V13.9148V13.8961C15.3827 13.8736 15.4014 13.8548 15.4239 13.8548H15.4989C15.5214 13.8548 15.5402 13.8736 15.5402 13.8961V14.0198Z" fill="#101010"/>
<path d="M15.9625 15.1401H14.5075V16.5726H15.9625V15.1401Z" stroke="#101010" stroke-width="0.5" stroke-miterlimit="10" stroke-linecap="round" stroke-linejoin="round"/>
<path d="M15.4453 15.6528H15.029V16.0615H15.4453V15.6528Z" fill="#101010"/>
<path d="M18.2516 15.1401H16.7966V16.5726H18.2516V15.1401Z" stroke="#101010" stroke-width="0.5" stroke-miterlimit="10" stroke-linecap="round" stroke-linejoin="round"/>
<path d="M17.7324 15.6528H17.3161V16.0615H17.7324V15.6528Z" fill="#101010"/>
<path d="M15.9625 17.395H14.5075V18.8275H15.9625V17.395Z" stroke="#101010" stroke-width="0.5" stroke-miterlimit="10" stroke-linecap="round" stroke-linejoin="round"/>
<path d="M15.4453 17.9086H15.029V18.3174H15.4453V17.9086Z" fill="#101010"/>
<path d="M17.8298 17.395H18.2498V17.6912" stroke="#101010" stroke-width="0.5" stroke-miterlimit="10" stroke-linecap="round" stroke-linejoin="round"/>
<path d="M16.96 17.395H16.7575" stroke="#101010" stroke-width="0.5" stroke-miterlimit="10" stroke-linecap="round" stroke-linejoin="round"/>
<path d="M17.4266 18.8276H16.7966V18.1001" stroke="#101010" stroke-width="0.5" stroke-miterlimit="10" stroke-linecap="round" stroke-linejoin="round"/>
<path d="M18.2497 18.4262V18.8275" stroke="#101010" stroke-width="0.5" stroke-miterlimit="10" stroke-linecap="round" stroke-linejoin="round"/>
<path d="M17.7285 17.9086H17.3122V18.3174H17.7285V17.9086Z" fill="#101010"/>
<mask id="path-74-inside-1_182_754" fill="white">
<path d="M18.4317 19.7309H14.3142V19.7947H18.4317V19.7309Z"/>
</mask>
<path d="M18.4317 19.7309H14.3142V19.7947H18.4317V19.7309Z" fill="#101010"/>
<path d="M14.3142 19.7309V18.7309H13.3142V19.7309H14.3142ZM18.4317 19.7309H19.4317V18.7309H18.4317V19.7309ZM18.4317 19.7947V20.7947H19.4317V19.7947H18.4317ZM14.3142 19.7947H13.3142V20.7947H14.3142V19.7947ZM14.3142 19.7309V20.7309H18.4317V19.7309V18.7309H14.3142V19.7309ZM18.4317 19.7309H17.4317V19.7947H18.4317H19.4317V19.7309H18.4317ZM18.4317 19.7947V18.7947H14.3142V19.7947V20.7947H18.4317V19.7947ZM14.3142 19.7947H15.3142V19.7309H14.3142H13.3142V19.7947H14.3142Z" fill="#101010" mask="url(#path-74-inside-1_182_754)"/>
<mask id="path-76-inside-2_182_754" fill="white">
<path d="M18.4317 19.3559H14.3142V19.6034H18.4317V19.3559Z"/>
</mask>
<path d="M18.4317 19.3559H14.3142V19.6034H18.4317V19.3559Z" fill="#101010"/>
<path d="M14.3142 19.3559V18.3559H13.3142V19.3559H14.3142ZM18.4317 19.3559H19.4317V18.3559H18.4317V19.3559ZM18.4317 19.6034V20.6034H19.4317V19.6034H18.4317ZM14.3142 19.6034H13.3142V20.6034H14.3142V19.6034ZM14.3142 19.3559V20.3559H18.4317V19.3559V18.3559H14.3142V19.3559ZM18.4317 19.3559H17.4317V19.6034H18.4317H19.4317V19.3559H18.4317ZM18.4317 19.6034V18.6034H14.3142V19.6034V20.6034H18.4317V19.6034ZM14.3142 19.6034H15.3142V19.3559H14.3142H13.3142V19.6034H14.3142Z" fill="#101010" mask="url(#path-76-inside-2_182_754)"/>
</svg>
