<svg width="24" height="24" viewBox="0 0 24 24" fill="none" xmlns="http://www.w3.org/2000/svg">
<path fill-rule="evenodd" clip-rule="evenodd" d="M12 3.5C7.30558 3.5 3.5 7.30558 3.5 12C3.5 16.6944 7.30558 20.5 12 20.5C16.6944 20.5 20.5 16.6944 20.5 12C20.5 7.30558 16.6944 3.5 12 3.5ZM2 12C2 6.47715 6.47715 2 12 2C17.5228 2 22 6.47715 22 12C22 17.5228 17.5228 22 12 22C6.47715 22 2 17.5228 2 12Z" fill="#101010"/>
<path fill-rule="evenodd" clip-rule="evenodd" d="M19.0117 4.98831C18.7188 4.69542 18.2439 4.69542 17.951 4.98831L4.98834 17.951C4.69545 18.2439 4.69545 18.7188 4.98834 19.0117C5.28124 19.3046 5.75611 19.3046 6.049 19.0117L19.0117 6.04897C19.3046 5.75608 19.3046 5.28121 19.0117 4.98831Z" fill="#101010"/>
</svg>
