<svg width="24" height="24" viewBox="0 0 24 24" fill="none" xmlns="http://www.w3.org/2000/svg">
<path fill-rule="evenodd" clip-rule="evenodd" d="M4.0993 4.75C4.0993 3.23122 5.33052 2 6.8493 2H14.1616C14.3587 2 14.5479 2.07758 14.6882 2.21595L19.6773 7.13535C19.8202 7.27629 19.9007 7.46866 19.9007 7.6694V19.25C19.9007 20.7688 18.6695 22 17.1507 22H6.8493C5.33052 22 4.0993 20.7688 4.0993 19.25V4.75ZM6.8493 3.5C6.15895 3.5 5.5993 4.05964 5.5993 4.75V19.25C5.5993 19.9404 6.15895 20.5 6.8493 20.5H17.1507C17.841 20.5 18.4007 19.9404 18.4007 19.25V8.4194H14.1616C13.7474 8.4194 13.4116 8.08361 13.4116 7.6694V3.5H6.8493ZM14.9116 4.5428L17.3219 6.9194H14.9116V4.5428Z" fill="#101010"/>
<path fill-rule="evenodd" clip-rule="evenodd" d="M12 16.9617C11.5858 16.9617 11.25 16.6259 11.25 16.2117L11.25 10.5985C11.25 10.1843 11.5858 9.84848 12 9.84848C12.4142 9.84848 12.75 10.1843 12.75 10.5985V16.2117C12.75 16.6259 12.4142 16.9617 12 16.9617Z" fill="#101010"/>
<path fill-rule="evenodd" clip-rule="evenodd" d="M15.0673 13.6659C14.7744 13.9588 14.2995 13.9588 14.0066 13.6659L11.9999 11.6592L9.99316 13.6659C9.70026 13.9588 9.22539 13.9588 8.9325 13.6659C8.6396 13.373 8.6396 12.8981 8.9325 12.6052L11.4696 10.0682C11.7624 9.77528 12.2373 9.77528 12.5302 10.0682L15.0673 12.6052C15.3602 12.8981 15.3602 13.373 15.0673 13.6659Z" fill="#101010"/>
</svg>
