<svg width="24" height="24" viewBox="0 0 24 24" fill="none" xmlns="http://www.w3.org/2000/svg">
<path fill-rule="evenodd" clip-rule="evenodd" d="M4 4.99242C4 3.34488 5.34488 2 6.99242 2H14.8409C15.0505 2 15.2506 2.08772 15.3926 2.24189L19.3168 6.5025C19.4444 6.64097 19.5152 6.82235 19.5152 7.01061V19.0076C19.5152 20.6551 18.1703 22 16.5227 22H6.99242C5.34488 22 4 20.6551 4 19.0076V4.99242ZM6.99242 3.5C6.1733 3.5 5.5 4.1733 5.5 4.99242V19.0076C5.5 19.8267 6.1733 20.5 6.99242 20.5H16.5227C17.3418 20.5 18.0152 19.8267 18.0152 19.0076V7.76061H14.8409C14.4267 7.76061 14.0909 7.42482 14.0909 7.01061V3.5H6.99242ZM15.5909 4.67134L17.0547 6.26061H15.5909V4.67134Z" fill="#101010"/>
<path fill-rule="evenodd" clip-rule="evenodd" d="M6.41217 9.59839C6.41217 9.18418 6.74796 8.84839 7.16217 8.84839H13.3288C13.7431 8.84839 14.0788 9.18418 14.0788 9.59839C14.0788 10.0126 13.7431 10.3484 13.3288 10.3484H7.16217C6.74796 10.3484 6.41217 10.0126 6.41217 9.59839Z" fill="#101010"/>
<path fill-rule="evenodd" clip-rule="evenodd" d="M6.41211 13.2558C6.41211 12.8416 6.7479 12.5058 7.16211 12.5058H11.0864C11.5006 12.5058 11.8364 12.8416 11.8364 13.2558C11.8364 13.67 11.5006 14.0058 11.0864 14.0058H7.16211C6.7479 14.0058 6.41211 13.67 6.41211 13.2558Z" fill="#101010"/>
</svg>
