<svg width="24" height="24" viewBox="0 0 24 24" fill="none" xmlns="http://www.w3.org/2000/svg">
<path d="M18.7832 6.5592V19.9857C18.781 20.1516 18.7461 20.3155 18.6804 20.4678C18.6147 20.6202 18.5194 20.758 18.4002 20.8734C18.281 20.9888 18.1402 21.0795 17.9858 21.1402C17.8313 21.2009 17.6664 21.2305 17.5005 21.2273H6.49954C6.33365 21.2305 6.16868 21.2009 6.01427 21.1402C5.85986 21.0795 5.71907 20.9888 5.59986 20.8734C5.48064 20.758 5.38536 20.6202 5.31963 20.4678C5.25391 20.3155 5.21899 20.1516 5.21686 19.9857V3.96928C5.21899 3.80337 5.25391 3.63951 5.31963 3.48717C5.38536 3.33482 5.48064 3.19698 5.59986 3.08159C5.71907 2.96619 5.85986 2.87551 6.01427 2.81479C6.16868 2.75406 6.33365 2.72448 6.49954 2.72774H14.7791L18.7832 6.5592Z" fill="white" stroke="black" stroke-width="1.5" stroke-linecap="round" stroke-linejoin="round"/>
<path d="M18.5776 6.63321H14.8777V2.9333" stroke="black" stroke-width="1.5" stroke-linecap="round" stroke-linejoin="round"/>
<path d="M8.50568 14.3516H12.2056" stroke="black" stroke-width="1.5" stroke-linecap="round" stroke-linejoin="round"/>
<path d="M10.3402 7.86466C11.0208 7.86466 11.5726 7.3129 11.5726 6.63228C11.5726 5.95166 11.0208 5.3999 10.3402 5.3999C9.6596 5.3999 9.10785 5.95166 9.10785 6.63228C9.10785 7.3129 9.6596 7.86466 10.3402 7.86466Z" fill="black" stroke="black" stroke-width="0.408912" stroke-miterlimit="10" stroke-linecap="round" stroke-linejoin="round"/>
<path d="M12.3428 11.377H8.3376C8.06032 11.377 7.81384 11.1305 7.81384 10.8224V10.5143C7.81384 9.46679 8.6457 8.60412 9.66241 8.60412H11.0488C12.0655 8.60412 12.8974 9.46679 12.8974 10.5143V10.8224C12.8666 11.1305 12.6509 11.377 12.3428 11.377Z" fill="black" stroke="black" stroke-width="0.408912" stroke-miterlimit="10" stroke-linecap="round" stroke-linejoin="round"/>
<path d="M8.50568 17.9431H15.4944" stroke="black" stroke-width="1.5" stroke-linecap="round" stroke-linejoin="round"/>
</svg>
