<svg width="24" height="24" viewBox="0 0 24 24" fill="none" xmlns="http://www.w3.org/2000/svg">
<mask id="mask0_692_272" style="mask-type:alpha" maskUnits="userSpaceOnUse" x="5" y="4" width="15" height="17">
<path fill-rule="evenodd" clip-rule="evenodd" d="M19.7406 5.28009C20.0333 4.98706 20.0331 4.51219 19.7401 4.21943C19.4471 3.92667 18.9722 3.92688 18.6794 4.21991L9.17976 13.7291L6.28033 10.8297C5.98744 10.5368 5.51256 10.5368 5.21967 10.8297C4.92678 11.1226 4.92678 11.5974 5.21967 11.8903L8.64967 15.3203C8.79036 15.461 8.9812 15.54 9.18017 15.54C9.37914 15.54 9.56994 15.4608 9.71057 15.3201L19.7406 5.28009ZM19.7406 9.98016C20.0333 9.68714 20.0331 9.21226 19.7401 8.9195C19.4471 8.62674 18.9722 8.62696 18.6794 8.91998L9.17976 18.4292L6.28033 15.5297C5.98744 15.2368 5.51256 15.2368 5.21967 15.5297C4.92678 15.8226 4.92678 16.2975 5.21967 16.5904L8.64967 20.0204C8.79036 20.1611 8.9812 20.2401 9.18017 20.2401C9.37914 20.24 9.56994 20.1609 9.71057 20.0202L19.7406 9.98016Z" fill="#101010"/>
</mask>
<g mask="url(#mask0_692_272)">
<rect width="24" height="24" fill="#101010"/>
</g>
</svg>
