<svg width="24" height="24" viewBox="0 0 24 24" fill="none" xmlns="http://www.w3.org/2000/svg">
<path fill-rule="evenodd" clip-rule="evenodd" d="M12 2.24997C12.4142 2.24997 12.75 2.58576 12.75 2.99997V12.4893L16.4697 8.76963C16.7626 8.47673 17.2374 8.47673 17.5303 8.76963C17.8232 9.06252 17.8232 9.53739 17.5303 9.83029L12.5303 14.8303C12.2374 15.1232 11.7626 15.1232 11.4697 14.8303L6.46966 9.83029C6.17677 9.53739 6.17677 9.06252 6.46966 8.76963C6.76255 8.47673 7.23743 8.47673 7.53032 8.76963L11.25 12.4893V2.99997C11.25 2.58576 11.5858 2.24997 12 2.24997ZM3.7 11.95C4.11421 11.95 4.45 12.2858 4.45 12.7V18.3C4.45 18.9858 5.01421 19.55 5.7 19.55H18.2C18.8858 19.55 19.45 18.9858 19.45 18.3V12.7C19.45 12.2858 19.7858 11.95 20.2 11.95C20.6142 11.95 20.95 12.2858 20.95 12.7V18.3C20.95 19.8142 19.7142 21.05 18.2 21.05H5.7C4.18579 21.05 2.95 19.8142 2.95 18.3V12.7C2.95 12.2858 3.28579 11.95 3.7 11.95Z" fill="#101010"/>
</svg>
