<svg width="24" height="24" viewBox="0 0 24 24" fill="none" xmlns="http://www.w3.org/2000/svg">
<path fill-rule="evenodd" clip-rule="evenodd" d="M14.867 4.87226C15.1563 4.58015 15.6269 4.5754 15.922 4.8616L19.222 8.0616C19.3667 8.2019 19.4489 8.39453 19.4499 8.59607C19.451 8.79761 19.3709 8.99109 19.2277 9.13291L8.82769 19.4329C8.7411 19.5187 8.6349 19.582 8.5183 19.6175L3.9183 21.0175C3.65252 21.0984 3.3638 21.0258 3.16797 20.8287C2.97213 20.6317 2.90126 20.3425 2.98379 20.0772L4.38379 15.5772C4.41953 15.4623 4.48238 15.3577 4.56705 15.2723L14.867 4.87226ZM15.4106 6.45508L5.76168 16.1977L4.83695 19.17L7.90403 18.2366L17.6284 8.60568L15.4106 6.45508Z" fill="#101010"/>
<path fill-rule="evenodd" clip-rule="evenodd" d="M16.5696 3.26966C16.8625 2.97676 17.3374 2.97676 17.6303 3.26966L20.7303 6.36966C21.0232 6.66255 21.0232 7.13742 20.7303 7.43032C20.4374 7.72321 19.9625 7.72321 19.6696 7.43032L16.5696 4.33032C16.2767 4.03742 16.2767 3.56255 16.5696 3.26966Z" fill="#101010"/>
</svg>
