<svg width="24" height="24" viewBox="0 0 24 24" fill="none" xmlns="http://www.w3.org/2000/svg">
<path fill-rule="evenodd" clip-rule="evenodd" d="M12 3.49994C7.30558 3.49994 3.5 7.30552 3.5 11.9999C3.5 16.6944 7.30558 20.4999 12 20.4999C16.6944 20.4999 20.5 16.6944 20.5 11.9999C20.5 7.30552 16.6944 3.49994 12 3.49994ZM2 11.9999C2 6.47709 6.47715 1.99994 12 1.99994C17.5228 1.99994 22 6.47709 22 11.9999C22 17.5228 17.5228 21.9999 12 21.9999C6.47715 21.9999 2 17.5228 2 11.9999Z" fill="#101010"/>
<path fill-rule="evenodd" clip-rule="evenodd" d="M11.9999 13.1018C11.5857 13.1018 11.2499 12.766 11.2499 12.3518V7.82737C11.2499 7.41315 11.5857 7.07737 11.9999 7.07737C12.4141 7.07737 12.7499 7.41315 12.7499 7.82737V12.3518C12.7499 12.766 12.4141 13.1018 11.9999 13.1018Z" fill="#101010"/>
<path d="M12 14.5638C11.5558 14.5638 11.1957 14.9239 11.1957 15.3682C11.1957 15.8124 11.5558 16.1725 12 16.1725C12.4442 16.1725 12.8043 15.8124 12.8043 15.3682C12.8043 14.9239 12.4442 14.5638 12 14.5638Z" fill="#101010"/>
</svg>
