<svg width="24" height="24" viewBox="0 0 24 24" fill="none" xmlns="http://www.w3.org/2000/svg">
<path d="M19.5 10.2496V4.49957H13.75C13.3358 4.49957 13 4.16379 13 3.74957C13 3.33536 13.3358 2.99957 13.75 2.99957H20.25C20.6642 2.99957 21 3.33536 21 3.74957V10.2496C21 10.6638 20.6642 10.9996 20.25 10.9996C19.8358 10.9996 19.5 10.6638 19.5 10.2496Z" fill="#101010"/>
<path d="M3 13.7496C3 13.3354 3.33579 12.9996 3.75 12.9996C4.16421 12.9996 4.5 13.3354 4.5 13.7496V19.4996H10.25C10.6642 19.4996 11 19.8354 11 20.2496C11 20.6638 10.6642 20.9996 10.25 20.9996H3.75C3.33579 20.9996 3 20.6638 3 20.2496V13.7496Z" fill="#101010"/>
<path d="M10.1572 12.7818C10.4501 12.4889 10.9249 12.4889 11.2178 12.7818C11.5107 13.0747 11.5107 13.5495 11.2178 13.8423L4.28027 20.7798C3.98738 21.0727 3.51262 21.0727 3.21973 20.7798C2.92683 20.487 2.92683 20.0122 3.21973 19.7193L10.1572 12.7818Z" fill="#101010"/>
<path d="M19.7197 3.2193C20.0126 2.92641 20.4874 2.92641 20.7803 3.2193C21.0732 3.51219 21.0732 3.98695 20.7803 4.27985L13.8428 11.2173C13.5499 11.5102 13.0751 11.5102 12.7822 11.2173C12.4893 10.9245 12.4893 10.4497 12.7822 10.1568L19.7197 3.2193Z" fill="#101010"/>
</svg>
