<svg width="24" height="24" viewBox="0 0 24 24" fill="none" xmlns="http://www.w3.org/2000/svg">
<path fill-rule="evenodd" clip-rule="evenodd" d="M12 22C17.5228 22 22 17.5228 22 12C22 6.47715 17.5228 2 12 2C6.47715 2 2 6.47715 2 12C2 17.5228 6.47715 22 12 22ZM15.2436 9.90309C15.5603 9.58645 15.5603 9.07307 15.2436 8.75643C14.927 8.43979 14.4136 8.43979 14.097 8.75643L12 10.8534L9.90309 8.75643C9.58645 8.43979 9.07307 8.43979 8.75643 8.75643C8.43979 9.07307 8.43979 9.58645 8.75643 9.90309L10.8534 12L8.75643 14.097C8.43979 14.4136 8.43979 14.927 8.75643 15.2436C9.07307 15.5603 9.58645 15.5603 9.90309 15.2436L12 13.1467L14.097 15.2436C14.4136 15.5603 14.927 15.5603 15.2436 15.2436C15.5603 14.927 15.5603 14.4136 15.2436 14.097L13.1467 12L15.2436 9.90309Z" fill="#FD5154"/>
</svg>
