<svg width="24" height="24" viewBox="0 0 24 24" fill="none" xmlns="http://www.w3.org/2000/svg">
<path fill-rule="evenodd" clip-rule="evenodd" d="M12 24C18.6274 24 24 18.6274 24 12C24 5.37258 18.6274 0 12 0C5.37258 0 0 5.37258 0 12C0 18.6274 5.37258 24 12 24ZM15.8924 9.48371C16.2723 9.10374 16.2723 8.48769 15.8924 8.10772C15.5124 7.72775 14.8963 7.72775 14.5164 8.10772L12 10.624L9.48371 8.10772C9.10374 7.72775 8.48769 7.72775 8.10772 8.10772C7.72775 8.48769 7.72775 9.10374 8.10772 9.48371L10.624 12L8.10772 14.5164C7.72775 14.8963 7.72775 15.5124 8.10772 15.8924C8.48769 16.2723 9.10374 16.2723 9.48371 15.8924L12 13.376L14.5164 15.8924C14.8963 16.2723 15.5124 16.2723 15.8924 15.8924C16.2723 15.5124 16.2723 14.8963 15.8924 14.5164L13.376 12L15.8924 9.48371Z" fill="#FD5154"/>
</svg>
