<svg width="24" height="24" viewBox="0 0 24 24" fill="none" xmlns="http://www.w3.org/2000/svg">
<path fill-rule="evenodd" clip-rule="evenodd" d="M7.59999 4.95001C5.3142 4.95001 3.54999 6.71423 3.54999 9.00002C3.54999 10.1449 3.8992 11.1386 4.63032 11.8697L11.9 19.1394L19.1697 11.8697C19.18 11.8593 19.1907 11.8492 19.2017 11.8395C19.9401 11.1832 20.45 10.0879 20.45 9.00002C20.45 6.80402 18.6756 4.95001 16.4 4.95001C15.2551 4.95001 14.2614 5.29923 13.5303 6.03035C13.5052 6.05544 13.4784 6.07872 13.45 6.10002C13.1125 6.35311 12.8441 6.63928 12.7115 7.03719C12.6156 7.32497 12.3557 7.52663 12.0532 7.54813C11.7506 7.56964 11.4648 7.40675 11.3292 7.13543C11.1499 6.77694 10.8135 6.29768 10.55 6.10002C10.5349 6.08871 10.5203 6.07685 10.5061 6.06445C9.82227 5.46609 8.69275 4.95001 7.59999 4.95001ZM2.04999 9.00002C2.04999 5.8858 4.48577 3.45001 7.59999 3.45001C9.09626 3.45001 10.5563 4.12403 11.4738 4.91811C11.6519 5.05537 11.8217 5.22706 11.9768 5.41101C12.1504 5.22326 12.3331 5.06575 12.5076 4.93212C13.5717 3.89023 14.9621 3.45001 16.4 3.45001C19.5243 3.45001 21.95 5.99601 21.95 9.00002C21.95 10.504 21.2674 12.0006 20.2155 12.9452L12.4303 20.7303C12.1374 21.0232 11.6626 21.0232 11.3697 20.7303L3.56966 12.9303C2.50077 11.8615 2.04999 10.4551 2.04999 9.00002Z" fill="#101010"/>
</svg>
