<svg width="24" height="24" viewBox="0 0 24 24" fill="none" xmlns="http://www.w3.org/2000/svg">
<path d="M14.35 19.6798C14.35 20.9612 13.2979 22 12 22C10.7022 22 9.65002 20.9612 9.65002 19.6798C9.65002 18.3984 10.7022 17.3596 12 17.3596C13.2979 17.3596 14.35 18.3984 14.35 19.6798Z" fill="#101010"/>
<path d="M6.7 19.6798C6.7 20.9612 5.64787 22 4.35 22C3.05213 22 2 20.9612 2 19.6798C2 18.3984 3.05213 17.3596 4.35 17.3596C5.64787 17.3596 6.7 18.3984 6.7 19.6798Z" fill="#101010"/>
<path d="M22.0694 19.6798C22.0694 20.9612 21.0173 22 19.7194 22C18.4215 22 17.3694 20.9612 17.3694 19.6798C17.3694 18.3984 18.4215 17.3596 19.7194 17.3596C21.0173 17.3596 22.0694 18.3984 22.0694 19.6798Z" fill="#101010"/>
<path d="M11.2748 17.8218V4.61674L9.79529 6.09623C9.5024 6.38912 9.02764 6.38912 8.73474 6.09623C8.44195 5.80333 8.44188 5.32854 8.73474 5.03568L11.4945 2.27592C11.7866 1.98381 12.2599 1.98301 12.5531 2.27396L15.3324 5.03373C15.6263 5.32558 15.6281 5.80035 15.3363 6.09428C15.0444 6.38819 14.5697 6.39005 14.2758 6.09818L12.7748 4.60697V17.8218C12.7748 18.236 12.439 18.5718 12.0248 18.5718C11.6107 18.5717 11.2748 18.2359 11.2748 17.8218Z" fill="#101010"/>
<path d="M18.9694 13.314C18.9694 12.6237 18.4097 12.064 17.7194 12.064H12.0026V10.564H17.7194C19.2382 10.564 20.4694 11.7952 20.4694 13.314V17.8218H18.9694V13.314Z" fill="#101010"/>
<path d="M3.59998 13.314C3.59998 11.7952 4.83119 10.564 6.34998 10.564H12.0453V12.064H6.34998C5.65962 12.064 5.09998 12.6236 5.09998 13.314V17.8218H3.59998V13.314Z" fill="#101010"/>
</svg>
