<svg width="24" height="24" viewBox="0 0 24 24" fill="none" xmlns="http://www.w3.org/2000/svg">
<path fill-rule="evenodd" clip-rule="evenodd" d="M3.69757 6.96007C3.69717 6.54586 4.03262 6.20974 4.44684 6.20934L12.7912 6.20117C13.2054 6.20077 13.5415 6.53622 13.5419 6.95044C13.5423 7.36465 13.2069 7.70077 12.7927 7.70117L4.4483 7.70934C4.03409 7.70974 3.69798 7.37428 3.69757 6.96007Z" fill="#101010"/>
<path fill-rule="evenodd" clip-rule="evenodd" d="M3.69757 12.0245C3.69757 11.6103 4.03336 11.2745 4.44757 11.2745H8.61753C9.03174 11.2745 9.36753 11.6103 9.36753 12.0245C9.36753 12.4387 9.03174 12.7745 8.61753 12.7745H4.44757C4.03336 12.7745 3.69757 12.4387 3.69757 12.0245Z" fill="#101010"/>
<path fill-rule="evenodd" clip-rule="evenodd" d="M3.69757 17.0571C3.69757 16.6429 4.03336 16.3071 4.44757 16.3071H9.43097C9.84519 16.3071 10.181 16.6429 10.181 17.0571C10.181 17.4713 9.84519 17.8071 9.43097 17.8071H4.44757C4.03336 17.8071 3.69757 17.4713 3.69757 17.0571Z" fill="#101010"/>
<path fill-rule="evenodd" clip-rule="evenodd" d="M11.6424 17.0571C11.6424 16.6429 11.9781 16.3071 12.3924 16.3071H19.6334C20.0476 16.3071 20.3834 16.6429 20.3834 17.0571C20.3834 17.4713 20.0476 17.8071 19.6334 17.8071H12.3924C11.9781 17.8071 11.6424 17.4713 11.6424 17.0571Z" fill="#101010"/>
<path fill-rule="evenodd" clip-rule="evenodd" d="M19.5595 7.70934H15.4153C15.0011 7.70934 14.6653 7.37355 14.6653 6.95934C14.6653 6.54512 15.0011 6.20934 15.4153 6.20934H19.5595C19.9737 6.20934 20.3095 6.54512 20.3095 6.95934C20.3095 7.37355 19.9737 7.70934 19.5595 7.70934Z" fill="#101010"/>
<path fill-rule="evenodd" clip-rule="evenodd" d="M19.5594 12.7745L11.1673 12.7745C10.753 12.7745 10.4173 12.4387 10.4173 12.0245C10.4173 11.6103 10.753 11.2745 11.1673 11.2745L19.5594 11.2745C19.9737 11.2745 20.3094 11.6103 20.3094 12.0245C20.3094 12.4387 19.9737 12.7745 19.5594 12.7745Z" fill="#101010"/>
<path fill-rule="evenodd" clip-rule="evenodd" d="M15.4102 3.68487C15.8244 3.68487 16.1602 4.02066 16.1602 4.43487V9.46741C16.1602 9.88163 15.8244 10.2174 15.4102 10.2174C14.996 10.2174 14.6602 9.88163 14.6602 9.46741V4.43487C14.6602 4.02066 14.996 3.68487 15.4102 3.68487Z" fill="#101010"/>
<path fill-rule="evenodd" clip-rule="evenodd" d="M8.61975 8.75005C9.03396 8.75005 9.36975 9.08584 9.36975 9.50005L9.36975 14.5326C9.36975 14.9468 9.03396 15.2826 8.61975 15.2826C8.20554 15.2826 7.86975 14.9468 7.86975 14.5326L7.86975 9.50005C7.86975 9.08584 8.20554 8.75005 8.61975 8.75005Z" fill="#101010"/>
<path fill-rule="evenodd" clip-rule="evenodd" d="M12.0337 13.7826C12.4479 13.7826 12.7837 14.1184 12.7837 14.5326V19.5651C12.7837 19.9794 12.4479 20.3151 12.0337 20.3151C11.6195 20.3151 11.2837 19.9794 11.2837 19.5651L11.2837 14.5326C11.2837 14.1184 11.6195 13.7826 12.0337 13.7826Z" fill="#101010"/>
</svg>
