<svg width="24" height="24" viewBox="0 0 24 24" fill="none" xmlns="http://www.w3.org/2000/svg">
<path fill-rule="evenodd" clip-rule="evenodd" d="M3.92249 3.73138C3.92249 3.31717 4.25827 2.98138 4.67249 2.98138H11.9697C12.1975 2.98138 12.413 3.08492 12.5553 3.26278L13.8329 4.85927H19.1725C19.5867 4.85927 19.9225 5.19506 19.9225 5.60927V14.3366C19.9225 14.7508 19.5867 15.0866 19.1725 15.0866H12.8425C12.608 15.0866 12.387 14.9769 12.2452 14.7902L10.9679 13.1081H4.67249C4.25827 13.1081 3.92249 12.7723 3.92249 12.3581V3.73138ZM5.42249 4.48138V11.6081H11.3401C11.5746 11.6081 11.7956 11.7178 11.9374 11.9045L13.2147 13.5866H18.4225V6.35927H13.4725C13.2447 6.35927 13.0292 6.25574 12.8869 6.07787L11.6093 4.48138H5.42249Z" fill="#101010"/>
<path fill-rule="evenodd" clip-rule="evenodd" d="M4.67249 3.10879C5.0867 3.10879 5.42249 3.44457 5.42249 3.85879V20.2314C5.42249 20.6456 5.0867 20.9814 4.67249 20.9814C4.25827 20.9814 3.92249 20.6456 3.92249 20.2314V3.85879C3.92249 3.44457 4.25827 3.10879 4.67249 3.10879Z" fill="#101010"/>
</svg>
