<svg width="24" height="24" viewBox="0 0 24 24" fill="none" xmlns="http://www.w3.org/2000/svg">
<path fill-rule="evenodd" clip-rule="evenodd" d="M3.74908 5.39799C3.61101 5.39799 3.49908 5.50992 3.49908 5.648V18.5786C3.49908 18.7167 3.61101 18.8286 3.74908 18.8286H20.2509C20.389 18.8286 20.5009 18.7167 20.5009 18.5786V8.51523C20.5009 8.37716 20.389 8.26523 20.2509 8.26523H12.4683C11.8832 8.26523 11.3368 7.97279 11.0122 7.48592L9.69454 5.50933C9.64818 5.43977 9.57012 5.39799 9.48653 5.39799H3.74908ZM1.99908 5.648C1.99908 4.6815 2.78259 3.89799 3.74908 3.89799H9.48653C10.0717 3.89799 10.6181 4.19044 10.9426 4.67731L12.2603 6.6539C12.3067 6.72346 12.3847 6.76523 12.4683 6.76523H20.2509C21.2174 6.76523 22.0009 7.54874 22.0009 8.51523V18.5786C22.0009 19.5451 21.2174 20.3286 20.2509 20.3286H3.74908C2.78259 20.3286 1.99908 19.5451 1.99908 18.5786V5.648Z" fill="#101010"/>
<path d="M16.8118 12.1538C16.8118 12.9436 16.1715 13.5839 15.3817 13.5839C14.5919 13.5839 13.9517 12.9436 13.9517 12.1538C13.9517 11.3641 14.5919 10.7238 15.3817 10.7238C16.1715 10.7238 16.8118 11.3641 16.8118 12.1538Z" fill="#101010"/>
<path fill-rule="evenodd" clip-rule="evenodd" d="M15.3817 11.0799C14.7886 11.0799 14.3077 11.5607 14.3077 12.1538C14.3077 12.747 14.7886 13.2278 15.3817 13.2278C15.9749 13.2278 16.4557 12.747 16.4557 12.1538C16.4557 11.5607 15.9749 11.0799 15.3817 11.0799ZM13.5956 12.1538C13.5956 11.1674 14.3953 10.3677 15.3817 10.3677C16.3682 10.3677 17.1678 11.1674 17.1678 12.1538C17.1678 13.1403 16.3682 13.9399 15.3817 13.9399C14.3953 13.9399 13.5956 13.1403 13.5956 12.1538Z" fill="#101010"/>
<path d="M12 16.874C12 16.1071 12.5092 15.4334 13.247 15.2241L14.4588 14.8803C15.0622 14.7091 15.7013 14.7091 16.3047 14.8803L17.581 15.2424C18.2806 15.4408 18.7634 16.0797 18.7634 16.8069C18.7634 16.8439 18.7334 16.874 18.6963 16.874H12Z" fill="#101010"/>
<path fill-rule="evenodd" clip-rule="evenodd" d="M16.2075 15.2228C15.6676 15.0697 15.0958 15.0697 14.556 15.2228L13.3442 15.5666C12.8774 15.699 12.5261 16.066 12.4034 16.5179H18.3742C18.2709 16.0756 17.9351 15.7129 17.4838 15.5849L16.2075 15.2228ZM11.644 16.874C11.644 15.9478 12.2588 15.1343 13.1498 14.8815L14.3616 14.5377C15.0285 14.3485 15.7349 14.3485 16.4018 14.5377L17.6782 14.8998C18.531 15.1418 19.1195 15.9204 19.1195 16.8069C19.1195 17.0406 18.93 17.23 18.6963 17.23H12C11.8034 17.23 11.644 17.0706 11.644 16.874Z" fill="#101010"/>
</svg>
