<svg width="24" height="24" viewBox="0 0 24 24" fill="none" xmlns="http://www.w3.org/2000/svg">
<path fill-rule="evenodd" clip-rule="evenodd" d="M3.74908 5.39802C3.61101 5.39802 3.49908 5.50995 3.49908 5.64802V18.5786C3.49908 18.7167 3.61101 18.8286 3.74908 18.8286H20.2509C20.389 18.8286 20.5009 18.7167 20.5009 18.5786V8.51526C20.5009 8.37719 20.389 8.26526 20.2509 8.26526H12.4683C11.8832 8.26526 11.3368 7.97281 11.0122 7.48594L9.69454 5.50935C9.64818 5.4398 9.57012 5.39802 9.48653 5.39802H3.74908ZM1.99908 5.64802C1.99908 4.68152 2.78259 3.89802 3.74908 3.89802H9.48653C10.0717 3.89802 10.6181 4.19046 10.9426 4.67733L12.2603 6.65393C12.3067 6.72348 12.3847 6.76526 12.4683 6.76526H20.2509C21.2174 6.76526 22.0009 7.54876 22.0009 8.51526V18.5786C22.0009 19.5451 21.2174 20.3286 20.2509 20.3286H3.74908C2.78259 20.3286 1.99908 19.5451 1.99908 18.5786V5.64802Z" fill="#101010"/>
</svg>
