<svg width="24" height="24" viewBox="0 0 24 24" fill="none" xmlns="http://www.w3.org/2000/svg">
<path d="M7.1832 7.79312H19.2C19.7523 7.79312 20.2 8.24084 20.2 8.79312V20.4348C20.2 20.5308 20.0837 20.5785 20.0163 20.5102L16.7624 17.2094C16.7422 17.1889 16.7147 17.1774 16.686 17.1774H8.07588C7.5236 17.1774 7.07588 16.7297 7.07588 16.1774V7.90044C7.07588 7.84117 7.12393 7.79312 7.1832 7.79312Z" fill="#101010"/>
<path fill-rule="evenodd" clip-rule="evenodd" d="M17.25 4.00003C18.2165 4.00003 19 4.78353 19 5.75003V13.6223C19 14.6481 18.1685 15.4796 17.1427 15.4796H7.99402L4.98744 18.4862C4.30402 19.1696 3.19598 19.1696 2.51256 18.4862C1.82915 17.8028 1.82915 16.6947 2.51256 16.0113L6.00028 12.5236C6.3486 12.1753 6.82101 11.9796 7.3136 11.9796H15.5V5.75003C15.5 4.78353 16.2835 4.00003 17.25 4.00003Z" fill="white"/>
<path d="M16.25 4.75003H4.75C4.19772 4.75003 3.75 5.19775 3.75 5.75003V16.9897C3.75 17.0853 3.8656 17.1332 3.9332 17.0656L7.23772 13.761C7.25784 13.7409 7.28514 13.7296 7.3136 13.7296H16.25C16.8023 13.7296 17.25 13.2819 17.25 12.7296V5.75003C17.25 5.19775 16.8023 4.75003 16.25 4.75003Z" fill="white"/>
<path fill-rule="evenodd" clip-rule="evenodd" d="M3 5.75003C3 4.78353 3.7835 4.00003 4.75 4.00003H16.25C17.2165 4.00003 18 4.78353 18 5.75003V12.7296C18 13.6961 17.2165 14.4796 16.25 14.4796H7.57981L4.46353 17.5959C3.92347 18.136 3 17.7535 3 16.9897V5.75003ZM4.75 5.50003C4.61193 5.50003 4.5 5.61196 4.5 5.75003V15.4381L6.70739 13.2307C6.86816 13.0699 7.08623 12.9796 7.3136 12.9796H16.25C16.3881 12.9796 16.5 12.8677 16.5 12.7296V5.75003C16.5 5.61196 16.3881 5.50003 16.25 5.50003H4.75Z" fill="#101010"/>
</svg>
