<svg width="24" height="24" viewBox="0 0 24 24" fill="none" xmlns="http://www.w3.org/2000/svg">
<path d="M1.71509 18.812C1.73453 18.8203 1.75307 18.8257 1.77368 18.8325C1.74072 18.8216 1.71375 18.8119 1.677 18.7973C1.69067 18.8028 1.70352 18.807 1.71509 18.812ZM10.2561 4.99068C10.5252 4.99072 10.7945 5.00209 11.0637 5.02486C11.2367 5.03981 11.4124 5.05906 11.5901 5.08346V6.62643C11.4366 6.58173 11.2805 6.54442 11.1233 6.5151C10.8771 6.46471 10.6265 6.43874 10.3752 6.43697C9.87391 6.41288 9.37867 6.55687 8.96899 6.84713L8.94653 6.86373L8.927 6.88229C8.5167 7.27893 8.27101 7.81582 8.2395 8.38522L8.0022 10.1167H10.6917V11.227H7.7395L7.15552 15.0483L7.15454 15.0571C7.07384 15.6912 6.86587 16.3031 6.54321 16.8549C6.28827 17.2692 5.94559 17.6226 5.53931 17.8901C5.1626 18.126 4.74827 18.297 4.3147 18.395C3.84087 18.4996 3.35658 18.551 2.87134 18.5483H2.86938C2.62047 18.5483 2.33155 18.5343 2.0022 18.5063H1.99243C1.93568 18.5029 1.90813 18.4981 1.89575 18.4956C1.88811 18.494 1.88459 18.493 1.87427 18.4887C1.8722 18.4879 1.86965 18.4867 1.86743 18.4858L1.86841 16.7729C1.98394 16.8245 2.10725 16.8568 2.23364 16.8686C2.4819 16.9178 2.73446 16.9435 2.98755 16.9448C3.53753 16.9745 4.07912 16.7987 4.50708 16.4516L4.52661 16.436L4.54321 16.4184C4.95589 15.9769 5.20296 15.4058 5.24341 14.8032L5.77368 11.227H3.66333V10.1167H6.17114L6.47388 8.15279L6.47485 8.13912C6.5421 7.56208 6.73959 7.00779 7.052 6.51803C7.3066 6.14007 7.63867 5.8203 8.02563 5.57955C8.39717 5.35034 8.80927 5.19361 9.2395 5.11959H9.24438C9.32642 5.10435 9.39761 5.08988 9.46118 5.0776C9.76439 5.01901 9.89922 4.9933 10.2561 4.99068ZM11.054 6.86861C11.235 6.90226 11.4146 6.94678 11.5901 7.0024C11.5989 7.0052 11.6076 7.00834 11.6165 7.01119C11.4323 6.95156 11.2443 6.90398 11.054 6.86861Z" fill="#101010"/>
<path d="M22.3649 14.7336V14.8335C22.3649 15.3689 22.305 15.8629 22.1851 16.3157C22.0653 16.7685 21.9055 17.1707 21.7057 17.5223C21.5059 17.8739 21.2835 18.1669 21.0385 18.4012C20.7961 18.6383 20.5524 18.8074 20.3073 18.9086L20.0636 18.2814C20.2127 18.1695 20.3592 18.0177 20.5031 17.8259C20.6469 17.6342 20.7761 17.3971 20.8906 17.1148C21.0078 16.8351 21.0997 16.5075 21.1663 16.1319C21.2356 15.7564 21.2702 15.3262 21.2702 14.8415V14.7256C21.2702 14.2409 21.2356 13.8107 21.1663 13.4352C21.0971 13.0596 21.0038 12.732 20.8866 12.4523C20.7721 12.17 20.6429 11.9329 20.4991 11.7412C20.3552 11.5494 20.2101 11.3976 20.0636 11.2857L20.3073 10.6584C20.5524 10.757 20.7961 10.9248 21.0385 11.1619C21.2835 11.3989 21.5059 11.6932 21.7057 12.0448C21.9055 12.3964 22.0653 12.7999 22.1851 13.2554C22.305 13.7082 22.3649 14.2009 22.3649 14.7336Z" fill="#101010"/>
<path d="M21.1505 14.7258C21.1505 14.2467 21.1156 13.824 21.048 13.4573C20.9799 13.0881 20.8887 12.7683 20.7755 12.4983C20.6639 12.2231 20.5396 11.9944 20.4034 11.8127C20.2644 11.6274 20.1259 11.4846 19.9903 11.3811L19.9191 11.3264L19.9513 11.2424L20.1954 10.6145L20.2394 10.5022L20.3517 10.5471C20.6145 10.6528 20.8709 10.8308 21.1212 11.0754C21.3758 11.3217 21.6053 11.6259 21.8097 11.9856C22.0153 12.3475 22.1788 12.761 22.3009 13.2249C22.4237 13.6889 22.4845 14.192 22.4845 14.7336V14.8333C22.4845 15.3774 22.4237 15.8819 22.3009 16.3459C22.1788 16.8072 22.0153 17.2195 21.8097 17.5813C21.6055 17.9406 21.3757 18.242 21.1212 18.4856L21.1222 18.4866C20.8717 18.7315 20.6152 18.9113 20.3526 19.0198L20.2394 19.0667L20.1954 18.9524L19.9513 18.3245L19.9191 18.2405L19.9913 18.1858C20.1292 18.0824 20.2685 17.9393 20.4073 17.7542C20.5436 17.5725 20.6678 17.3448 20.7794 17.0696L20.7804 17.0686C20.8934 16.7989 20.9825 16.4796 21.048 16.1106L21.0929 15.8245C21.131 15.5284 21.1505 15.2005 21.1505 14.8411V14.7258ZM21.2702 14.8415L21.2638 15.1946C21.2508 15.5378 21.2183 15.8502 21.1663 16.1319C21.0997 16.5075 21.0078 16.8351 20.8906 17.1148L20.8019 17.3176C20.7104 17.5125 20.611 17.682 20.5031 17.8259L20.3946 17.9622C20.2858 18.091 20.1755 18.1975 20.0636 18.2814L20.3073 18.9086C20.5524 18.8074 20.7961 18.6383 21.0385 18.4012C21.2223 18.2254 21.3935 18.0165 21.5519 17.7747L21.7057 17.5223C21.9055 17.1707 22.0653 16.7685 22.1851 16.3157C22.2751 15.976 22.3312 15.613 22.3536 15.2268L22.3649 14.8335V14.7336C22.3649 14.2009 22.305 13.7082 22.1851 13.2554C22.0953 12.914 21.9825 12.6016 21.8478 12.3186L21.7057 12.0448C21.5059 11.6932 21.2835 11.3989 21.0385 11.1619C20.7961 10.9248 20.5524 10.757 20.3073 10.6584L20.0636 11.2857C20.2101 11.3976 20.3552 11.5494 20.4991 11.7412C20.6429 11.9329 20.7721 12.17 20.8866 12.4523C21.0038 12.732 21.0971 13.0596 21.1663 13.4352C21.2356 13.8107 21.2702 14.2409 21.2702 14.7256V14.8415Z" fill="#101010"/>
<path d="M11.3151 14.8335V14.7336C11.3151 14.177 11.3724 13.6709 11.4869 13.2154C11.6041 12.7573 11.7586 12.3565 11.9504 12.0129C12.1448 11.6666 12.3592 11.379 12.5936 11.1499C12.828 10.9208 13.0638 10.757 13.3008 10.6585L13.5405 11.2937C13.3887 11.4056 13.2409 11.5574 13.097 11.7492C12.9559 11.9383 12.8267 12.1727 12.7095 12.4523C12.595 12.732 12.5031 13.0596 12.4338 13.4352C12.3672 13.8107 12.3339 14.2409 12.3339 14.7256V14.8415C12.3339 15.3263 12.3672 15.7564 12.4338 16.132C12.5031 16.5075 12.595 16.8351 12.7095 17.1148C12.8267 17.3945 12.9559 17.6302 13.097 17.822C13.2409 18.0164 13.3887 18.1695 13.5405 18.2814L13.3008 18.9087C13.0638 18.8075 12.828 18.6423 12.5936 18.4133C12.3592 18.1869 12.1448 17.9005 11.9504 17.5543C11.7586 17.2107 11.6041 16.8112 11.4869 16.3557C11.3724 15.8976 11.3151 15.3902 11.3151 14.8335Z" fill="#101010"/>
<path d="M12.3339 14.7256C12.3339 14.2409 12.3672 13.8107 12.4338 13.4352C12.5031 13.0596 12.595 12.732 12.7095 12.4523C12.8267 12.1727 12.9559 11.9383 13.097 11.7492C13.2049 11.6054 13.3151 11.4839 13.4274 11.385L13.5405 11.2937L13.3008 10.6585C13.0638 10.757 12.828 10.9208 12.5936 11.1499C12.3592 11.379 12.1448 11.6666 11.9504 12.0129L11.8132 12.2815C11.6834 12.5605 11.5748 12.8721 11.4869 13.2154C11.3724 13.6709 11.3151 14.177 11.3151 14.7336V14.8335C11.3151 15.3902 11.3724 15.8976 11.4869 16.3557C11.6041 16.8112 11.7586 17.2107 11.9504 17.5543C12.1448 17.9005 12.3592 18.1869 12.5936 18.4133C12.828 18.6423 13.0638 18.8075 13.3008 18.9087L13.5405 18.2814C13.4267 18.1975 13.3151 18.0905 13.2057 17.9602L13.097 17.822C12.9559 17.6302 12.8267 17.3945 12.7095 17.1148C12.595 16.8351 12.5031 16.5075 12.4338 16.132C12.3672 15.7564 12.3339 15.3263 12.3339 14.8415V14.7256ZM12.4538 14.8411C12.4538 15.3205 12.4874 15.7436 12.5524 16.1106C12.6205 16.4799 12.7103 16.7994 12.821 17.0696C12.9352 17.342 13.0591 17.5682 13.193 17.7503C13.3317 17.9377 13.4721 18.0818 13.612 18.1848L13.6852 18.2386L13.653 18.3245L13.4128 18.9514L13.3688 19.0677L13.2536 19.0188C12.9998 18.9104 12.7517 18.736 12.5094 18.4993C12.2655 18.2634 12.0441 17.9664 11.8454 17.6126C11.6478 17.2586 11.49 16.8493 11.3708 16.386C11.2535 15.9169 11.195 15.3981 11.195 14.8333V14.7337C11.195 14.1689 11.2534 13.6524 11.3708 13.1858L11.4675 12.846C11.5714 12.5173 11.6972 12.2199 11.8454 11.9544L11.9987 11.6995C12.1563 11.4551 12.3263 11.2427 12.5094 11.0637C12.7518 10.827 13.0002 10.6539 13.2546 10.5481L13.3688 10.5003L13.6852 11.3362L13.612 11.3899C13.4717 11.4933 13.3317 11.6367 13.193 11.8216L13.1921 11.8206C13.0585 11.9995 12.9341 12.2243 12.82 12.4964L12.821 12.4973C12.7104 12.7673 12.6195 13.0865 12.5514 13.4553C12.4864 13.8224 12.4538 14.2463 12.4538 14.7259V14.8411Z" fill="#101010"/>
<path d="M18.2298 17.5006H19.8548L17.7543 14.739L19.8255 12.0653H18.2416L16.9242 13.9314L15.6137 12.0653H13.9887L16.059 14.78L13.9574 17.5006H15.5365L16.9017 15.6023L18.2298 17.5006Z" fill="#101010"/>
<path d="M15.6137 12.0653L16.9242 13.9314L18.2416 12.0653H19.8255L17.7543 14.739L19.8548 17.5006H18.2298L16.9017 15.6023L15.5365 17.5006H13.9574L16.059 14.78L13.9887 12.0653H15.6137ZM15.9642 14.6551L16.059 14.78L13.9574 17.5006H15.5365L16.7338 15.8366L16.9017 15.6023L18.2298 17.5006H19.8548L17.849 14.864L17.7543 14.739L17.85 14.614L19.8255 12.0653H18.2416L17.0912 13.6942L16.9242 13.9314L16.7572 13.6932L15.6137 12.0653H13.9887L15.9642 14.6551Z" fill="white"/>
</svg>
