<svg width="24" height="24" viewBox="0 0 24 24" fill="none" xmlns="http://www.w3.org/2000/svg">
<path fill-rule="evenodd" clip-rule="evenodd" d="M10.9314 4.017C11.5567 3.38913 12.4533 3.43691 12.9384 3.98489C12.9481 3.99589 12.9582 4.0066 12.9686 4.017L19.9686 11.0456C20.5955 11.675 20.5481 12.5808 20.0006 13.0694C19.9896 13.0792 19.9789 13.0893 19.9686 13.0997L12.9686 20.1283C12.4816 20.6173 11.5477 20.6627 10.9144 20.1112L3.93138 13.0997C3.30447 12.4703 3.35187 11.5645 3.89938 11.0759C3.91034 11.0661 3.92101 11.056 3.93138 11.0456L10.9314 4.017ZM9.86856 2.95851C11.0377 1.78458 12.9288 1.73173 14.0458 2.97295L21.0314 9.98708C22.1989 11.1594 22.2514 13.0527 21.017 14.1727L14.0314 21.1868C12.9222 22.3005 11.0671 22.2582 9.90056 21.2171C9.8896 21.2073 9.87893 21.1972 9.86856 21.1868L2.86856 14.1582C1.70099 12.9859 1.64854 11.0926 2.88296 9.97262L9.86856 2.95851ZM12.3591 9.2939C12.646 8.99515 13.1208 8.98557 13.4195 9.27249L15.7195 11.4815C15.8647 11.6209 15.9477 11.8128 15.95 12.0141C15.9522 12.2153 15.8735 12.409 15.7314 12.5516L13.4314 14.861C13.1391 15.1545 12.6643 15.1555 12.3708 14.8632C12.0773 14.5709 12.0763 14.096 12.3686 13.8025L13.4947 12.6718H10.0001C9.71716 12.6718 9.45007 12.9356 9.45007 13.2271V14.2312C9.45007 14.6454 9.11428 14.9812 8.70007 14.9812C8.28585 14.9812 7.95007 14.6454 7.95007 14.2312V13.2271C7.95007 12.1129 8.88298 11.1718 10.0001 11.1718H13.2317L12.3805 10.3543C12.0818 10.0674 12.0722 9.59264 12.3591 9.2939Z" fill="#101010"/>
</svg>
