<svg width="24" height="24" viewBox="0 0 24 24" fill="none" xmlns="http://www.w3.org/2000/svg">
<path fill-rule="evenodd" clip-rule="evenodd" d="M15.9733 14.3591H8.0274L9.40963 9.08674H14.5911L15.9733 14.3591Z" fill="white"/>
<path d="M14.5909 8.33674L14.7169 8.34748C15.0033 8.39608 15.2408 8.60794 15.3165 8.89631L16.6993 14.1688C16.7582 14.3935 16.7093 14.6332 16.5674 14.8172C16.4255 15.0012 16.206 15.1091 15.9737 15.1092H8.0274C7.79495 15.1092 7.57566 15.0012 7.43365 14.8172C7.29168 14.6332 7.24287 14.3936 7.30182 14.1688L8.68463 8.89631L8.72662 8.77815C8.84618 8.51323 9.11101 8.33689 9.40924 8.33674H14.5909ZM8.99908 13.6092H15.001L14.0118 9.83674H9.98834L8.99908 13.6092Z" fill="#101010"/>
<path fill-rule="evenodd" clip-rule="evenodd" d="M3.88228 14.3462L2.50006 19.6199H10.446L9.06512 14.3462H3.88228Z" fill="white"/>
<path d="M9.06353 13.5968C9.40441 13.5968 9.70257 13.8267 9.78912 14.1564L11.1719 19.4298C11.2308 19.6546 11.182 19.8943 11.0401 20.0783C10.8982 20.2622 10.6787 20.3702 10.4463 20.3703H2.50006C2.26766 20.3703 2.04832 20.2622 1.90631 20.0783C1.76432 19.8943 1.71558 19.6547 1.77447 19.4298L3.15631 14.1564L3.19928 14.0382C3.31884 13.7733 3.58367 13.597 3.88189 13.5968H9.06353ZM3.47174 18.8703H9.47467L8.48443 15.0968H4.461L3.47174 18.8703Z" fill="#101010"/>
<path fill-rule="evenodd" clip-rule="evenodd" d="M14.9373 14.3462L13.5544 19.6199H21.4997L20.1195 14.3462H14.9373Z" fill="white"/>
<path d="M20.1177 13.5967C20.4585 13.5967 20.7567 13.8266 20.8432 14.1562L22.226 19.4297C22.2849 19.6544 22.2361 19.8941 22.0942 20.0781C21.9523 20.262 21.7328 20.37 21.5005 20.3701H13.5542C13.3218 20.3701 13.1024 20.2621 12.9604 20.0781C12.8185 19.8941 12.7697 19.6545 12.8286 19.4297L14.2114 14.1562L14.2534 14.0381C14.3729 13.7729 14.6385 13.5967 14.937 13.5967H20.1177ZM14.5259 18.8701H20.5288L19.5385 15.0967H15.5161L14.5259 18.8701Z" fill="#101010"/>
<path d="M11.2499 5.47867V2.65152C11.2499 2.23744 11.5859 1.90174 11.9999 1.90152C12.4141 1.90152 12.7499 2.23731 12.7499 2.65152V5.47867C12.7499 5.89288 12.4141 6.22867 11.9999 6.22867C11.5859 6.22845 11.2499 5.89274 11.2499 5.47867Z" fill="#101010"/>
<path d="M4.7953 5.85334C4.99202 5.48901 5.44744 5.35307 5.81191 5.54963L8.16835 6.82014C8.53293 7.01676 8.66868 7.47217 8.47206 7.83674C8.27544 8.20123 7.82097 8.33698 7.45644 8.14045L5.09902 6.86994C4.73469 6.67323 4.59875 6.21781 4.7953 5.85334Z" fill="#101010"/>
<path d="M18.1431 5.54963C18.5075 5.35331 18.9621 5.48917 19.1587 5.85334C19.3553 6.21786 19.2195 6.67328 18.855 6.86994L16.4986 8.14045C16.134 8.33707 15.6786 8.20132 15.482 7.83674C15.2854 7.47222 15.4212 7.0168 15.7857 6.82014L18.1431 5.54963Z" fill="#101010"/>
</svg>
