<svg width="24" height="24" viewBox="0 0 24 24" fill="none" xmlns="http://www.w3.org/2000/svg">
<path fill-rule="evenodd" clip-rule="evenodd" d="M12 3.5C7.30558 3.5 3.5 7.30558 3.5 12C3.5 16.6944 7.30558 20.5 12 20.5C16.6944 20.5 20.5 16.6944 20.5 12C20.5 7.30558 16.6944 3.5 12 3.5ZM2 12C2 6.47715 6.47715 2 12 2C17.5228 2 22 6.47715 22 12C22 17.5228 17.5228 22 12 22C6.47715 22 2 17.5228 2 12Z" fill="#101010"/>
<path d="M11.103 14.3281V14.1989C11.1063 13.599 11.1626 13.1217 11.272 12.767C11.3847 12.4124 11.5438 12.1274 11.7493 11.9119C11.9548 11.6932 12.205 11.4927 12.5 11.3104C12.7022 11.1844 12.8828 11.0469 13.0419 10.8977C13.2043 10.7453 13.3319 10.5762 13.4247 10.3906C13.5175 10.2017 13.5639 9.99124 13.5639 9.75923C13.5639 9.4974 13.5026 9.27036 13.38 9.07812C13.2573 8.88589 13.0916 8.73674 12.8828 8.63068C12.6773 8.52462 12.447 8.47159 12.1918 8.47159C11.9564 8.47159 11.7327 8.52296 11.5206 8.62571C11.3118 8.72514 11.1378 8.8776 10.9986 9.0831C10.8627 9.28527 10.7865 9.54214 10.7699 9.85369H9C9.01657 9.22396 9.16903 8.69697 9.45739 8.27273C9.74905 7.84848 10.1335 7.5303 10.6108 7.31818C11.0914 7.10606 11.6217 7 12.2017 7C12.8348 7 13.3916 7.11103 13.8722 7.3331C14.3561 7.55516 14.7322 7.87169 15.0007 8.28267C15.2725 8.69034 15.4084 9.17424 15.4084 9.73438C15.4084 10.1122 15.3471 10.4503 15.2244 10.7486C15.1051 11.0469 14.9344 11.312 14.7124 11.544C14.4903 11.776 14.2268 11.9832 13.9219 12.1655C13.6534 12.3312 13.433 12.5036 13.2607 12.6825C13.0916 12.8615 12.9657 13.072 12.8828 13.3139C12.8033 13.5526 12.7618 13.8475 12.7585 14.1989V14.3281H11.103ZM11.968 17.4304C11.6697 17.4304 11.4129 17.3243 11.1974 17.1122C10.982 16.9001 10.8743 16.6416 10.8743 16.3366C10.8743 16.0384 10.982 15.7831 11.1974 15.571C11.4129 15.3589 11.6697 15.2528 11.968 15.2528C12.263 15.2528 12.5182 15.3589 12.7337 15.571C12.9524 15.7831 13.0618 16.0384 13.0618 16.3366C13.0618 16.5388 13.0104 16.7228 12.9077 16.8885C12.8082 17.0542 12.6757 17.1868 12.5099 17.2862C12.3475 17.3823 12.1669 17.4304 11.968 17.4304Z" fill="#101010"/>
</svg>
