<svg width="24" height="24" viewBox="0 0 24 24" fill="none" xmlns="http://www.w3.org/2000/svg">
<path fill-rule="evenodd" clip-rule="evenodd" d="M11.9954 6.03002C13.9899 6.0138 15.9537 6.52116 17.6908 7.50143C19.4283 8.48195 20.8781 9.9013 21.8952 11.6176C22.0316 11.8477 22.0351 12.133 21.9044 12.3663C21.1362 13.7389 20.0685 14.9207 18.7807 15.824C18.4416 16.0619 17.9738 15.9798 17.736 15.6407C17.4981 15.3016 17.5802 14.8338 17.9193 14.596C18.9031 13.9059 19.737 13.0261 20.3727 12.0099C19.5068 10.6862 18.3349 9.58728 16.9536 8.80777C15.4447 7.95626 13.7387 7.51565 12.0062 7.52998L12.0031 7.53C11.4702 7.5322 10.9381 7.57289 10.411 7.65175C10.0013 7.71303 9.61954 7.43063 9.55826 7.02097C9.49697 6.61132 9.77938 6.22955 10.189 6.16826C10.787 6.07879 11.3907 6.03259 11.9954 6.03002Z" fill="#101010"/>
<path fill-rule="evenodd" clip-rule="evenodd" d="M8.39406 7.36579C8.55103 7.74911 8.36753 8.1871 7.98421 8.34406C6.18497 9.08084 4.66363 10.3586 3.62751 11.9953C4.48929 13.3288 5.65928 14.4383 7.04122 15.2286C8.55046 16.0918 10.2597 16.5439 11.9983 16.54L12.0003 16.54C13.3663 16.5405 14.7174 16.2558 15.967 15.7039C16.3459 15.5366 16.7888 15.7081 16.9561 16.087C17.1234 16.4659 16.9519 16.9088 16.573 17.0761C15.1326 17.7122 13.5753 18.0405 12.0007 18.04C12.0004 18.04 12.001 18.04 12.0007 18.04L12 17.29L12.0017 18.04C12.0014 18.04 12.001 18.04 12.0007 18.04C10.0001 18.0443 8.03326 17.524 6.29656 16.5307C4.55956 15.5374 3.1135 14.1058 2.10272 12.3789C1.96739 12.1476 1.96567 11.8618 2.09821 11.629C3.29844 9.52059 5.17067 7.8753 7.41579 6.95594C7.79911 6.79897 8.2371 6.98247 8.39406 7.36579Z" fill="#101010"/>
<path fill-rule="evenodd" clip-rule="evenodd" d="M10.4523 9.61302C10.7599 9.89041 10.7844 10.3647 10.507 10.6723C10.1792 11.0358 9.99848 11.5082 10 11.9977L10 12.0089C9.99524 12.4114 10.1119 12.806 10.335 13.1411C10.5581 13.4762 10.8771 13.7361 11.2503 13.887C11.6235 14.0379 12.0335 14.0726 12.4268 13.9866C12.8201 13.9007 13.1782 13.6981 13.4545 13.4053C13.7388 13.104 14.2134 13.0902 14.5147 13.3745C14.816 13.6588 14.8298 14.1334 14.5455 14.4347C14.0621 14.9471 13.4353 15.3017 12.7471 15.4521C12.0589 15.6025 11.3413 15.5417 10.6882 15.2777C10.0351 15.0137 9.47681 14.5588 9.08642 13.9724C8.69707 13.3876 8.49275 12.6991 8.49999 11.9967C8.49871 11.1366 8.81693 10.3066 9.39302 9.66774C9.67041 9.36012 10.1447 9.33563 10.4523 9.61302Z" fill="#101010"/>
<path d="M12.22 10C12.6803 10.0491 13.1094 10.2563 13.434 10.5864C13.7586 10.9165 13.9586 11.3489 14 11.81L15.29 13.15C15.4293 12.7823 15.5037 12.3932 15.51 12C15.5153 11.5362 15.4284 11.0759 15.2542 10.646C15.0801 10.2161 14.8222 9.82505 14.4956 9.49567C14.169 9.16628 13.7802 8.9051 13.3518 8.7273C12.9233 8.54951 12.4639 8.45865 12 8.46C11.6318 8.46132 11.2665 8.52557 10.92 8.65L12.22 10Z" fill="#101010"/>
<path fill-rule="evenodd" clip-rule="evenodd" d="M4.43967 4.40967C4.73256 4.11678 5.20744 4.11678 5.50033 4.40967L19.6303 18.5397C19.9232 18.8326 19.9232 19.3074 19.6303 19.6003C19.3374 19.8932 18.8626 19.8932 18.5697 19.6003L4.43967 5.47033C4.14678 5.17744 4.14678 4.70257 4.43967 4.40967Z" fill="#101010"/>
</svg>
