<svg width="24" height="24" viewBox="0 0 24 24" fill="none" xmlns="http://www.w3.org/2000/svg">
<path fill-rule="evenodd" clip-rule="evenodd" d="M11.5477 2.15809C11.8188 1.94717 12.1985 1.94732 12.4694 2.15846L22.711 10.141C23.0377 10.3957 23.0961 10.8669 22.8415 11.1936C22.5868 11.5203 22.1156 11.5788 21.7889 11.3241L12.008 3.70061L2.21054 11.3245C1.88363 11.5789 1.41241 11.5201 1.15804 11.1932C0.903657 10.8663 0.962448 10.3951 1.28935 10.1407L11.5477 2.15809Z" fill="#101010"/>
<path fill-rule="evenodd" clip-rule="evenodd" d="M4.14374 8.34354C4.55796 8.34354 4.89374 8.67932 4.89374 9.09354V20.3125C4.89374 20.3778 4.91826 20.4281 4.9481 20.4596C4.97739 20.4906 5.00573 20.4989 5.02784 20.4989H19.1902C19.213 20.4989 19.2412 20.4904 19.2701 20.4598C19.2997 20.4285 19.3243 20.3783 19.3243 20.3125V9.09354C19.3243 8.67932 19.6601 8.34354 20.0743 8.34354C20.4885 8.34354 20.8243 8.67932 20.8243 9.09354V20.3125C20.8243 21.2039 20.132 21.9989 19.1902 21.9989H5.02784C4.08741 21.9989 3.39374 21.2044 3.39374 20.3125V9.09354C3.39374 8.67932 3.72953 8.34354 4.14374 8.34354Z" fill="#101010"/>
<path fill-rule="evenodd" clip-rule="evenodd" d="M10.359 15.4469C10.2209 15.4469 10.109 15.5588 10.109 15.6969V20.5H14.109V15.6969C14.109 15.5588 13.9971 15.4469 13.859 15.4469H10.359ZM8.60901 15.6969C8.60901 14.7304 9.39251 13.9469 10.359 13.9469H13.859C14.8255 13.9469 15.609 14.7304 15.609 15.6969V21.25C15.609 21.6642 15.2732 22 14.859 22H9.35901C8.9448 22 8.60901 21.6642 8.60901 21.25V15.6969Z" fill="#101010"/>
<path fill-rule="evenodd" clip-rule="evenodd" d="M10.2014 8.62636C10.2014 8.21215 10.5372 7.87636 10.9514 7.87636H13.2667C13.6809 7.87636 14.0167 8.21215 14.0167 8.62636C14.0167 9.04058 13.6809 9.37636 13.2667 9.37636H10.9514C10.5372 9.37636 10.2014 9.04058 10.2014 8.62636Z" fill="#101010"/>
</svg>
