<svg width="24" height="24" viewBox="0 0 24 24" fill="none" xmlns="http://www.w3.org/2000/svg">
<path fill-rule="evenodd" clip-rule="evenodd" d="M7.77631 9.24314C7.73508 9.295 7.52304 9.56079 7.13807 9.56079C5.29186 9.56079 3.74516 10.958 3.5581 12.7947L3.54098 12.9627C3.51609 13.2072 3.51505 13.4535 3.53788 13.6981L3.57399 14.0849C3.7549 16.023 5.38152 17.5049 7.32811 17.5049H17.1076C18.9812 17.5049 20.5 15.9861 20.5 14.1125V13.8973C20.5 12.3797 19.2698 11.1495 17.7522 11.1495C17.4394 11.1495 17.2499 10.9664 17.1862 10.8949C17.115 10.815 17.0769 10.7379 17.062 10.7063C17.0293 10.6371 17.0113 10.573 17.0043 10.5477C16.9877 10.4878 16.972 10.4143 16.96 10.358L16.9596 10.3559C16.9577 10.347 16.9557 10.3379 16.9538 10.3286C16.9272 10.2035 16.8944 10.0491 16.8456 9.86571C16.7408 9.47157 16.5673 8.96467 16.2624 8.46591C15.6785 7.51069 14.5688 6.5 12.2526 6.5C10.1633 6.5 9.16461 7.18937 8.64658 7.77656C8.37473 8.08472 8.20682 8.39704 8.08603 8.65281C8.06883 8.68923 8.04668 8.7378 8.02341 8.78883C7.98525 8.87249 7.94408 8.96276 7.9168 9.01689C7.89166 9.06675 7.8445 9.15737 7.77631 9.24314ZM18.3484 9.691C18.3327 9.6253 18.315 9.55471 18.2953 9.48031C18.1683 9.00267 17.9479 8.3472 17.5423 7.68359C16.7051 6.31405 15.1272 5 12.2526 5C9.77935 5 8.35385 5.84102 7.52175 6.78422C7.11854 7.24127 6.87991 7.69415 6.72967 8.01227C6.7181 8.03678 6.70765 8.05911 6.69814 8.07958C4.28032 8.28693 2.31586 10.1877 2.06582 12.6427L2.0487 12.8107C2.01394 13.152 2.01249 13.4959 2.04438 13.8375L2.08048 14.2243C2.33337 16.9335 4.6071 19.0049 7.32811 19.0049H17.1076C19.8096 19.0049 22 16.8145 22 14.1125V13.8973C22 11.7536 20.4121 9.98085 18.3484 9.691Z" fill="#101010"/>
<path d="M10.5924 12.3764V9.06542C10.5924 9.022 10.6276 8.9868 10.671 8.9868H13.329C13.3724 8.9868 13.4076 9.022 13.4076 9.06542V12.3764H15.3087C15.379 12.3764 15.414 12.4615 15.364 12.511L11.962 15.8764L8.63245 12.5104C8.58334 12.4607 8.61851 12.3764 8.68835 12.3764H10.5924Z" fill="#101010"/>
</svg>
