<svg width="24" height="24" viewBox="0 0 24 24" fill="none" xmlns="http://www.w3.org/2000/svg">
<path fill-rule="evenodd" clip-rule="evenodd" d="M14.1999 10.25C14.6141 10.25 14.9499 10.5858 14.9499 11V19.1C14.9499 19.5142 14.6141 19.85 14.1999 19.85C13.7857 19.85 13.4499 19.5142 13.4499 19.1V11C13.4499 10.5858 13.7857 10.25 14.1999 10.25Z" fill="#101010"/>
<path fill-rule="evenodd" clip-rule="evenodd" d="M9.29988 14.25C8.88567 14.25 8.54988 13.9142 8.54988 13.5L8.54988 5.4C8.54988 4.98579 8.88567 4.65 9.29988 4.65C9.7141 4.65 10.0499 4.98579 10.0499 5.4L10.0499 13.5C10.0499 13.9142 9.71409 14.25 9.29988 14.25Z" fill="#101010"/>
<path fill-rule="evenodd" clip-rule="evenodd" d="M10.4615 16.7779C10.7498 16.4805 11.2246 16.4732 11.522 16.7615L14.2918 19.4474L16.9695 16.7696C17.2624 16.4767 17.7373 16.4767 18.0302 16.7696C18.3231 17.0625 18.3231 17.5374 18.0302 17.8303L14.8302 21.0303C14.5405 21.32 14.0719 21.3236 13.7778 21.0384L10.4778 17.8384C10.1804 17.55 10.1731 17.0752 10.4615 16.7779Z" fill="#101010"/>
<path fill-rule="evenodd" clip-rule="evenodd" d="M13.0383 7.72212C12.7499 8.01948 12.2751 8.02679 11.9778 7.73844L9.20797 5.05258L6.53021 7.73034C6.23731 8.02323 5.76244 8.02323 5.46955 7.73034C5.17665 7.43745 5.17665 6.96257 5.46955 6.66968L8.66955 3.46968C8.95926 3.17997 9.42785 3.17636 9.72199 3.46159L13.022 6.66159C13.3194 6.94994 13.3267 7.42476 13.0383 7.72212Z" fill="#101010"/>
</svg>
