<svg width="24" height="24" viewBox="0 0 24 24" fill="none" xmlns="http://www.w3.org/2000/svg">
<path fill-rule="evenodd" clip-rule="evenodd" d="M12 3.5C7.30558 3.5 3.5 7.30558 3.5 12C3.5 16.6944 7.30558 20.5 12 20.5C16.6944 20.5 20.5 16.6944 20.5 12C20.5 7.30558 16.6944 3.5 12 3.5ZM2 12C2 6.47715 6.47715 2 12 2C17.5228 2 22 6.47715 22 12C22 17.5228 17.5228 22 12 22C6.47715 22 2 17.5228 2 12Z" fill="#101010"/>
<path fill-rule="evenodd" clip-rule="evenodd" d="M12 9.94296C12.4142 9.94296 12.75 10.2787 12.75 10.693V15.2174C12.75 15.6316 12.4142 15.9674 12 15.9674C11.5857 15.9674 11.25 15.6316 11.25 15.2174V10.693C11.25 10.2787 11.5857 9.94296 12 9.94296Z" fill="#101010"/>
<path d="M11.9999 8.48095C12.4441 8.48095 12.8042 8.12083 12.8042 7.6766C12.8042 7.23237 12.4441 6.87226 11.9999 6.87226C11.5557 6.87226 11.1956 7.23237 11.1956 7.6766C11.1956 8.12083 11.5557 8.48095 11.9999 8.48095Z" fill="#101010"/>
</svg>
