<svg width="24" height="24" viewBox="0 0 24 24" fill="none" xmlns="http://www.w3.org/2000/svg">
<path d="M13.3015 20.5505L13.3616 20.5536C13.6561 20.5835 13.8855 20.8323 13.8857 21.1346C13.8857 21.4572 13.6241 21.7188 13.3015 21.7188H10.4981C10.1755 21.7188 9.91402 21.4572 9.91402 21.1346C9.91417 20.8122 10.1756 20.5505 10.4981 20.5505H13.3015Z" fill="#282828"/>
<path fill-rule="evenodd" clip-rule="evenodd" d="M11.8998 6.84375C14.9482 6.84375 17.3902 9.28586 17.3903 12.3342C17.3903 13.8225 16.7778 15.1269 15.9148 16.0762C15.9087 16.0829 15.9023 16.0895 15.8958 16.0959C15.178 16.8138 14.7055 17.7122 14.5344 18.7412L14.504 18.9541C14.5074 18.9796 14.5093 19.006 14.5093 19.0325C14.5091 19.3548 14.2476 19.6164 13.9252 19.6166H9.9528C9.63038 19.6165 9.36886 19.3549 9.3687 19.0325C9.3687 18.4954 9.31587 18.138 9.13825 17.7441C8.95389 17.3353 8.62013 16.8539 7.99056 16.1096C6.98595 15.143 6.40936 13.7757 6.40936 12.3342C6.40944 9.28591 8.85152 6.84383 11.8998 6.84375ZM11.8998 8.01197C9.49671 8.01205 7.57766 9.9311 7.57758 12.3342C7.57758 13.4446 8.01384 14.4852 8.75645 15.2236C8.77444 15.2378 8.79157 15.2534 8.80816 15.27L8.8865 15.3483C8.92384 15.3857 8.95494 15.427 8.98005 15.4708C9.5696 16.1761 9.96204 16.7291 10.203 17.2634C10.3864 17.6701 10.4748 18.0495 10.5126 18.4483H13.4004C13.6247 17.2241 14.1998 16.144 15.0592 15.2806C15.749 14.5175 16.2221 13.489 16.2221 12.3342C16.222 9.93105 14.303 8.01197 11.8998 8.01197Z" fill="#282828"/>
<path d="M4.62578 12.0518C4.84031 12.0484 5.01691 12.2201 5.02031 12.4346C5.02367 12.649 4.85284 12.8255 4.63847 12.8291L2.23125 12.8672C2.0167 12.8705 1.84007 12.6989 1.83672 12.4844C1.83341 12.27 2.00422 12.0934 2.21855 12.0898L4.62578 12.0518ZM21.7732 12.0898C21.9878 12.0932 22.1594 12.2699 22.1561 12.4844C22.1527 12.6988 21.9759 12.8703 21.7615 12.8672L19.3543 12.8291C19.1397 12.8257 18.9681 12.6491 18.9715 12.4346C18.9749 12.2202 19.1516 12.0486 19.366 12.0518L21.7732 12.0898ZM4.79961 5.19434C4.95347 5.04477 5.19886 5.04829 5.34844 5.20215L7.02715 6.92773C7.17652 7.0816 7.17313 7.32803 7.01933 7.47754C6.86553 7.62706 6.61911 7.62344 6.46953 7.46973L4.7918 5.74316C4.64225 5.58933 4.64582 5.34391 4.79961 5.19434ZM18.6434 5.20215C18.7929 5.04829 19.0393 5.04477 19.1932 5.19434C19.3466 5.34386 19.3502 5.58941 19.201 5.74316L17.5223 7.46973C17.3727 7.62312 17.1272 7.62672 16.9734 7.47754C16.8196 7.32797 16.8161 7.08159 16.9656 6.92773L18.6434 5.20215ZM11.9959 2.28125C12.2105 2.28125 12.3846 2.45534 12.3846 2.66992V5.07715C12.3845 5.29168 12.2104 5.46582 11.9959 5.46582C11.7815 5.46569 11.6073 5.2916 11.6072 5.07715V2.66992C11.6072 2.45542 11.7814 2.28138 11.9959 2.28125Z" fill="black"/>
</svg>
