<svg width="24" height="24" viewBox="0 0 24 24" fill="none" xmlns="http://www.w3.org/2000/svg">
<path d="M7.38937 4.87142C7.05008 4.87142 6.80008 4.78213 6.63937 4.5857C6.49651 4.40713 6.40723 4.19284 6.40723 3.94284C6.40723 3.7107 6.47866 3.49642 6.63937 3.31785C6.80008 3.13927 7.05008 3.04999 7.38937 3.04999H16.7108C17.0501 3.04999 17.3001 3.13927 17.4608 3.3357C17.6215 3.53213 17.6929 3.72856 17.6929 3.97856C17.6929 4.2107 17.6215 4.42499 17.4608 4.60356C17.3001 4.78213 17.0501 4.87142 16.7108 4.87142H15.3537C14.7644 4.87142 14.2644 4.87142 13.8715 4.85356C13.4608 4.8357 13.2287 4.81785 13.1394 4.79999V4.90713C13.4965 5.06784 13.8358 5.31785 14.1751 5.67499C14.5144 6.03213 14.7644 6.47856 14.9251 7.03213H16.7108C17.0501 7.03213 17.3001 7.12142 17.4608 7.31785C17.6215 7.51427 17.6929 7.7107 17.6929 7.9607C17.6929 8.19284 17.6215 8.40713 17.4608 8.5857C17.3001 8.76427 17.0501 8.85356 16.7108 8.85356H15.0501C14.9608 9.63927 14.7644 10.3 14.4251 10.8536C14.0858 11.4071 13.6751 11.8714 13.2108 12.2286C12.7287 12.5857 12.2108 12.8536 11.6215 13.05C11.0501 13.2464 10.4787 13.3536 9.92508 13.4071L15.6215 18.9607C15.8894 19.2286 16.0322 19.5321 16.0322 19.8893C16.0322 20.2107 15.9251 20.4786 15.7287 20.7107C15.5322 20.925 15.2465 21.05 14.8894 21.05C14.7108 21.05 14.5322 21.0143 14.3537 20.9607C14.1751 20.9071 13.9965 20.7821 13.8179 20.5857L7.12151 13.9428C6.94294 13.7643 6.80008 13.6036 6.7108 13.425C6.62151 13.2464 6.5858 13.0678 6.5858 12.8714C6.5858 12.55 6.69294 12.2821 6.88937 12.0678C7.0858 11.8536 7.35366 11.7464 7.67508 11.7464H7.99651C8.51437 11.7464 9.03223 11.6928 9.55008 11.6036C10.0679 11.5143 10.5322 11.3536 10.9429 11.1214C11.3537 10.8893 11.7108 10.6036 11.9965 10.2464C12.2822 9.88927 12.4608 9.44285 12.5501 8.88927H7.38937C7.05008 8.88927 6.80008 8.79999 6.63937 8.60356C6.47866 8.40713 6.40723 8.2107 6.40723 7.9607C6.40723 7.72856 6.47866 7.51427 6.63937 7.3357C6.80008 7.15713 7.05008 7.06784 7.38937 7.06784H12.3715C11.9429 5.63927 10.6572 4.92499 8.51437 4.92499H7.38937V4.87142Z" fill="#101010"/>
</svg>
