<svg width="24" height="24" viewBox="0 0 24 24" fill="none" xmlns="http://www.w3.org/2000/svg">
<path d="M16.9195 2.71728H7.31081C7.25558 2.71728 7.21081 2.76205 7.21081 2.81728V12.4356C7.21081 12.4908 7.25558 12.5356 7.31081 12.5356H10.116C10.1712 12.5356 10.216 12.5804 10.216 12.6356V20.8466C10.216 20.9487 10.3511 20.9852 10.4024 20.8969L17.0071 9.54715C17.0459 9.48049 16.9978 9.39686 16.9207 9.39686H13.3295C13.2521 9.39686 13.2041 9.31271 13.2434 9.24605L17.0056 2.86808C17.0449 2.80142 16.9969 2.71728 16.9195 2.71728Z" fill="white"/>
<path fill-rule="evenodd" clip-rule="evenodd" d="M6.47717 2.81728C6.47717 2.35688 6.8504 1.98364 7.31081 1.98364H16.9195C17.5647 1.98364 17.9653 2.6851 17.6375 3.24082L14.4389 8.66322H16.9207C17.5637 8.66322 17.9646 9.3604 17.6412 9.91614L11.0365 21.2659C10.6083 22.0018 9.48237 21.698 9.48237 20.8466V13.2692H7.31081C6.85041 13.2692 6.47717 12.896 6.47717 12.4356V2.81728ZM7.94444 3.45091V11.802H10.116C10.5764 11.802 10.9496 12.1752 10.9496 12.6356V18.4979L15.8188 10.1305H13.3295C12.6843 10.1305 12.2837 9.42903 12.6115 8.87331L15.81 3.45091H7.94444Z" fill="#101010"/>
</svg>
