<svg width="24" height="24" viewBox="0 0 24 24" fill="none" xmlns="http://www.w3.org/2000/svg">
<path d="M19.2725 8.60675V20.4084C19.2706 20.5542 19.2402 20.6982 19.1829 20.8321C19.1256 20.9661 19.0425 21.0872 18.9385 21.1886C18.8346 21.2901 18.7118 21.3698 18.5772 21.4232C18.4425 21.4765 18.2987 21.5025 18.154 21.4997H8.56174C8.41709 21.5025 8.27324 21.4765 8.1386 21.4232C8.00397 21.3698 7.88121 21.2901 7.77725 21.1886C7.6733 21.0872 7.59022 20.9661 7.53291 20.8321C7.47561 20.6982 7.44516 20.5542 7.4433 20.4084V6.33026C7.44516 6.18444 7.47561 6.04041 7.53291 5.9065C7.59022 5.77259 7.6733 5.65143 7.77725 5.55C7.88121 5.44857 8.00397 5.36887 8.1386 5.31549C8.27324 5.26211 8.41709 5.23611 8.56174 5.23898H15.7811L19.2725 8.60675Z" fill="white" stroke="#101010" stroke-width="1.5" stroke-linecap="round" stroke-linejoin="round"/>
<path d="M19.0933 8.67181H15.8672V5.41968" fill="#101010"/>
<path d="M19.0933 8.67181H15.8672V5.41968" stroke="#101010" stroke-width="1.5" stroke-linecap="round" stroke-linejoin="round"/>
<path d="M10.3111 15.7043H13.5372" stroke="#101010" stroke-width="1.25" stroke-linecap="round" stroke-linejoin="round"/>
<path d="M10.3111 18.578H16.4049" stroke="#101010" stroke-width="1.25" stroke-linecap="round" stroke-linejoin="round"/>
<path d="M12.7027 7.80054C12.8198 7.80056 12.9252 7.82934 12.9888 7.9187C13.049 7.99325 13.0825 8.07245 13.0826 8.17261C13.0826 8.27291 13.05 8.35287 12.9898 8.42749L12.9859 8.4314C12.9163 8.50538 12.8171 8.53586 12.7027 8.53589H11.7955C11.8479 8.57707 11.9 8.62457 11.9517 8.67944C12.0598 8.79429 12.1348 8.93293 12.188 9.09741H12.7027C12.8198 9.09744 12.9252 9.12618 12.9888 9.21558H12.9898C13.0499 9.29011 13.0825 9.36933 13.0826 9.46948C13.0826 9.56979 13.05 9.64974 12.9898 9.72437L12.9859 9.72827C12.9163 9.80223 12.8171 9.83273 12.7027 9.83276H12.2339C12.2029 10.0666 12.136 10.2797 12.0289 10.4548C11.9145 10.6418 11.7811 10.7926 11.6207 10.9158C11.4616 11.0379 11.2837 11.1333 11.0875 11.1902L11.0865 11.1892C10.9554 11.2352 10.8202 11.2638 10.691 11.2849L12.4 12.9832L12.4009 12.9841C12.4967 13.0859 12.5483 13.2029 12.5484 13.3328C12.5484 13.4594 12.5077 13.5578 12.438 13.6423L12.4351 13.6453C12.3521 13.7335 12.2469 13.7771 12.1177 13.7771C12.0604 13.7771 11.9849 13.7786 11.9088 13.7439V13.7429C11.8433 13.7179 11.7758 13.6646 11.7154 13.6003V13.5994L9.5816 11.45V11.449C9.51893 11.3913 9.47027 11.3307 9.44 11.2664L9.43805 11.2625C9.41115 11.1957 9.3902 11.1222 9.3902 11.0544C9.39025 10.928 9.43104 10.8303 9.50055 10.7458L9.50348 10.7419H9.50446C9.58535 10.6561 9.68073 10.6101 9.80426 10.6101H9.90582C9.98794 10.6101 10.0685 10.6061 10.148 10.5984L10.3853 10.5662C10.5467 10.5316 10.6824 10.4802 10.8013 10.4128C10.9301 10.3357 11.0326 10.2515 11.1187 10.1433C11.1875 10.0569 11.2356 9.95248 11.2642 9.82397H9.72809C9.606 9.82396 9.50285 9.79342 9.43219 9.70581C9.37215 9.6313 9.33946 9.55202 9.33942 9.4519C9.33942 9.35242 9.37171 9.27033 9.4361 9.2019C9.50738 9.11718 9.61754 9.08863 9.72809 9.08862H11.2125C11.1432 8.92208 11.0321 8.79535 10.8736 8.70679C10.6833 8.60047 10.4241 8.54468 10.0923 8.54468H9.65289V8.53003C9.56378 8.51887 9.48777 8.48664 9.43219 8.41772C9.3722 8.34322 9.33942 8.26395 9.33942 8.16382C9.33944 8.06648 9.3705 7.98621 9.43219 7.9187C9.50333 7.8305 9.61561 7.80055 9.72809 7.80054H12.7027Z" fill="#101010" stroke="#101010" stroke-width="0.15"/>
<path d="M5.00002 18.578V3.80288C4.9993 3.69772 5.01818 3.59344 5.05555 3.49606C5.09292 3.39869 5.14805 3.31013 5.21777 3.2355C5.28749 3.16087 5.37037 3.10165 5.46173 3.06124C5.55308 3.02082 5.65112 3 5.75007 3H14.1908" stroke="#101010" stroke-width="1.5" stroke-linecap="round" stroke-linejoin="round"/>
</svg>
