<svg width="24" height="24" viewBox="0 0 24 24" fill="none" xmlns="http://www.w3.org/2000/svg">
<circle cx="17.2953" cy="13.2127" r="1.81487" fill="white" stroke="#101010" stroke-width="1.5"/>
<path d="M21.57 21.976L21.2721 20.1886C20.9507 18.2599 19.2506 16.8462 17.2952 16.8462C15.3399 16.8462 13.6398 18.2599 13.3183 20.1886L13.0204 21.976" stroke="#101010" stroke-width="1.5"/>
<circle cx="6.6082" cy="13.2128" r="1.81487" fill="white" stroke="#101010" stroke-width="1.5"/>
<path d="M10.8829 21.976L10.585 20.1887C10.2636 18.2599 8.56351 16.8463 6.60815 16.8463C4.6528 16.8463 2.95272 18.2599 2.63126 20.1887L2.33337 21.976" stroke="#101010" stroke-width="1.5"/>
<mask id="mask0_361_473" style="mask-type:alpha" maskUnits="userSpaceOnUse" x="6" y="1" width="12" height="12">
<path d="M6.96442 1.97607H16.9389L17.6514 8.75677L11.9517 12.8596L6.25195 8.75677L6.96442 1.97607Z" fill="#C4C4C4"/>
</mask>
<g mask="url(#mask0_361_473)">
<circle cx="11.9108" cy="4.66328" r="1.81487" fill="white" stroke="#101010" stroke-width="1.5"/>
<path d="M16.1857 13.4265L15.8878 11.6392C15.5663 9.71047 13.8662 8.29681 11.9109 8.29681C9.95553 8.29681 8.25546 9.71046 7.934 11.6392L7.63611 13.4265" stroke="#101010" stroke-width="1.5"/>
</g>
</svg>
