<svg width="24" height="24" viewBox="0 0 24 24" fill="none" xmlns="http://www.w3.org/2000/svg">
<path fill-rule="evenodd" clip-rule="evenodd" d="M4.27075 4C4.27075 3.58579 4.60654 3.25 5.02075 3.25H13.0208C13.435 3.25 13.7708 3.58579 13.7708 4C13.7708 4.41421 13.435 4.75 13.0208 4.75H5.77075V19.6815H13.0208C13.435 19.6815 13.7708 20.0173 13.7708 20.4315C13.7708 20.8457 13.435 21.1815 13.0208 21.1815H5.02075C4.60654 21.1815 4.27075 20.8457 4.27075 20.4315V4Z" fill="#101010"/>
<path fill-rule="evenodd" clip-rule="evenodd" d="M10.3708 12.1659C10.3708 11.7517 10.7066 11.4159 11.1208 11.4159H19.2208C19.635 11.4159 19.9708 11.7517 19.9708 12.1659C19.9708 12.5801 19.635 12.9159 19.2208 12.9159H11.1208C10.7066 12.9159 10.3708 12.5801 10.3708 12.1659Z" fill="#101010"/>
<path fill-rule="evenodd" clip-rule="evenodd" d="M16.3821 8.05897C16.6704 7.76149 17.1452 7.754 17.4427 8.04224L21.1427 11.6273C21.2872 11.7673 21.3694 11.9596 21.3708 12.1608C21.3721 12.362 21.2926 12.5554 21.15 12.6974L17.45 16.382C17.1565 16.6743 16.6816 16.6733 16.3893 16.3798C16.0971 16.0863 16.098 15.6114 16.3916 15.3191L19.5505 12.1733L16.3989 9.1195C16.1014 8.83126 16.0939 8.35645 16.3821 8.05897Z" fill="#101010"/>
</svg>
