<svg width="24" height="24" viewBox="0 0 24 24" fill="none" xmlns="http://www.w3.org/2000/svg">
<path d="M14.7641 6.89062H17.1391L14.7641 4.54395V6.89062ZM19.7172 19.25C19.7172 20.7687 18.4859 21.9999 16.9672 22H6.65567C5.13689 22 3.90567 20.7688 3.90567 19.25V4.75C3.90567 3.23122 5.13689 2 6.65567 2H14.0141L14.1596 2.01465C14.3026 2.04301 14.4352 2.11287 14.5404 2.2168L19.4936 7.10742C19.6362 7.2483 19.7172 7.44012 19.7172 7.64062V19.25ZM5.40567 19.25C5.40567 19.9404 5.96531 20.5 6.65567 20.5H16.9672C17.6575 20.4999 18.2172 19.9403 18.2172 19.25V8.39062H14.0141C13.5999 8.39062 13.2641 8.05484 13.2641 7.64062V3.5H6.65567C5.96531 3.5 5.40567 4.05964 5.40567 4.75V19.25Z" fill="#101010"/>
<path d="M10.892 15.0788H8.06652C8.0342 15.0788 8.01756 15.0401 8.0398 15.0167L13.2765 9.4902C13.3526 9.40986 13.4836 9.4944 13.4417 9.59684L11.8446 13.5011C11.8344 13.5261 11.8536 13.5532 11.8806 13.5518L14.7977 13.4047C14.8313 13.403 14.8494 13.4436 14.8257 13.4675L9.59691 18.7319C9.51923 18.8101 9.3907 18.7235 9.434 18.6221L10.9259 15.1301C10.9362 15.1058 10.9184 15.0788 10.892 15.0788Z" fill="#101010"/>
</svg>
