<svg width="24" height="24" viewBox="0 0 24 24" fill="none" xmlns="http://www.w3.org/2000/svg">
<path fill-rule="evenodd" clip-rule="evenodd" d="M7 8.5C5.067 8.5 3.5 10.067 3.5 12C3.5 13.933 5.067 15.5 7 15.5H11V17H7C4.23858 17 2 14.7614 2 12C2 9.23858 4.23858 7 7 7H11V8.5H7ZM17 8.5H13V7H17C19.7614 7 22 9.23858 22 12C22 14.7614 19.7614 17 17 17H13V15.5H17C18.933 15.5 20.5 13.933 20.5 12C20.5 10.067 18.933 8.5 17 8.5Z" fill="#101010"/>
<path fill-rule="evenodd" clip-rule="evenodd" d="M17 12C17 12.4142 16.6642 12.75 16.25 12.75H7.75C7.33579 12.75 7 12.4142 7 12C7 11.5858 7.33579 11.25 7.75 11.25H16.25C16.6642 11.25 17 11.5858 17 12Z" fill="#101010"/>
</svg>
