<svg width="24" height="24" viewBox="0 0 24 24" fill="none" xmlns="http://www.w3.org/2000/svg">
<path d="M19.25 5.25C19.6642 5.25 20 5.58579 20 6C20 6.41421 19.6642 6.75 19.25 6.75H9.75C9.33579 6.75 9 6.41421 9 6C9 5.58579 9.33579 5.25 9.75 5.25H19.25Z" fill="#101010"/>
<path d="M4 6C4 6.825 4.675 7.5 5.5 7.5C6.325 7.5 7 6.825 7 6C7 5.175 6.325 4.5 5.5 4.5C4.675 4.5 4 5.175 4 6Z" fill="#101010"/>
<path d="M19.25 11.25C19.6642 11.25 20 11.5858 20 12C20 12.4142 19.6642 12.75 19.25 12.75H9.75C9.33579 12.75 9 12.4142 9 12C9 11.5858 9.33579 11.25 9.75 11.25H19.25Z" fill="#101010"/>
<path d="M4 12C4 12.825 4.675 13.5 5.5 13.5C6.325 13.5 7 12.825 7 12C7 11.175 6.325 10.5 5.5 10.5C4.675 10.5 4 11.175 4 12Z" fill="#101010"/>
<path d="M19.25 17.25C19.6642 17.25 20 17.5858 20 18C20 18.4142 19.6642 18.75 19.25 18.75H9.75C9.33579 18.75 9 18.4142 9 18C9 17.5858 9.33579 17.25 9.75 17.25H19.25Z" fill="#101010"/>
<path d="M4 18C4 18.825 4.675 19.5 5.5 19.5C6.325 19.5 7 18.825 7 18C7 17.175 6.325 16.5 5.5 16.5C4.675 16.5 4 17.175 4 18Z" fill="#101010"/>
</svg>
