<svg width="24" height="24" viewBox="0 0 24 24" fill="none" xmlns="http://www.w3.org/2000/svg">
<path fill-rule="evenodd" clip-rule="evenodd" d="M2 6.75C2 5.23122 3.23122 4 4.75 4H19.25C20.7688 4 22 5.23122 22 6.75V17.25C22 18.7688 20.7688 20 19.25 20H4.75C3.23122 20 2 18.7688 2 17.25V6.75ZM4.75 5.5C4.05964 5.5 3.5 6.05964 3.5 6.75V17.25C3.5 17.9404 4.05964 18.5 4.75 18.5H19.25C19.9404 18.5 20.5 17.9404 20.5 17.25V6.75C20.5 6.05964 19.9404 5.5 19.25 5.5H4.75Z" fill="#101010"/>
<path fill-rule="evenodd" clip-rule="evenodd" d="M2.70148 4.92627C2.97092 4.61167 3.44438 4.57506 3.75899 4.8445L12.0995 11.9878L20.2479 4.84998C20.5595 4.57705 21.0333 4.60838 21.3062 4.91996C21.5792 5.23153 21.5479 5.70537 21.2363 5.97831L12.5992 13.5442C12.3187 13.7898 11.9003 13.7922 11.6171 13.5496L2.78325 5.98377C2.46865 5.71433 2.43204 5.24087 2.70148 4.92627Z" fill="#101010"/>
</svg>
