<svg width="24" height="24" viewBox="0 0 24 24" fill="none" xmlns="http://www.w3.org/2000/svg">
<path fill-rule="evenodd" clip-rule="evenodd" d="M8.25 19.25V3.25H9.75V19.25H8.25Z" fill="#101010"/>
<path fill-rule="evenodd" clip-rule="evenodd" d="M21.416 2.12597C21.6247 2.26506 21.75 2.49924 21.75 2.75V19.25C21.75 19.5728 21.5434 19.8594 21.2372 19.9615L15.2372 21.9615C15.0832 22.0128 14.9168 22.0128 14.7628 21.9615L9 20.0406L3.23717 21.9615C3.00846 22.0378 2.75704 21.9994 2.56147 21.8584C2.36589 21.7175 2.25 21.4911 2.25 21.25V5.25C2.25 4.92718 2.45657 4.64058 2.76283 4.53849L8.76283 2.53849C8.91678 2.48717 9.08322 2.48717 9.23717 2.53849L14.9708 4.44969L20.7115 2.0577C20.943 1.96125 21.2074 1.98687 21.416 2.12597ZM20.25 3.875L15.2885 5.94231C15.1213 6.01196 14.9346 6.01878 14.7628 5.96152L9 4.04057L3.75 5.79057V20.2094L8.76283 18.5385C8.91678 18.4872 9.08322 18.4872 9.23717 18.5385L15 20.4594L20.25 18.7094V3.875Z" fill="#101010"/>
<path fill-rule="evenodd" clip-rule="evenodd" d="M14.25 21.25V5.25H15.75V21.25H14.25Z" fill="#101010"/>
</svg>
