<svg width="24" height="24" viewBox="0 0 24 24" fill="none" xmlns="http://www.w3.org/2000/svg">
<path d="M17.7 12C17.7 13 18.6 13.9 19.6 13.9C20.6 13.9 21.5 13 21.5 12C21.5 11 20.6 10.1 19.6 10.1C18.6 10.1 17.7 11 17.7 12ZM13.9 12C13.9 11 13 10.1 12 10.1C11 10.1 10.1 11 10.1 12C10.1 13 11 13.9 12 13.9C13 13.9 13.9 13 13.9 12ZM6.30001 12C6.30001 11 5.40001 10.1 4.40001 10.1C3.40001 10.1 2.50001 11 2.50001 12C2.50001 13 3.40001 13.9 4.40001 13.9C5.40001 13.9 6.30001 13 6.30001 12Z" fill="#101010"/>
</svg>
