<svg width="24" height="24" viewBox="0 0 24 24" fill="none" xmlns="http://www.w3.org/2000/svg">
<path fill-rule="evenodd" clip-rule="evenodd" d="M4.05001 5.89999C4.05001 5.48578 4.3858 5.14999 4.80001 5.14999H19.2C19.6142 5.14999 19.95 5.48578 19.95 5.89999C19.95 6.31421 19.6142 6.64999 19.2 6.64999H4.80001C4.3858 6.64999 4.05001 6.31421 4.05001 5.89999Z" fill="#101010"/>
<path fill-rule="evenodd" clip-rule="evenodd" d="M3.95001 12.2C3.95001 11.7858 4.2858 11.45 4.70001 11.45H19.2C19.6142 11.45 19.95 11.7858 19.95 12.2C19.95 12.6142 19.6142 12.95 19.2 12.95H4.70001C4.2858 12.95 3.95001 12.6142 3.95001 12.2Z" fill="#101010"/>
<path fill-rule="evenodd" clip-rule="evenodd" d="M3.95001 18.4C3.95001 17.9858 4.2858 17.65 4.70001 17.65H19.2C19.6142 17.65 19.95 17.9858 19.95 18.4C19.95 18.8142 19.6142 19.15 19.2 19.15H4.70001C4.2858 19.15 3.95001 18.8142 3.95001 18.4Z" fill="#101010"/>
</svg>
