<svg width="24" height="24" viewBox="0 0 24 24" fill="none" xmlns="http://www.w3.org/2000/svg">
<path fill-rule="evenodd" clip-rule="evenodd" d="M4.45447 21.0523H19.6006V6.29697H4.45447V21.0523Z" fill="white"/>
<path fill-rule="evenodd" clip-rule="evenodd" d="M4.6024 7.9819H4.58175C3.56981 7.9819 2.74951 7.16161 2.74951 6.14967V2.50006H6.43464V6.14967C6.43464 7.16161 5.61434 7.9819 4.6024 7.9819Z" fill="white"/>
<path fill-rule="evenodd" clip-rule="evenodd" d="M4.6024 7.9819H4.58175C3.56981 7.9819 2.74951 7.16161 2.74951 6.14967V2.50006H6.43464V6.14967C6.43464 7.16161 5.61434 7.9819 4.6024 7.9819Z" stroke="#101010" stroke-width="1.5" stroke-linecap="round" stroke-linejoin="round"/>
<path fill-rule="evenodd" clip-rule="evenodd" d="M8.30601 7.9819H8.28619C7.27342 7.9819 6.45312 7.16161 6.45312 6.14967V2.50006H10.1383V6.14967C10.1383 7.16161 9.31796 7.9819 8.30601 7.9819Z" fill="white"/>
<path fill-rule="evenodd" clip-rule="evenodd" d="M8.30601 7.9819H8.28619C7.27342 7.9819 6.45312 7.16161 6.45312 6.14967V2.50006H10.1383V6.14967C10.1383 7.16161 9.31796 7.9819 8.30601 7.9819Z" stroke="#101010" stroke-width="1.5" stroke-linecap="round" stroke-linejoin="round"/>
<path fill-rule="evenodd" clip-rule="evenodd" d="M12.0101 7.9819H11.9902C10.9775 7.9819 10.1572 7.16161 10.1572 6.14967V2.50006H13.8423V6.14967C13.8423 7.16161 13.022 7.9819 12.0101 7.9819Z" fill="white"/>
<path fill-rule="evenodd" clip-rule="evenodd" d="M12.0101 7.9819H11.9902C10.9775 7.9819 10.1572 7.16161 10.1572 6.14967V2.50006H13.8423V6.14967C13.8423 7.16161 13.022 7.9819 12.0101 7.9819Z" stroke="#101010" stroke-width="1.5" stroke-linecap="round" stroke-linejoin="round"/>
<path fill-rule="evenodd" clip-rule="evenodd" d="M15.7141 7.9819H15.6943C14.6815 7.9819 13.8612 7.16161 13.8612 6.14967V2.50006H17.5463V6.14967C17.5463 7.16161 16.726 7.9819 15.7141 7.9819Z" fill="white"/>
<path fill-rule="evenodd" clip-rule="evenodd" d="M15.7141 7.9819H15.6943C14.6815 7.9819 13.8612 7.16161 13.8612 6.14967V2.50006H17.5463V6.14967C17.5463 7.16161 16.726 7.9819 15.7141 7.9819Z" stroke="#101010" stroke-width="1.5" stroke-linecap="round" stroke-linejoin="round"/>
<path fill-rule="evenodd" clip-rule="evenodd" d="M19.4181 7.9819H19.3975C18.3855 7.9819 17.5652 7.16161 17.5652 6.14967V2.50006H21.2504V6.14967C21.2504 7.16161 20.4301 7.9819 19.4181 7.9819Z" fill="white"/>
<path fill-rule="evenodd" clip-rule="evenodd" d="M19.4181 7.9819H19.3975C18.3855 7.9819 17.5652 7.16161 17.5652 6.14967V2.50006H21.2504V6.14967C21.2504 7.16161 20.4301 7.9819 19.4181 7.9819Z" stroke="#101010" stroke-width="1.5" stroke-linecap="round" stroke-linejoin="round"/>
<path d="M19.5503 8.17715V21.0524H4.44965V8.17715" stroke="#101010" stroke-width="1.5" stroke-linecap="round" stroke-linejoin="round"/>
<path d="M2.70654 21.087H21.2933" stroke="#101010" stroke-width="1.5" stroke-linecap="round" stroke-linejoin="round"/>
<path d="M12.0276 16.0421C13.2674 16.0421 14.2725 15.037 14.2725 13.7972C14.2725 12.5573 13.2674 11.5522 12.0276 11.5522C10.7877 11.5522 9.78265 12.5573 9.78265 13.7972C9.78265 15.037 10.7877 16.0421 12.0276 16.0421Z" stroke="#101010" stroke-width="1.5" stroke-miterlimit="10" stroke-linecap="round" stroke-linejoin="round"/>
<path d="M15.9251 21.0523H8.13019V19.8393C8.13019 17.7298 9.8624 16.0421 12.0277 16.0421C14.1929 16.0421 15.9251 17.7298 15.9251 19.8393V21.0523Z" fill="white" stroke="#101010" stroke-width="1.5" stroke-miterlimit="10" stroke-linecap="round" stroke-linejoin="round"/>
</svg>
