<svg width="24" height="24" viewBox="0 0 24 24" fill="none" xmlns="http://www.w3.org/2000/svg">
<path d="M6.21779 17.3191C6.21779 18.6645 5.12716 19.7551 3.78181 19.7551C2.43645 19.7551 1.34583 18.6645 1.34583 17.3191C1.34583 15.9738 2.43645 14.8831 3.78181 14.8831C5.12716 14.8831 6.21779 15.9738 6.21779 17.3191Z" fill="#101010"/>
<path d="M12.7744 12.9485C12.7744 13.9367 11.9734 14.7377 10.9853 14.7377C9.99716 14.7377 9.19613 13.9367 9.19613 12.9485C9.19613 11.9604 9.99716 11.1594 10.9853 11.1594C11.9734 11.1594 12.7744 11.9604 12.7744 12.9485Z" fill="#101010"/>
<path d="M19.6013 9.82014C19.6013 10.8289 18.7836 11.6467 17.7748 11.6467C16.766 11.6467 15.9482 10.8289 15.9482 9.82014C15.9482 8.81135 16.766 7.99357 17.7748 7.99357C18.7836 7.99357 19.6013 8.81135 19.6013 9.82014Z" fill="#101010"/>
<path d="M22 20.0783C22 21.0604 21.2038 21.8565 20.2218 21.8565C19.2397 21.8565 18.4436 21.0604 18.4436 20.0783C18.4436 19.0963 19.2397 18.3002 20.2218 18.3002C21.2038 18.3002 22 19.0963 22 20.0783Z" fill="#101010"/>
<path d="M7.93526 6.11025C7.93526 7.0588 7.16631 7.82775 6.21776 7.82775C5.26922 7.82775 4.50027 7.0588 4.50027 6.11025C4.50027 5.16171 5.26922 4.39276 6.21776 4.39276C7.16631 4.39276 7.93526 5.16171 7.93526 6.11025Z" fill="#101010"/>
<path d="M15.1113 3.69915C15.1113 4.63757 14.3506 5.3983 13.4122 5.3983C12.4738 5.3983 11.713 4.63757 11.713 3.69915C11.713 2.76074 12.4738 2 13.4122 2C14.3506 2 15.1113 2.76074 15.1113 3.69915Z" fill="#101010"/>
<path d="M13.0794 3.45325C13.3084 3.44117 13.5305 3.53501 13.682 3.70715L18.5824 9.27356L18.639 9.3468C18.6915 9.42386 18.7294 9.51028 18.7503 9.60169L21.1947 20.2931C21.2656 20.6034 21.1328 20.925 20.8636 21.0949C20.5943 21.2647 20.2469 21.2458 19.9974 21.048L10.8656 13.8068L4.26498 17.8937C4.00958 18.0518 3.68452 18.043 3.43881 17.8702C3.19306 17.6973 3.07435 17.3936 3.13706 17.0997L5.48374 6.09973L5.50424 6.02454C5.56022 5.85215 5.677 5.70493 5.83432 5.61145C6.01414 5.50473 6.23057 5.47767 6.431 5.53723L10.4134 6.7218L12.5072 3.76868L12.5609 3.70227C12.6931 3.55456 12.8792 3.46393 13.0794 3.45325ZM12.3587 13.0773L19.2562 18.547L17.4896 10.8204L12.3587 13.0773ZM6.62045 14.671L10.265 12.4142L11.2474 8.53528L11.0169 8.46692L6.62045 14.671ZM5.36362 13.8497L9.49838 8.01477L6.78061 7.20618L5.36362 13.8497ZM12.0218 11.587L15.847 9.90442L12.6859 8.96301L12.0218 11.587ZM13.055 7.50794L15.7318 8.30481L13.4964 5.76575L13.055 7.50794Z" fill="#101010"/>
</svg>
