<svg width="24" height="24" viewBox="0 0 24 24" fill="none" xmlns="http://www.w3.org/2000/svg">
<path fill-rule="evenodd" clip-rule="evenodd" d="M12 24C14.3734 24 16.6934 23.2962 18.6668 21.9776C20.6402 20.6591 22.1783 18.7849 23.0865 16.5922C23.9948 14.3995 24.2324 11.9867 23.7694 9.65892C23.3064 7.33115 22.1635 5.19295 20.4853 3.51472C18.807 1.83649 16.6689 0.693605 14.3411 0.230582C12.0133 -0.232441 9.60051 0.00519941 7.4078 0.913451C5.21508 1.8217 3.34094 3.35977 2.02236 5.33316C0.703788 7.30655 0 9.62663 0 12C0 15.1826 1.26428 18.2348 3.51472 20.4853C4.62902 21.5996 5.95189 22.4835 7.4078 23.0866C8.8637 23.6896 10.4241 24 12 24ZM12 14.04C11.7623 14.0369 11.5352 13.9411 11.367 13.773C11.1989 13.6049 11.1031 13.3777 11.1 13.14V7.62001C11.1 7.38131 11.1948 7.15239 11.3636 6.98361C11.5324 6.81483 11.7613 6.72001 12 6.72001C12.2387 6.72001 12.4676 6.81483 12.6364 6.98361C12.8052 7.15239 12.9 7.38131 12.9 7.62001V13.2C12.882 13.4271 12.7797 13.6393 12.6131 13.7948C12.4466 13.9502 12.2278 14.0377 12 14.04ZM11.3636 17.0164C11.5324 17.1852 11.7613 17.28 12 17.28C12.2387 17.28 12.4676 17.1852 12.6364 17.0164C12.8052 16.8476 12.9 16.6187 12.9 16.38C12.9 16.1413 12.8052 15.9124 12.6364 15.7436C12.4676 15.5748 12.2387 15.48 12 15.48C11.7613 15.48 11.5324 15.5748 11.3636 15.7436C11.1948 15.9124 11.1 16.1413 11.1 16.38C11.1 16.6187 11.1948 16.8476 11.3636 17.0164Z" fill="#FF9D00"/>
</svg>
