<svg width="24" height="24" viewBox="0 0 24 24" fill="none" xmlns="http://www.w3.org/2000/svg">
<path fill-rule="evenodd" clip-rule="evenodd" d="M7.36967 3.86966C8.50975 2.72958 10.1003 2.05 11.8 2.05C13.3926 2.05 15.0852 2.72458 16.2303 3.86966C17.3704 5.00974 18.05 6.60028 18.05 8.3C18.05 11.4387 18.7251 13.5742 19.3845 14.9044C19.7151 15.5715 20.0432 16.039 20.2837 16.3311C20.4045 16.4778 20.5005 16.5771 20.5607 16.6337C20.5706 16.643 20.5789 16.6506 20.5856 16.6566C20.8039 16.7877 20.95 17.0268 20.95 17.3C20.95 17.7142 20.6142 18.05 20.2 18.05H3.5C3.18892 18.05 2.91013 17.858 2.79926 17.5673C2.68894 17.2781 2.76764 16.9511 2.99698 16.7437C2.99698 16.7437 2.99698 16.7437 2.99698 16.7437C2.99814 16.7427 2.99932 16.7416 3.00049 16.7405M2.99698 16.7437L3.00919 16.7321C3.02207 16.7196 3.04448 16.6973 3.07509 16.6649C3.13631 16.6001 3.23033 16.4947 3.34653 16.346C3.57879 16.0488 3.90019 15.5776 4.2257 14.9091C4.87505 13.5757 5.55 11.4382 5.55 8.3C5.55 6.70744 6.22459 5.01474 7.36967 3.86966M18.5935 16.55H5.03055C5.2057 16.2704 5.39049 15.9433 5.5743 15.5659C6.32495 14.0243 7.05 11.6619 7.05 8.3C7.05 7.09257 7.57541 5.78524 8.43033 4.93032C9.29025 4.0704 10.4997 3.55 11.8 3.55C13.0074 3.55 14.3147 4.0754 15.1697 4.93032C16.0296 5.79025 16.55 6.99973 16.55 8.3C16.55 11.6613 17.2749 14.0258 18.0405 15.5706C18.2261 15.945 18.4138 16.2706 18.5935 16.55ZM9.78397 19.676C10.1286 19.4462 10.5943 19.5393 10.824 19.884C10.9509 20.0742 11.0656 20.197 11.2379 20.3218C11.5013 20.4078 11.6606 20.45 11.8 20.45C12.1148 20.45 12.1951 20.4352 12.284 20.376C12.5016 20.2309 12.6309 20.1016 12.776 19.884C13.0057 19.5393 13.4714 19.4462 13.816 19.676C14.1607 19.9057 14.2538 20.3714 14.024 20.716C13.7691 21.0984 13.4984 21.3691 13.116 21.624C12.6247 21.9516 12.1254 21.9506 11.8342 21.95C11.8224 21.95 11.8111 21.95 11.8 21.95C11.3759 21.95 10.9745 21.8158 10.6999 21.7239C10.6873 21.7197 10.6749 21.7155 10.6628 21.7115C10.5996 21.6904 10.5394 21.661 10.484 21.624C10.1016 21.3691 9.83089 21.0984 9.57596 20.716C9.3462 20.3714 9.43933 19.9057 9.78397 19.676Z" fill="#101010"/>
<path fill-rule="evenodd" clip-rule="evenodd" d="M11.8 2.76982C11.9083 3.05072 12.1809 3.25 12.5 3.25C12.9142 3.25 13.25 2.91421 13.25 2.5C13.25 1.68579 12.6142 1.05 11.8 1.05C10.9858 1.05 10.35 1.68578 10.35 2.5C10.35 2.91421 10.6858 3.25 11.1 3.25C11.4191 3.25 11.6917 3.05072 11.8 2.76982Z" fill="#101010"/>
</svg>
