<svg width="24" height="24" viewBox="0 0 24 24" fill="none" xmlns="http://www.w3.org/2000/svg">
<path fill-rule="evenodd" clip-rule="evenodd" d="M4.01343 4.75C4.01343 3.23122 5.24464 2 6.76343 2H17.2634C18.7822 2 20.0134 3.23122 20.0134 4.75V19.25C20.0134 20.7688 18.7822 22 17.2634 22H6.76343C5.24464 22 4.01343 20.7688 4.01343 19.25V4.75ZM6.76343 3.5C6.07307 3.5 5.51343 4.05964 5.51343 4.75V19.25C5.51343 19.9404 6.07307 20.5 6.76343 20.5H17.2634C17.9538 20.5 18.5134 19.9404 18.5134 19.25V4.75C18.5134 4.05964 17.9538 3.5 17.2634 3.5H6.76343Z" fill="#101010"/>
<path fill-rule="evenodd" clip-rule="evenodd" d="M7 6.75415C7 6.33994 7.33579 6.00415 7.75 6.00415H16.25C16.6642 6.00415 17 6.33994 17 6.75415C17 7.16836 16.6642 7.50415 16.25 7.50415H7.75C7.33579 7.50415 7 7.16836 7 6.75415Z" fill="#101010"/>
<path fill-rule="evenodd" clip-rule="evenodd" d="M7 9.75C7 9.33579 7.33579 9 7.75 9H14.25C14.6642 9 15 9.33579 15 9.75C15 10.1642 14.6642 10.5 14.25 10.5H7.75C7.33579 10.5 7 10.1642 7 9.75Z" fill="#101010"/>
<path fill-rule="evenodd" clip-rule="evenodd" d="M7 12.75C7 12.3358 7.33579 12 7.75 12H12.25C12.6642 12 13 12.3358 13 12.75C13 13.1642 12.6642 13.5 12.25 13.5H7.75C7.33579 13.5 7 13.1642 7 12.75Z" fill="#101010"/>
</svg>
