<svg width="24" height="24" viewBox="0 0 24 24" fill="none" xmlns="http://www.w3.org/2000/svg">
<path fill-rule="evenodd" clip-rule="evenodd" d="M12 3.5C7.30558 3.5 3.5 7.30558 3.5 12C3.5 16.6944 7.30558 20.5 12 20.5C16.6944 20.5 20.5 16.6944 20.5 12C20.5 7.30558 16.6944 3.5 12 3.5ZM2 12C2 6.47715 6.47715 2 12 2C17.5228 2 22 6.47715 22 12C22 17.5228 17.5228 22 12 22C6.47715 22 2 17.5228 2 12Z" fill="#101010"/>
<path d="M9.69665 8.45247C9.52897 8.45247 9.40542 8.40835 9.32599 8.31127C9.25539 8.22302 9.21127 8.11712 9.21127 7.99357C9.21127 7.87885 9.24657 7.77295 9.32599 7.6847C9.40542 7.59645 9.52897 7.55232 9.69665 7.55232H14.3033C14.471 7.55232 14.5945 7.59645 14.674 7.69352C14.7534 7.7906 14.7887 7.88767 14.7887 8.01122C14.7887 8.12595 14.7534 8.23185 14.674 8.3201C14.5945 8.40835 14.471 8.45247 14.3033 8.45247H13.6326C13.3414 8.45247 13.0943 8.45247 12.9001 8.44365C12.6972 8.43482 12.5824 8.426 12.5383 8.41717V8.47012C12.7148 8.54955 12.8825 8.6731 13.0502 8.8496C13.2178 9.0261 13.3414 9.24672 13.4208 9.5203H14.3033C14.471 9.5203 14.5945 9.56442 14.674 9.6615C14.7534 9.75858 14.7887 9.85565 14.7887 9.9792C14.7887 10.0939 14.7534 10.1998 14.674 10.2881C14.5945 10.3763 14.471 10.4205 14.3033 10.4205H13.4826C13.4385 10.8088 13.3414 11.1353 13.1737 11.4089C13.006 11.6824 12.8031 11.9119 12.5736 12.0884C12.3353 12.2649 12.0794 12.3973 11.7882 12.4943C11.5058 12.5914 11.2234 12.6444 10.9498 12.6708L13.765 15.4154C13.8974 15.5478 13.968 15.6978 13.968 15.8743C13.968 16.0332 13.915 16.1655 13.8179 16.2803C13.7209 16.3862 13.5797 16.4479 13.4032 16.4479C13.3149 16.4479 13.2267 16.4303 13.1384 16.4038C13.0502 16.3773 12.9619 16.3156 12.8737 16.2185L9.56427 12.9356C9.47602 12.8473 9.40542 12.7679 9.36129 12.6797C9.31717 12.5914 9.29952 12.5032 9.29952 12.4061C9.29952 12.2472 9.35247 12.1149 9.44955 12.009C9.54662 11.9031 9.679 11.8501 9.83785 11.8501H9.9967C10.2526 11.8501 10.5085 11.8236 10.7645 11.7795C11.0204 11.7354 11.2498 11.656 11.4528 11.5412C11.6558 11.4265 11.8323 11.2853 11.9735 11.1088C12.1147 10.9323 12.203 10.7117 12.2471 10.4381H9.69665C9.52897 10.4381 9.40542 10.394 9.32599 10.2969C9.24657 10.1998 9.21127 10.1028 9.21127 9.9792C9.21127 9.86448 9.24657 9.75858 9.32599 9.67033C9.40542 9.58208 9.52897 9.53795 9.69665 9.53795H12.1588C11.947 8.83195 11.3116 8.47895 10.2526 8.47895H9.69665V8.45247Z" fill="#101010"/>
</svg>
