<svg width="24" height="24" viewBox="0 0 24 24" fill="none" xmlns="http://www.w3.org/2000/svg">
<path d="M21.5 8.23246H3V18.7325H21.5V8.23246Z" fill="white"/>
<path d="M20.75 9.23246C20.75 9.09439 20.6381 8.98246 20.5 8.98246H4C3.86193 8.98246 3.75 9.09438 3.75 9.23246V17.7325C3.75 17.8705 3.86193 17.9825 4 17.9825H20.5C20.6381 17.9825 20.75 17.8705 20.75 17.7325V9.23246ZM22.25 17.7325C22.25 18.699 21.4665 19.4825 20.5 19.4825H4C3.0335 19.4825 2.25 18.699 2.25 17.7325V9.23246C2.25 8.26596 3.0335 7.48246 4 7.48246H20.5C21.4665 7.48246 22.25 8.26596 22.25 9.23246V17.7325Z" fill="#101010"/>
<path d="M6.19458 14.2325C6.60879 14.2325 6.94458 13.8967 6.94458 13.4825C6.94458 13.0683 6.60879 12.7325 6.19458 12.7325C5.78037 12.7325 5.44458 13.0683 5.44458 13.4825C5.44458 13.8967 5.78037 14.2325 6.19458 14.2325Z" fill="#101010"/>
<path d="M18.3054 14.2325C18.7196 14.2325 19.0554 13.8967 19.0554 13.4825C19.0554 13.0683 18.7196 12.7325 18.3054 12.7325C17.8912 12.7325 17.5554 13.0683 17.5554 13.4825C17.5554 13.8967 17.8912 14.2325 18.3054 14.2325Z" fill="#101010"/>
<path d="M10.7664 11.2491C10.6562 11.2491 10.5799 11.2232 10.5291 11.1627C10.4782 11.1022 10.4528 11.0417 10.4528 10.964C10.4528 10.8862 10.4782 10.8257 10.5291 10.7739C10.5799 10.7134 10.6647 10.6875 10.7664 10.6875H13.7421C13.8523 10.6875 13.9286 10.7134 13.971 10.7739C14.0219 10.8344 14.0473 10.8948 14.0473 10.9726C14.0473 11.0504 14.0219 11.1108 13.971 11.1713C13.9201 11.2232 13.8438 11.2491 13.7421 11.2491H13.3098C13.1232 11.2491 12.9622 11.2491 12.835 11.2491C12.7078 11.2491 12.6315 11.2404 12.6061 11.2318V11.2664C12.7163 11.3182 12.8265 11.396 12.9367 11.5083C13.0469 11.6206 13.1232 11.7588 13.1741 11.9316H13.7421C13.8523 11.9316 13.9286 11.9576 13.971 12.018C14.0219 12.0785 14.0473 12.139 14.0473 12.2168C14.0473 12.2945 14.0219 12.355 13.971 12.4155C13.9201 12.4673 13.8438 12.4932 13.7421 12.4932H13.208C13.1826 12.7352 13.1148 12.9512 13.0046 13.124C12.8943 13.2968 12.7672 13.435 12.6146 13.5473C12.462 13.6597 12.2924 13.7461 12.1059 13.7979C11.9279 13.8584 11.7414 13.8929 11.5718 13.9102L13.3861 15.6382C13.4708 15.7246 13.5132 15.8197 13.5132 15.9234C13.5132 16.027 13.4793 16.1048 13.42 16.1739C13.3521 16.243 13.2674 16.2776 13.1572 16.2776C13.0978 16.2776 13.0385 16.2776 12.9791 16.2517C12.9283 16.2344 12.8689 16.1912 12.8096 16.1307L10.6732 14.0657C10.6138 14.0139 10.5714 13.9621 10.546 13.9102C10.5206 13.8497 10.5036 13.7893 10.5036 13.7374C10.5036 13.6337 10.5375 13.556 10.5969 13.4869C10.6647 13.4177 10.741 13.3832 10.8427 13.3832H10.9445C11.114 13.3832 11.2751 13.3659 11.4362 13.34C11.6057 13.3054 11.7499 13.2536 11.877 13.1845C12.0127 13.1067 12.1229 13.0203 12.2161 12.908C12.3094 12.7956 12.3687 12.6574 12.3942 12.4846H10.7664C10.6562 12.4846 10.5799 12.4587 10.5291 12.3982C10.4782 12.3377 10.4528 12.2772 10.4528 12.1995C10.4528 12.1217 10.4782 12.0612 10.5291 12.0094C10.5799 11.9489 10.6647 11.923 10.7664 11.923H12.3602C12.2246 11.4737 11.8092 11.2577 11.131 11.2577H10.7664V11.2491Z" fill="#101010"/>
<path d="M10.3531 13.7373C10.3532 13.5949 10.4026 13.4834 10.483 13.3896L10.4899 13.3818C10.5846 13.2853 10.6989 13.2334 10.8424 13.2334L10.8427 13.3832C10.741 13.3832 10.6647 13.4177 10.5969 13.4869L10.5573 13.541C10.5228 13.5968 10.5036 13.6599 10.5036 13.7374C10.5036 13.7893 10.5206 13.8497 10.546 13.9102C10.5714 13.9621 10.6138 14.0139 10.6732 14.0657L12.8096 16.1307C12.8689 16.1912 12.9283 16.2344 12.9791 16.2517C13.0385 16.2776 13.0978 16.2776 13.1572 16.2776C13.2674 16.2776 13.3521 16.243 13.42 16.1739C13.4646 16.1219 13.4952 16.0651 13.5074 15.9961L13.5132 15.9234C13.5132 15.8458 13.4895 15.773 13.442 15.705L13.3861 15.6382L11.5718 13.9102C11.7414 13.8929 11.9279 13.8584 12.1059 13.7979C12.2456 13.759 12.376 13.7009 12.4967 13.6269L12.6146 13.5473C12.7289 13.4631 12.8293 13.364 12.9186 13.247L13.0046 13.124C13.1148 12.9512 13.1826 12.7352 13.208 12.4932H13.7421C13.8438 12.4932 13.9201 12.4673 13.971 12.4155L14.0778 12.5205C13.989 12.6109 13.8673 12.6435 13.7418 12.6435H13.3365C13.3005 12.851 13.2348 13.043 13.1315 13.205C13.0123 13.3919 12.8723 13.5438 12.7037 13.6679C12.5398 13.7886 12.3558 13.8821 12.153 13.9394L12.1539 13.9404C12.0681 13.9696 11.9804 13.9912 11.8942 14.0097L13.4899 15.5293L13.4928 15.5332C13.6001 15.6426 13.6637 15.7743 13.6637 15.9238C13.6636 16.0661 13.6143 16.1777 13.5338 16.2715L13.527 16.2793C13.4282 16.3799 13.3031 16.4277 13.1569 16.4277C13.1014 16.4277 13.0114 16.4296 12.9196 16.3896V16.3877C12.8417 16.3581 12.7678 16.3011 12.7057 16.2383L10.569 14.1738C10.5026 14.1148 10.4474 14.0491 10.4117 13.9765L10.4078 13.9687C10.3791 13.9004 10.3531 13.818 10.3531 13.7373ZM10.9449 13.2334L10.9445 13.3832H10.8427L10.8424 13.2334H10.9449ZM10.3024 12.1992C10.3024 12.0829 10.343 11.9844 10.4215 11.9043C10.5134 11.8022 10.6481 11.7734 10.7662 11.7734L10.7664 11.923C10.6647 11.923 10.5799 11.9489 10.5291 12.0094C10.4782 12.0612 10.4528 12.1217 10.4528 12.1995C10.4528 12.2772 10.4782 12.3377 10.5291 12.3982C10.5799 12.4587 10.6562 12.4846 10.7664 12.4846H12.3942C12.3687 12.6574 12.3094 12.7956 12.2161 12.908L12.1432 12.9873C12.0664 13.0628 11.9789 13.126 11.877 13.1845L11.778 13.2334C11.6759 13.2786 11.5632 13.3141 11.4362 13.34C11.3558 13.3529 11.2754 13.3635 11.194 13.3711L10.9445 13.3832L10.9449 13.2334C11.1022 13.2333 11.253 13.2169 11.4069 13.1924C11.5633 13.1604 11.6929 13.1138 11.8053 13.0527C11.9277 12.9822 12.0224 12.9073 12.1012 12.8125C12.143 12.7621 12.1751 12.7031 12.2008 12.6347H10.7662C10.6342 12.6347 10.5057 12.603 10.4147 12.4951C10.3445 12.4117 10.3024 12.3173 10.3024 12.1992ZM14.0473 12.2168C14.0473 12.139 14.0219 12.0785 13.971 12.018C13.9286 11.9576 13.8523 11.9316 13.7421 11.9316L13.7418 11.7812C13.8687 11.7812 14.0085 11.8109 14.0934 11.9316C14.1589 12.0127 14.1969 12.103 14.1969 12.2168C14.1969 12.3348 14.1557 12.4283 14.0856 12.5117L14.0778 12.5205L13.971 12.4155C14.0089 12.3704 14.0331 12.3248 14.0426 12.2724L14.0473 12.2168ZM13.971 11.1713L14.0778 11.2763C13.989 11.3667 13.8673 11.3994 13.7418 11.3994H13.0397L13.0436 11.4033C13.1487 11.5104 13.2254 11.6361 13.2809 11.7812H13.7418L13.7421 11.9316H13.1741L13.1315 11.8086C13.0994 11.7305 13.0602 11.6606 13.0133 11.5976L12.9367 11.5083C12.8265 11.396 12.7163 11.3182 12.6061 11.2664V11.2318C12.6315 11.2404 12.7078 11.2491 12.835 11.2491H13.7421C13.8438 11.2491 13.9201 11.2232 13.971 11.1713ZM10.3024 10.9638C10.3024 10.8475 10.343 10.7491 10.4215 10.6689L10.4225 10.6699C10.5144 10.5673 10.6479 10.5371 10.7662 10.5371L10.7664 10.6875C10.6647 10.6875 10.5799 10.7134 10.5291 10.7739C10.4782 10.8257 10.4528 10.8862 10.4528 10.964C10.4528 11.0417 10.4782 11.1022 10.5291 11.1627C10.5799 11.2232 10.6562 11.2491 10.7664 11.2491V11.2577H11.131C11.8092 11.2577 12.2246 11.4737 12.3602 11.923H10.7664L10.7662 11.7734H12.1227C12.0618 11.6837 11.9827 11.6095 11.8785 11.5537C11.7027 11.4595 11.4559 11.4082 11.1305 11.4082H10.6168V11.3799C10.5406 11.3607 10.4705 11.3251 10.4147 11.2588C10.3446 11.1754 10.3024 11.0819 10.3024 10.9638ZM14.0473 10.9726C14.0473 10.8948 14.0219 10.8344 13.971 10.7739C13.9286 10.7134 13.8523 10.6875 13.7421 10.6875L13.7418 10.5371C13.8687 10.5371 14.0085 10.5668 14.0934 10.6875C14.1589 10.7686 14.1969 10.8589 14.1969 10.9726C14.1969 11.0907 14.1557 11.1842 14.0856 11.2675L14.0778 11.2763L13.971 11.1713C14.0089 11.1262 14.0331 11.0806 14.0426 11.0283L14.0473 10.9726ZM13.7418 10.5371L13.7421 10.6875H10.7664L10.7662 10.5371H13.7418Z" fill="#101010"/>
<path d="M19.4999 4.25C19.9141 4.25 20.2499 4.58579 20.2499 5C20.2499 5.41421 19.9141 5.75 19.4999 5.75L4.99988 5.75C4.58566 5.75 4.24988 5.41421 4.24988 5C4.24988 4.58579 4.58566 4.25 4.99988 4.25L19.4999 4.25Z" fill="#101010"/>
</svg>
