<svg width="24" height="24" viewBox="0 0 24 24" fill="none" xmlns="http://www.w3.org/2000/svg">
<path fill-rule="evenodd" clip-rule="evenodd" d="M6.91652 3.2266C6.91652 3.2266 6.91709 3.22718 6.38676 3.75751L6.92827 3.2386L7.02746 3.34185C7.09136 3.40827 7.18351 3.50392 7.29632 3.62062C7.52201 3.8541 7.83 4.17141 8.15953 4.50716C8.83089 5.19119 9.55506 5.91396 9.87486 6.18807C9.88943 6.20056 9.90352 6.21361 9.91709 6.22718C10.2664 6.5765 10.4592 7.00545 10.4255 7.48088C10.3947 7.91595 10.1807 8.27419 9.97588 8.53417C9.76617 8.80034 9.5078 9.03586 9.28115 9.22802C9.16704 9.32476 9.05312 9.41697 8.95146 9.49926L8.94808 9.50199C8.85085 9.5807 8.767 9.64863 8.69345 9.71109L8.69192 9.71298C8.69192 9.71298 8.6839 9.73808 8.68976 9.79582C8.70287 9.92495 8.77304 10.1384 8.95029 10.4396C9.30121 11.0357 9.93743 11.7532 10.6888 12.4619C11.4311 13.1619 12.244 13.8144 12.9077 14.2818C13.2407 14.5164 13.5238 14.6956 13.7334 14.8095C13.7812 14.8355 13.822 14.8563 13.8562 14.8728C13.9313 14.8194 14.0306 14.7358 14.1549 14.6165C14.4388 14.3439 14.7655 13.9714 15.1223 13.5636C15.1333 13.5511 15.1447 13.5389 15.1564 13.5272C15.4159 13.2678 15.7097 13.0964 16.0296 13.0285C16.3482 12.9609 16.6339 13.0085 16.8585 13.0913C17.0777 13.172 17.2462 13.2884 17.3555 13.3774C17.4118 13.4232 17.4569 13.4654 17.4899 13.4985C17.5066 13.5151 17.5205 13.5297 17.5315 13.5417L17.5459 13.5577L17.5516 13.5641L17.554 13.5669L17.5552 13.5682C17.5552 13.5682 17.5562 13.5694 16.9868 14.0575L17.5562 13.5694L17.5671 13.5824L17.5685 13.5842L17.575 13.592L17.603 13.6256C17.6282 13.6558 17.6664 13.701 17.7166 13.7594C17.817 13.8763 17.9653 14.0458 18.1535 14.2522C18.5305 14.6657 19.0652 15.2246 19.6955 15.8064L19.707 15.8173C20.5078 16.5884 20.873 17.5199 20.5169 18.4343C20.1931 19.2659 19.3662 19.8068 18.4756 20.106C16.6565 20.7171 13.9305 20.5572 11.5037 19.1023C9.75439 18.073 7.9916 16.7281 6.53028 15.0605C5.08099 13.506 4.1434 12.0478 3.41594 10.5929C3.41215 10.5853 3.4085 10.5777 3.40497 10.57C2.8151 9.28303 2.51762 7.93411 2.70714 6.63661C2.89911 5.32234 3.58142 4.13102 4.81818 3.17178C5.327 2.75405 5.86678 2.72331 6.28547 2.85415C6.47657 2.91387 6.62633 3.00122 6.72706 3.07117C6.77847 3.10687 6.82023 3.14022 6.85158 3.16703C6.86734 3.18051 6.88072 3.19255 6.89161 3.20267L6.90617 3.21645L6.91208 3.22221L6.9147 3.2248L6.91652 3.2266ZM16.4247 14.5548C16.4211 14.5513 16.4156 14.5464 16.4086 14.5407C16.3836 14.5204 16.3583 14.5055 16.34 14.4988L16.3363 14.4975C16.3229 14.5028 16.2875 14.5206 16.2321 14.5732C15.8942 14.9594 15.5284 15.3772 15.1937 15.6986C15.0231 15.8623 14.8386 16.0227 14.6509 16.1463C14.491 16.2517 14.2354 16.3943 13.9293 16.4067C13.7085 16.4217 13.5148 16.3527 13.4277 16.3202C13.2955 16.2709 13.1553 16.2025 13.0171 16.1274C12.738 15.9757 12.4031 15.7611 12.044 15.5082C11.3232 15.0006 10.4549 14.3031 9.65969 13.5531C8.8736 12.8118 8.11607 11.9793 7.65761 11.2005C7.43017 10.8141 7.24175 10.3838 7.19743 9.94732C7.14985 9.47862 7.27164 8.98739 7.67381 8.61036C7.68193 8.60275 7.69022 8.59531 7.69867 8.58807C7.79441 8.50601 7.89994 8.42059 8.00021 8.33942L8.00435 8.33608C8.10886 8.25148 8.21087 8.16888 8.31112 8.08388C8.51573 7.91041 8.68236 7.75218 8.79764 7.60586C8.90372 7.47122 8.92478 7.39854 8.92853 7.37952C8.9244 7.3707 8.91042 7.34491 8.87207 7.30398C8.48317 6.9657 7.72774 6.20866 7.089 5.55786C6.75603 5.21861 6.44526 4.89842 6.21783 4.66315C6.10408 4.54548 6.01108 4.44894 5.94646 4.38177L5.87002 4.30223C5.85927 4.29495 5.84789 4.28919 5.83946 4.28633C5.82895 4.29037 5.80467 4.30221 5.7669 4.33368C5.75982 4.33957 5.75264 4.34534 5.74535 4.35097C4.78843 5.09041 4.3239 5.94622 4.19139 6.85341C4.05638 7.77774 4.25704 8.8248 4.76333 9.93359C5.43368 11.2721 6.29285 12.6077 7.63506 14.0458C7.64053 14.0516 7.64591 14.0576 7.6512 14.0636C8.98756 15.5909 10.6205 16.8425 12.267 17.8111L12.2726 17.8144C14.3452 19.0579 16.6177 19.1477 17.9979 18.6841C18.7073 18.4457 19.0304 18.1179 19.1191 17.8901C19.1754 17.7456 19.2155 17.4287 18.6719 16.9029C18.0049 16.2868 17.4418 15.698 17.045 15.2628C16.8458 15.0443 16.6877 14.8637 16.5788 14.7368C16.5243 14.6734 16.482 14.6233 16.4529 14.5886L16.4247 14.5548ZM13.9641 14.9191C13.9744 14.9215 13.9802 14.9238 13.9802 14.9238C13.9802 14.9238 13.9753 14.923 13.9641 14.9191ZM6.38676 3.75751L6.92827 3.2386L6.91652 3.2266L6.38676 3.75751Z" fill="#101010"/>
</svg>
