<svg width="24" height="24" viewBox="0 0 24 24" fill="none" xmlns="http://www.w3.org/2000/svg">
<path d="M6.75 3.75H17.25V8.54645H6.75V3.75Z" fill="white"/>
<path fill-rule="evenodd" clip-rule="evenodd" d="M6 3.75C6 3.33579 6.33579 3 6.75 3H17.25C17.6642 3 18 3.33579 18 3.75V8.54645C18 8.96066 17.6642 9.29645 17.25 9.29645H6.75C6.33579 9.29645 6 8.96066 6 8.54645V3.75ZM7.5 4.5V7.79645H16.5V4.5H7.5Z" fill="#101010"/>
<path d="M2.75 9.75C2.75 8.64543 3.64543 7.75 4.75 7.75H19.25C20.3546 7.75 21.25 8.64543 21.25 9.75V15.15C21.25 15.2052 21.2052 15.25 21.15 15.25H2.85C2.79477 15.25 2.75 15.2052 2.75 15.15V9.75Z" fill="white"/>
<path fill-rule="evenodd" clip-rule="evenodd" d="M2 9.75C2 8.23122 3.23122 7 4.75 7H19.25C20.7688 7 22 8.23122 22 9.75V15.15C22 15.6194 21.6194 16 21.15 16H2.85C2.38056 16 2 15.6194 2 15.15V9.75ZM4.75 8.5C4.05964 8.5 3.5 9.05964 3.5 9.75V14.5H20.5V9.75C20.5 9.05964 19.9404 8.5 19.25 8.5H4.75Z" fill="#101010"/>
<path d="M6.75 13.85C6.75 13.7948 6.79477 13.75 6.85 13.75H17.15C17.2052 13.75 17.25 13.7948 17.25 13.85V20.15C17.25 20.2052 17.2052 20.25 17.15 20.25H6.85C6.79477 20.25 6.75 20.2052 6.75 20.15V13.85Z" fill="white"/>
<path fill-rule="evenodd" clip-rule="evenodd" d="M6 13.85C6 13.3806 6.38056 13 6.85 13H17.15C17.6194 13 18 13.3806 18 13.85V20.15C18 20.6194 17.6194 21 17.15 21H6.85C6.38056 21 6 20.6194 6 20.15V13.85ZM7.5 14.5V19.5H16.5V14.5H7.5Z" fill="#101010"/>
<path d="M19 11C19 11.5523 18.5523 12 18 12C17.4477 12 17 11.5523 17 11C17 10.4477 17.4477 10 18 10C18.5523 10 19 10.4477 19 11Z" fill="#101010"/>
</svg>
