<svg width="24" height="24" viewBox="0 0 24 24" fill="none" xmlns="http://www.w3.org/2000/svg">
<path fill-rule="evenodd" clip-rule="evenodd" d="M12 4.6087C7.9179 4.6087 4.6087 7.9179 4.6087 12C4.6087 16.0821 7.9179 19.3913 12 19.3913C16.0821 19.3913 19.3913 16.0821 19.3913 12C19.3913 7.9179 16.0821 4.6087 12 4.6087ZM2 12C2 6.47715 6.47715 2 12 2C17.5228 2 22 6.47715 22 12C22 17.5228 17.5228 22 12 22C6.47715 22 2 17.5228 2 12Z" fill="#FAFAFA"/>
<path fill-rule="evenodd" clip-rule="evenodd" d="M12 4.6087C8.51688 4.6087 5.59644 7.018 4.81439 10.261H2.15063C2.97371 5.56711 7.0703 2 12 2C17.5228 2 22 6.47715 22 12C22 16.6204 18.8665 20.5089 14.6087 21.6563V18.9178C17.4035 17.8633 19.3913 15.1638 19.3913 12C19.3913 7.9179 16.0821 4.6087 12 4.6087ZM12 15.4783C13.921 15.4783 15.4783 13.921 15.4783 12C15.4783 10.079 13.921 8.52173 12 8.52173C10.079 8.52173 8.52173 10.079 8.52173 12C8.52173 13.921 10.079 15.4783 12 15.4783Z" fill="#00B8F5"/>
</svg>
