<svg width="24" height="24" viewBox="0 0 24 24" fill="none" xmlns="http://www.w3.org/2000/svg">
<path fill-rule="evenodd" clip-rule="evenodd" d="M12 3.5C7.30558 3.5 3.5 7.30558 3.5 12C3.5 16.6944 7.30558 20.5 12 20.5C16.6944 20.5 20.5 16.6944 20.5 12C20.5 7.30558 16.6944 3.5 12 3.5ZM2 12C2 6.47715 6.47715 2 12 2C17.5228 2 22 6.47715 22 12C22 17.5228 17.5228 22 12 22C6.47715 22 2 17.5228 2 12Z" fill="#101010"/>
<path d="M5.63405 18.711C6.64287 16.1839 9.1129 14.3982 12 14.3982C14.8871 14.3982 17.3571 16.1839 18.3659 18.711C17.9819 19.0754 17.5666 19.4072 17.1245 19.702C16.4605 17.5011 14.4174 15.8982 12 15.8982C9.58256 15.8982 7.53948 17.5011 6.87553 19.702C6.43341 19.4072 6.0181 19.0754 5.63405 18.711Z" fill="#101010"/>
<path fill-rule="evenodd" clip-rule="evenodd" d="M12.0001 7.03372C10.1371 7.03372 8.6268 8.54398 8.6268 10.407C8.6268 12.27 10.1371 13.7803 12.0001 13.7803C13.8631 13.7803 15.3733 12.27 15.3733 10.407C15.3733 8.54398 13.8631 7.03372 12.0001 7.03372ZM10.1268 10.407C10.1268 9.37241 10.9655 8.53372 12.0001 8.53372C13.0346 8.53372 13.8733 9.37241 13.8733 10.407C13.8733 11.4416 13.0346 12.2803 12.0001 12.2803C10.9655 12.2803 10.1268 11.4416 10.1268 10.407Z" fill="#101010"/>
</svg>
