<svg width="24" height="24" viewBox="0 0 24 24" fill="none" xmlns="http://www.w3.org/2000/svg">
<path fill-rule="evenodd" clip-rule="evenodd" d="M1.5 9.51463C1.5 7.99584 2.73122 6.76463 4.25 6.76463H19.75C21.2688 6.76463 22.5 7.99584 22.5 9.51463V14.4854C22.5 16.0042 21.2688 17.2354 19.75 17.2354H4.25C2.73122 17.2354 1.5 16.0042 1.5 14.4854V9.51463ZM4.25 8.26463C3.55964 8.26463 3 8.82427 3 9.51463V14.4854C3 15.1757 3.55964 15.7354 4.25 15.7354H19.75C20.4404 15.7354 21 15.1757 21 14.4854V9.51463C21 8.82427 20.4404 8.26463 19.75 8.26463H4.25Z" fill="#101010"/>
<path d="M16.6975 10.2461L17.4199 11.5675L18.154 10.2461H19.0466L17.9676 12.0359L19.0652 13.8257H18.1773L17.4199 12.5369L16.6695 13.8257H15.7746L16.8653 12.0359L15.8026 10.2461H16.6975Z" fill="#7E7E7E"/>
<path d="M13.0061 10.2461L13.7285 11.5675L14.4626 10.2461H15.3552L14.2762 12.0359L15.3738 13.8257H14.4859L13.7285 12.5369L12.9781 13.8257H12.0832L13.1739 12.0359L12.1112 10.2461H13.0061Z" fill="#7E7E7E"/>
<path d="M9.31468 10.2461L10.0371 11.5675L10.7712 10.2461H11.6638L10.5848 12.0359L11.6824 13.8257H10.7945L10.0371 12.5369L9.28671 13.8257H8.39182L9.48247 12.0359L8.41979 10.2461H9.31468Z" fill="#7E7E7E"/>
<path d="M5.62327 10.2461L6.3457 11.5675L7.07979 10.2461H7.97235L6.89335 12.0359L7.99099 13.8257H7.10309L6.3457 12.5369L5.5953 13.8257H4.70042L5.79106 12.0359L4.72838 10.2461H5.62327Z" fill="#7E7E7E"/>
</svg>
