<svg width="24" height="24" viewBox="0 0 24 24" fill="none" xmlns="http://www.w3.org/2000/svg">
<path fill-rule="evenodd" clip-rule="evenodd" d="M11.221 4.75C7.07549 4.75 3.75 8.01507 3.75 12C3.75 15.9849 7.07549 19.25 11.221 19.25C14.5108 19.25 17.2911 17.1893 18.2926 14.3455C18.4302 13.9548 18.8584 13.7497 19.2491 13.8872C19.6398 14.0248 19.845 14.4531 19.7074 14.8438C18.494 18.2895 15.1454 20.75 11.221 20.75C6.28586 20.75 2.25 16.8516 2.25 12C2.25 7.14837 6.28586 3.25 11.221 3.25C13.6715 3.25 15.8968 4.20942 17.5177 5.76741C18.0482 6.27733 18.5143 6.85168 18.9026 7.47793C19.1209 7.82997 19.0124 8.29229 18.6604 8.51056C18.3083 8.72883 17.846 8.62038 17.6278 8.26834C17.3063 7.74991 16.9196 7.27309 16.4782 6.84885C15.1296 5.55259 13.2742 4.75 11.221 4.75Z" fill="#101010"/>
<path fill-rule="evenodd" clip-rule="evenodd" d="M19.1013 3.4967C19.5155 3.49624 19.8516 3.83164 19.8521 4.24586L19.857 8.60135C19.8573 8.80041 19.7783 8.99139 19.6377 9.13222C19.497 9.27306 19.3061 9.35219 19.107 9.35219L14.7466 9.35219C14.3324 9.35219 13.9966 9.01641 13.9966 8.60219C13.9966 8.18798 14.3324 7.85219 14.7466 7.85219H18.3562L18.3521 4.24755C18.3516 3.83334 18.6871 3.49717 19.1013 3.4967Z" fill="#101010"/>
</svg>
