<svg width="24" height="24" viewBox="0 0 24 24" fill="none" xmlns="http://www.w3.org/2000/svg">
<path d="M18.2744 12C18.2744 15.4653 15.4652 18.2744 12 18.2744C8.53478 18.2744 5.72566 15.4653 5.72566 12C5.72566 8.53479 8.53478 5.72567 12 5.72567C15.4652 5.72567 18.2744 8.53479 18.2744 12Z" fill="white"/>
<path d="M19.4998 12.0903C19.4998 7.92212 16.1432 4.56 11.9998 4.56C9.0755 4.5601 6.52969 6.24903 5.30153 8.71429C5.11684 9.08505 4.66643 9.2359 4.29567 9.05121C3.92492 8.86651 3.77407 8.4161 3.95876 8.04535C5.43059 5.09096 8.48442 3.0601 11.9998 3.06C16.9764 3.06 20.9998 7.09842 20.9998 12.0903C20.9996 17.0808 16.9774 21.1303 11.9998 21.1303C8.39626 21.1302 5.28831 19.0001 3.85036 15.9282C3.67483 15.5532 3.83688 15.1068 4.21169 14.9311C4.58684 14.7555 5.03414 14.9173 5.20974 15.2924C6.41181 17.86 9.00371 19.6302 11.9998 19.6303C16.1419 19.6303 19.4996 16.2595 19.4998 12.0903Z" fill="#101010"/>
<path d="M4.57888 4.06C4.99287 4.06487 5.32473 4.40474 5.32009 4.81879L5.28786 7.63226L8.15212 7.64008C8.56632 7.64122 8.90129 7.97784 8.90017 8.39203C8.89902 8.80616 8.56232 9.14109 8.14821 9.14008L4.5281 9.13031C4.32809 9.12976 4.13631 9.04909 3.99587 8.90668C3.85546 8.76427 3.77781 8.5715 3.78005 8.37152L3.82009 4.80121C3.82494 4.3872 4.16482 4.05536 4.57888 4.06Z" fill="#101010"/>
<path d="M9.92859 9.19952C9.77779 9.19952 9.66668 9.15984 9.59525 9.07254C9.53176 8.99317 9.49208 8.89793 9.49208 8.78682C9.49208 8.68365 9.52383 8.58841 9.59525 8.50905C9.66668 8.42968 9.77779 8.39 9.92859 8.39H14.0714C14.2222 8.39 14.3333 8.42968 14.4048 8.51698C14.4762 8.60428 14.508 8.69159 14.508 8.8027C14.508 8.90587 14.4762 9.00111 14.4048 9.08047C14.3333 9.15984 14.2222 9.19952 14.0714 9.19952H13.4683C13.2064 9.19952 12.9841 9.19952 12.8095 9.19159C12.627 9.18365 12.5238 9.17571 12.4841 9.16778V9.21539C12.6429 9.28682 12.7937 9.39793 12.9445 9.55666C13.0953 9.71539 13.2064 9.91381 13.2778 10.1598H14.0714C14.2222 10.1598 14.3333 10.1995 14.4048 10.2868C14.4762 10.3741 14.508 10.4614 14.508 10.5725C14.508 10.6757 14.4762 10.771 14.4048 10.8503C14.3333 10.9297 14.2222 10.9694 14.0714 10.9694H13.3333C13.2937 11.3186 13.2064 11.6122 13.0556 11.8583C12.9048 12.1043 12.7222 12.3106 12.5159 12.4694C12.3016 12.6281 12.0714 12.7471 11.8095 12.8344C11.5556 12.9217 11.3016 12.9694 11.0556 12.9932L13.5873 15.4614C13.7064 15.5805 13.7699 15.7154 13.7699 15.8741C13.7699 16.017 13.7222 16.136 13.6349 16.2392C13.5476 16.3344 13.4207 16.39 13.2619 16.39C13.1826 16.39 13.1032 16.3741 13.0238 16.3503C12.9445 16.3265 12.8651 16.271 12.7857 16.1836L9.80954 13.2313C9.73017 13.1519 9.66668 13.0805 9.627 13.0011C9.58732 12.9217 9.57145 12.8424 9.57145 12.7551C9.57145 12.6122 9.61906 12.4932 9.70637 12.3979C9.79367 12.3027 9.91271 12.2551 10.0556 12.2551H10.1984C10.4286 12.2551 10.6587 12.2313 10.8889 12.1916C11.1191 12.1519 11.3254 12.0805 11.508 11.9773C11.6905 11.8741 11.8492 11.7471 11.9762 11.5884C12.1032 11.4297 12.1826 11.2313 12.2222 10.9852H9.92859C9.77779 10.9852 9.66668 10.9456 9.59525 10.8583C9.52383 10.7709 9.49208 10.6836 9.49208 10.5725C9.49208 10.4694 9.52383 10.3741 9.59525 10.2948C9.66668 10.2154 9.77779 10.1757 9.92859 10.1757H12.1429C11.9524 9.54079 11.381 9.22333 10.4286 9.22333H9.92859V9.19952Z" fill="#101010"/>
</svg>
