<svg width="24" height="24" viewBox="0 0 24 24" fill="none" xmlns="http://www.w3.org/2000/svg">
<path fill-rule="evenodd" clip-rule="evenodd" d="M12.0877 3.55005C7.39329 3.55005 3.58771 7.35563 3.58771 12.05C3.58771 16.7445 7.39329 20.5501 12.0877 20.5501C16.7821 20.5501 20.5877 16.7445 20.5877 12.05C20.5877 7.35563 16.7821 3.55005 12.0877 3.55005ZM2.08771 12.05C2.08771 6.5272 6.56486 2.05005 12.0877 2.05005C17.6106 2.05005 22.0877 6.5272 22.0877 12.05C22.0877 17.5729 17.6106 22.0501 12.0877 22.0501C6.56486 22.0501 2.08771 17.5729 2.08771 12.05Z" fill="#101010"/>
<path fill-rule="evenodd" clip-rule="evenodd" d="M7.78772 12.0001C7.78772 11.5858 8.12351 11.2501 8.53772 11.2501H15.5377C15.9519 11.2501 16.2877 11.5858 16.2877 12.0001C16.2877 12.4143 15.9519 12.7501 15.5377 12.7501H8.53772C8.12351 12.7501 7.78772 12.4143 7.78772 12.0001Z" fill="#101010"/>
</svg>
