<svg width="24" height="24" viewBox="0 0 24 24" fill="none" xmlns="http://www.w3.org/2000/svg">
<path d="M17.0613 21.25H6.75C5.64543 21.25 4.75 20.3546 4.75 19.25V4.75C4.75 3.64543 5.64543 2.75 6.75 2.75H14.1081L19.0613 7.64077V19.25C19.0613 20.3546 18.1659 21.25 17.0613 21.25Z" fill="white"/>
<path d="M14.8584 6.89062H17.2334L14.8584 4.54395V6.89062ZM19.8115 19.25C19.8115 20.7687 18.5802 21.9999 17.0615 22H6.75C5.23122 22 4 20.7688 4 19.25V4.75C4 3.23122 5.23122 2 6.75 2H14.1084L14.2539 2.01465C14.3969 2.04301 14.5295 2.11287 14.6348 2.2168L19.5879 7.10742C19.7306 7.2483 19.8115 7.44012 19.8115 7.64062V19.25ZM5.5 19.25C5.5 19.9404 6.05964 20.5 6.75 20.5H17.0615C17.7518 20.4999 18.3115 19.9403 18.3115 19.25V8.39062H14.1084C13.6942 8.39062 13.3584 8.05484 13.3584 7.64062V3.5H6.75C6.05964 3.5 5.5 4.05964 5.5 4.75V19.25Z" fill="#101010"/>
<path d="M15.946 10.767C16.2163 10.453 16.6897 10.4176 17.0036 10.6879C17.3175 10.9581 17.353 11.4316 17.0827 11.7455L13.0886 16.3851C12.8286 16.6872 12.3778 16.733 12.0622 16.4896L10.5085 15.2904L7.85618 18.265C7.58041 18.5738 7.10659 18.6002 6.79758 18.3246C6.48855 18.0488 6.46134 17.5751 6.73704 17.266L9.85325 13.7718C10.1151 13.4782 10.5602 13.4369 10.8718 13.6771L12.4148 14.8675L15.946 10.767Z" fill="#101010"/>
<path d="M16.5151 10.5061C16.9291 10.5063 17.2651 10.842 17.2651 11.2561C17.2651 11.6702 16.9291 12.0059 16.5151 12.0061H14.1313C13.7171 12.0061 13.3813 11.6703 13.3813 11.2561C13.3813 10.8419 13.7171 10.5061 14.1313 10.5061H16.5151Z" fill="#101010"/>
<path d="M17.2647 13.6399C17.2645 14.0539 16.9288 14.3899 16.5147 14.3899C16.1006 14.3899 15.765 14.0539 15.7647 13.6399V11.2561C15.7647 10.8419 16.1009 10.5061 16.5151 10.5061C16.9291 10.5063 17.2651 10.842 17.2651 11.2561L17.2647 13.6399Z" fill="#101010"/>
<path d="M9.57753 8.50082C9.99174 8.50082 10.3275 8.83661 10.3275 9.25082C10.3275 9.66504 9.99174 10.0008 9.57753 10.0008H7.07753C6.66332 10.0008 6.32753 9.66504 6.32753 9.25082C6.32753 8.83661 6.66332 8.50082 7.07753 8.50082H9.57753Z" fill="#101010"/>
<path d="M11.5775 5.5271C11.9917 5.5271 12.3275 5.86289 12.3275 6.2771C12.3275 6.69131 11.9917 7.0271 11.5775 7.0271H7.07753C6.66332 7.0271 6.32753 6.69131 6.32753 6.2771C6.32753 5.86289 6.66332 5.5271 7.07753 5.5271H11.5775Z" fill="#101010"/>
</svg>
