<svg width="24" height="24" viewBox="0 0 24 24" fill="none" xmlns="http://www.w3.org/2000/svg">
<path fill-rule="evenodd" clip-rule="evenodd" d="M6.75 3.5C6.05964 3.5 5.5 4.05964 5.5 4.75V19.25C5.5 19.9404 6.05964 20.5 6.75 20.5H17.0613C17.7517 20.5 18.3113 19.9404 18.3113 19.25V8.39077H14.1081C13.6939 8.39077 13.3581 8.05499 13.3581 7.64077V3.5H6.75ZM14.8581 4.54453L17.2343 6.89077H14.8581V4.54453ZM4 4.75C4 3.23122 5.23122 2 6.75 2H14.1081C14.3053 2 14.4947 2.07772 14.635 2.21631L19.5883 7.10709C19.731 7.248 19.8113 7.44021 19.8113 7.64077V19.25C19.8113 20.7688 18.5801 22 17.0613 22H6.75C5.23122 22 4 20.7688 4 19.25V4.75Z" fill="#101010"/>
<path fill-rule="evenodd" clip-rule="evenodd" d="M17.0037 10.6878C17.3176 10.9581 17.353 11.4316 17.0828 11.7455L13.0886 16.3852C12.8286 16.6872 12.3778 16.7332 12.0622 16.4898L10.5082 15.2914L7.8563 18.2645C7.58058 18.5736 7.10648 18.6007 6.79737 18.325C6.48826 18.0493 6.46119 17.5752 6.73691 17.266L9.85363 13.7719C10.1155 13.4783 10.5598 13.437 10.8713 13.6772L12.4155 14.868L15.946 10.7669C16.2162 10.453 16.6898 10.4176 17.0037 10.6878Z" fill="#101010"/>
<path fill-rule="evenodd" clip-rule="evenodd" d="M13.3813 11.2561C13.3813 10.8419 13.7171 10.5061 14.1313 10.5061H16.5147C16.9289 10.5061 17.2647 10.8419 17.2647 11.2561C17.2647 11.6703 16.9289 12.0061 16.5147 12.0061H14.1313C13.7171 12.0061 13.3813 11.6703 13.3813 11.2561Z" fill="#101010"/>
<path fill-rule="evenodd" clip-rule="evenodd" d="M16.5147 10.5061C16.9289 10.5061 17.2647 10.8419 17.2647 11.2561L17.2647 13.6394C17.2647 14.0537 16.9289 14.3894 16.5147 14.3894C16.1005 14.3894 15.7647 14.0537 15.7647 13.6394V11.2561C15.7647 10.8419 16.1004 10.5061 16.5147 10.5061Z" fill="#101010"/>
<path fill-rule="evenodd" clip-rule="evenodd" d="M6.32753 9.25082C6.32753 8.83661 6.66332 8.50082 7.07753 8.50082H9.57753C9.99174 8.50082 10.3275 8.83661 10.3275 9.25082C10.3275 9.66504 9.99174 10.0008 9.57753 10.0008H7.07753C6.66332 10.0008 6.32753 9.66504 6.32753 9.25082Z" fill="#101010"/>
<path fill-rule="evenodd" clip-rule="evenodd" d="M6.32753 6.2771C6.32753 5.86289 6.66332 5.5271 7.07753 5.5271H11.5775C11.9917 5.5271 12.3275 5.86289 12.3275 6.2771C12.3275 6.69131 11.9917 7.0271 11.5775 7.0271H7.07753C6.66332 7.0271 6.32753 6.69131 6.32753 6.2771Z" fill="#101010"/>
</svg>
