<svg width="24" height="24" viewBox="0 0 24 24" fill="none" xmlns="http://www.w3.org/2000/svg">
<path fill-rule="evenodd" clip-rule="evenodd" d="M11.8287 4.38959C16.1788 4.38959 19.6701 7.81602 19.6701 12C19.6701 16.184 16.1788 19.6104 11.8287 19.6104C8.37646 19.6104 5.45805 17.4479 4.40672 14.4624C4.26914 14.0717 3.84089 13.8665 3.45019 14.0041C3.05949 14.1417 2.8543 14.57 2.99189 14.9607C4.25517 18.548 7.74186 21.1104 11.8287 21.1104C16.9684 21.1104 21.1701 17.0507 21.1701 12C21.1701 6.94932 16.9684 2.88959 11.8287 2.88959C9.27684 2.88959 6.95962 3.8887 5.27182 5.51098C4.71941 6.04194 4.23407 6.63997 3.8298 7.292C3.61154 7.64404 3.71998 8.10637 4.07202 8.32463C4.42406 8.5429 4.88639 8.43446 5.10465 8.08242C5.44207 7.5382 5.84802 7.03771 6.31128 6.59242C7.72679 5.23187 9.67413 4.38959 11.8287 4.38959Z" fill="#101010"/>
<path d="M7.14431 8.44911L3.58746 8.44911L3.59261 4.8974" fill="#101010"/>
<path fill-rule="evenodd" clip-rule="evenodd" d="M3.59369 4.1474C3.17948 4.1468 2.84321 4.4821 2.84261 4.89632L2.83746 8.44803C2.83718 8.64713 2.91607 8.83817 3.05675 8.97906C3.19743 9.11995 3.38836 9.19911 3.58746 9.19911L7.14431 9.19911C7.55853 9.19911 7.89431 8.86332 7.89431 8.44911C7.89431 8.0349 7.55853 7.69911 7.14431 7.69911L4.33855 7.69911L4.3426 4.89849C4.3432 4.48428 4.0079 4.148 3.59369 4.1474Z" fill="#101010"/>
<path d="M9.95001 9.52585C9.80001 9.52585 9.70001 9.47585 9.60001 9.37585C9.55001 9.32585 9.50001 9.22585 9.50001 9.12585C9.50001 9.02585 9.55001 8.92585 9.60001 8.82585C9.65001 8.72585 9.80001 8.72585 9.95001 8.72585H14.1C14.25 8.72585 14.35 8.77585 14.45 8.87585C14.45 8.92585 14.5 9.02585 14.5 9.12585C14.5 9.22585 14.45 9.32585 14.4 9.42585C14.35 9.52585 14.2 9.52585 14.05 9.52585H13.45C13.2 9.52585 12.95 9.52585 12.8 9.52585C12.6 9.52585 12.5 9.52585 12.5 9.52585V9.57585C12.65 9.62585 12.8 9.77585 12.95 9.92585C13.1 10.0759 13.2 10.2759 13.3 10.5259H14.1C14.25 10.5259 14.35 10.5759 14.45 10.6759C14.45 10.6759 14.5 10.7759 14.5 10.8759C14.5 10.9759 14.45 11.0759 14.4 11.1759C14.35 11.2759 14.2 11.2759 14.05 11.2759H13.3C13.25 11.6259 13.15 11.9259 13 12.1759C12.85 12.4259 12.65 12.6259 12.45 12.7759C12.25 12.9259 12 13.0759 11.75 13.1259C11.5 13.2259 11.25 13.2759 11 13.2759L13.55 15.7259C13.65 15.8259 13.75 15.9759 13.75 16.1259C13.75 16.2759 13.7 16.3759 13.6 16.4759C13.5 16.5759 13.4 16.6259 13.25 16.6259C13.15 16.6259 13.1 16.6259 13 16.5759C12.9 16.5259 12.85 16.4759 12.75 16.4259L9.75001 13.4759C9.65001 13.3759 9.60001 13.3259 9.55001 13.2259C9.50001 13.1259 9.50001 13.0759 9.50001 12.9759C9.50001 12.8259 9.55001 12.7259 9.65001 12.6259C9.75001 12.5259 9.85001 12.4759 10 12.4759H10.15C10.4 12.4759 10.6 12.4759 10.85 12.4259C11.1 12.3759 11.3 12.3259 11.45 12.2259C11.65 12.1259 11.8 11.9759 11.9 11.8259C12.05 11.6759 12.1 11.4759 12.15 11.2259H9.90001C9.75001 11.2259 9.65001 11.1759 9.55001 11.0759C9.55001 11.0759 9.50001 10.9759 9.50001 10.8759C9.50001 10.7759 9.55001 10.6759 9.60001 10.5759C9.65001 10.4759 9.80001 10.4759 9.95001 10.4759H12.15C11.95 9.82585 11.4 9.52585 10.45 9.52585H9.95001Z" fill="#101010"/>
</svg>
