<svg width="24" height="24" viewBox="0 0 24 24" fill="none" xmlns="http://www.w3.org/2000/svg">
<path d="M12 21.25C17.1086 21.25 21.25 17.1086 21.25 12C21.25 6.89137 17.1086 2.75001 12 2.75001C6.89137 2.75001 2.75 6.89137 2.75 12C2.75 17.1086 6.89137 21.25 12 21.25Z" stroke="#101010" stroke-width="1.5" stroke-miterlimit="10" stroke-linecap="round" stroke-linejoin="round"/>
<path d="M11.6861 6.98889C11.7849 6.68486 12.215 6.68486 12.3138 6.98889L13.2911 9.99657C13.3352 10.1325 13.4619 10.2246 13.6049 10.2246H16.7674C17.087 10.2246 17.22 10.6337 16.9613 10.8216L14.4029 12.6804C14.2872 12.7644 14.2388 12.9134 14.283 13.0494L15.2602 16.057C15.359 16.3611 15.011 16.6139 14.7524 16.426L12.1939 14.5671C12.0783 14.4831 11.9217 14.4831 11.806 14.5671L9.24751 16.426C8.98889 16.6139 8.64091 16.3611 8.73969 16.057L9.71695 13.0494C9.76112 12.9134 9.71273 12.7644 9.59707 12.6804L7.03859 10.8216C6.77996 10.6337 6.91288 10.2246 7.23255 10.2246H10.395C10.538 10.2246 10.6647 10.1325 10.7089 9.99657L11.6861 6.98889Z" fill="#101010"/>
</svg>
