<svg width="24" height="24" viewBox="0 0 24 24" fill="none" xmlns="http://www.w3.org/2000/svg">
<mask id="mask0_252_461" style="mask-type:alpha" maskUnits="userSpaceOnUse" x="2" y="1" width="21" height="21">
<path fill-rule="evenodd" clip-rule="evenodd" d="M2.05005 2.70019C2.05005 2.28598 2.38584 1.95019 2.80005 1.95019H7.30005C7.71426 1.95019 8.05005 2.28598 8.05005 2.70019C8.05005 3.11441 7.71426 3.45019 7.30005 3.45019H3.55005V7.30019C3.55005 7.71441 3.21426 8.05019 2.80005 8.05019C2.38584 8.05019 2.05005 7.71441 2.05005 7.30019V2.70019ZM16.05 2.80017C16.05 2.38596 16.3858 2.05017 16.8 2.05017H21.3C21.7143 2.05017 22.05 2.38596 22.05 2.80017V7.30017C22.05 7.71438 21.7143 8.05017 21.3 8.05017C20.8858 8.05017 20.55 7.71438 20.55 7.30017V3.55017H16.8C16.3858 3.55017 16.05 3.21438 16.05 2.80017ZM22.05 16.7002C22.05 16.286 21.7143 15.9502 21.3 15.9502C20.8858 15.9502 20.55 16.286 20.55 16.7002V20.4502H16.8C16.3858 20.4502 16.05 20.786 16.05 21.2002C16.05 21.6144 16.3858 21.9502 16.8 21.9502H21.3C21.7143 21.9502 22.05 21.6144 22.05 21.2002V16.7002ZM2.80005 15.9502C3.21426 15.9502 3.55005 16.286 3.55005 16.7002V20.4502H7.30005C7.71426 20.4502 8.05005 20.786 8.05005 21.2002C8.05005 21.6144 7.71426 21.9502 7.30005 21.9502H2.80005C2.38584 21.9502 2.05005 21.6144 2.05005 21.2002V16.7002C2.05005 16.286 2.38584 15.9502 2.80005 15.9502ZM2.80005 11.2502C2.38584 11.2502 2.05005 11.586 2.05005 12.0002C2.05005 12.4145 2.38584 12.7502 2.80005 12.7502H21.3C21.7143 12.7502 22.05 12.4145 22.05 12.0002C22.05 11.586 21.7143 11.2502 21.3 11.2502H2.80005Z" fill="#101010"/>
</mask>
<g mask="url(#mask0_252_461)">
<path d="M0 0H24V24H0V0Z" fill="#101010"/>
</g>
</svg>
