<svg width="24" height="24" viewBox="0 0 24 24" fill="none" xmlns="http://www.w3.org/2000/svg">
<path fill-rule="evenodd" clip-rule="evenodd" d="M16.4614 16.4779C16.7498 16.1805 17.2246 16.1732 17.522 16.4616L20.822 19.6615C21.1193 19.9499 21.1267 20.4247 20.8383 20.7221C20.5499 21.0194 20.0751 21.0268 19.7778 20.7384L16.4778 17.5384C16.1804 17.2501 16.1731 16.7752 16.4614 16.4779Z" fill="#101010"/>
<path fill-rule="evenodd" clip-rule="evenodd" d="M4.62136 9.73014C3.76469 13.3582 6.0113 16.9937 9.63931 17.8504C13.2673 18.7071 16.9029 16.4605 17.7596 12.8324C18.6162 9.20442 16.3696 5.56887 12.7416 4.71219C9.1136 3.85551 5.47804 6.10212 4.62136 9.73014ZM9.29461 19.3102C4.86038 18.2631 2.11452 13.8197 3.16156 9.38544C4.20861 4.9512 8.65207 2.20534 13.0863 3.25239C17.5206 4.29944 20.2664 8.7429 19.2194 13.1771C18.1723 17.6114 13.7289 20.3572 9.29461 19.3102Z" fill="#101010"/>
</svg>
