<svg width="24" height="24" viewBox="0 0 24 24" fill="none" xmlns="http://www.w3.org/2000/svg">
<path fill-rule="evenodd" clip-rule="evenodd" d="M2.25443 3.23705C2.47414 3.04364 2.78631 2.99572 3.05391 3.11434L21.5539 11.3143C21.8251 11.4346 22 11.7033 22 12C22 12.2967 21.8251 12.5655 21.5539 12.6857L3.05391 20.8857C2.7863 21.0043 2.47414 20.9564 2.25443 20.763C2.03471 20.5695 1.94761 20.266 2.03133 19.9855L4.03133 13.2855C4.10615 13.0348 4.30616 12.8413 4.55913 12.7747L7.50295 12L4.55913 11.2253C4.30616 11.1587 4.10615 10.9652 4.03133 10.7145L2.03133 4.01453C1.94761 3.73404 2.03471 3.43047 2.25443 3.23705ZM3.93428 5.1453L5.34819 9.8819L10.6409 11.2747C10.9704 11.3614 11.2 11.6593 11.2 12C11.2 12.3407 10.9704 12.6386 10.6409 12.7253L5.34819 14.1181L3.93428 18.8547L19.3992 12L3.93428 5.1453Z" fill="#101010"/>
</svg>
