<svg width="24" height="24" viewBox="0 0 24 24" fill="none" xmlns="http://www.w3.org/2000/svg">
<path fill-rule="evenodd" clip-rule="evenodd" d="M8.15008 11.8792C8.16142 9.78884 9.87806 7.95 12.1 7.95C14.2838 7.95 16.15 9.65603 16.15 11.9C16.15 14.1142 14.3142 15.95 12.1 15.95C9.9015 15.95 8.0374 14.1244 8.15008 11.8792ZM12.1 9.45C10.7294 9.45 9.65002 10.5989 9.65002 11.9C9.65002 11.9139 9.64964 11.9277 9.64887 11.9416C9.57413 13.2869 10.7053 14.45 12.1 14.45C13.4858 14.45 14.65 13.2858 14.65 11.9C14.65 10.544 13.5162 9.45 12.1 9.45Z" fill="white"/>
<path fill-rule="evenodd" clip-rule="evenodd" d="M12.8262 3.35205C12.7894 3.35011 12.7519 3.34996 12.7 3.34996H11.2C11.1396 3.34996 11.1203 3.35888 11.1174 3.36021C11.1123 3.36249 11.0861 3.37457 11.0304 3.43029C10.9518 3.50885 10.902 3.5818 10.8346 3.77028L10.6443 5.29298C10.6084 5.57958 10.4112 5.82014 10.1372 5.91147C9.32539 6.18208 8.53291 6.62776 7.93038 7.23029C7.7363 7.42436 7.45173 7.49692 7.18842 7.41948L5.48842 6.91948C5.45049 6.90833 5.41351 6.89419 5.37782 6.87721C5.37172 6.8761 5.36202 6.87496 5.35005 6.87496C5.33911 6.87496 5.33008 6.87591 5.32395 6.87692C5.26445 6.91056 5.17442 6.98922 5.0076 7.15359L4.36659 8.34404C4.33953 8.39963 4.32101 8.45228 4.31295 8.49663C4.30496 8.54056 4.31018 8.55867 4.31156 8.56279C4.33411 8.63045 4.34688 8.70093 4.34953 8.7721C4.35944 8.78687 4.37691 8.80956 4.40812 8.84389C4.43332 8.8716 4.46107 8.90007 4.49623 8.93542L5.75733 9.90549C5.98364 10.0796 6.09148 10.3671 6.03548 10.647C5.95214 11.0638 5.95005 11.4922 5.95005 11.9C5.95005 12.3129 6.03277 12.7393 6.13548 13.2529C6.18868 13.5189 6.0941 13.7929 5.88814 13.9694L4.51301 15.1481C4.43595 15.2292 4.38589 15.3142 4.31156 15.5371C4.31326 15.5417 4.31545 15.548 4.31861 15.5555C4.32909 15.5802 4.34229 15.6073 4.36584 15.6545L5.0604 16.9444C5.06399 16.9511 5.06748 16.9578 5.07087 16.9646C5.08404 16.9909 5.1304 17.0528 5.23722 17.0885C5.26578 17.098 5.29375 17.1092 5.32096 17.1221C5.32716 17.1232 5.34063 17.125 5.36255 17.125C5.40954 17.125 5.47538 17.1163 5.55178 17.0921L7.1367 16.4977C7.39266 16.4017 7.68058 16.4526 7.88814 16.6305C8.51021 17.1637 9.32378 17.6173 10.1372 17.8885C10.3871 17.9718 10.575 18.1801 10.6322 18.4373L11.0322 20.2373C11.0394 20.2696 11.0444 20.3023 11.0472 20.3352C11.1019 20.3637 11.1528 20.3989 11.1988 20.4398C11.2153 20.443 11.2393 20.4461 11.2738 20.4479C11.3107 20.4498 11.3481 20.45 11.4 20.45H12.9C12.9605 20.45 12.9798 20.441 12.9827 20.4397C12.9878 20.4374 13.014 20.4254 13.0697 20.3696C13.1506 20.2887 13.201 20.2138 13.2715 20.0126L13.5615 18.3696C13.6093 18.0986 13.8018 17.8755 14.0629 17.7884C14.8529 17.5251 15.5784 17.0787 16.35 16.5C16.5507 16.3495 16.8132 16.3093 17.0497 16.3927L18.7497 16.9927C18.7739 17.0013 18.7977 17.0111 18.821 17.0221C18.8272 17.0232 18.8406 17.025 18.8625 17.025C18.8769 17.025 18.893 17.0242 18.9106 17.0224C18.9173 17.0148 18.924 17.0071 18.9306 16.9994C18.9886 16.9317 19.0189 16.8852 19.0292 16.8645C19.0326 16.8578 19.0361 16.8511 19.0397 16.8444L19.7335 15.5559C19.7606 15.5003 19.7791 15.4476 19.7871 15.4033C19.7951 15.3594 19.7899 15.3413 19.7885 15.3371C19.766 15.2695 19.7532 15.199 19.7506 15.1278C19.7407 15.1131 19.7232 15.0904 19.692 15.056C19.6639 15.0252 19.6327 14.9934 19.5916 14.9522L18.3156 13.8725C18.1072 13.6962 18.0111 13.4206 18.0646 13.1529C18.1074 12.9391 18.1294 12.7446 18.1546 12.5171L18.1557 12.5074C18.178 12.3071 18.2032 12.0804 18.2499 11.8289C18.2485 11.3246 18.23 11.0369 18.1292 10.8354C17.9799 10.5367 18.046 10.1753 18.2913 9.94886L19.5789 8.76038C19.6461 8.69142 19.6925 8.62311 19.7496 8.47272C19.7489 8.3908 19.747 8.33892 19.7421 8.29529C19.7396 8.27226 19.7368 8.25813 19.7344 8.24935L18.9613 6.99303C18.9498 6.97429 18.9391 6.95505 18.9292 6.93537C18.916 6.90902 18.8697 6.84708 18.7629 6.81147C18.7343 6.80195 18.7063 6.79072 18.6791 6.77784C18.6729 6.77675 18.6595 6.77496 18.6375 6.77496C18.5906 6.77496 18.5247 6.78358 18.4483 6.80786L16.8634 7.4022C16.588 7.50547 16.2777 7.43825 16.0697 7.23029C15.4672 6.62776 14.6747 6.18208 13.8629 5.91147C13.5993 5.82362 13.4059 5.59728 13.3603 5.32326L13.0603 3.52326C13.057 3.50386 13.0545 3.48434 13.0529 3.46476C12.9982 3.43621 12.9473 3.40103 12.9013 3.36006C12.8848 3.35688 12.8607 3.35386 12.8262 3.35205Z" fill="white"/>
<path fill-rule="evenodd" clip-rule="evenodd" d="M8.15008 11.8792C8.16142 9.78884 9.87806 7.95 12.1 7.95C14.2838 7.95 16.15 9.65603 16.15 11.9C16.15 14.1142 14.3142 15.95 12.1 15.95C9.9015 15.95 8.0374 14.1244 8.15008 11.8792ZM12.1 9.45C10.7294 9.45 9.65002 10.5989 9.65002 11.9C9.65002 11.9139 9.64964 11.9277 9.64887 11.9416C9.57413 13.2869 10.7053 14.45 12.1 14.45C13.4858 14.45 14.65 13.2858 14.65 11.9C14.65 10.544 13.5162 9.45 12.1 9.45Z" fill="#101010"/>
<path fill-rule="evenodd" clip-rule="evenodd" d="M13.8372 2.18509C14.1576 2.37738 14.5199 2.75076 14.5483 3.32726L14.7681 4.64619C15.4691 4.92624 16.1631 5.32063 16.7684 5.83585L17.9367 5.39773C17.9454 5.39448 17.9541 5.39139 17.9629 5.38846C18.3565 5.25724 18.8541 5.21233 19.2834 5.40452C19.7378 5.56887 20.0686 5.88221 20.2534 6.23058L21.0388 7.50691C21.0503 7.52565 21.061 7.54489 21.0709 7.56457C21.2522 7.92723 21.251 8.2914 21.2502 8.55002C21.2501 8.56714 21.25 8.58381 21.25 8.59998C21.25 8.68059 21.237 8.76067 21.2116 8.83715C21.0913 9.19785 20.9431 9.51754 20.6304 9.83031C20.6233 9.83738 20.6161 9.8443 20.6088 9.85108L19.6633 10.7238C19.7512 11.1266 19.7506 11.529 19.7501 11.8358C19.7501 11.8577 19.75 11.8791 19.75 11.9C19.75 11.9494 19.7452 11.9986 19.7355 12.0471C19.6927 12.2608 19.6707 12.4553 19.6455 12.6828L19.6444 12.6926C19.6336 12.7893 19.6222 12.8922 19.608 13.0011L20.5845 13.8274C20.6004 13.8409 20.6157 13.8549 20.6304 13.8696C20.6396 13.8789 20.6498 13.889 20.661 13.8999C20.8278 14.064 21.1949 14.4252 21.2445 14.9755C21.3804 15.5155 21.1919 15.9933 21.0709 16.2354C21.0675 16.2422 21.064 16.2489 21.0604 16.2556L20.3649 17.5473C20.2075 17.855 19.9383 18.1229 19.8435 18.2173C19.8386 18.2221 19.8343 18.2264 19.8304 18.2303C19.748 18.3126 19.6477 18.3747 19.5372 18.4115C19.1431 18.5428 18.6449 18.5877 18.2153 18.3948L16.9238 17.939C16.3124 18.3755 15.6705 18.7661 14.9639 19.0536L14.7386 20.3303C14.7322 20.3665 14.7232 20.4022 14.7116 20.4371C14.5913 20.7979 14.4431 21.1175 14.1304 21.4303C13.9861 21.5746 13.812 21.7126 13.5921 21.8103C13.369 21.9095 13.1376 21.95 12.9 21.95H11.4C11.3923 21.95 11.383 21.9501 11.3723 21.9502C11.2033 21.9521 10.6801 21.9582 10.2629 21.6149C9.94691 21.4252 9.59013 21.0594 9.55318 20.4964L9.25708 19.164C8.55215 18.8865 7.86201 18.5039 7.2636 18.0521L6.06339 18.5022C6.05472 18.5055 6.04599 18.5086 6.03721 18.5115C5.64355 18.6427 5.14595 18.6876 4.71666 18.4954C4.25265 18.3276 3.91749 18.0044 3.73516 17.6471L3.03969 16.3556C3.0361 16.3489 3.03261 16.3422 3.02922 16.3354C3.02638 16.3297 3.02343 16.3238 3.0204 16.3178C2.91156 16.1009 2.68978 15.659 2.88853 15.0628C3.00877 14.7021 3.15695 14.3824 3.46971 14.0696C3.48328 14.0561 3.49737 14.043 3.51195 14.0305L4.58031 13.1148C4.51033 12.7349 4.45004 12.3209 4.45004 11.9L4.45004 11.8796C4.45001 11.597 4.44998 11.2257 4.49306 10.8254L3.54276 10.0944C3.51705 10.0747 3.49265 10.0532 3.46971 10.0303C3.4605 10.0211 3.45024 10.011 3.43908 10C3.2723 9.83596 2.90514 9.47479 2.85561 8.92448C2.71967 8.38444 2.90816 7.90669 3.02922 7.66457C3.03261 7.65779 3.0361 7.65107 3.03969 7.6444L3.73969 6.3444C3.77429 6.28013 3.8181 6.22126 3.86971 6.16964C3.87991 6.15945 3.89055 6.14876 3.90161 6.13766C4.07488 5.96369 4.35198 5.68548 4.66463 5.52915C4.88998 5.41648 5.13489 5.37497 5.35004 5.37497C5.54219 5.37497 5.75808 5.40808 5.96257 5.49542L7.20316 5.8603C7.80952 5.33791 8.50705 4.93803 9.21245 4.65403L9.35583 3.50695C9.36196 3.45794 9.37291 3.40966 9.38853 3.3628C9.50877 3.00209 9.65695 2.68241 9.96971 2.36965C10.114 2.22537 10.2881 2.08734 10.5079 1.98962C10.7311 1.89045 10.9625 1.84997 11.2 1.84997H12.7C12.7078 1.84997 12.7171 1.84987 12.7278 1.84975C12.8967 1.84781 13.4199 1.84181 13.8372 2.18509ZM12.8262 3.35205C12.7894 3.35011 12.7519 3.34996 12.7 3.34996H11.2C11.1396 3.34996 11.1203 3.35888 11.1174 3.36021C11.1123 3.36249 11.0861 3.37457 11.0304 3.43029C10.9518 3.50885 10.902 3.5818 10.8346 3.77028L10.6443 5.29298C10.6084 5.57958 10.4112 5.82014 10.1372 5.91147C9.32539 6.18208 8.53291 6.62776 7.93038 7.23029C7.7363 7.42436 7.45173 7.49692 7.18842 7.41948L5.48842 6.91948C5.45049 6.90833 5.41351 6.89419 5.37782 6.87721C5.37172 6.8761 5.36202 6.87496 5.35005 6.87496C5.33911 6.87496 5.33008 6.87591 5.32395 6.87692C5.26445 6.91056 5.17442 6.98922 5.0076 7.15359L4.36659 8.34404C4.33953 8.39963 4.32101 8.45228 4.31295 8.49663C4.30496 8.54056 4.31018 8.55867 4.31156 8.56279C4.33411 8.63045 4.34688 8.70093 4.34953 8.7721C4.35944 8.78687 4.37691 8.80956 4.40812 8.84389C4.43332 8.8716 4.46107 8.90007 4.49623 8.93542L5.75733 9.90549C5.98364 10.0796 6.09148 10.3671 6.03548 10.647C5.95214 11.0638 5.95005 11.4922 5.95005 11.9C5.95005 12.3129 6.03277 12.7393 6.13548 13.2529C6.18868 13.5189 6.0941 13.7929 5.88814 13.9694L4.51301 15.1481C4.43595 15.2292 4.38589 15.3142 4.31156 15.5371C4.3116 15.537 4.31151 15.5373 4.31156 15.5371C4.31326 15.5417 4.31545 15.548 4.31861 15.5555C4.32909 15.5802 4.34229 15.6073 4.36584 15.6545L5.0604 16.9444C5.06399 16.9511 5.06748 16.9578 5.07087 16.9646C5.08404 16.9909 5.1304 17.0528 5.23722 17.0885C5.26578 17.098 5.29375 17.1092 5.32096 17.1221C5.32716 17.1232 5.34063 17.125 5.36255 17.125C5.40954 17.125 5.47538 17.1163 5.55178 17.0921L7.1367 16.4977C7.39266 16.4017 7.68058 16.4526 7.88814 16.6305C8.51021 17.1637 9.32378 17.6173 10.1372 17.8885C10.3871 17.9718 10.575 18.1801 10.6322 18.4373L11.0322 20.2373C11.0394 20.2696 11.0444 20.3023 11.0472 20.3352C11.1019 20.3637 11.1528 20.3989 11.1988 20.4398C11.2153 20.443 11.2393 20.4461 11.2738 20.4479C11.3107 20.4498 11.3481 20.45 11.4 20.45H12.9C12.9605 20.45 12.9798 20.441 12.9827 20.4397C12.9878 20.4374 13.014 20.4254 13.0697 20.3696C13.1506 20.2887 13.201 20.2138 13.2715 20.0126L13.5615 18.3696C13.6093 18.0986 13.8018 17.8755 14.0629 17.7884C14.8529 17.5251 15.5784 17.0787 16.35 16.5C16.5507 16.3495 16.8132 16.3093 17.0497 16.3927L18.7497 16.9927C18.7739 17.0013 18.7977 17.0111 18.821 17.0221C18.8272 17.0232 18.8406 17.025 18.8625 17.025C18.8769 17.025 18.893 17.0242 18.9106 17.0224C18.9173 17.0148 18.924 17.0071 18.9306 16.9994C18.9886 16.9317 19.0189 16.8852 19.0292 16.8645C19.0326 16.8578 19.0361 16.8511 19.0397 16.8444L19.7335 15.5559C19.7606 15.5003 19.7791 15.4476 19.7871 15.4033C19.7951 15.3594 19.7899 15.3413 19.7885 15.3371C19.766 15.2695 19.7532 15.199 19.7506 15.1278C19.7407 15.1131 19.7232 15.0904 19.692 15.056C19.6639 15.0252 19.6327 14.9934 19.5916 14.9522L18.3156 13.8725C18.1072 13.6962 18.0111 13.4206 18.0646 13.1529C18.1074 12.9391 18.1294 12.7446 18.1546 12.5171L18.1557 12.5074C18.178 12.3071 18.2032 12.0804 18.2499 11.8289C18.2485 11.3246 18.23 11.0369 18.1292 10.8354C17.9799 10.5367 18.046 10.1753 18.2913 9.94886L19.5789 8.76038C19.6461 8.69142 19.6925 8.62311 19.7496 8.47272C19.7489 8.3908 19.747 8.33892 19.7421 8.29529C19.7396 8.27226 19.7368 8.25813 19.7344 8.24935L18.9613 6.99303C18.9498 6.97429 18.9391 6.95505 18.9292 6.93537C18.916 6.90902 18.8697 6.84708 18.7629 6.81147C18.7343 6.80195 18.7063 6.79072 18.6791 6.77784C18.6729 6.77675 18.6595 6.77496 18.6375 6.77496C18.5906 6.77496 18.5247 6.78358 18.4483 6.80786L16.8634 7.4022C16.588 7.50547 16.2777 7.43825 16.0697 7.23029C15.4672 6.62776 14.6747 6.18208 13.8629 5.91147C13.5993 5.82362 13.4059 5.59728 13.3603 5.32326L13.0603 3.52326C13.057 3.50386 13.0545 3.48434 13.0529 3.46476C12.9982 3.43621 12.9473 3.40103 12.9013 3.36006C12.8848 3.35688 12.8607 3.35386 12.8262 3.35205Z" fill="#101010"/>
</svg>
