<svg width="24" height="24" viewBox="0 0 24 24" fill="none" xmlns="http://www.w3.org/2000/svg">
<path d="M12.0002 8.98315V20.4998H10.5002V8.98315H12.0002Z" fill="#101010"/>
<path d="M5.31055 8.98315V20.4998H3.81055V8.98315H5.31055Z" fill="#101010"/>
<path d="M18.6898 8.98315V20.4998H17.1898V8.98315H18.6898Z" fill="#101010"/>
<path d="M20.5 21.25L2 21.25C1.58579 21.25 1.25 20.9142 1.25 20.5C1.25 20.0858 1.58579 19.75 2 19.75L20.5 19.75C20.9142 19.75 21.25 20.0858 21.25 20.5C21.25 20.9142 20.9142 21.25 20.5 21.25Z" fill="#101010"/>
<path d="M2 8.98323L20.5 8.98323V6.15524L11.3266 2L2 6.15524L2 8.98323Z" fill="white"/>
<path d="M1.25 6.15511L1.25781 6.04573C1.29483 5.79448 1.4579 5.57608 1.69434 5.47054L11.0215 1.31526C11.2172 1.22807 11.4406 1.22884 11.6357 1.31722L20.8096 5.47249C21.0776 5.59402 21.2499 5.86079 21.25 6.15511V8.98323C21.25 9.39745 20.9142 9.73323 20.5 9.73323L2 9.73323C1.58579 9.73323 1.25 9.39744 1.25 8.98323L1.25 6.15511ZM19.75 8.23323V6.63948L11.3242 2.82308L2.75 6.64241L2.75 8.23323L19.75 8.23323Z" fill="#101010"/>
<path d="M12.5064 5.90459C12.5064 6.59319 11.9439 7.15142 11.2501 7.15142C10.5562 7.15142 9.99371 6.59319 9.99371 5.90459C9.99371 5.21599 10.5562 4.65777 11.2501 4.65777C11.9439 4.65777 12.5064 5.21599 12.5064 5.90459Z" fill="#101010"/>
<path d="M21.8998 17.886C21.8998 20.0951 20.1089 21.886 17.8998 21.886C15.6907 21.886 13.8998 20.0951 13.8998 17.886C13.8998 15.6768 15.6907 13.886 17.8998 13.886C20.1089 13.886 21.8998 15.6768 21.8998 17.886Z" fill="#101010"/>
<path d="M21.8998 17.886C21.8998 15.6768 20.1089 13.886 17.8998 13.886C15.6907 13.886 13.8998 15.6768 13.8998 17.886C13.8998 20.0951 15.6907 21.886 17.8998 21.886C20.1089 21.886 21.8998 20.0951 21.8998 17.886ZM22.8998 17.886C22.8998 20.6474 20.6612 22.886 17.8998 22.886C15.1384 22.886 12.8998 20.6474 12.8998 17.886C12.8998 15.1246 15.1384 12.886 17.8998 12.886C20.6612 12.886 22.8998 15.1246 22.8998 17.886Z" fill="white"/>
<path d="M19.3576 16.3868C19.5551 16.1939 19.8717 16.1972 20.0647 16.3946C20.2575 16.592 20.254 16.9086 20.0569 17.1016L17.7209 19.3848C17.6237 19.4799 17.4916 19.5316 17.3557 19.5274C17.2199 19.5231 17.0913 19.4641 17.0002 19.3633L16.0901 18.3575C15.9049 18.1529 15.9209 17.8368 16.1252 17.6514C16.33 17.4662 16.647 17.4818 16.8322 17.6866L17.3928 18.3067L19.3576 16.3868Z" fill="white"/>
</svg>
