<svg width="24" height="24" viewBox="0 0 24 24" fill="none" xmlns="http://www.w3.org/2000/svg">
<path fill-rule="evenodd" clip-rule="evenodd" d="M8.15005 11.8792C8.16139 9.78886 9.87803 7.95001 12.1 7.95001C14.2838 7.95001 16.15 9.65604 16.15 11.9C16.15 14.1142 14.3142 15.95 12.1 15.95C9.90147 15.95 8.03738 14.1244 8.15005 11.8792ZM12.1 9.45001C10.7293 9.45001 9.64999 10.5989 9.64999 11.9C9.64999 11.9139 9.64961 11.9278 9.64884 11.9416C9.5741 13.2869 10.7053 14.45 12.1 14.45C13.4858 14.45 14.65 13.2858 14.65 11.9C14.65 10.544 13.5162 9.45001 12.1 9.45001Z" fill="#101010"/>
<path fill-rule="evenodd" clip-rule="evenodd" d="M13.8372 2.1851C14.1576 2.37738 14.5199 2.75076 14.5482 3.32726L14.7681 4.64619C15.4691 4.92624 16.1631 5.32063 16.7683 5.83585L17.9367 5.39773C17.9453 5.39448 17.9541 5.39139 17.9628 5.38846C18.3565 5.25724 18.8541 5.21234 19.2834 5.40452C19.7378 5.56887 20.0686 5.88222 20.2533 6.23058L21.0388 7.50691C21.0503 7.52565 21.061 7.54489 21.0708 7.56457C21.2522 7.92723 21.251 8.29141 21.2501 8.55002C21.2501 8.56714 21.25 8.58381 21.25 8.59998C21.25 8.68059 21.237 8.76067 21.2115 8.83715C21.0913 9.19785 20.9431 9.51755 20.6304 9.83031C20.6233 9.83738 20.6161 9.8443 20.6087 9.85108L19.6632 10.7238C19.7512 11.1266 19.7506 11.529 19.7501 11.8358C19.7501 11.8577 19.75 11.8791 19.75 11.9C19.75 11.9494 19.7451 11.9986 19.7355 12.0471C19.6927 12.2609 19.6707 12.4553 19.6454 12.6828L19.6443 12.6926C19.6336 12.7893 19.6222 12.8922 19.6079 13.0011L20.5845 13.8274C20.6003 13.8409 20.6157 13.8549 20.6304 13.8696C20.6396 13.8789 20.6498 13.889 20.661 13.8999C20.8278 14.064 21.1949 14.4252 21.2445 14.9755C21.3804 15.5155 21.1919 15.9933 21.0708 16.2354C21.0675 16.2422 21.064 16.2489 21.0604 16.2556L20.3648 17.5473C20.2075 17.8551 19.9383 18.1229 19.8434 18.2173C19.8386 18.2221 19.8342 18.2264 19.8303 18.2303C19.748 18.3126 19.6476 18.3747 19.5372 18.4115C19.1431 18.5428 18.6449 18.5877 18.2153 18.3948L16.9238 17.939C16.3124 18.3755 15.6705 18.7661 14.9639 19.0536L14.7386 20.3303C14.7322 20.3665 14.7232 20.4022 14.7115 20.4371C14.5913 20.7979 14.4431 21.1175 14.1303 21.4303C13.9861 21.5746 13.812 21.7126 13.5921 21.8103C13.369 21.9095 13.1375 21.95 12.9 21.95H11.4C11.3923 21.95 11.383 21.9501 11.3723 21.9502C11.2033 21.9521 10.6801 21.9582 10.2629 21.6149C9.94689 21.4252 9.5901 21.0594 9.55315 20.4964L9.25706 19.164C8.55213 18.8865 7.86199 18.5039 7.26358 18.0521L6.06336 18.5022C6.0547 18.5055 6.04597 18.5086 6.03719 18.5115C5.64353 18.6427 5.14592 18.6876 4.71664 18.4954C4.25263 18.3276 3.91747 18.0044 3.73514 17.6471L3.03967 16.3556C3.03607 16.3489 3.03259 16.3422 3.0292 16.3354C3.02635 16.3297 3.02341 16.3238 3.02038 16.3178C2.91154 16.1009 2.68976 15.659 2.88851 15.0628C3.00874 14.7021 3.15692 14.3824 3.46969 14.0696C3.48326 14.0561 3.49735 14.043 3.51193 14.0305L4.58029 13.1148C4.51031 12.7349 4.45002 12.3209 4.45002 11.9L4.45002 11.8796C4.44999 11.597 4.44996 11.2257 4.49304 10.8254L3.54274 10.0944C3.51703 10.0747 3.49263 10.0532 3.46969 10.0303C3.46048 10.0211 3.45022 10.011 3.43906 10C3.27227 9.83596 2.90511 9.47479 2.85559 8.92448C2.71964 8.38444 2.90813 7.9067 3.0292 7.66457C3.03259 7.65779 3.03607 7.65107 3.03967 7.6444L3.73967 6.3444C3.77427 6.28013 3.81807 6.22126 3.86969 6.16964C3.87989 6.15945 3.89053 6.14876 3.90159 6.13766C4.07485 5.9637 4.35195 5.68548 4.66461 5.52915C4.88995 5.41648 5.13487 5.37497 5.35002 5.37497C5.54217 5.37497 5.75806 5.40808 5.96255 5.49542L7.20314 5.8603C7.8095 5.33791 8.50702 4.93803 9.21243 4.65403L9.35581 3.50695C9.36194 3.45794 9.37289 3.40966 9.38851 3.36281C9.50875 3.00209 9.65693 2.68241 9.96969 2.36965C10.114 2.22538 10.288 2.08734 10.5079 1.98962C10.731 1.89045 10.9625 1.84998 11.2 1.84998H12.7C12.7078 1.84998 12.7171 1.84987 12.7278 1.84975C12.8967 1.84781 13.4199 1.84181 13.8372 2.1851ZM12.8262 3.35206C12.7893 3.35012 12.7519 3.34998 12.7 3.34998H11.2C11.1396 3.34998 11.1202 3.3589 11.1174 3.36023C11.1122 3.36251 11.0861 3.37458 11.0303 3.43031C10.9518 3.50887 10.902 3.58182 10.8346 3.7703L10.6442 5.293C10.6084 5.57959 10.4112 5.82015 10.1372 5.91149C9.32537 6.1821 8.53288 6.62777 7.93035 7.2303C7.73628 7.42438 7.4517 7.49694 7.18839 7.4195L5.48839 6.9195C5.45046 6.90834 5.41348 6.89421 5.37779 6.87723C5.3717 6.87611 5.362 6.87497 5.35002 6.87497C5.33908 6.87497 5.33005 6.87592 5.32392 6.87694C5.26442 6.91058 5.1744 6.98924 5.00757 7.1536L4.36656 8.34406C4.3395 8.39965 4.32098 8.45229 4.31292 8.49664C4.30493 8.54058 4.31016 8.55869 4.31153 8.56281C4.33408 8.63047 4.34686 8.70095 4.3495 8.77212C4.35941 8.78688 4.37689 8.80958 4.4081 8.84391C4.43329 8.87162 4.46105 8.90008 4.49621 8.93544L5.7573 9.90551C5.98362 10.0796 6.09145 10.3671 6.03545 10.6471C5.95211 11.0638 5.95002 11.4923 5.95002 11.9C5.95002 12.313 6.03275 12.7394 6.13545 13.2529C6.18865 13.5189 6.09407 13.7929 5.88811 13.9694L4.51299 15.1481C4.43592 15.2292 4.38586 15.3142 4.31153 15.5372C4.31149 15.5373 4.31158 15.537 4.31153 15.5372C4.31323 15.5417 4.31542 15.5481 4.31858 15.5555C4.32907 15.5802 4.34227 15.6073 4.36581 15.6545L5.06037 16.9444C5.06396 16.9511 5.06745 16.9578 5.07084 16.9646C5.08401 16.9909 5.13037 17.0529 5.23719 17.0885C5.26576 17.098 5.29372 17.1092 5.32093 17.1221C5.32714 17.1232 5.34061 17.125 5.36252 17.125C5.40951 17.125 5.47535 17.1164 5.55175 17.0921L7.13667 16.4977C7.39264 16.4017 7.68055 16.4526 7.88811 16.6305C8.51018 17.1637 9.32375 17.6173 10.1372 17.8885C10.3871 17.9718 10.575 18.1801 10.6322 18.4373L11.0322 20.2373C11.0393 20.2696 11.0444 20.3023 11.0472 20.3352C11.1019 20.3637 11.1528 20.3989 11.1988 20.4399C11.2153 20.4431 11.2393 20.4461 11.2738 20.4479C11.3107 20.4498 11.3481 20.45 11.4 20.45H12.9C12.9605 20.45 12.9798 20.4411 12.9827 20.4397C12.9878 20.4374 13.014 20.4254 13.0697 20.3696C13.1506 20.2888 13.201 20.2138 13.2715 20.0127L13.5614 18.3696C13.6093 18.0986 13.8017 17.8755 14.0628 17.7885C14.8528 17.5251 15.5783 17.0787 16.35 16.5C16.5506 16.3495 16.8132 16.3093 17.0496 16.3927L18.7496 16.9927C18.7739 17.0013 18.7977 17.0111 18.8209 17.0221C18.8271 17.0232 18.8406 17.025 18.8625 17.025C18.8769 17.025 18.8929 17.0242 18.9105 17.0224C18.9172 17.0148 18.9239 17.0071 18.9306 16.9994C18.9886 16.9317 19.0188 16.8853 19.0292 16.8646C19.0326 16.8578 19.0361 16.8511 19.0397 16.8444L19.7335 15.5559C19.7605 15.5003 19.7791 15.4477 19.7871 15.4033C19.7951 15.3594 19.7899 15.3413 19.7885 15.3371C19.766 15.2695 19.7532 15.199 19.7505 15.1278C19.7406 15.1131 19.7232 15.0904 19.6919 15.056C19.6639 15.0252 19.6327 14.9934 19.5916 14.9522L18.3156 13.8725C18.1072 13.6962 18.011 13.4206 18.0646 13.1529C18.1073 12.9391 18.1293 12.7447 18.1546 12.5172L18.1557 12.5074C18.1779 12.3072 18.2031 12.0804 18.2499 11.8289C18.2485 11.3246 18.23 11.0369 18.1292 10.8354C17.9799 10.5367 18.046 10.1753 18.2913 9.94887L19.5788 8.7604C19.6461 8.69144 19.6925 8.62313 19.7496 8.47273C19.7489 8.39082 19.747 8.33893 19.7421 8.2953C19.7395 8.27228 19.7368 8.25814 19.7344 8.24936L18.9613 6.99305C18.9497 6.97431 18.939 6.95507 18.9292 6.93539C18.916 6.90904 18.8697 6.8471 18.7628 6.81149C18.7343 6.80197 18.7063 6.79073 18.6791 6.77785C18.6729 6.77677 18.6594 6.77498 18.6375 6.77498C18.5905 6.77498 18.5247 6.7836 18.4483 6.80788L16.8634 7.40222C16.588 7.50549 16.2777 7.43827 16.0697 7.2303C15.4672 6.62778 14.6747 6.1821 13.8628 5.91149C13.5993 5.82364 13.4059 5.5973 13.3602 5.32327L13.0602 3.52328C13.057 3.50387 13.0545 3.48436 13.0528 3.46478C12.9981 3.43622 12.9472 3.40105 12.9012 3.36008C12.8847 3.3569 12.8607 3.35388 12.8262 3.35206Z" fill="#101010"/>
</svg>
