<svg width="24" height="24" viewBox="0 0 24 24" fill="none" xmlns="http://www.w3.org/2000/svg">
<path fill-rule="evenodd" clip-rule="evenodd" d="M17.1404 4.79813L17.8772 6.1047L7.60606 11.8967L17.4711 17.9082L16.6905 19.1891L4.64121 11.8466L17.1404 4.79813Z" fill="#101010"/>
<path d="M19.7826 5.45142C19.7826 6.69406 18.7752 7.70142 17.5326 7.70142C16.2899 7.70142 15.2826 6.69406 15.2826 5.45142C15.2826 4.20878 16.2899 3.20142 17.5326 3.20142C18.7752 3.20142 19.7826 4.20878 19.7826 5.45142Z" fill="white"/>
<path fill-rule="evenodd" clip-rule="evenodd" d="M17.5326 3.95142C16.7041 3.95142 16.0326 4.62299 16.0326 5.45142C16.0326 6.27984 16.7041 6.95142 17.5326 6.95142C18.361 6.95142 19.0326 6.27984 19.0326 5.45142C19.0326 4.62299 18.361 3.95142 17.5326 3.95142ZM14.5326 5.45142C14.5326 3.79456 15.8757 2.45142 17.5326 2.45142C19.1894 2.45142 20.5326 3.79456 20.5326 5.45142C20.5326 7.10827 19.1894 8.45142 17.5326 8.45142C15.8757 8.45142 14.5326 7.10827 14.5326 5.45142Z" fill="#101010"/>
<path d="M8.25336 12C8.25336 13.2426 7.246 14.25 6.00336 14.25C4.76072 14.25 3.75336 13.2426 3.75336 12C3.75336 10.7574 4.76072 9.75 6.00336 9.75C7.246 9.75 8.25336 10.7574 8.25336 12Z" fill="white"/>
<path fill-rule="evenodd" clip-rule="evenodd" d="M6.00336 10.5C5.17493 10.5 4.50336 11.1716 4.50336 12C4.50336 12.8284 5.17493 13.5 6.00336 13.5C6.83178 13.5 7.50336 12.8284 7.50336 12C7.50336 11.1716 6.83178 10.5 6.00336 10.5ZM3.00336 12C3.00336 10.3431 4.3465 9 6.00336 9C7.66021 9 9.00336 10.3431 9.00336 12C9.00336 13.6569 7.66021 15 6.00336 15C4.3465 15 3.00336 13.6569 3.00336 12Z" fill="#101010"/>
<path d="M19.7588 18.5486C19.7588 19.7913 18.7514 20.7986 17.5088 20.7986C16.2661 20.7986 15.2588 19.7913 15.2588 18.5486C15.2588 17.306 16.2661 16.2986 17.5088 16.2986C18.7514 16.2986 19.7588 17.306 19.7588 18.5486Z" fill="white"/>
<path fill-rule="evenodd" clip-rule="evenodd" d="M17.5088 17.0486C16.6804 17.0486 16.0088 17.7202 16.0088 18.5486C16.0088 19.3771 16.6804 20.0486 17.5088 20.0486C18.3372 20.0486 19.0088 19.3771 19.0088 18.5486C19.0088 17.7202 18.3372 17.0486 17.5088 17.0486ZM14.5088 18.5486C14.5088 16.8918 15.8519 15.5486 17.5088 15.5486C19.1656 15.5486 20.5088 16.8918 20.5088 18.5486C20.5088 20.2055 19.1656 21.5486 17.5088 21.5486C15.8519 21.5486 14.5088 20.2055 14.5088 18.5486Z" fill="#101010"/>
</svg>
