<svg width="24" height="24" viewBox="0 0 24 24" fill="none" xmlns="http://www.w3.org/2000/svg">
<path d="M5.70002 14.6C7.24642 14.6 8.50002 13.3464 8.50002 11.8C8.50002 10.2536 7.24642 9.00003 5.70002 9.00003C4.15362 9.00003 2.90002 10.2536 2.90002 11.8C2.90002 13.3464 4.15362 14.6 5.70002 14.6Z" fill="#101010"/>
<path d="M18.2 8.50002C19.7464 8.50002 21 7.24642 21 5.70002C21 4.15363 19.7464 2.90002 18.2 2.90002C16.6536 2.90002 15.4 4.15363 15.4 5.70002C15.4 7.24642 16.6536 8.50002 18.2 8.50002Z" fill="#101010"/>
<path d="M18.2 21C19.7464 21 21 19.7464 21 18.2C21 16.6536 19.7464 15.4 18.2 15.4C16.6536 15.4 15.4 16.6536 15.4 18.2C15.4 19.7464 16.6536 21 18.2 21Z" fill="#101010"/>
<path fill-rule="evenodd" clip-rule="evenodd" d="M18.872 5.36677C19.056 5.73785 18.9044 6.18787 18.5333 6.37192L6.03333 12.5719C5.66226 12.756 5.21224 12.6044 5.02818 12.2333C4.84413 11.8622 4.99574 11.4122 5.36682 11.2281L17.8668 5.02814C18.2379 4.84408 18.6879 4.99569 18.872 5.36677Z" fill="#101010"/>
<path fill-rule="evenodd" clip-rule="evenodd" d="M5.03033 11.5625C5.21675 11.1926 5.66773 11.0439 6.03762 11.2303L18.5376 17.5303C18.9075 17.7167 19.0562 18.1677 18.8698 18.5376C18.6834 18.9075 18.2324 19.0562 17.8625 18.8698L5.36252 12.5698C4.99263 12.3833 4.8439 11.9324 5.03033 11.5625Z" fill="#101010"/>
</svg>
