<svg width="24" height="24" viewBox="0 0 24 24" fill="none" xmlns="http://www.w3.org/2000/svg">
<path fill-rule="evenodd" clip-rule="evenodd" d="M3.74908 5.39801C3.61101 5.39801 3.49908 5.50994 3.49908 5.64801V18.5786C3.49908 18.7167 3.61101 18.8286 3.74908 18.8286H20.2509C20.389 18.8286 20.5009 18.7167 20.5009 18.5786V8.51525C20.5009 8.37718 20.389 8.26525 20.2509 8.26525H12.4683C11.8832 8.26525 11.3368 7.97281 11.0122 7.48594L9.69454 5.50934C9.64818 5.43979 9.57012 5.39801 9.48653 5.39801H3.74908ZM1.99908 5.64801C1.99908 4.68151 2.78259 3.89801 3.74908 3.89801H9.48653C10.0717 3.89801 10.6181 4.19045 10.9426 4.67732L12.2603 6.65392C12.3067 6.72347 12.3847 6.76525 12.4683 6.76525H20.2509C21.2174 6.76525 22.0009 7.54875 22.0009 8.51525V18.5786C22.0009 19.5451 21.2174 20.3286 20.2509 20.3286H3.74908C2.78259 20.3286 1.99908 19.5451 1.99908 18.5786V5.64801Z" fill="#101010"/>
<path d="M14.9269 10.0762C14.9602 9.9994 15.0691 9.9994 15.1024 10.0762L16.1463 12.4835C16.1601 12.5155 16.1903 12.5374 16.2249 12.5407L18.837 12.7896C18.9204 12.7975 18.954 12.9011 18.8913 12.9565L16.9243 14.6932C16.8982 14.7163 16.8867 14.7517 16.8943 14.7857L17.4648 17.3469C17.483 17.4286 17.3948 17.4926 17.3228 17.45L15.0632 16.116C15.0332 16.0983 14.996 16.0983 14.966 16.116L12.7065 17.45C12.6344 17.4926 12.5463 17.4286 12.5645 17.3469L13.1349 14.7857C13.1425 14.7517 13.131 14.7163 13.1049 14.6932L11.138 12.9565C11.0752 12.9011 11.1089 12.7975 11.1922 12.7896L13.8043 12.5407C13.839 12.5374 13.8691 12.5155 13.883 12.4835L14.9269 10.0762Z" fill="#101010"/>
</svg>
