<svg width="24" height="24" viewBox="0 0 24 24" fill="none" xmlns="http://www.w3.org/2000/svg">
<path d="M11.95 3.10001L14.6656 8.80001L20.7 9.80001L16.3753 14.3L17.4816 20.6L12.0506 17.6L6.61957 20.6L7.72589 14.3L3.20003 9.80001L9.43566 8.80001L11.95 3.10001Z" fill="#101010"/>
<path fill-rule="evenodd" clip-rule="evenodd" d="M11.9391 2.35009C12.2323 2.34581 12.501 2.51275 12.6271 2.77744L15.1743 8.12409L20.8226 9.0601C21.0973 9.10561 21.3241 9.29951 21.4118 9.56372C21.4995 9.82793 21.4337 10.119 21.2408 10.3197L17.1799 14.5452L18.2203 20.4703C18.2703 20.7548 18.1525 21.0426 17.9174 21.2104C17.6823 21.3782 17.3718 21.3962 17.119 21.2565L12.0506 18.4568L6.98221 21.2565C6.72941 21.3962 6.41887 21.3782 6.18381 21.2104C5.94875 21.0426 5.83092 20.7548 5.88088 20.4703L6.91949 14.5558L2.67122 10.3319C2.47114 10.1329 2.39964 9.83851 2.48619 9.56996C2.57273 9.30141 2.80268 9.10415 3.08127 9.05947L8.9141 8.12407L11.2638 2.79731C11.3822 2.52906 11.6459 2.35436 11.9391 2.35009ZM11.9763 4.89886L10.1219 9.10271C10.0192 9.33544 9.80558 9.50027 9.55442 9.54055L4.77385 10.3072L8.2547 13.7682C8.42863 13.9411 8.50701 14.1882 8.46459 14.4297L7.62948 19.1853L11.688 16.9435C11.9137 16.8188 12.1876 16.8188 12.4132 16.9435L16.4717 19.1853L15.6366 14.4297C15.5952 14.1941 15.6688 13.9528 15.8346 13.7803L19.1725 10.3071L14.5429 9.53992C14.301 9.49983 14.0939 9.34398 13.9885 9.12258L11.9763 4.89886Z" fill="#101010"/>
</svg>
