<svg width="24" height="24" viewBox="0 0 24 24" fill="none" xmlns="http://www.w3.org/2000/svg">
<path fill-rule="evenodd" clip-rule="evenodd" d="M11.939 2.35006C12.2322 2.34578 12.5009 2.51272 12.627 2.77741L15.1742 8.12406L20.8226 9.06007C21.0972 9.10558 21.324 9.29948 21.4117 9.56369C21.4995 9.8279 21.4336 10.119 21.2407 10.3197L17.1798 14.5452L18.2202 20.4703C18.2702 20.7547 18.1524 21.0426 17.9173 21.2104C17.6822 21.3782 17.3717 21.3961 17.1189 21.2565L12.0505 18.4568L6.98212 21.2565C6.72931 21.3961 6.41878 21.3782 6.18372 21.2104C5.94866 21.0426 5.83083 20.7547 5.88079 20.4703L6.9194 14.5558L2.67113 10.3318C2.47105 10.1329 2.39955 9.83848 2.48609 9.56993C2.57264 9.30138 2.80259 9.10412 3.08118 9.05944L8.91401 8.12404L11.2637 2.79728C11.3821 2.52903 11.6458 2.35433 11.939 2.35006ZM11.9762 4.89883L10.1218 9.10268C10.0191 9.33541 9.80549 9.50024 9.55433 9.54052L4.77376 10.3072L8.25461 13.7681C8.42854 13.9411 8.50692 14.1881 8.4645 14.4297L7.62938 19.1853L11.6879 16.9435C11.9136 16.8188 12.1875 16.8188 12.4131 16.9435L16.4716 19.1853L15.6365 14.4297C15.5951 14.194 15.6687 13.9528 15.8345 13.7803L19.1724 10.3071L14.5428 9.53989C14.3009 9.4998 14.0938 9.34395 13.9884 9.12255L11.9762 4.89883Z" fill="#101010"/>
</svg>
