<svg width="24" height="24" viewBox="0 0 24 24" fill="none" xmlns="http://www.w3.org/2000/svg">
<path fill-rule="evenodd" clip-rule="evenodd" d="M12 3.20494L11.95 3.10001L9.43563 8.80001L3.2 9.80001L7.72586 14.3L6.61954 20.6L12 17.6279V3.20494Z" fill="#101010"/>
<path fill-rule="evenodd" clip-rule="evenodd" d="M11.9391 2.35009C12.2322 2.34581 12.501 2.51275 12.6271 2.77744L15.1743 8.12409L20.8226 9.0601C21.0973 9.10561 21.3241 9.29951 21.4118 9.56372C21.4995 9.82793 21.4337 10.119 21.2408 10.3197L17.1798 14.5452L18.2203 20.4703C18.2703 20.7548 18.1524 21.0426 17.9174 21.2104C17.6823 21.3782 17.3718 21.3962 17.119 21.2565L12.0506 18.4568L6.98218 21.2565C6.72938 21.3962 6.41884 21.3782 6.18378 21.2104C5.94872 21.0426 5.83089 20.7548 5.88085 20.4703L6.91946 14.5558L2.67119 10.3319C2.47111 10.1329 2.39961 9.83851 2.48616 9.56996C2.5727 9.30141 2.80265 9.10415 3.08124 9.05947L8.91407 8.12407L11.2638 2.79731C11.3821 2.52906 11.6459 2.35436 11.9391 2.35009ZM11.9762 4.89886L10.1218 9.10271C10.0192 9.33544 9.80555 9.50027 9.55439 9.54055L4.77382 10.3072L8.25467 13.7682C8.4286 13.9411 8.50698 14.1882 8.46456 14.4297L7.62945 19.1853L11.6879 16.9435C11.9136 16.8188 12.1875 16.8188 12.4132 16.9435L16.4717 19.1853L15.6366 14.4297C15.5952 14.1941 15.6687 13.9528 15.8345 13.7803L19.1725 10.3071L14.5429 9.53992C14.301 9.49983 14.0939 9.34398 13.9884 9.12258L11.9762 4.89886Z" fill="#101010"/>
</svg>
