<svg width="24" height="24" viewBox="0 0 24 24" fill="none" xmlns="http://www.w3.org/2000/svg">
<path fill-rule="evenodd" clip-rule="evenodd" d="M8.97565 14.6329C8.97565 14.2187 9.31143 13.8829 9.72565 13.8829H14.2256C14.6399 13.8829 14.9756 14.2187 14.9756 14.6329V21.25C14.9756 21.6642 14.6399 22 14.2256 22H9.72565C9.31143 22 8.97565 21.6642 8.97565 21.25V14.6329ZM10.4756 15.3829V20.5H13.4756V15.3829H10.4756Z" fill="#101010"/>
<path fill-rule="evenodd" clip-rule="evenodd" d="M4.72565 9C5.13986 9 5.47565 9.33579 5.47565 9.75V20.5H18.4756V9.75C18.4756 9.33579 18.8114 9 19.2256 9C19.6399 9 19.9756 9.33579 19.9756 9.75V21.25C19.9756 21.6642 19.6399 22 19.2256 22H4.72565C4.31143 22 3.97565 21.6642 3.97565 21.25V9.75C3.97565 9.33579 4.31143 9 4.72565 9Z" fill="#101010"/>
<path fill-rule="evenodd" clip-rule="evenodd" d="M2 5.91213C2 5.49792 2.33579 5.16213 2.75 5.16213H7.36803C7.78225 5.16213 8.11803 5.49792 8.11803 5.91213V7.41665C8.11803 9.09159 6.76531 10.4443 5.09036 10.4443H5.02767C3.35273 10.4443 2 9.09159 2 7.41665V5.91213ZM3.5 6.66213V7.41665C3.5 8.26317 4.18116 8.94432 5.02767 8.94432H5.09036C5.93688 8.94432 6.61803 8.26317 6.61803 7.41665V6.66213H3.5Z" fill="#101010"/>
<path fill-rule="evenodd" clip-rule="evenodd" d="M6.61806 5.91224C6.61806 5.49803 6.95382 5.16213 7.36803 5.16213L11.9861 5.16224C12.4003 5.16224 12.7361 5.49803 12.7361 5.91224V7.41676C12.7361 9.0917 11.3834 10.4444 9.70842 10.4444H9.64573C7.97079 10.4444 6.61803 9.09159 6.61803 7.41665L6.61806 5.91224ZM8.11806 6.66224L8.11803 7.41665C8.11803 8.26317 8.79922 8.94443 9.64573 8.94443H9.70842C10.5549 8.94443 11.2361 8.26328 11.2361 7.41676V6.66224H8.11806Z" fill="#101010"/>
<path fill-rule="evenodd" clip-rule="evenodd" d="M11.243 5.91224C11.243 5.49803 11.5788 5.16224 11.993 5.16224H16.6111C17.0253 5.16224 17.3611 5.49803 17.3611 5.91224V7.41676C17.3611 9.0932 15.9999 10.4444 14.3334 10.4444H14.2707C12.5958 10.4444 11.243 9.0917 11.243 7.41676V5.91224ZM12.743 6.66224V7.41676C12.743 8.26328 13.4242 8.94443 14.2707 8.94443H14.3334C15.1745 8.94443 15.8611 8.26178 15.8611 7.41676V6.66224H12.743Z" fill="#101010"/>
<path fill-rule="evenodd" clip-rule="evenodd" d="M15.8332 5.90529C15.8332 5.49107 16.169 5.15529 16.5832 5.15529H21.2013C21.6155 5.15529 21.9513 5.49107 21.9513 5.90529V7.44965C21.9593 9.10675 20.6179 10.4444 18.9654 10.4444H18.9027C17.2069 10.4444 15.8332 9.07082 15.8332 7.37498V5.90529ZM17.3332 6.65529V7.37498C17.3332 8.24239 18.0353 8.94444 18.9027 8.94444H18.9654C19.7918 8.94444 20.4559 8.27733 20.4513 7.45581L20.4513 7.4516L20.4513 6.65529H17.3332Z" fill="#101010"/>
<path fill-rule="evenodd" clip-rule="evenodd" d="M3.7128 2.40696C3.84133 2.15708 4.09875 2.00001 4.37975 2.00001H19.5712C19.8527 2.00001 20.1104 2.1576 20.2388 2.40813L21.8547 5.56344C21.9738 5.79594 21.9633 6.07366 21.8271 6.29653C21.6908 6.5194 21.4484 6.65532 21.1872 6.65532H2.75682C2.49536 6.65532 2.25278 6.51916 2.11659 6.29597C1.98041 6.07278 1.97028 5.79478 2.08987 5.56227L3.7128 2.40696ZM4.83738 3.50001L3.98598 5.15532H19.9604L19.1127 3.50001H4.83738Z" fill="#101010"/>
</svg>
