<svg width="24" height="24" viewBox="0 0 24 24" fill="none" xmlns="http://www.w3.org/2000/svg">
<path d="M9.56584 19.1935V17.7266H8.31584V19.1935" fill="#7E7E7E"/>
<path fill-rule="evenodd" clip-rule="evenodd" d="M9.56584 19.1935V17.7266H8.31584V19.1935H9.56584Z" fill="#101010"/>
<path fill-rule="evenodd" clip-rule="evenodd" d="M4.75 5.50967C4.05964 5.50967 3.5 6.06932 3.5 6.75967V15.3763C3.5 16.0667 4.05964 16.6263 4.75 16.6263H19.25C19.9404 16.6263 20.5 16.0667 20.5 15.3763V6.75967C20.5 6.06932 19.9404 5.50967 19.25 5.50967H4.75ZM2 6.75967C2 5.24089 3.23122 4.00967 4.75 4.00967H19.25C20.7688 4.00967 22 5.24089 22 6.75967V15.3763C22 16.8951 20.7688 18.1263 19.25 18.1263H4.75C3.23122 18.1263 2 16.8951 2 15.3763V6.75967Z" fill="#101010"/>
<path fill-rule="evenodd" clip-rule="evenodd" d="M5.45862 19.7633C5.45908 19.349 5.79525 19.0136 6.20946 19.0141L17.7898 19.0271C18.204 19.0276 18.5394 19.3637 18.539 19.7779C18.5385 20.1921 18.2023 20.5276 17.7881 20.5271L6.20778 20.5141C5.79356 20.5136 5.45815 20.1775 5.45862 19.7633Z" fill="#101010"/>
<path d="M15.6817 19.1808V17.7266H14.4317V19.1808" fill="#7E7E7E"/>
<path fill-rule="evenodd" clip-rule="evenodd" d="M15.6817 19.1808V17.7266H14.4317V19.1808H15.6817Z" fill="#101010"/>
</svg>
