<svg width="24" height="24" viewBox="0 0 24 24" fill="none" xmlns="http://www.w3.org/2000/svg">
<path d="M21.25 12C21.25 17.1086 17.1086 21.25 12 21.25C6.89137 21.25 2.75 17.1086 2.75 12C2.75 6.89137 6.89137 2.75 12 2.75C17.1086 2.75 21.25 6.89137 21.25 12Z" fill="white"/>
<path fill-rule="evenodd" clip-rule="evenodd" d="M12 3.5C7.30558 3.5 3.5 7.30558 3.5 12C3.5 16.6944 7.30558 20.5 12 20.5C16.6944 20.5 20.5 16.6944 20.5 12C20.5 7.30558 16.6944 3.5 12 3.5ZM2 12C2 6.47715 6.47715 2 12 2C17.5228 2 22 6.47715 22 12C22 17.5228 17.5228 22 12 22C6.47715 22 2 17.5228 2 12Z" fill="#101010"/>
<path fill-rule="evenodd" clip-rule="evenodd" d="M17 12C17 12.4142 16.6642 12.75 16.25 12.75H7.75C7.33579 12.75 7 12.4142 7 12C7 11.5858 7.33579 11.25 7.75 11.25H16.25C16.6642 11.25 17 11.5858 17 12Z" fill="#101010"/>
</svg>
