<svg width="24" height="24" viewBox="0 0 24 24" fill="none" xmlns="http://www.w3.org/2000/svg">
<path d="M12 22C17.5 22 22 17.5 22 12C22 6.5 17.5 2 12 2C6.5 2 2 6.5 2 12C2 17.5 6.5 22 12 22Z" fill="#21C179"/>
<path fill-rule="evenodd" clip-rule="evenodd" d="M16.7347 8.97484C17.0247 9.27057 17.0201 9.74542 16.7244 10.0355L11.5244 15.1355C11.2353 15.419 10.7734 15.4219 10.4808 15.142L8.1808 12.942C7.88147 12.6557 7.87092 12.1809 8.15724 11.8816C8.44355 11.5823 8.91831 11.5717 9.21764 11.858L10.9927 13.5559L15.6741 8.96455C15.9698 8.67451 16.4446 8.67912 16.7347 8.97484Z" fill="white"/>
</svg>
