<svg width="24" height="24" viewBox="0 0 24 24" fill="none" xmlns="http://www.w3.org/2000/svg">
<path fill-rule="evenodd" clip-rule="evenodd" d="M15.5172 16.2751H21.0126C21.7681 16.2751 22.2428 15.4603 21.8704 14.8031L15.1819 2.99985C14.8042 2.33338 13.844 2.33338 13.4663 2.99986L10.819 7.67158C10.2102 7.49586 9.56688 7.4017 8.90151 7.4017C5.08991 7.4017 2 10.4916 2 14.3032C2 18.1148 5.08991 21.2047 8.90151 21.2047C12.0279 21.2047 14.6688 19.1259 15.5172 16.2751ZM14.302 14.7962H8.48159L11.4684 9.52541C13.1685 10.4407 14.3241 12.237 14.3241 14.3032C14.3241 14.4694 14.3167 14.6338 14.302 14.7962ZM13.9545 16.2751H7.63563C6.88018 16.2751 6.4054 15.4603 6.77785 14.8031L10.0632 9.00533C9.68898 8.92364 9.30027 8.8806 8.90151 8.8806C5.90668 8.8806 3.4789 11.3084 3.4789 14.3032C3.4789 17.298 5.90668 19.7258 8.90151 19.7258C11.2007 19.7258 13.1656 18.2949 13.9545 16.2751ZM15.7857 14.7962C15.7972 14.6334 15.803 14.469 15.803 14.3032C15.803 11.6854 14.3455 9.40802 12.1978 8.23825L14.3241 4.48584L20.1667 14.7962H15.7857Z" fill="#101010"/>
</svg>
