<svg width="24" height="24" viewBox="0 0 24 24" fill="none" xmlns="http://www.w3.org/2000/svg">
<path fill-rule="evenodd" clip-rule="evenodd" d="M20.4585 13.067C20.8634 13.1545 21.1206 13.5537 21.0331 13.9585C20.1611 17.9915 16.5655 21.05 12.3 21.05C8.04811 21.05 4.44183 18.1049 3.56695 14.0586C3.47941 13.6537 3.73665 13.2545 4.14151 13.167C4.54636 13.0795 4.94553 13.3367 5.03307 13.7416C5.75818 17.0952 8.75191 19.55 12.3 19.55C15.8345 19.55 18.8389 17.0086 19.5669 13.6415C19.6545 13.2367 20.0536 12.9795 20.4585 13.067Z" fill="#101010"/>
<path fill-rule="evenodd" clip-rule="evenodd" d="M3.57126 10.0228C4.54809 6.00692 8.03365 3.05005 12.3 3.05005C16.2325 3.05005 19.5092 5.56515 20.7093 9.05624L20.7115 9.06287C20.7804 9.26949 20.8136 9.46949 20.8371 9.6107L20.8398 9.62675C20.8662 9.78489 20.883 9.87747 20.9115 9.96289C21.0425 10.3558 20.8301 10.7806 20.4372 10.9116C20.0442 11.0426 19.6195 10.8302 19.4885 10.4372C19.4196 10.2306 19.3864 10.0306 19.3629 9.88943L19.3602 9.87336C19.3342 9.717 19.3173 9.62473 19.2894 9.54011C18.2885 6.63315 15.5661 4.55005 12.3 4.55005C8.76636 4.55005 5.85192 6.9932 5.02876 10.3773C4.93086 10.7798 4.52522 11.0267 4.12274 10.9288C3.72026 10.8309 3.47336 10.4253 3.57126 10.0228Z" fill="#101010"/>
<path fill-rule="evenodd" clip-rule="evenodd" d="M21.8254 6.9243C22.1986 7.10399 22.3554 7.55221 22.1758 7.92541L20.8758 10.6254C20.7878 10.8081 20.6296 10.9474 20.4373 11.0115C20.2449 11.0757 20.0348 11.0592 19.8548 10.9659L17.1548 9.56587C16.787 9.3752 16.6435 8.92254 16.8342 8.55482C17.0249 8.1871 17.4775 8.04357 17.8452 8.23424L19.8594 9.27861L20.8243 7.27469C21.0039 6.90148 21.4522 6.74461 21.8254 6.9243Z" fill="#101010"/>
<path fill-rule="evenodd" clip-rule="evenodd" d="M3.73419 13.3548C3.92288 12.9909 4.36878 12.8459 4.73542 13.0292L7.33541 14.3292C7.7059 14.5145 7.85607 14.965 7.67082 15.3355C7.48558 15.706 7.03508 15.8561 6.66459 15.6709L4.72562 14.7014L3.66582 16.7453C3.47515 17.113 3.02248 17.2565 2.65476 17.0659C2.28704 16.8752 2.14352 16.4225 2.33419 16.0548L3.73419 13.3548Z" fill="#101010"/>
</svg>
