<svg width="24" height="24" viewBox="0 0 24 24" fill="none" xmlns="http://www.w3.org/2000/svg">
<path d="M7.35577 6.47005C7.73576 6.01381 8.29881 5.75 8.89256 5.75H19.25C20.3546 5.75 21.25 6.64543 21.25 7.75V16.25C21.25 17.3546 20.3546 18.25 19.25 18.25H8.89256C8.29881 18.25 7.73576 17.9862 7.35577 17.53L2.75 12L7.35577 6.47005Z" fill="white"/>
<path fill-rule="evenodd" clip-rule="evenodd" d="M6.77947 5.99006C7.30195 5.36274 8.07615 5 8.89256 5H19.25C20.7688 5 22 6.23122 22 7.75V16.25C22 17.7688 20.7688 19 19.25 19H8.89256C8.07615 19 7.30195 18.6373 6.77947 18.0099L2.1737 12.48C1.9421 12.2019 1.9421 11.7981 2.1737 11.52L6.77947 5.99006ZM8.89256 6.5C8.52146 6.5 8.16956 6.66488 7.93207 6.95003L3.72606 12L7.93207 17.05C8.16956 17.3351 8.52146 17.5 8.89256 17.5H19.25C19.9404 17.5 20.5 16.9404 20.5 16.25V7.75C20.5 7.05965 19.9404 6.5 19.25 6.5H8.89256Z" fill="#101010"/>
<path d="M10.288 12.0569C10.288 12.7908 9.69307 13.3858 8.95914 13.3858C8.22522 13.3858 7.63025 12.7908 7.63025 12.0569C7.63025 11.323 8.22522 10.728 8.95914 10.728C9.69307 10.728 10.288 11.323 10.288 12.0569Z" fill="#101010"/>
<path d="M14.629 12.0569C14.629 12.7908 14.034 13.3858 13.3001 13.3858C12.5662 13.3858 11.9712 12.7908 11.9712 12.0569C11.9712 11.323 12.5662 10.728 13.3001 10.728C14.034 10.728 14.629 11.323 14.629 12.0569Z" fill="#101010"/>
<path d="M18.97 12.0569C18.97 12.7908 18.375 13.3858 17.6411 13.3858C16.9071 13.3858 16.3122 12.7908 16.3122 12.0569C16.3122 11.323 16.9071 10.728 17.6411 10.728C18.375 10.728 18.97 11.323 18.97 12.0569Z" fill="#101010"/>
</svg>
