<svg width="24" height="24" viewBox="0 0 24 24" fill="none" xmlns="http://www.w3.org/2000/svg">
<g clip-path="url(#clip0_431_416)">
<path fill-rule="evenodd" clip-rule="evenodd" d="M17.9749 14.794L18.4927 15.426C18.653 15.6217 18.6578 15.9019 18.5042 16.1029L17.6631 17.2041C17.5086 17.4063 17.235 17.4749 17.0035 17.3696L16.2416 17.023C15.9673 16.8969 15.6459 16.9255 15.3921 17.0947C15.3038 17.1545 15.2132 17.211 15.1235 17.266C14.8561 17.4241 14.69 17.7071 14.683 18.0175L14.667 18.8554C14.6621 19.1073 14.4856 19.3231 14.2397 19.3777L12.9077 19.6733C12.657 19.729 12.4015 19.6023 12.2939 19.3691L11.9473 18.6173C11.8205 18.3385 11.555 18.1519 11.2532 18.1178C11.1439 18.1071 11.037 18.0917 10.9278 18.0732C10.6265 18.0236 10.3204 18.1334 10.1187 18.366L9.57958 18.9868C9.41241 19.1793 9.13421 19.2304 8.90957 19.1098L7.71817 18.4703C7.49382 18.3499 7.38258 18.0903 7.45013 17.8448L7.66512 17.0634C7.74879 16.7635 7.6682 16.4449 7.45654 16.2228C7.45493 16.2211 7.45339 16.2192 7.45197 16.2173C7.44894 16.2134 7.44488 16.2105 7.44143 16.2069C7.23418 15.9918 6.93298 15.8976 6.63765 15.962L5.87523 16.1248C5.62413 16.1785 5.36962 16.0498 5.26396 15.8158L4.70277 14.5729C4.59905 14.3432 4.66616 14.0724 4.86512 13.9177L5.48701 13.4341C5.72751 13.2459 5.85712 12.9435 5.8253 12.6401C5.81302 12.5091 5.80308 12.3774 5.79852 12.2466C5.78694 11.9382 5.61604 11.6617 5.34701 11.5147L4.68933 11.155C4.46589 11.0328 4.35671 10.7723 4.42625 10.5273L4.80387 9.19701C4.87294 8.95368 5.10018 8.78973 5.35287 8.80091L6.10898 8.83435C6.41299 8.84586 6.70554 8.69919 6.87703 8.44271C6.9554 8.32833 7.03599 8.2171 7.11881 8.10904C7.31006 7.86307 7.35919 7.53956 7.24971 7.25023L6.98862 6.55556C6.90007 6.31997 6.98416 6.05438 7.19216 5.91267L8.33154 5.13643C8.54332 4.99214 8.82697 5.01468 9.01331 5.19059L9.55652 5.70341C9.77737 5.9117 10.0933 5.98882 10.387 5.90598C10.5172 5.86656 10.651 5.83499 10.7832 5.8065C11.0857 5.74018 11.3309 5.52485 11.4354 5.2328L11.6853 4.52545C11.7695 4.28697 12.0065 4.13763 12.258 4.16464L13.6078 4.30961C13.863 4.33702 14.0646 4.53859 14.092 4.79378L14.1766 5.58014C14.2093 5.87805 14.3877 6.13685 14.654 6.27057C14.7721 6.32739 14.8961 6.39135 15.0101 6.45199C15.2786 6.59275 15.6002 6.58205 15.8637 6.42779L16.5307 6.0331C16.7511 5.90267 17.0326 5.94311 17.2074 6.13032L18.1324 7.12107C18.3055 7.30649 18.328 7.58678 18.1867 7.79744L17.7325 8.47433C17.5634 8.73008 17.5352 9.0509 17.6574 9.32725C17.7051 9.43559 17.7512 9.54701 17.7926 9.65989C17.9021 9.94922 18.1507 10.1604 18.4557 10.214L19.2252 10.3474C19.4777 10.3912 19.6657 10.6048 19.6771 10.8608L19.738 12.2355C19.7492 12.4869 19.5869 12.7134 19.3452 12.7836L18.5367 13.0185C18.246 13.103 18.0174 13.3311 17.9313 13.6251C17.9011 13.7295 17.8671 13.8339 17.83 13.9366C17.7261 14.231 17.7789 14.5574 17.9749 14.794Z" fill="white" stroke="black" stroke-width="1.5" stroke-linecap="round" stroke-linejoin="round"/>
<mask id="path-2-outside-1_431_416" maskUnits="userSpaceOnUse" x="7.81149" y="7.77793" width="16.2635" height="16.2635" fill="black">
<rect fill="white" x="7.81149" y="7.77793" width="16.2635" height="16.2635"/>
<path fill-rule="evenodd" clip-rule="evenodd" d="M11.2074 16.1236C10.4405 15.3567 10.1102 14.3183 10.2168 13.3177C10.2675 12.8407 10.8371 12.7185 11.1771 13.0567L12.8985 14.7687C13.1626 15.0314 13.5896 15.0309 13.8531 14.7674L14.8659 13.7546C15.1304 13.4901 15.1298 13.0611 14.8646 12.7974L13.2503 11.1918C12.8975 10.841 13.0427 10.2528 13.5399 10.2375C14.4577 10.2094 15.3845 10.5456 16.085 11.2461C16.999 12.1601 17.2928 13.4595 16.9663 14.6212C16.8913 14.888 16.9416 15.1822 17.1375 15.3781L20.0644 18.305C20.6081 18.8487 20.6081 19.7301 20.0644 20.2737C19.5208 20.8174 18.6394 20.8174 18.0957 20.2737L15.0672 17.2452C14.8846 17.0626 14.6149 17.0057 14.3623 17.0591C13.2592 17.2921 12.0641 16.9803 11.2074 16.1236Z"/>
</mask>
<path fill-rule="evenodd" clip-rule="evenodd" d="M11.2074 16.1236C10.4405 15.3567 10.1102 14.3183 10.2168 13.3177C10.2675 12.8407 10.8371 12.7185 11.1771 13.0567L12.8985 14.7687C13.1626 15.0314 13.5896 15.0309 13.8531 14.7674L14.8659 13.7546C15.1304 13.4901 15.1298 13.0611 14.8646 12.7974L13.2503 11.1918C12.8975 10.841 13.0427 10.2528 13.5399 10.2375C14.4577 10.2094 15.3845 10.5456 16.085 11.2461C16.999 12.1601 17.2928 13.4595 16.9663 14.6212C16.8913 14.888 16.9416 15.1822 17.1375 15.3781L20.0644 18.305C20.6081 18.8487 20.6081 19.7301 20.0644 20.2737C19.5208 20.8174 18.6394 20.8174 18.0957 20.2737L15.0672 17.2452C14.8846 17.0626 14.6149 17.0057 14.3623 17.0591C13.2592 17.2921 12.0641 16.9803 11.2074 16.1236Z" fill="#101010"/>
<path d="M14.3623 17.0591L14.1556 16.0807L14.3623 17.0591ZM16.9663 14.6212L16.0036 14.3507L16.9663 14.6212ZM13.5399 10.2375L13.5706 11.2371L13.5399 10.2375ZM14.8646 12.7974L14.1594 13.5064L14.8646 12.7974ZM9.22237 13.2118C9.08524 14.5 9.51068 15.8411 10.5003 16.8307L11.9146 15.4165C11.3703 14.8722 11.1352 14.1366 11.2111 13.4235L9.22237 13.2118ZM13.6037 14.0597L11.8823 12.3477L10.472 13.7657L12.1933 15.4777L13.6037 14.0597ZM14.1588 13.0475L13.146 14.0603L14.5602 15.4745L15.573 14.4617L14.1588 13.0475ZM12.5451 11.9008L14.1594 13.5064L15.5698 12.0884L13.9554 10.4828L12.5451 11.9008ZM16.7921 10.539C15.8886 9.63542 14.6913 9.20177 13.5093 9.23799L13.5706 11.2371C14.2241 11.217 14.8805 11.4557 15.3779 11.9532L16.7921 10.539ZM17.929 14.8918C18.3494 13.3961 17.9721 11.7189 16.7921 10.539L15.3779 11.9532C16.026 12.6013 16.2362 13.5229 16.0036 14.3507L17.929 14.8918ZM16.4304 16.0852L19.3573 19.0121L20.7715 17.5979L17.8446 14.671L16.4304 16.0852ZM19.3573 19.0121C19.5104 19.1653 19.5104 19.4135 19.3573 19.5666L20.7715 20.9809C21.7057 20.0467 21.7057 18.5321 20.7715 17.5979L19.3573 19.0121ZM19.3573 19.5666C19.2042 19.7198 18.9559 19.7198 18.8028 19.5666L17.3886 20.9809C18.3228 21.915 19.8374 21.915 20.7715 20.9809L19.3573 19.5666ZM18.8028 19.5666L15.7743 16.5381L14.36 17.9523L17.3886 20.9809L18.8028 19.5666ZM10.5003 16.8307C11.6061 17.9365 13.1491 18.3374 14.569 18.0375L14.1556 16.0807C13.3694 16.2467 12.5221 16.0241 11.9146 15.4165L10.5003 16.8307ZM15.7743 16.5381C15.3071 16.0709 14.6709 15.9718 14.1556 16.0807L14.569 18.0375C14.5571 18.04 14.5338 18.0426 14.499 18.0339C14.4617 18.0246 14.4089 18.0011 14.36 17.9523L15.7743 16.5381ZM16.0036 14.3507C15.8516 14.8913 15.9286 15.5834 16.4304 16.0852L17.8446 14.671C17.8969 14.7233 17.9205 14.7806 17.9288 14.82C17.9365 14.8563 17.9324 14.8798 17.929 14.8918L16.0036 14.3507ZM13.9554 10.4828C14.0291 10.556 14.0857 10.6939 14.0388 10.8601C14.0146 10.946 13.9599 11.0442 13.8621 11.1229C13.7599 11.2051 13.6494 11.2346 13.5706 11.2371L13.5093 9.23799C12.8013 9.25968 12.2802 9.72729 12.1139 10.3175C11.9583 10.8693 12.1187 11.4768 12.5451 11.9008L13.9554 10.4828ZM15.573 14.4617C16.2287 13.8059 16.2273 12.7423 15.5698 12.0884L14.1594 13.5064C14.0323 13.3799 14.032 13.1743 14.1588 13.0475L15.573 14.4617ZM12.1933 15.4777C12.8483 16.1292 13.9069 16.1277 14.5602 15.4745L13.146 14.0603C13.2723 13.934 13.477 13.9337 13.6037 14.0597L12.1933 15.4777ZM11.2111 13.4235C11.2027 13.5029 11.1659 13.6056 11.0841 13.6967C11.0058 13.7838 10.9124 13.8312 10.8315 13.8515C10.6751 13.8907 10.5448 13.8382 10.472 13.7657L11.8823 12.3477C11.4694 11.937 10.8843 11.7765 10.3455 11.9115C9.77376 12.0547 9.29498 12.5297 9.22237 13.2118L11.2111 13.4235Z" fill="white" mask="url(#path-2-outside-1_431_416)"/>
</g>
<defs>
<clipPath id="clip0_431_416">
<rect width="24" height="24" fill="white"/>
</clipPath>
</defs>
</svg>
