<svg width="24" height="24" viewBox="0 0 24 24" fill="none" xmlns="http://www.w3.org/2000/svg">
<path fill-rule="evenodd" clip-rule="evenodd" d="M10.85 3.37286L7.89863 7.25178C7.6967 7.52212 7.54999 7.963 7.54999 8.29997V16.6C7.54999 17.7042 8.43245 18.55 9.39999 18.55H16C16.5541 18.55 17.0831 18.179 17.2885 17.5628C17.2969 17.5377 17.3066 17.513 17.3176 17.4889L20.4176 10.6889C20.4274 10.6673 20.4382 10.6463 20.45 10.6258V8.32013C20.445 8.31054 20.4352 8.29583 20.4197 8.2803C20.4041 8.26477 20.3894 8.25498 20.3798 8.24997H13.2C11.8858 8.24997 10.85 7.21418 10.85 5.89997V3.37286ZM11.5272 1.30616C11.9913 1.4719 12.35 1.9231 12.35 2.49997V5.89997C12.35 6.38576 12.7142 6.74997 13.2 6.74997H20.4C20.8439 6.74997 21.2251 6.96438 21.4803 7.21964C21.7356 7.4749 21.95 7.85604 21.95 8.29997V10.7C21.95 10.7038 21.95 10.708 21.95 10.7125C21.9504 10.8213 21.9516 11.1154 21.7412 11.4015L18.6978 18.0774C18.2925 19.2397 17.2317 20.05 16 20.05H9.39999C7.56753 20.05 6.04999 18.4957 6.04999 16.6V8.29997C6.04999 7.63769 6.30262 6.87979 6.69999 6.34997L6.7031 6.34582L10.1698 1.7896C10.4789 1.26282 11.0722 1.14366 11.5272 1.30616Z" fill="#101010"/>
<path fill-rule="evenodd" clip-rule="evenodd" d="M2.79999 6.94997C3.2142 6.94997 3.54999 7.28575 3.54999 7.69997V19.3C3.54999 19.7142 3.2142 20.05 2.79999 20.05C2.38577 20.05 2.04999 19.7142 2.04999 19.3V7.69997C2.04999 7.28575 2.38577 6.94997 2.79999 6.94997Z" fill="#101010"/>
</svg>
