<svg width="24" height="24" viewBox="0 0 24 24" fill="none" xmlns="http://www.w3.org/2000/svg">
<path fill-rule="evenodd" clip-rule="evenodd" d="M13.15 20.6271L16.1014 16.7482C16.3033 16.4779 16.45 16.037 16.45 15.7L16.45 7.40003C16.45 6.29576 15.5676 5.45003 14.6 5.45003L8.00001 5.45003C7.44592 5.45003 6.91694 5.82097 6.71153 6.4372C6.70315 6.46234 6.69344 6.48702 6.68244 6.51114L3.58244 13.3111C3.57262 13.3327 3.56179 13.3537 3.55001 13.3742L3.55001 15.6799C3.55502 15.6895 3.56481 15.7042 3.58034 15.7197C3.59587 15.7352 3.61058 15.745 3.62018 15.75L10.8 15.75C12.1142 15.75 13.15 16.7858 13.15 18.1L13.15 20.6271ZM12.4728 22.6938C12.0087 22.5281 11.65 22.0769 11.65 21.5L11.65 18.1C11.65 17.6142 11.2858 17.25 10.8 17.25L3.60001 17.25C3.15609 17.25 2.77494 17.0356 2.51968 16.7804C2.26442 16.5251 2.05001 16.1439 2.05001 15.7L2.05001 13.3C2.05001 13.2962 2.05 13.292 2.04998 13.2875C2.04956 13.1787 2.04842 12.8846 2.25881 12.5985L5.30222 5.92261C5.70747 4.76034 6.76827 3.95003 8.00001 3.95003L14.6 3.95003C16.4325 3.95003 17.95 5.5043 17.95 7.40003L17.95 15.7C17.95 16.3623 17.6974 17.1202 17.3 17.65L17.2969 17.6542L13.8302 22.2104C13.5211 22.7372 12.9278 22.8563 12.4728 22.6938Z" fill="#101010"/>
<path fill-rule="evenodd" clip-rule="evenodd" d="M21.2 17.05C20.7858 17.05 20.45 16.7142 20.45 16.3L20.45 4.70003C20.45 4.28581 20.7858 3.95003 21.2 3.95003C21.6142 3.95003 21.95 4.28581 21.95 4.70003L21.95 16.3C21.95 16.7142 21.6142 17.05 21.2 17.05Z" fill="#101010"/>
</svg>
