<svg width="24" height="24" viewBox="0 0 24 24" fill="none" xmlns="http://www.w3.org/2000/svg">
<path fill-rule="evenodd" clip-rule="evenodd" d="M12 3.5C7.30558 3.5 3.5 7.30558 3.5 12C3.5 16.6944 7.30558 20.5 12 20.5C16.6944 20.5 20.5 16.6944 20.5 12C20.5 7.30558 16.6944 3.5 12 3.5ZM2 12C2 6.47715 6.47715 2 12 2C17.5229 2 22 6.47715 22 12C22 17.5228 17.5229 22 12 22C6.47715 22 2 17.5228 2 12Z" fill="#101010"/>
<path fill-rule="evenodd" clip-rule="evenodd" d="M11.95 7.20001C12.3642 7.20001 12.7 7.5358 12.7 7.95001V11.6394L14.4803 13.4197C14.7732 13.7126 14.7732 14.1874 14.4803 14.4803C14.1874 14.7732 13.7125 14.7732 13.4196 14.4803L11.4196 12.4803C11.279 12.3397 11.2 12.1489 11.2 11.95V7.95001C11.2 7.5358 11.5357 7.20001 11.95 7.20001Z" fill="#101010"/>
</svg>
