<svg width="24" height="24" viewBox="0 0 24 24" fill="none" xmlns="http://www.w3.org/2000/svg">
<path d="M5 19.5V4L6.5 3H15L18.5 7V17.5L16.5 21H6L5 19.5Z" fill="white"/>
<path d="M14.7716 2.75H6.92309C5.68975 2.75 4.68066 3.75909 4.68066 4.99242V19.0076C4.68066 20.2409 5.68975 21.25 6.92309 21.25H16.4534C17.6867 21.25 18.6958 20.2409 18.6958 19.0076V7.01061L14.7716 2.75ZM14.7716 2.75V7.01061H18.4716" stroke="#101010" stroke-width="1.5" stroke-miterlimit="10" stroke-linecap="round" stroke-linejoin="round"/>
<path d="M7.42554 6.76857C7.27655 6.76857 7.16677 6.72936 7.0962 6.64311C7.03347 6.56469 6.99426 6.4706 6.99426 6.36082C6.99426 6.25888 7.02563 6.16478 7.0962 6.08637C7.16677 6.00796 7.27655 5.96875 7.42554 5.96875H11.5187C11.6677 5.96875 11.7775 6.00796 11.8481 6.09421C11.9186 6.18047 11.95 6.26672 11.95 6.3765C11.95 6.47844 11.9186 6.57254 11.8481 6.65095C11.7775 6.72936 11.6677 6.76857 11.5187 6.76857H10.9228C10.664 6.76857 10.4445 6.76857 10.272 6.76073C10.0916 6.75289 9.98967 6.74505 9.95046 6.7372V6.78425C10.1073 6.85482 10.2563 6.9646 10.4053 7.12143C10.5542 7.27826 10.664 7.47429 10.7346 7.71738H11.5187C11.6677 7.71738 11.7775 7.75658 11.8481 7.84284C11.9186 7.92909 11.95 8.01535 11.95 8.12513C11.95 8.22706 11.9186 8.32116 11.8481 8.39957C11.7775 8.47799 11.6677 8.51719 11.5187 8.51719H10.7895C10.7503 8.86222 10.664 9.15235 10.515 9.39543C10.3661 9.63851 10.1857 9.84239 9.98182 9.99921C9.77011 10.156 9.54271 10.2737 9.28394 10.3599C9.03302 10.4462 8.7821 10.4932 8.53901 10.5167L11.0404 12.9554C11.158 13.073 11.2208 13.2063 11.2208 13.3632C11.2208 13.5043 11.1737 13.6219 11.0875 13.7239C11.0012 13.818 10.8757 13.8729 10.7189 13.8729C10.6405 13.8729 10.5621 13.8572 10.4837 13.8336C10.4053 13.8101 10.3268 13.7552 10.2484 13.669L7.30792 10.752C7.2295 10.6736 7.16677 10.603 7.12757 10.5246C7.08836 10.4462 7.07268 10.3678 7.07268 10.2815C7.07268 10.1404 7.11972 10.0227 7.20598 9.92864C7.29224 9.83455 7.40986 9.7875 7.551 9.7875H7.69214C7.91954 9.7875 8.14694 9.76397 8.37434 9.72477C8.60174 9.68556 8.80562 9.61499 8.98597 9.51305C9.16632 9.41111 9.32315 9.28565 9.44861 9.12882C9.57407 8.97199 9.65249 8.77596 9.69169 8.53288H7.42554C7.27655 8.53288 7.16677 8.49367 7.0962 8.40742C7.02563 8.32116 6.99426 8.23491 6.99426 8.12513C6.99426 8.02319 7.02563 7.92909 7.0962 7.85068C7.16677 7.77227 7.27655 7.73306 7.42554 7.73306H9.61328C9.42509 7.10575 8.86051 6.79209 7.91954 6.79209H7.42554V6.76857Z" fill="#101010"/>
<circle cx="18" cy="19" r="4.5" fill="#101010" stroke="white"/>
<path d="M17.9576 17.4399V19.5139L18.9947 20.551" stroke="white" stroke-miterlimit="10" stroke-linecap="round" stroke-linejoin="round"/>
</svg>
