<svg width="24" height="24" viewBox="0 0 24 24" fill="none" xmlns="http://www.w3.org/2000/svg">
<path d="M20.5 12C20.5 7.3056 16.6944 3.5 12 3.5C7.30558 3.5 3.5 7.3056 3.5 12C3.50002 16.6944 7.30559 20.5 12 20.5C16.6944 20.5 20.5 16.6944 20.5 12ZM22 12C22 17.5228 17.5228 22 12 22C6.47717 22 2.00002 17.5228 2 12C2 6.47717 6.47715 2 12 2C17.5228 2 22 6.47717 22 12Z" fill="#101010"/>
<path d="M7.78837 9.60809L14.1214 9.60809L13.1458 8.50653C12.8713 8.19632 12.9 7.72241 13.2102 7.44794C13.5205 7.17348 13.9944 7.20221 14.2688 7.51239L16.347 9.862C16.5423 10.083 16.5902 10.3978 16.469 10.6667C16.3478 10.9356 16.0804 11.1081 15.7854 11.1081H7.78837C7.37416 11.1081 7.03837 10.7723 7.03837 10.3581C7.03859 9.94407 7.37429 9.60809 7.78837 9.60809Z" fill="#101010"/>
<path d="M15.7854 14.4108H9.45235L10.4279 15.5124C10.7024 15.8226 10.6737 16.2965 10.3635 16.571C10.0533 16.8454 9.57937 16.8167 9.30489 16.5065L7.22677 14.1569C7.0314 13.936 6.98356 13.6212 7.1047 13.3522C7.22591 13.0834 7.49334 12.9108 7.78829 12.9108H15.7854C16.1996 12.9108 16.5354 13.2466 16.5354 13.6608C16.5351 14.0749 16.1994 14.4108 15.7854 14.4108Z" fill="#101010"/>
</svg>
