<svg width="24" height="24" viewBox="0 0 24 24" fill="none" xmlns="http://www.w3.org/2000/svg">
<path d="M18.5718 15.0636C18.5718 15.4777 18.236 15.8135 17.8219 15.8135C17.4078 15.8134 17.0721 15.4777 17.072 15.0636L17.0727 7.9891L6.69742 18.3644C6.40461 18.657 5.92962 18.6569 5.63676 18.3644C5.34392 18.0715 5.34404 17.5966 5.63676 17.3037L16.0348 6.90565L8.95547 6.9098L8.87882 6.90635C8.50073 6.86811 8.20518 6.54877 8.20486 6.16057C8.20472 5.77232 8.49998 5.4527 8.87813 5.4141L8.95478 5.41065L17.8212 5.40374C18.0202 5.40361 18.2115 5.48339 18.3523 5.62402C18.4928 5.76466 18.5718 5.9555 18.5718 6.15435L18.5718 15.0636Z" fill="#101010"/>
</svg>
