<svg width="24" height="24" viewBox="0 0 24 24" fill="none" xmlns="http://www.w3.org/2000/svg">
<path d="M8.52018 18.1547C8.10607 18.1546 7.77034 17.8189 7.77027 17.4047C7.77039 16.9907 8.1061 16.6549 8.52018 16.6548L15.5947 16.6555L5.21943 6.28024C4.92681 5.98744 4.9269 5.51244 5.21943 5.21958C5.51227 4.92675 5.98718 4.92686 6.28009 5.21958L16.6782 15.6176L16.674 8.53829L16.6775 8.46164C16.7157 8.08356 17.035 7.78801 17.4232 7.78768C17.8115 7.78755 18.1311 8.08281 18.1697 8.46095L18.1732 8.5376L18.1801 17.4041C18.1802 17.603 18.1004 17.7943 17.9598 17.9351C17.8191 18.0756 17.6283 18.1547 17.4295 18.1547L8.52018 18.1547Z" fill="#101010"/>
</svg>
