<svg width="24" height="24" viewBox="0 0 24 24" fill="none" xmlns="http://www.w3.org/2000/svg">
<path d="M1.97076 9.42305H3.14867L1.79801 14.0229H6.61955L7.9388 9.42305H9.14811L7.6561 14.6197C7.56187 14.9836 7.24776 15.1729 6.71378 15.1729C6.16409 15.1729 4.23233 15.1729 0.918507 15.1729C0.494462 15.1729 0.36882 14.8672 0.557284 14.2413C0.714337 13.6153 1.2012 12.0141 1.97076 9.42305Z" fill="#101010"/>
<path d="M9.90141 9.43747C13.4194 9.43747 15.4768 9.43747 16.0736 9.43747C16.6704 9.43747 16.9531 9.59759 16.9217 9.93239C16.5919 11.1551 16.372 11.9412 16.2464 12.2906C16.1207 12.6545 15.8851 12.8583 15.5082 12.9019H10.0428L9.39884 15.1727H8.22094L9.24178 11.7665H15.1784L15.5239 10.5147H9.55589L9.90141 9.43747Z" fill="#101010"/>
<path d="M18.0223 9.42326H19.1688L17.5354 15.1731H16.3418L18.0223 9.42326Z" fill="#101010"/>
<path fill-rule="evenodd" clip-rule="evenodd" d="M21.9801 9.4823L20.3468 15.1739L23.4721 12.3208L21.9801 9.4823Z" fill="#008B44"/>
<path fill-rule="evenodd" clip-rule="evenodd" d="M20.9118 9.48222L19.2784 15.1738L22.4038 12.3207L20.9118 9.48222Z" fill="#F37820"/>
</svg>
