<svg width="24" height="24" viewBox="0 0 24 24" fill="none" xmlns="http://www.w3.org/2000/svg">
<path fill-rule="evenodd" clip-rule="evenodd" d="M12.7603 2.44024C12.6214 2.29832 12.4313 2.21835 12.2329 2.21835C12.0345 2.21835 11.8444 2.29832 11.7055 2.44024L7.01141 7.23666C6.72596 7.52833 6.73068 7.9965 7.02196 8.28234C7.31324 8.56818 7.78077 8.56345 8.06622 8.27178L11.4945 4.76878V14.9489C11.4945 15.3572 11.8251 15.6883 12.2329 15.6883C12.6407 15.6883 12.9714 15.3572 12.9714 14.9489V4.76882L16.3996 8.27178C16.685 8.56345 17.1526 8.56818 17.4438 8.28234C17.7351 7.9965 17.7398 7.52833 17.4544 7.23666L12.7603 2.44024ZM4.0622 11.5913C4.0622 11.183 3.73159 10.8519 3.32376 10.8519C2.91593 10.8519 2.58532 11.183 2.58532 11.5913V19.7453C2.58532 20.1536 2.91593 20.4847 3.32376 20.4847H21.0463C21.4541 20.4847 21.7847 20.1536 21.7847 19.7453V11.5913C21.7847 11.183 21.4541 10.8519 21.0463 10.8519C20.6385 10.8519 20.3079 11.183 20.3079 11.5913V19.0058H4.0622V11.5913Z" fill="#101010"/>
</svg>
