<svg width="24" height="24" viewBox="0 0 24 24" fill="none" xmlns="http://www.w3.org/2000/svg">
<path fill-rule="evenodd" clip-rule="evenodd" d="M12 3.5C10.3155 3.5 8.95001 4.86553 8.95001 6.55C8.95001 8.23447 10.3155 9.6 12 9.6C13.6845 9.6 15.05 8.23447 15.05 6.55C15.05 4.86553 13.6845 3.5 12 3.5ZM7.45001 6.55C7.45001 4.0371 9.48712 2 12 2C14.5129 2 16.55 4.0371 16.55 6.55C16.55 9.0629 14.5129 11.1 12 11.1C9.48712 11.1 7.45001 9.0629 7.45001 6.55Z" fill="#101010"/>
<path fill-rule="evenodd" clip-rule="evenodd" d="M9.79999 13.5C6.906 13.5 4.54999 15.8724 4.54999 18.65V19.55C4.54999 20.1072 4.98505 20.5 5.49998 20.5H18.5C19.0657 20.5 19.4737 20.1447 19.55 19.5092V18.65C19.55 15.7806 17.2023 13.5 14.3 13.5H9.79999ZM3.04999 18.65C3.04999 15.0276 6.09397 12 9.79999 12H14.3C17.9977 12 21.05 14.9194 21.05 18.65V19.55C21.05 19.5749 21.0487 19.5998 21.0463 19.6246C20.9119 20.9679 19.9243 22 18.5 22H5.49998C4.21492 22 3.04999 20.9928 3.04999 19.55V18.65Z" fill="#101010"/>
<path d="M21.3574 17.941C21.3754 17.797 21.3889 17.653 21.3889 17.5C21.3889 17.347 21.3754 17.203 21.3574 17.059L22.3069 16.3165C22.3924 16.249 22.4149 16.1275 22.3609 16.0285L21.4609 14.4715C21.4069 14.3725 21.2854 14.3365 21.1864 14.3725L20.0659 14.8225C19.8319 14.6425 19.5799 14.494 19.3054 14.3815L19.1344 13.189C19.1209 13.081 19.0264 13 18.9139 13H17.1139C17.0014 13 16.9069 13.081 16.8934 13.189L16.7224 14.3815C16.4479 14.494 16.1959 14.647 15.9619 14.8225L14.8414 14.3725C14.7379 14.332 14.6209 14.3725 14.5669 14.4715L13.6669 16.0285C13.6084 16.1275 13.6354 16.249 13.7209 16.3165L14.6704 17.059C14.6524 17.203 14.6389 17.3515 14.6389 17.5C14.6389 17.6485 14.6524 17.797 14.6704 17.941L13.7209 18.6835C13.6354 18.751 13.6129 18.8725 13.6669 18.9715L14.5669 20.5285C14.6209 20.6275 14.7424 20.6635 14.8414 20.6275L15.9619 20.1775C16.1959 20.3575 16.4479 20.506 16.7224 20.6185L16.8934 21.811C16.9069 21.919 17.0014 22 17.1139 22H18.9139C19.0264 22 19.1209 21.919 19.1344 21.811L19.3054 20.6185C19.5799 20.506 19.8319 20.353 20.0659 20.1775L21.1864 20.6275C21.2899 20.668 21.4069 20.6275 21.4609 20.5285L22.3609 18.9715C22.4149 18.8725 22.3924 18.751 22.3069 18.6835L21.3574 17.941Z" fill="white"/>
<path fill-rule="evenodd" clip-rule="evenodd" d="M22.3069 16.3165L21.3574 17.059C21.3754 17.203 21.3889 17.347 21.3889 17.5C21.3889 17.653 21.3754 17.797 21.3574 17.941L22.3069 18.6835C22.3924 18.751 22.4149 18.8725 22.3609 18.9715L21.4609 20.5285C21.4069 20.6275 21.2899 20.668 21.1864 20.6275L20.0659 20.1775C19.8319 20.353 19.5799 20.506 19.3054 20.6185L19.1344 21.811C19.1209 21.919 19.0264 22 18.9139 22H17.1139C17.0014 22 16.9069 21.919 16.8934 21.811L16.7224 20.6185C16.4479 20.506 16.1959 20.3575 15.9619 20.1775L14.8414 20.6275C14.7424 20.6635 14.6209 20.6275 14.5669 20.5285L13.6669 18.9715C13.6129 18.8725 13.6354 18.751 13.7209 18.6835L14.6704 17.941C14.6524 17.797 14.6389 17.6485 14.6389 17.5C14.6389 17.3515 14.6524 17.203 14.6704 17.059L13.7209 16.3165C13.6354 16.249 13.6084 16.1275 13.6669 16.0285L14.5669 14.4715C14.6209 14.3725 14.7379 14.332 14.8414 14.3725L15.9619 14.8225C16.1959 14.647 16.4479 14.494 16.7224 14.3815L16.8934 13.189C16.9069 13.081 17.0014 13 17.1139 13H18.9139C19.0264 13 19.1209 13.081 19.1344 13.189L19.3054 14.3815C19.5799 14.494 19.8319 14.6425 20.0659 14.8225L21.1864 14.3725C21.2854 14.3365 21.4069 14.3725 21.4609 14.4715L22.3609 16.0285C22.4149 16.1275 22.3924 16.249 22.3069 16.3165ZM22.3307 13.978L23.2329 15.5388L23.2388 15.5496C23.512 16.0504 23.4175 16.7138 22.9266 17.1014L22.923 17.1042L22.4169 17.5L22.9266 17.8986C23.4175 18.2862 23.512 18.9496 23.2388 19.4504L23.2329 19.4612L22.3306 21.0222C22.026 21.5631 21.3779 21.7762 20.822 21.5587L20.8138 21.5555L20.2158 21.3153L20.1251 21.9473C20.0404 22.5746 19.5008 23 18.9139 23H17.1139C16.5271 23 15.9875 22.5746 15.9028 21.9473L15.8121 21.3153L15.1987 21.5616L15.1832 21.5673C14.6791 21.7506 14.0181 21.5927 13.6972 21.022L12.795 19.4612L12.789 19.4504C12.5159 18.9496 12.6103 18.2862 13.1013 17.8986L13.1049 17.8958L13.611 17.5L13.1013 17.1014C12.6398 16.7371 12.4843 16.0707 12.8027 15.5254L13.6973 13.9777C14.0019 13.4369 14.65 13.2238 15.2058 13.4413L15.2141 13.4445L15.8121 13.6847L15.9028 13.0526C15.9875 12.4254 16.5271 12 17.1139 12H18.9139C19.5008 12 20.0404 12.4254 20.1251 13.0526L20.2158 13.6847L20.8291 13.4384L20.8447 13.4327C21.3488 13.2494 22.0098 13.4073 22.3307 13.978Z" fill="white"/>
<path fill-rule="evenodd" clip-rule="evenodd" d="M21.3889 17.5C21.3889 17.653 21.3754 17.797 21.3574 17.941L22.3069 18.6835C22.3924 18.751 22.4149 18.8725 22.3609 18.9715L21.4609 20.5285C21.4069 20.6275 21.2899 20.668 21.1864 20.6275L20.0659 20.1775C19.8319 20.353 19.5799 20.506 19.3054 20.6185L19.1344 21.811C19.1209 21.919 19.0264 22 18.9139 22H17.1139C17.0014 22 16.9069 21.919 16.8934 21.811L16.7224 20.6185C16.4479 20.506 16.1959 20.3575 15.9619 20.1775L14.8414 20.6275C14.7424 20.6635 14.6209 20.6275 14.5669 20.5285L13.6669 18.9715C13.6129 18.8725 13.6354 18.751 13.7209 18.6835L14.6704 17.941C14.6524 17.797 14.6389 17.6485 14.6389 17.5C14.6389 17.3515 14.6524 17.203 14.6704 17.059L13.7209 16.3165C13.6354 16.249 13.6084 16.1275 13.6669 16.0285L14.5669 14.4715C14.6209 14.3725 14.7379 14.332 14.8414 14.3725L15.9619 14.8225C16.1959 14.647 16.4479 14.494 16.7224 14.3815L16.8934 13.189C16.9069 13.081 17.0014 13 17.1139 13H18.9139C19.0264 13 19.1209 13.081 19.1344 13.189L19.3054 14.3815C19.5799 14.494 19.8319 14.6425 20.0659 14.8225L21.1864 14.3725C21.2854 14.3365 21.4069 14.3725 21.4609 14.4715L22.3609 16.0285C22.4149 16.1275 22.3924 16.249 22.3069 16.3165L21.3574 17.059C21.3754 17.203 21.3889 17.347 21.3889 17.5ZM16.4389 17.5C16.4389 18.3685 17.1454 19.075 18.0139 19.075C18.8824 19.075 19.5889 18.3685 19.5889 17.5C19.5889 16.6315 18.8824 15.925 18.0139 15.925C17.1454 15.925 16.4389 16.6315 16.4389 17.5Z" fill="#101010"/>
</svg>
