<svg width="24" height="24" viewBox="0 0 24 24" fill="none" xmlns="http://www.w3.org/2000/svg">
<path fill-rule="evenodd" clip-rule="evenodd" d="M3.35834 19.4558C3.35834 15.0781 6.9072 11.5292 11.2849 11.5292H12.8344C17.2122 11.5292 20.761 15.0781 20.761 19.4558C20.761 20.8609 19.622 22 18.2169 22H5.90249C4.49739 22 3.35834 20.8609 3.35834 19.4558ZM11.2849 13.0292C7.73562 13.0292 4.85834 15.9065 4.85834 19.4558C4.85834 20.0325 5.32582 20.5 5.90249 20.5H18.2169C18.7936 20.5 19.261 20.0325 19.261 19.4558C19.261 15.9065 16.3838 13.0292 12.8344 13.0292H11.2849Z" fill="#101010"/>
<path fill-rule="evenodd" clip-rule="evenodd" d="M6.38002 18.3181C6.38002 17.9039 6.71581 17.5681 7.13002 17.5681H9.24875C9.66296 17.5681 9.99875 17.9039 9.99875 18.3181C9.99875 18.7324 9.66296 19.0681 9.24875 19.0681H7.13002C6.71581 19.0681 6.38002 18.7324 6.38002 18.3181Z" fill="#101010"/>
<path fill-rule="evenodd" clip-rule="evenodd" d="M12 3.5C10.3431 3.5 9 4.84315 9 6.5C9 8.15685 10.3431 9.5 12 9.5C13.6569 9.5 15 8.15685 15 6.5C15 4.84315 13.6569 3.5 12 3.5ZM7.5 6.5C7.5 4.01472 9.51472 2 12 2C14.4853 2 16.5 4.01472 16.5 6.5C16.5 8.98528 14.4853 11 12 11C9.51472 11 7.5 8.98528 7.5 6.5Z" fill="#101010"/>
</svg>
