<svg width="24" height="24" viewBox="0 0 24 24" fill="none" xmlns="http://www.w3.org/2000/svg">
<path fill-rule="evenodd" clip-rule="evenodd" d="M12.0006 6.02997C13.9933 6.01469 15.9552 6.52201 17.6908 7.50142C19.4283 8.48195 20.8781 9.90129 21.8952 11.6176C22.0343 11.8524 22.035 12.1442 21.8969 12.3796C20.8846 14.1048 19.4383 15.535 17.7019 16.5281C15.9659 17.5209 14.0003 18.0421 12.0004 18.04C12 18.04 11.9995 18.04 11.9991 18.04L12 17.29L12.0017 18.04C12.0013 18.04 12.0008 18.04 12.0004 18.04C9.99987 18.0443 8.03318 17.5239 6.29656 16.5307C4.55956 15.5374 3.1135 14.1058 2.10272 12.3789C1.96524 12.144 1.9658 11.853 2.10417 11.6187C3.11905 9.89982 4.56855 8.47842 6.30696 7.49739C8.04339 6.51749 10.0069 6.01144 12.0006 6.02997ZM11.9926 7.52996C10.2599 7.51282 8.55322 7.95214 7.04416 8.80374C5.66502 9.58202 4.49534 10.6796 3.63169 12.0017C4.49307 13.3323 5.66151 14.4396 7.04122 15.2286C8.55046 16.0918 10.2597 16.5439 11.9983 16.54L12.0009 16.54C13.7394 16.5421 15.4481 16.089 16.9573 15.226C18.3365 14.4372 19.505 13.3311 20.3676 12.002C19.5021 10.6818 18.3321 9.58572 16.9536 8.80777C15.4447 7.95626 13.7387 7.51565 12.0062 7.52997L11.9926 7.52996Z" fill="#101010"/>
<path fill-rule="evenodd" clip-rule="evenodd" d="M12 9.97998C10.8954 9.97998 10 10.8754 10 11.98C10 13.0845 10.8954 13.98 12 13.98C13.1046 13.98 14 13.0845 14 11.98C14 10.8754 13.1046 9.97998 12 9.97998ZM8.5 11.98C8.5 10.047 10.067 8.47998 12 8.47998C13.933 8.47998 15.5 10.047 15.5 11.98C15.5 13.913 13.933 15.48 12 15.48C10.067 15.48 8.5 13.913 8.5 11.98Z" fill="#101010"/>
</svg>
