<svg width="24" height="24" viewBox="0 0 24 24" fill="none" xmlns="http://www.w3.org/2000/svg">
<path fill-rule="evenodd" clip-rule="evenodd" d="M21.2187 12.0042C21.2235 6.8793 16.9295 2.65237 11.7588 2.78422C6.80551 2.91073 2.73948 7.01879 2.78151 12.0183C2.77202 13.8599 3.32404 15.585 4.27346 17.0306L3.78996 19.5954C3.61417 20.5279 4.50075 21.3085 5.40353 21.0161L7.84569 20.225C9.14755 20.8856 10.6254 21.248 12.1837 21.2169C17.0977 21.1188 21.214 17.044 21.2187 12.0042ZM11.7971 4.28374C16.1213 4.17347 19.7227 7.71907 19.7187 12.0028C19.7148 16.2145 16.2637 19.6352 12.1537 19.7172C10.7511 19.7452 9.42781 19.3928 8.27941 18.7575L7.99474 18.6L5.34204 19.4593L5.86391 16.6909L5.68007 16.4312C4.79045 15.1747 4.2721 13.6513 4.28152 12.0213L4.28158 12.0103C4.24404 7.84251 7.64488 4.38978 11.7971 4.28374Z" fill="#101010"/>
<path d="M15.026 13.9012C15.1944 14.0065 15.303 14.0646 15.3325 14.1377C15.3686 14.2183 15.3267 14.5686 15.1193 14.9552C14.9475 15.3376 14.1866 15.6592 13.8622 15.6476C13.5378 15.6361 13.5119 15.8745 11.8227 14.9698C10.1336 14.0651 9.2276 12.1123 9.15274 11.9861C9.07787 11.86 8.55495 10.9629 8.65156 10.1007C8.75464 9.24613 9.23671 8.87418 9.43279 8.72C9.61593 8.55065 9.80734 8.5446 9.92514 8.57515L10.2554 8.60133C10.3608 8.60968 10.5118 8.57921 10.6169 8.9482L10.9976 10.3008C11.0326 10.3955 11.0523 10.5031 10.9802 10.6105L10.7676 10.8836L10.4701 11.1571C10.3791 11.2347 10.2735 11.3183 10.3579 11.5017C10.4278 11.6911 10.7329 12.3023 11.1864 12.8262C11.7769 13.4953 12.323 13.7436 12.4844 13.8483C12.6453 13.9601 12.7518 13.9544 12.8661 13.8503L13.4877 13.2348C13.6351 13.0697 13.7442 13.1208 13.9014 13.1898L15.026 13.9012Z" fill="black"/>
</svg>
