<svg width="50" height="50" viewBox="0 0 50 50" fill="none" xmlns="http://www.w3.org/2000/svg">
<path d="M25 45.8333C36.4583 45.8333 45.8333 36.4583 45.8333 25C45.8333 13.5417 36.4583 4.16667 25 4.16667C13.5417 4.16667 4.16666 13.5417 4.16666 25C4.16666 36.4583 13.5417 45.8333 25 45.8333Z" fill="#21C179"/>
<path fill-rule="evenodd" clip-rule="evenodd" d="M34.8639 18.6976C35.4682 19.3137 35.4585 20.303 34.8425 20.9072L24.0091 31.5322C23.4069 32.1228 22.4446 32.1289 21.835 31.5458L17.0433 26.9625C16.4197 26.366 16.3978 25.3769 16.9943 24.7533C17.5907 24.1297 18.5798 24.1077 19.2034 24.7042L22.9014 28.2415L32.6543 18.6761C33.2704 18.0719 34.2597 18.0815 34.8639 18.6976Z" fill="white"/>
</svg>
